%TF.GenerationSoftware,KiCad,Pcbnew,(5.1.8)-1*%
%TF.CreationDate,2021-03-22T22:31:27+09:00*%
%TF.ProjectId,inverter_IPM,696e7665-7274-4657-925f-49504d2e6b69,rev?*%
%TF.SameCoordinates,Original*%
%TF.FileFunction,Legend,Bot*%
%TF.FilePolarity,Positive*%
%FSLAX46Y46*%
G04 Gerber Fmt 4.6, Leading zero omitted, Abs format (unit mm)*
G04 Created by KiCad (PCBNEW (5.1.8)-1) date 2021-03-22 22:31:27*
%MOMM*%
%LPD*%
G01*
G04 APERTURE LIST*
%ADD10C,0.300000*%
%ADD11C,0.900000*%
%ADD12C,0.127000*%
%ADD13C,0.200000*%
%ADD14C,0.015000*%
G04 APERTURE END LIST*
D10*
X131429238Y-140870309D02*
X133429238Y-140870309D01*
X133429238Y-140394119D01*
X133334000Y-140108404D01*
X133143523Y-139917928D01*
X132953047Y-139822690D01*
X132572095Y-139727452D01*
X132286380Y-139727452D01*
X131905428Y-139822690D01*
X131714952Y-139917928D01*
X131524476Y-140108404D01*
X131429238Y-140394119D01*
X131429238Y-140870309D01*
X131524476Y-138108404D02*
X131429238Y-138298880D01*
X131429238Y-138679833D01*
X131524476Y-138870309D01*
X131714952Y-138965547D01*
X132476857Y-138965547D01*
X132667333Y-138870309D01*
X132762571Y-138679833D01*
X132762571Y-138298880D01*
X132667333Y-138108404D01*
X132476857Y-138013166D01*
X132286380Y-138013166D01*
X132095904Y-138965547D01*
X132762571Y-137156023D02*
X130762571Y-137156023D01*
X132667333Y-137156023D02*
X132762571Y-136965547D01*
X132762571Y-136584595D01*
X132667333Y-136394119D01*
X132572095Y-136298880D01*
X132381619Y-136203642D01*
X131810190Y-136203642D01*
X131619714Y-136298880D01*
X131524476Y-136394119D01*
X131429238Y-136584595D01*
X131429238Y-136965547D01*
X131524476Y-137156023D01*
X131429238Y-134489357D02*
X132476857Y-134489357D01*
X132667333Y-134584595D01*
X132762571Y-134775071D01*
X132762571Y-135156023D01*
X132667333Y-135346500D01*
X131524476Y-134489357D02*
X131429238Y-134679833D01*
X131429238Y-135156023D01*
X131524476Y-135346500D01*
X131714952Y-135441738D01*
X131905428Y-135441738D01*
X132095904Y-135346500D01*
X132191142Y-135156023D01*
X132191142Y-134679833D01*
X132286380Y-134489357D01*
X131429238Y-133536976D02*
X132762571Y-133536976D01*
X132381619Y-133536976D02*
X132572095Y-133441738D01*
X132667333Y-133346500D01*
X132762571Y-133156023D01*
X132762571Y-132965547D01*
X132762571Y-132584595D02*
X132762571Y-131822690D01*
X133429238Y-132298880D02*
X131714952Y-132298880D01*
X131524476Y-132203642D01*
X131429238Y-132013166D01*
X131429238Y-131822690D01*
X131429238Y-131156023D02*
X132762571Y-131156023D01*
X132572095Y-131156023D02*
X132667333Y-131060785D01*
X132762571Y-130870309D01*
X132762571Y-130584595D01*
X132667333Y-130394119D01*
X132476857Y-130298880D01*
X131429238Y-130298880D01*
X132476857Y-130298880D02*
X132667333Y-130203642D01*
X132762571Y-130013166D01*
X132762571Y-129727452D01*
X132667333Y-129536976D01*
X132476857Y-129441738D01*
X131429238Y-129441738D01*
X131524476Y-127727452D02*
X131429238Y-127917928D01*
X131429238Y-128298880D01*
X131524476Y-128489357D01*
X131714952Y-128584595D01*
X132476857Y-128584595D01*
X132667333Y-128489357D01*
X132762571Y-128298880D01*
X132762571Y-127917928D01*
X132667333Y-127727452D01*
X132476857Y-127632214D01*
X132286380Y-127632214D01*
X132095904Y-128584595D01*
X132762571Y-126775071D02*
X131429238Y-126775071D01*
X132572095Y-126775071D02*
X132667333Y-126679833D01*
X132762571Y-126489357D01*
X132762571Y-126203642D01*
X132667333Y-126013166D01*
X132476857Y-125917928D01*
X131429238Y-125917928D01*
X132762571Y-125251261D02*
X132762571Y-124489357D01*
X133429238Y-124965547D02*
X131714952Y-124965547D01*
X131524476Y-124870309D01*
X131429238Y-124679833D01*
X131429238Y-124489357D01*
X131429238Y-122013166D02*
X131524476Y-122203642D01*
X131619714Y-122298880D01*
X131810190Y-122394119D01*
X132381619Y-122394119D01*
X132572095Y-122298880D01*
X132667333Y-122203642D01*
X132762571Y-122013166D01*
X132762571Y-121727452D01*
X132667333Y-121536976D01*
X132572095Y-121441738D01*
X132381619Y-121346500D01*
X131810190Y-121346500D01*
X131619714Y-121441738D01*
X131524476Y-121536976D01*
X131429238Y-121727452D01*
X131429238Y-122013166D01*
X132762571Y-120775071D02*
X132762571Y-120013166D01*
X131429238Y-120489357D02*
X133143523Y-120489357D01*
X133334000Y-120394119D01*
X133429238Y-120203642D01*
X133429238Y-120013166D01*
X132476857Y-117822690D02*
X132476857Y-117156023D01*
X131429238Y-116870309D02*
X131429238Y-117822690D01*
X133429238Y-117822690D01*
X133429238Y-116870309D01*
X131429238Y-115727452D02*
X131524476Y-115917928D01*
X131714952Y-116013166D01*
X133429238Y-116013166D01*
X131524476Y-114203642D02*
X131429238Y-114394119D01*
X131429238Y-114775071D01*
X131524476Y-114965547D01*
X131714952Y-115060785D01*
X132476857Y-115060785D01*
X132667333Y-114965547D01*
X132762571Y-114775071D01*
X132762571Y-114394119D01*
X132667333Y-114203642D01*
X132476857Y-114108404D01*
X132286380Y-114108404D01*
X132095904Y-115060785D01*
X131524476Y-112394119D02*
X131429238Y-112584595D01*
X131429238Y-112965547D01*
X131524476Y-113156023D01*
X131619714Y-113251261D01*
X131810190Y-113346500D01*
X132381619Y-113346500D01*
X132572095Y-113251261D01*
X132667333Y-113156023D01*
X132762571Y-112965547D01*
X132762571Y-112584595D01*
X132667333Y-112394119D01*
X132762571Y-111822690D02*
X132762571Y-111060785D01*
X133429238Y-111536976D02*
X131714952Y-111536976D01*
X131524476Y-111441738D01*
X131429238Y-111251261D01*
X131429238Y-111060785D01*
X131429238Y-110394119D02*
X132762571Y-110394119D01*
X132381619Y-110394119D02*
X132572095Y-110298880D01*
X132667333Y-110203642D01*
X132762571Y-110013166D01*
X132762571Y-109822690D01*
X131429238Y-109156023D02*
X132762571Y-109156023D01*
X133429238Y-109156023D02*
X133334000Y-109251261D01*
X133238761Y-109156023D01*
X133334000Y-109060785D01*
X133429238Y-109156023D01*
X133238761Y-109156023D01*
X131524476Y-107346500D02*
X131429238Y-107536976D01*
X131429238Y-107917928D01*
X131524476Y-108108404D01*
X131619714Y-108203642D01*
X131810190Y-108298880D01*
X132381619Y-108298880D01*
X132572095Y-108203642D01*
X132667333Y-108108404D01*
X132762571Y-107917928D01*
X132762571Y-107536976D01*
X132667333Y-107346500D01*
X131429238Y-105632214D02*
X132476857Y-105632214D01*
X132667333Y-105727452D01*
X132762571Y-105917928D01*
X132762571Y-106298880D01*
X132667333Y-106489357D01*
X131524476Y-105632214D02*
X131429238Y-105822690D01*
X131429238Y-106298880D01*
X131524476Y-106489357D01*
X131714952Y-106584595D01*
X131905428Y-106584595D01*
X132095904Y-106489357D01*
X132191142Y-106298880D01*
X132191142Y-105822690D01*
X132286380Y-105632214D01*
X131429238Y-104394119D02*
X131524476Y-104584595D01*
X131714952Y-104679833D01*
X133429238Y-104679833D01*
X131429238Y-101251261D02*
X132476857Y-101251261D01*
X132667333Y-101346500D01*
X132762571Y-101536976D01*
X132762571Y-101917928D01*
X132667333Y-102108404D01*
X131524476Y-101251261D02*
X131429238Y-101441738D01*
X131429238Y-101917928D01*
X131524476Y-102108404D01*
X131714952Y-102203642D01*
X131905428Y-102203642D01*
X132095904Y-102108404D01*
X132191142Y-101917928D01*
X132191142Y-101441738D01*
X132286380Y-101251261D01*
X132762571Y-100298880D02*
X131429238Y-100298880D01*
X132572095Y-100298880D02*
X132667333Y-100203642D01*
X132762571Y-100013166D01*
X132762571Y-99727452D01*
X132667333Y-99536976D01*
X132476857Y-99441738D01*
X131429238Y-99441738D01*
X131429238Y-97632214D02*
X133429238Y-97632214D01*
X131524476Y-97632214D02*
X131429238Y-97822690D01*
X131429238Y-98203642D01*
X131524476Y-98394119D01*
X131619714Y-98489357D01*
X131810190Y-98584595D01*
X132381619Y-98584595D01*
X132572095Y-98489357D01*
X132667333Y-98394119D01*
X132762571Y-98203642D01*
X132762571Y-97822690D01*
X132667333Y-97632214D01*
X131619714Y-94013166D02*
X131524476Y-94108404D01*
X131429238Y-94394119D01*
X131429238Y-94584595D01*
X131524476Y-94870309D01*
X131714952Y-95060785D01*
X131905428Y-95156023D01*
X132286380Y-95251261D01*
X132572095Y-95251261D01*
X132953047Y-95156023D01*
X133143523Y-95060785D01*
X133334000Y-94870309D01*
X133429238Y-94584595D01*
X133429238Y-94394119D01*
X133334000Y-94108404D01*
X133238761Y-94013166D01*
X131429238Y-92870309D02*
X131524476Y-93060785D01*
X131619714Y-93156023D01*
X131810190Y-93251261D01*
X132381619Y-93251261D01*
X132572095Y-93156023D01*
X132667333Y-93060785D01*
X132762571Y-92870309D01*
X132762571Y-92584595D01*
X132667333Y-92394119D01*
X132572095Y-92298880D01*
X132381619Y-92203642D01*
X131810190Y-92203642D01*
X131619714Y-92298880D01*
X131524476Y-92394119D01*
X131429238Y-92584595D01*
X131429238Y-92870309D01*
X131429238Y-91346500D02*
X132762571Y-91346500D01*
X132572095Y-91346500D02*
X132667333Y-91251261D01*
X132762571Y-91060785D01*
X132762571Y-90775071D01*
X132667333Y-90584595D01*
X132476857Y-90489357D01*
X131429238Y-90489357D01*
X132476857Y-90489357D02*
X132667333Y-90394119D01*
X132762571Y-90203642D01*
X132762571Y-89917928D01*
X132667333Y-89727452D01*
X132476857Y-89632214D01*
X131429238Y-89632214D01*
X132762571Y-88679833D02*
X130762571Y-88679833D01*
X132667333Y-88679833D02*
X132762571Y-88489357D01*
X132762571Y-88108404D01*
X132667333Y-87917928D01*
X132572095Y-87822690D01*
X132381619Y-87727452D01*
X131810190Y-87727452D01*
X131619714Y-87822690D01*
X131524476Y-87917928D01*
X131429238Y-88108404D01*
X131429238Y-88489357D01*
X131524476Y-88679833D01*
X132762571Y-86013166D02*
X131429238Y-86013166D01*
X132762571Y-86870309D02*
X131714952Y-86870309D01*
X131524476Y-86775071D01*
X131429238Y-86584595D01*
X131429238Y-86298880D01*
X131524476Y-86108404D01*
X131619714Y-86013166D01*
X132762571Y-85346500D02*
X132762571Y-84584595D01*
X133429238Y-85060785D02*
X131714952Y-85060785D01*
X131524476Y-84965547D01*
X131429238Y-84775071D01*
X131429238Y-84584595D01*
X131524476Y-83156023D02*
X131429238Y-83346500D01*
X131429238Y-83727452D01*
X131524476Y-83917928D01*
X131714952Y-84013166D01*
X132476857Y-84013166D01*
X132667333Y-83917928D01*
X132762571Y-83727452D01*
X132762571Y-83346500D01*
X132667333Y-83156023D01*
X132476857Y-83060785D01*
X132286380Y-83060785D01*
X132095904Y-84013166D01*
X131429238Y-82203642D02*
X132762571Y-82203642D01*
X132381619Y-82203642D02*
X132572095Y-82108404D01*
X132667333Y-82013166D01*
X132762571Y-81822690D01*
X132762571Y-81632214D01*
X132476857Y-79441738D02*
X132476857Y-78775071D01*
X131429238Y-78489357D02*
X131429238Y-79441738D01*
X133429238Y-79441738D01*
X133429238Y-78489357D01*
X132762571Y-77632214D02*
X131429238Y-77632214D01*
X132572095Y-77632214D02*
X132667333Y-77536976D01*
X132762571Y-77346500D01*
X132762571Y-77060785D01*
X132667333Y-76870309D01*
X132476857Y-76775071D01*
X131429238Y-76775071D01*
X132762571Y-74965547D02*
X131143523Y-74965547D01*
X130953047Y-75060785D01*
X130857809Y-75156023D01*
X130762571Y-75346500D01*
X130762571Y-75632214D01*
X130857809Y-75822690D01*
X131524476Y-74965547D02*
X131429238Y-75156023D01*
X131429238Y-75536976D01*
X131524476Y-75727452D01*
X131619714Y-75822690D01*
X131810190Y-75917928D01*
X132381619Y-75917928D01*
X132572095Y-75822690D01*
X132667333Y-75727452D01*
X132762571Y-75536976D01*
X132762571Y-75156023D01*
X132667333Y-74965547D01*
X131429238Y-74013166D02*
X132762571Y-74013166D01*
X133429238Y-74013166D02*
X133334000Y-74108404D01*
X133238761Y-74013166D01*
X133334000Y-73917928D01*
X133429238Y-74013166D01*
X133238761Y-74013166D01*
X132762571Y-73060785D02*
X131429238Y-73060785D01*
X132572095Y-73060785D02*
X132667333Y-72965547D01*
X132762571Y-72775071D01*
X132762571Y-72489357D01*
X132667333Y-72298880D01*
X132476857Y-72203642D01*
X131429238Y-72203642D01*
X131524476Y-70489357D02*
X131429238Y-70679833D01*
X131429238Y-71060785D01*
X131524476Y-71251261D01*
X131714952Y-71346500D01*
X132476857Y-71346500D01*
X132667333Y-71251261D01*
X132762571Y-71060785D01*
X132762571Y-70679833D01*
X132667333Y-70489357D01*
X132476857Y-70394119D01*
X132286380Y-70394119D01*
X132095904Y-71346500D01*
X131524476Y-68775071D02*
X131429238Y-68965547D01*
X131429238Y-69346500D01*
X131524476Y-69536976D01*
X131714952Y-69632214D01*
X132476857Y-69632214D01*
X132667333Y-69536976D01*
X132762571Y-69346500D01*
X132762571Y-68965547D01*
X132667333Y-68775071D01*
X132476857Y-68679833D01*
X132286380Y-68679833D01*
X132095904Y-69632214D01*
X131429238Y-67822690D02*
X132762571Y-67822690D01*
X132381619Y-67822690D02*
X132572095Y-67727452D01*
X132667333Y-67632214D01*
X132762571Y-67441738D01*
X132762571Y-67251261D01*
X131429238Y-66584595D02*
X132762571Y-66584595D01*
X133429238Y-66584595D02*
X133334000Y-66679833D01*
X133238761Y-66584595D01*
X133334000Y-66489357D01*
X133429238Y-66584595D01*
X133238761Y-66584595D01*
X132762571Y-65632214D02*
X131429238Y-65632214D01*
X132572095Y-65632214D02*
X132667333Y-65536976D01*
X132762571Y-65346500D01*
X132762571Y-65060785D01*
X132667333Y-64870309D01*
X132476857Y-64775071D01*
X131429238Y-64775071D01*
X132762571Y-62965547D02*
X131143523Y-62965547D01*
X130953047Y-63060785D01*
X130857809Y-63156023D01*
X130762571Y-63346500D01*
X130762571Y-63632214D01*
X130857809Y-63822690D01*
X131524476Y-62965547D02*
X131429238Y-63156023D01*
X131429238Y-63536976D01*
X131524476Y-63727452D01*
X131619714Y-63822690D01*
X131810190Y-63917928D01*
X132381619Y-63917928D01*
X132572095Y-63822690D01*
X132667333Y-63727452D01*
X132762571Y-63536976D01*
X132762571Y-63156023D01*
X132667333Y-62965547D01*
X134889976Y-140965547D02*
X134794738Y-140679833D01*
X134794738Y-140203642D01*
X134889976Y-140013166D01*
X134985214Y-139917928D01*
X135175690Y-139822690D01*
X135366166Y-139822690D01*
X135556642Y-139917928D01*
X135651880Y-140013166D01*
X135747119Y-140203642D01*
X135842357Y-140584595D01*
X135937595Y-140775071D01*
X136032833Y-140870309D01*
X136223309Y-140965547D01*
X136413785Y-140965547D01*
X136604261Y-140870309D01*
X136699500Y-140775071D01*
X136794738Y-140584595D01*
X136794738Y-140108404D01*
X136699500Y-139822690D01*
X134889976Y-138203642D02*
X134794738Y-138394119D01*
X134794738Y-138775071D01*
X134889976Y-138965547D01*
X135080452Y-139060785D01*
X135842357Y-139060785D01*
X136032833Y-138965547D01*
X136128071Y-138775071D01*
X136128071Y-138394119D01*
X136032833Y-138203642D01*
X135842357Y-138108404D01*
X135651880Y-138108404D01*
X135461404Y-139060785D01*
X134794738Y-136965547D02*
X134889976Y-137156023D01*
X134985214Y-137251261D01*
X135175690Y-137346500D01*
X135747119Y-137346500D01*
X135937595Y-137251261D01*
X136032833Y-137156023D01*
X136128071Y-136965547D01*
X136128071Y-136679833D01*
X136032833Y-136489357D01*
X135937595Y-136394119D01*
X135747119Y-136298880D01*
X135175690Y-136298880D01*
X134985214Y-136394119D01*
X134889976Y-136489357D01*
X134794738Y-136679833D01*
X134794738Y-136965547D01*
X136128071Y-134584595D02*
X134794738Y-134584595D01*
X136128071Y-135441738D02*
X135080452Y-135441738D01*
X134889976Y-135346500D01*
X134794738Y-135156023D01*
X134794738Y-134870309D01*
X134889976Y-134679833D01*
X134985214Y-134584595D01*
X134794738Y-133346500D02*
X134889976Y-133536976D01*
X135080452Y-133632214D01*
X136794738Y-133632214D01*
X134794738Y-131060785D02*
X136794738Y-131060785D01*
X134794738Y-129917928D01*
X136794738Y-129917928D01*
X134794738Y-128108404D02*
X135842357Y-128108404D01*
X136032833Y-128203642D01*
X136128071Y-128394119D01*
X136128071Y-128775071D01*
X136032833Y-128965547D01*
X134889976Y-128108404D02*
X134794738Y-128298880D01*
X134794738Y-128775071D01*
X134889976Y-128965547D01*
X135080452Y-129060785D01*
X135270928Y-129060785D01*
X135461404Y-128965547D01*
X135556642Y-128775071D01*
X135556642Y-128298880D01*
X135651880Y-128108404D01*
X136128071Y-127441738D02*
X136128071Y-126679833D01*
X136794738Y-127156023D02*
X135080452Y-127156023D01*
X134889976Y-127060785D01*
X134794738Y-126870309D01*
X134794738Y-126679833D01*
X134794738Y-126013166D02*
X136128071Y-126013166D01*
X136794738Y-126013166D02*
X136699500Y-126108404D01*
X136604261Y-126013166D01*
X136699500Y-125917928D01*
X136794738Y-126013166D01*
X136604261Y-126013166D01*
X134794738Y-124775071D02*
X134889976Y-124965547D01*
X134985214Y-125060785D01*
X135175690Y-125156023D01*
X135747119Y-125156023D01*
X135937595Y-125060785D01*
X136032833Y-124965547D01*
X136128071Y-124775071D01*
X136128071Y-124489357D01*
X136032833Y-124298880D01*
X135937595Y-124203642D01*
X135747119Y-124108404D01*
X135175690Y-124108404D01*
X134985214Y-124203642D01*
X134889976Y-124298880D01*
X134794738Y-124489357D01*
X134794738Y-124775071D01*
X136128071Y-123251261D02*
X134794738Y-123251261D01*
X135937595Y-123251261D02*
X136032833Y-123156023D01*
X136128071Y-122965547D01*
X136128071Y-122679833D01*
X136032833Y-122489357D01*
X135842357Y-122394119D01*
X134794738Y-122394119D01*
X134794738Y-120584595D02*
X135842357Y-120584595D01*
X136032833Y-120679833D01*
X136128071Y-120870309D01*
X136128071Y-121251261D01*
X136032833Y-121441738D01*
X134889976Y-120584595D02*
X134794738Y-120775071D01*
X134794738Y-121251261D01*
X134889976Y-121441738D01*
X135080452Y-121536976D01*
X135270928Y-121536976D01*
X135461404Y-121441738D01*
X135556642Y-121251261D01*
X135556642Y-120775071D01*
X135651880Y-120584595D01*
X134794738Y-119346500D02*
X134889976Y-119536976D01*
X135080452Y-119632214D01*
X136794738Y-119632214D01*
X136794738Y-117060785D02*
X135175690Y-117060785D01*
X134985214Y-116965547D01*
X134889976Y-116870309D01*
X134794738Y-116679833D01*
X134794738Y-116298880D01*
X134889976Y-116108404D01*
X134985214Y-116013166D01*
X135175690Y-115917928D01*
X136794738Y-115917928D01*
X136128071Y-114965547D02*
X134794738Y-114965547D01*
X135937595Y-114965547D02*
X136032833Y-114870309D01*
X136128071Y-114679833D01*
X136128071Y-114394119D01*
X136032833Y-114203642D01*
X135842357Y-114108404D01*
X134794738Y-114108404D01*
X134794738Y-113156023D02*
X136128071Y-113156023D01*
X136794738Y-113156023D02*
X136699500Y-113251261D01*
X136604261Y-113156023D01*
X136699500Y-113060785D01*
X136794738Y-113156023D01*
X136604261Y-113156023D01*
X136128071Y-112394119D02*
X134794738Y-111917928D01*
X136128071Y-111441738D01*
X134889976Y-109917928D02*
X134794738Y-110108404D01*
X134794738Y-110489357D01*
X134889976Y-110679833D01*
X135080452Y-110775071D01*
X135842357Y-110775071D01*
X136032833Y-110679833D01*
X136128071Y-110489357D01*
X136128071Y-110108404D01*
X136032833Y-109917928D01*
X135842357Y-109822690D01*
X135651880Y-109822690D01*
X135461404Y-110775071D01*
X134794738Y-108965547D02*
X136128071Y-108965547D01*
X135747119Y-108965547D02*
X135937595Y-108870309D01*
X136032833Y-108775071D01*
X136128071Y-108584595D01*
X136128071Y-108394119D01*
X134889976Y-107822690D02*
X134794738Y-107632214D01*
X134794738Y-107251261D01*
X134889976Y-107060785D01*
X135080452Y-106965547D01*
X135175690Y-106965547D01*
X135366166Y-107060785D01*
X135461404Y-107251261D01*
X135461404Y-107536976D01*
X135556642Y-107727452D01*
X135747119Y-107822690D01*
X135842357Y-107822690D01*
X136032833Y-107727452D01*
X136128071Y-107536976D01*
X136128071Y-107251261D01*
X136032833Y-107060785D01*
X134794738Y-106108404D02*
X136128071Y-106108404D01*
X136794738Y-106108404D02*
X136699500Y-106203642D01*
X136604261Y-106108404D01*
X136699500Y-106013166D01*
X136794738Y-106108404D01*
X136604261Y-106108404D01*
X136128071Y-105441738D02*
X136128071Y-104679833D01*
X136794738Y-105156023D02*
X135080452Y-105156023D01*
X134889976Y-105060785D01*
X134794738Y-104870309D01*
X134794738Y-104679833D01*
X136128071Y-104203642D02*
X134794738Y-103727452D01*
X136128071Y-103251261D02*
X134794738Y-103727452D01*
X134318547Y-103917928D01*
X134223309Y-104013166D01*
X134128071Y-104203642D01*
X144414738Y-140298880D02*
X142986166Y-140298880D01*
X142700452Y-140394119D01*
X142509976Y-140584595D01*
X142414738Y-140870309D01*
X142414738Y-141060785D01*
X142414738Y-138489357D02*
X143462357Y-138489357D01*
X143652833Y-138584595D01*
X143748071Y-138775071D01*
X143748071Y-139156023D01*
X143652833Y-139346500D01*
X142509976Y-138489357D02*
X142414738Y-138679833D01*
X142414738Y-139156023D01*
X142509976Y-139346500D01*
X142700452Y-139441738D01*
X142890928Y-139441738D01*
X143081404Y-139346500D01*
X143176642Y-139156023D01*
X143176642Y-138679833D01*
X143271880Y-138489357D01*
X142509976Y-136775071D02*
X142414738Y-136965547D01*
X142414738Y-137346500D01*
X142509976Y-137536976D01*
X142700452Y-137632214D01*
X143462357Y-137632214D01*
X143652833Y-137536976D01*
X143748071Y-137346500D01*
X143748071Y-136965547D01*
X143652833Y-136775071D01*
X143462357Y-136679833D01*
X143271880Y-136679833D01*
X143081404Y-137632214D01*
X143748071Y-136013166D02*
X142414738Y-135536976D01*
X143748071Y-135060785D02*
X142414738Y-135536976D01*
X141938547Y-135727452D01*
X141843309Y-135822690D01*
X141748071Y-136013166D01*
X142509976Y-133536976D02*
X142414738Y-133727452D01*
X142414738Y-134108404D01*
X142509976Y-134298880D01*
X142700452Y-134394119D01*
X143462357Y-134394119D01*
X143652833Y-134298880D01*
X143748071Y-134108404D01*
X143748071Y-133727452D01*
X143652833Y-133536976D01*
X143462357Y-133441738D01*
X143271880Y-133441738D01*
X143081404Y-134394119D01*
X142414738Y-132298880D02*
X142509976Y-132489357D01*
X142605214Y-132584595D01*
X142795690Y-132679833D01*
X143367119Y-132679833D01*
X143557595Y-132584595D01*
X143652833Y-132489357D01*
X143748071Y-132298880D01*
X143748071Y-132013166D01*
X143652833Y-131822690D01*
X143557595Y-131727452D01*
X143367119Y-131632214D01*
X142795690Y-131632214D01*
X142605214Y-131727452D01*
X142509976Y-131822690D01*
X142414738Y-132013166D01*
X142414738Y-132298880D01*
X143748071Y-130775071D02*
X142414738Y-130775071D01*
X143557595Y-130775071D02*
X143652833Y-130679833D01*
X143748071Y-130489357D01*
X143748071Y-130203642D01*
X143652833Y-130013166D01*
X143462357Y-129917928D01*
X142414738Y-129917928D01*
X142414738Y-127441738D02*
X144414738Y-127441738D01*
X144414738Y-126679833D01*
X144319500Y-126489357D01*
X144224261Y-126394119D01*
X144033785Y-126298880D01*
X143748071Y-126298880D01*
X143557595Y-126394119D01*
X143462357Y-126489357D01*
X143367119Y-126679833D01*
X143367119Y-127441738D01*
X142414738Y-124584595D02*
X143462357Y-124584595D01*
X143652833Y-124679833D01*
X143748071Y-124870309D01*
X143748071Y-125251261D01*
X143652833Y-125441738D01*
X142509976Y-124584595D02*
X142414738Y-124775071D01*
X142414738Y-125251261D01*
X142509976Y-125441738D01*
X142700452Y-125536976D01*
X142890928Y-125536976D01*
X143081404Y-125441738D01*
X143176642Y-125251261D01*
X143176642Y-124775071D01*
X143271880Y-124584595D01*
X142414738Y-123632214D02*
X143748071Y-123632214D01*
X143367119Y-123632214D02*
X143557595Y-123536976D01*
X143652833Y-123441738D01*
X143748071Y-123251261D01*
X143748071Y-123060785D01*
X142414738Y-122394119D02*
X144414738Y-122394119D01*
X143176642Y-122203642D02*
X142414738Y-121632214D01*
X143748071Y-121632214D02*
X142986166Y-122394119D01*
X142509976Y-120679833D02*
X142414738Y-120679833D01*
X142224261Y-120775071D01*
X142129023Y-120870309D01*
X143462357Y-118298880D02*
X143462357Y-117632214D01*
X142414738Y-117346500D02*
X142414738Y-118298880D01*
X144414738Y-118298880D01*
X144414738Y-117346500D01*
X143748071Y-115632214D02*
X142414738Y-115632214D01*
X143748071Y-116489357D02*
X142700452Y-116489357D01*
X142509976Y-116394119D01*
X142414738Y-116203642D01*
X142414738Y-115917928D01*
X142509976Y-115727452D01*
X142605214Y-115632214D01*
X143748071Y-114679833D02*
X142414738Y-114679833D01*
X143557595Y-114679833D02*
X143652833Y-114584595D01*
X143748071Y-114394119D01*
X143748071Y-114108404D01*
X143652833Y-113917928D01*
X143462357Y-113822690D01*
X142414738Y-113822690D01*
X143748071Y-112870309D02*
X142033785Y-112870309D01*
X141843309Y-112965547D01*
X141748071Y-113156023D01*
X141748071Y-113251261D01*
X144414738Y-112870309D02*
X144319500Y-112965547D01*
X144224261Y-112870309D01*
X144319500Y-112775071D01*
X144414738Y-112870309D01*
X144224261Y-112870309D01*
X142414738Y-111917928D02*
X143748071Y-111917928D01*
X144414738Y-111917928D02*
X144319500Y-112013166D01*
X144224261Y-111917928D01*
X144319500Y-111822690D01*
X144414738Y-111917928D01*
X144224261Y-111917928D01*
X143748071Y-110965547D02*
X142414738Y-110965547D01*
X143557595Y-110965547D02*
X143652833Y-110870309D01*
X143748071Y-110679833D01*
X143748071Y-110394119D01*
X143652833Y-110203642D01*
X143462357Y-110108404D01*
X142414738Y-110108404D01*
X142414738Y-106679833D02*
X142414738Y-107632214D01*
X144414738Y-107632214D01*
X142509976Y-105251261D02*
X142414738Y-105441738D01*
X142414738Y-105822690D01*
X142509976Y-106013166D01*
X142700452Y-106108404D01*
X143462357Y-106108404D01*
X143652833Y-106013166D01*
X143748071Y-105822690D01*
X143748071Y-105441738D01*
X143652833Y-105251261D01*
X143462357Y-105156023D01*
X143271880Y-105156023D01*
X143081404Y-106108404D01*
X142509976Y-103536976D02*
X142414738Y-103727452D01*
X142414738Y-104108404D01*
X142509976Y-104298880D01*
X142700452Y-104394119D01*
X143462357Y-104394119D01*
X143652833Y-104298880D01*
X143748071Y-104108404D01*
X143748071Y-103727452D01*
X143652833Y-103536976D01*
X143462357Y-103441738D01*
X143271880Y-103441738D01*
X143081404Y-104394119D01*
D11*
X152002785Y-139099357D02*
X152288500Y-138777928D01*
X152574214Y-138170785D01*
X152574214Y-136742214D01*
X152288500Y-136206500D01*
X152002785Y-135956500D01*
X151431357Y-135742214D01*
X150859928Y-135813642D01*
X150002785Y-136206500D01*
X146574214Y-140063642D01*
X146574214Y-136349357D01*
X152574214Y-131885071D02*
X152574214Y-131313642D01*
X152288500Y-130777928D01*
X152002785Y-130527928D01*
X151431357Y-130313642D01*
X150288500Y-130170785D01*
X148859928Y-130349357D01*
X147717071Y-130777928D01*
X147145642Y-131135071D01*
X146859928Y-131456500D01*
X146574214Y-132063642D01*
X146574214Y-132635071D01*
X146859928Y-133170785D01*
X147145642Y-133420785D01*
X147717071Y-133635071D01*
X148859928Y-133777928D01*
X150288500Y-133599357D01*
X151431357Y-133170785D01*
X152002785Y-132813642D01*
X152288500Y-132492214D01*
X152574214Y-131885071D01*
X152002785Y-127670785D02*
X152288500Y-127349357D01*
X152574214Y-126742214D01*
X152574214Y-125313642D01*
X152288500Y-124777928D01*
X152002785Y-124527928D01*
X151431357Y-124313642D01*
X150859928Y-124385071D01*
X150002785Y-124777928D01*
X146574214Y-128635071D01*
X146574214Y-124920785D01*
X146574214Y-119206500D02*
X146574214Y-122635071D01*
X146574214Y-120920785D02*
X152574214Y-120170785D01*
X151717071Y-120849357D01*
X151145642Y-121492214D01*
X150859928Y-122099357D01*
X149717071Y-109670785D02*
X149431357Y-108849357D01*
X149145642Y-108599357D01*
X148574214Y-108385071D01*
X147717071Y-108492214D01*
X147145642Y-108849357D01*
X146859928Y-109170785D01*
X146574214Y-109777928D01*
X146574214Y-112063642D01*
X152574214Y-111313642D01*
X152574214Y-109313642D01*
X152288500Y-108777928D01*
X152002785Y-108527928D01*
X151431357Y-108313642D01*
X150859928Y-108385071D01*
X150288500Y-108742214D01*
X150002785Y-109063642D01*
X149717071Y-109670785D01*
X149717071Y-111670785D01*
X149717071Y-105670785D02*
X149717071Y-103670785D01*
X146574214Y-103206500D02*
X146574214Y-106063642D01*
X152574214Y-105313642D01*
X152574214Y-102456500D01*
X152574214Y-100742214D02*
X146574214Y-99492214D01*
X152574214Y-96742214D01*
D12*
%TO.C,U9*%
X89916000Y-55245000D02*
X115316000Y-55245000D01*
X115316000Y-55245000D02*
X115316000Y-29845000D01*
X115316000Y-29845000D02*
X89916000Y-29845000D01*
X89916000Y-29845000D02*
X89916000Y-55245000D01*
D13*
X116216000Y-39945000D02*
G75*
G03*
X116216000Y-39945000I-100000J0D01*
G01*
D12*
%TO.C,U1*%
X76873100Y-52781200D02*
X76873100Y-27381200D01*
X76873100Y-27381200D02*
X51473100Y-27381200D01*
X51473100Y-27381200D02*
X51473100Y-52781200D01*
X51473100Y-52781200D02*
X76873100Y-52781200D01*
D13*
X61673100Y-26581200D02*
G75*
G03*
X61673100Y-26581200I-100000J0D01*
G01*
%TO.C,U9*%
D14*
X115823212Y-51621843D02*
X116633960Y-51621843D01*
X116729342Y-51669534D01*
X116777033Y-51717225D01*
X116824724Y-51812607D01*
X116824724Y-52003371D01*
X116777033Y-52098753D01*
X116729342Y-52146444D01*
X116633960Y-52194135D01*
X115823212Y-52194135D01*
X116824724Y-52718737D02*
X116824724Y-52909501D01*
X116777033Y-53004883D01*
X116729342Y-53052574D01*
X116586269Y-53147956D01*
X116395505Y-53195647D01*
X116013977Y-53195647D01*
X115918595Y-53147956D01*
X115870904Y-53100265D01*
X115823212Y-53004883D01*
X115823212Y-52814119D01*
X115870904Y-52718737D01*
X115918595Y-52671046D01*
X116013977Y-52623355D01*
X116252432Y-52623355D01*
X116347814Y-52671046D01*
X116395505Y-52718737D01*
X116443196Y-52814119D01*
X116443196Y-53004883D01*
X116395505Y-53100265D01*
X116347814Y-53147956D01*
X116252432Y-53195647D01*
%TO.C,U1*%
X74776704Y-25776018D02*
X74776704Y-26586817D01*
X74729010Y-26682205D01*
X74681316Y-26729899D01*
X74585928Y-26777593D01*
X74395152Y-26777593D01*
X74299764Y-26729899D01*
X74252070Y-26682205D01*
X74204376Y-26586817D01*
X74204376Y-25776018D01*
X73202801Y-26777593D02*
X73775129Y-26777593D01*
X73488965Y-26777593D02*
X73488965Y-25776018D01*
X73584353Y-25919100D01*
X73679741Y-26014488D01*
X73775129Y-26062182D01*
%TD*%
M02*
