%FSLAX45Y45*%
G04 Gerber Fmt 4.5, Leading zero omitted, Abs format (unit mm)*
G04 Created by KiCad (PCBNEW (5.1.8)-1) date 2021-03-22 22:30:29*
%MOMM*%
%LPD*%
G01*
G04 APERTURE LIST*
%TA.AperFunction,Profile*%
%ADD10C,0.050000*%
%TD*%
%ADD11C,0.200000*%
%ADD12C,0.300000*%
G04 APERTURE END LIST*
D10*
X9461500Y-15176500D02*
X9906000Y-15176500D01*
X9461500Y-7683500D02*
X9906000Y-7683500D01*
X9461500Y-15176500D02*
X9461500Y-7683500D01*
X9906000Y-7683500D02*
X9906000Y-15176500D01*
X20193000Y-7556500D02*
X21209000Y-7556500D01*
X20193000Y-15176500D02*
X20193000Y-7556500D01*
X21209000Y-15176500D02*
X20193000Y-15176500D01*
X21209000Y-7556500D02*
X21209000Y-15176500D01*
X23926800Y-1358900D02*
X9753600Y-1358900D01*
X23926800Y-16441700D02*
X23926800Y-1358900D01*
X1270000Y-16441700D02*
X23926800Y-16441700D01*
X1270000Y-1358900D02*
X1270000Y-16441700D01*
X9753600Y-1358900D02*
X1270000Y-1358900D01*
D11*
X12660560Y-4582900D02*
X12680560Y-4602900D01*
X12680560Y-4582900D02*
X12660560Y-4602900D01*
X12660560Y-4712900D02*
X12680560Y-4732900D01*
X12680560Y-4712900D02*
X12660560Y-4732900D01*
X12660560Y-4842900D02*
X12680560Y-4862900D01*
X12680560Y-4842900D02*
X12660560Y-4862900D01*
X12660560Y-4972900D02*
X12680560Y-4992900D01*
X12680560Y-4972900D02*
X12660560Y-4992900D01*
X12790560Y-4582900D02*
X12810560Y-4602900D01*
X12810560Y-4582900D02*
X12790560Y-4602900D01*
X12790560Y-4712900D02*
X12810560Y-4732900D01*
X12810560Y-4712900D02*
X12790560Y-4732900D01*
X12790560Y-4842900D02*
X12810560Y-4862900D01*
X12810560Y-4842900D02*
X12790560Y-4862900D01*
X12790560Y-4972900D02*
X12810560Y-4992900D01*
X12810560Y-4972900D02*
X12790560Y-4992900D01*
X1379800Y-3898900D02*
G75*
G03*
X1379800Y-3898900I-20000J0D01*
G01*
X4188775Y-8423275D02*
G75*
G03*
X4188775Y-8423275I-20000J0D01*
G01*
X4388800Y-9340850D02*
G75*
G03*
X4388800Y-9340850I-20000J0D01*
G01*
X4560250Y-10420350D02*
G75*
G03*
X4560250Y-10420350I-20000J0D01*
G01*
X4617400Y-9804400D02*
G75*
G03*
X4617400Y-9804400I-20000J0D01*
G01*
X4795200Y-4152900D02*
G75*
G03*
X4795200Y-4152900I-20000J0D01*
G01*
X4795200Y-5321300D02*
G75*
G03*
X4795200Y-5321300I-20000J0D01*
G01*
X4922200Y-2575500D02*
G75*
G03*
X4922200Y-2575500I-20000J0D01*
G01*
X5150800Y-9385300D02*
G75*
G03*
X5150800Y-9385300I-20000J0D01*
G01*
X5188900Y-10172700D02*
G75*
G03*
X5188900Y-10172700I-20000J0D01*
G01*
X5201600Y-7505700D02*
G75*
G03*
X5201600Y-7505700I-20000J0D01*
G01*
X5237300Y-8293100D02*
G75*
G03*
X5237300Y-8293100I-20000J0D01*
G01*
X5315900Y-7251700D02*
G75*
G03*
X5315900Y-7251700I-20000J0D01*
G01*
X5337800Y-9407200D02*
G75*
G03*
X5337800Y-9407200I-20000J0D01*
G01*
X5531800Y-9931400D02*
G75*
G03*
X5531800Y-9931400I-20000J0D01*
G01*
X5569900Y-8026400D02*
G75*
G03*
X5569900Y-8026400I-20000J0D01*
G01*
X5608000Y-10185400D02*
G75*
G03*
X5608000Y-10185400I-20000J0D01*
G01*
X5658800Y-8305800D02*
G75*
G03*
X5658800Y-8305800I-20000J0D01*
G01*
X5760400Y-9804400D02*
G75*
G03*
X5760400Y-9804400I-20000J0D01*
G01*
X5785800Y-7886700D02*
G75*
G03*
X5785800Y-7886700I-20000J0D01*
G01*
X5862000Y-6858000D02*
G75*
G03*
X5862000Y-6858000I-20000J0D01*
G01*
X6067800Y-9258300D02*
G75*
G03*
X6067800Y-9258300I-20000J0D01*
G01*
X6143310Y-5876820D02*
G75*
G03*
X6143310Y-5876820I-20000J0D01*
G01*
X6179500Y-6413500D02*
G75*
G03*
X6179500Y-6413500I-20000J0D01*
G01*
X6293800Y-7683500D02*
G75*
G03*
X6293800Y-7683500I-20000J0D01*
G01*
X6406560Y-6148340D02*
G75*
G03*
X6406560Y-6148340I-20000J0D01*
G01*
X6406560Y-6351540D02*
G75*
G03*
X6406560Y-6351540I-20000J0D01*
G01*
X6406560Y-6554740D02*
G75*
G03*
X6406560Y-6554740I-20000J0D01*
G01*
X6406560Y-6707140D02*
G75*
G03*
X6406560Y-6707140I-20000J0D01*
G01*
X6406560Y-6840220D02*
G75*
G03*
X6406560Y-6840220I-20000J0D01*
G01*
X7006610Y-2992120D02*
G75*
G03*
X7006610Y-2992120I-20000J0D01*
G01*
X7055760Y-3411220D02*
G75*
G03*
X7055760Y-3411220I-20000J0D01*
G01*
X7449500Y-3937000D02*
G75*
G03*
X7449500Y-3937000I-20000J0D01*
G01*
X7453310Y-4236720D02*
G75*
G03*
X7453310Y-4236720I-20000J0D01*
G01*
X7606980Y-6141720D02*
G75*
G03*
X7606980Y-6141720I-20000J0D01*
G01*
X7608250Y-8864600D02*
G75*
G03*
X7608250Y-8864600I-20000J0D01*
G01*
X7735250Y-5981700D02*
G75*
G03*
X7735250Y-5981700I-20000J0D01*
G01*
X8026080Y-5633720D02*
G75*
G03*
X8026080Y-5633720I-20000J0D01*
G01*
X8097200Y-5473700D02*
G75*
G03*
X8097200Y-5473700I-20000J0D01*
G01*
X8097200Y-5981700D02*
G75*
G03*
X8097200Y-5981700I-20000J0D01*
G01*
X8097200Y-6489700D02*
G75*
G03*
X8097200Y-6489700I-20000J0D01*
G01*
X8363900Y-8343900D02*
G75*
G03*
X8363900Y-8343900I-20000J0D01*
G01*
X8363900Y-8953500D02*
G75*
G03*
X8363900Y-8953500I-20000J0D01*
G01*
X8363900Y-9550400D02*
G75*
G03*
X8363900Y-9550400I-20000J0D01*
G01*
X8363900Y-10750550D02*
G75*
G03*
X8363900Y-10750550I-20000J0D01*
G01*
X8372058Y-11341100D02*
G75*
G03*
X8372058Y-11341100I-20000J0D01*
G01*
X8382950Y-10147300D02*
G75*
G03*
X8382950Y-10147300I-20000J0D01*
G01*
X8859200Y-3390900D02*
G75*
G03*
X8859200Y-3390900I-20000J0D01*
G01*
X9101740Y-14777760D02*
G75*
G03*
X9101740Y-14777760I-20000J0D01*
G01*
X9106850Y-14478000D02*
G75*
G03*
X9106850Y-14478000I-20000J0D01*
G01*
X9183050Y-8604250D02*
G75*
G03*
X9183050Y-8604250I-20000J0D01*
G01*
X9183050Y-9207500D02*
G75*
G03*
X9183050Y-9207500I-20000J0D01*
G01*
X9183050Y-10998200D02*
G75*
G03*
X9183050Y-10998200I-20000J0D01*
G01*
X9183050Y-11607800D02*
G75*
G03*
X9183050Y-11607800I-20000J0D01*
G01*
X9189400Y-9804400D02*
G75*
G03*
X9189400Y-9804400I-20000J0D01*
G01*
X9189400Y-10401300D02*
G75*
G03*
X9189400Y-10401300I-20000J0D01*
G01*
X9265600Y-3238500D02*
G75*
G03*
X9265600Y-3238500I-20000J0D01*
G01*
X9265600Y-3898900D02*
G75*
G03*
X9265600Y-3898900I-20000J0D01*
G01*
X9265600Y-4602400D02*
G75*
G03*
X9265600Y-4602400I-20000J0D01*
G01*
X9316400Y-14617700D02*
G75*
G03*
X9316400Y-14617700I-20000J0D01*
G01*
X9335450Y-14490700D02*
G75*
G03*
X9335450Y-14490700I-20000J0D01*
G01*
X9570400Y-3898900D02*
G75*
G03*
X9570400Y-3898900I-20000J0D01*
G01*
X9882900Y-3898900D02*
G75*
G03*
X9882900Y-3898900I-20000J0D01*
G01*
X10135550Y-8597900D02*
G75*
G03*
X10135550Y-8597900I-20000J0D01*
G01*
X10135550Y-9194800D02*
G75*
G03*
X10135550Y-9194800I-20000J0D01*
G01*
X10135550Y-9798050D02*
G75*
G03*
X10135550Y-9798050I-20000J0D01*
G01*
X10135550Y-10394950D02*
G75*
G03*
X10135550Y-10394950I-20000J0D01*
G01*
X10135550Y-10998200D02*
G75*
G03*
X10135550Y-10998200I-20000J0D01*
G01*
X10135550Y-11595100D02*
G75*
G03*
X10135550Y-11595100I-20000J0D01*
G01*
X10287950Y-14497050D02*
G75*
G03*
X10287950Y-14497050I-20000J0D01*
G01*
X10383200Y-8623300D02*
G75*
G03*
X10383200Y-8623300I-20000J0D01*
G01*
X10383200Y-9232900D02*
G75*
G03*
X10383200Y-9232900I-20000J0D01*
G01*
X10383200Y-9817100D02*
G75*
G03*
X10383200Y-9817100I-20000J0D01*
G01*
X10383200Y-10452100D02*
G75*
G03*
X10383200Y-10452100I-20000J0D01*
G01*
X10383200Y-11036300D02*
G75*
G03*
X10383200Y-11036300I-20000J0D01*
G01*
X10383200Y-11645900D02*
G75*
G03*
X10383200Y-11645900I-20000J0D01*
G01*
X10386101Y-8918301D02*
G75*
G03*
X10386101Y-8918301I-20000J0D01*
G01*
X10386355Y-11318855D02*
G75*
G03*
X10386355Y-11318855I-20000J0D01*
G01*
X10387625Y-8316575D02*
G75*
G03*
X10387625Y-8316575I-20000J0D01*
G01*
X10393360Y-9511244D02*
G75*
G03*
X10393360Y-9511244I-20000J0D01*
G01*
X10393360Y-10111446D02*
G75*
G03*
X10393360Y-10111446I-20000J0D01*
G01*
X10393360Y-10711648D02*
G75*
G03*
X10393360Y-10711648I-20000J0D01*
G01*
X10586400Y-14274800D02*
G75*
G03*
X10586400Y-14274800I-20000J0D01*
G01*
X10996610Y-12646660D02*
G75*
G03*
X10996610Y-12646660I-20000J0D01*
G01*
X10999150Y-12338050D02*
G75*
G03*
X10999150Y-12338050I-20000J0D01*
G01*
X11035370Y-12847150D02*
G75*
G03*
X11035370Y-12847150I-20000J0D01*
G01*
X11278550Y-12325350D02*
G75*
G03*
X11278550Y-12325350I-20000J0D01*
G01*
X11602400Y-13246100D02*
G75*
G03*
X11602400Y-13246100I-20000J0D01*
G01*
X11704000Y-4203700D02*
G75*
G03*
X11704000Y-4203700I-20000J0D01*
G01*
X11704000Y-4559300D02*
G75*
G03*
X11704000Y-4559300I-20000J0D01*
G01*
X11704000Y-4864100D02*
G75*
G03*
X11704000Y-4864100I-20000J0D01*
G01*
X11805600Y-6286500D02*
G75*
G03*
X11805600Y-6286500I-20000J0D01*
G01*
X11805600Y-6794500D02*
G75*
G03*
X11805600Y-6794500I-20000J0D01*
G01*
X11805600Y-7810500D02*
G75*
G03*
X11805600Y-7810500I-20000J0D01*
G01*
X11805600Y-8318500D02*
G75*
G03*
X11805600Y-8318500I-20000J0D01*
G01*
X11805600Y-9334500D02*
G75*
G03*
X11805600Y-9334500I-20000J0D01*
G01*
X11805600Y-9842500D02*
G75*
G03*
X11805600Y-9842500I-20000J0D01*
G01*
X11805600Y-12636500D02*
G75*
G03*
X11805600Y-12636500I-20000J0D01*
G01*
X11805600Y-13144500D02*
G75*
G03*
X11805600Y-13144500I-20000J0D01*
G01*
X11805600Y-14160500D02*
G75*
G03*
X11805600Y-14160500I-20000J0D01*
G01*
X11820880Y-14568170D02*
G75*
G03*
X11820880Y-14568170I-20000J0D01*
G01*
X11856400Y-12026900D02*
G75*
G03*
X11856400Y-12026900I-20000J0D01*
G01*
X12186600Y-14789150D02*
G75*
G03*
X12186600Y-14789150I-20000J0D01*
G01*
X12212000Y-5473700D02*
G75*
G03*
X12212000Y-5473700I-20000J0D01*
G01*
X12841920Y-5199380D02*
G75*
G03*
X12841920Y-5199380I-20000J0D01*
G01*
X12872400Y-3086100D02*
G75*
G03*
X12872400Y-3086100I-20000J0D01*
G01*
X13001880Y-5199380D02*
G75*
G03*
X13001880Y-5199380I-20000J0D01*
G01*
X13278800Y-4660900D02*
G75*
G03*
X13278800Y-4660900I-20000J0D01*
G01*
X13482000Y-4660900D02*
G75*
G03*
X13482000Y-4660900I-20000J0D01*
G01*
X13875700Y-5543550D02*
G75*
G03*
X13875700Y-5543550I-20000J0D01*
G01*
X13888400Y-5854700D02*
G75*
G03*
X13888400Y-5854700I-20000J0D01*
G01*
X14168075Y-4228825D02*
G75*
G03*
X14168075Y-4228825I-20000J0D01*
G01*
X22281768Y-11184810D02*
X22281768Y-11261010D01*
X22243668Y-11222910D02*
X22319868Y-11222910D01*
X22408768Y-11184810D02*
X22408768Y-11261010D01*
X22370668Y-11222910D02*
X22446868Y-11222910D01*
X22535768Y-11184810D02*
X22535768Y-11261010D01*
X22497668Y-11222910D02*
X22573868Y-11222910D01*
X22281768Y-13784810D02*
X22281768Y-13861010D01*
X22243668Y-13822910D02*
X22319868Y-13822910D01*
X22408768Y-13784810D02*
X22408768Y-13861010D01*
X22370668Y-13822910D02*
X22446868Y-13822910D01*
X22535768Y-13784810D02*
X22535768Y-13861010D01*
X22497668Y-13822910D02*
X22573868Y-13822910D01*
X22281768Y-8584810D02*
X22281768Y-8661010D01*
X22243668Y-8622910D02*
X22319868Y-8622910D01*
X22408768Y-8584810D02*
X22408768Y-8661010D01*
X22370668Y-8622910D02*
X22446868Y-8622910D01*
X22535768Y-8584810D02*
X22535768Y-8661010D01*
X22497668Y-8622910D02*
X22573868Y-8622910D01*
X1871552Y-7205552D02*
X1871552Y-7145448D01*
X1811448Y-7145448D01*
X1811448Y-7205552D01*
X1871552Y-7205552D01*
X1871552Y-7455552D02*
X1871552Y-7395448D01*
X1811448Y-7395448D01*
X1811448Y-7455552D01*
X1871552Y-7455552D01*
X1871552Y-7705552D02*
X1871552Y-7645448D01*
X1811448Y-7645448D01*
X1811448Y-7705552D01*
X1871552Y-7705552D01*
X1871552Y-7955552D02*
X1871552Y-7895448D01*
X1811448Y-7895448D01*
X1811448Y-7955552D01*
X1871552Y-7955552D01*
X1871552Y-8205552D02*
X1871552Y-8145448D01*
X1811448Y-8145448D01*
X1811448Y-8205552D01*
X1871552Y-8205552D01*
X3027252Y-6951552D02*
X3027252Y-6891448D01*
X2967148Y-6891448D01*
X2967148Y-6951552D01*
X3027252Y-6951552D01*
X3027252Y-7201552D02*
X3027252Y-7141448D01*
X2967148Y-7141448D01*
X2967148Y-7201552D01*
X3027252Y-7201552D01*
X3027252Y-7451552D02*
X3027252Y-7391448D01*
X2967148Y-7391448D01*
X2967148Y-7451552D01*
X3027252Y-7451552D01*
X3027252Y-7701552D02*
X3027252Y-7641448D01*
X2967148Y-7641448D01*
X2967148Y-7701552D01*
X3027252Y-7701552D01*
X3027252Y-7951552D02*
X3027252Y-7891448D01*
X2967148Y-7891448D01*
X2967148Y-7951552D01*
X3027252Y-7951552D01*
X2417652Y-12145852D02*
X2417652Y-12085748D01*
X2357548Y-12085748D01*
X2357548Y-12145852D01*
X2417652Y-12145852D01*
X2417652Y-12395852D02*
X2417652Y-12335748D01*
X2357548Y-12335748D01*
X2357548Y-12395852D01*
X2417652Y-12395852D01*
X2417652Y-12645852D02*
X2417652Y-12585748D01*
X2357548Y-12585748D01*
X2357548Y-12645852D01*
X2417652Y-12645852D01*
X11049000Y-11416500D02*
X11099000Y-11366500D01*
X11049000Y-11316500D01*
X10999000Y-11366500D01*
X11049000Y-11416500D01*
X11049000Y-11916500D02*
X11099000Y-11866500D01*
X11049000Y-11816500D01*
X10999000Y-11866500D01*
X11049000Y-11916500D01*
X2552700Y-2203000D02*
X2602700Y-2153000D01*
X2552700Y-2103000D01*
X2502700Y-2153000D01*
X2552700Y-2203000D01*
X2552700Y-2457000D02*
X2602700Y-2407000D01*
X2552700Y-2357000D01*
X2502700Y-2407000D01*
X2552700Y-2457000D01*
X2552700Y-2711000D02*
X2602700Y-2661000D01*
X2552700Y-2611000D01*
X2502700Y-2661000D01*
X2552700Y-2711000D01*
X2552700Y-2965000D02*
X2602700Y-2915000D01*
X2552700Y-2865000D01*
X2502700Y-2915000D01*
X2552700Y-2965000D01*
X2552700Y-3219000D02*
X2602700Y-3169000D01*
X2552700Y-3119000D01*
X2502700Y-3169000D01*
X2552700Y-3219000D01*
X2552700Y-3473000D02*
X2602700Y-3423000D01*
X2552700Y-3373000D01*
X2502700Y-3423000D01*
X2552700Y-3473000D01*
X2552700Y-3727000D02*
X2602700Y-3677000D01*
X2552700Y-3627000D01*
X2502700Y-3677000D01*
X2552700Y-3727000D01*
X2552700Y-3981000D02*
X2602700Y-3931000D01*
X2552700Y-3881000D01*
X2502700Y-3931000D01*
X2552700Y-3981000D01*
X2552700Y-4235000D02*
X2602700Y-4185000D01*
X2552700Y-4135000D01*
X2502700Y-4185000D01*
X2552700Y-4235000D01*
X2552700Y-4489000D02*
X2602700Y-4439000D01*
X2552700Y-4389000D01*
X2502700Y-4439000D01*
X2552700Y-4489000D01*
X2552700Y-4743000D02*
X2602700Y-4693000D01*
X2552700Y-4643000D01*
X2502700Y-4693000D01*
X2552700Y-4743000D01*
X2552700Y-4997000D02*
X2602700Y-4947000D01*
X2552700Y-4897000D01*
X2502700Y-4947000D01*
X2552700Y-4997000D01*
X2552700Y-5251000D02*
X2602700Y-5201000D01*
X2552700Y-5151000D01*
X2502700Y-5201000D01*
X2552700Y-5251000D01*
X2552700Y-5505000D02*
X2602700Y-5455000D01*
X2552700Y-5405000D01*
X2502700Y-5455000D01*
X2552700Y-5505000D01*
X2552700Y-5759000D02*
X2602700Y-5709000D01*
X2552700Y-5659000D01*
X2502700Y-5709000D01*
X2552700Y-5759000D01*
X2806700Y-2203000D02*
X2856700Y-2153000D01*
X2806700Y-2103000D01*
X2756700Y-2153000D01*
X2806700Y-2203000D01*
X2806700Y-2457000D02*
X2856700Y-2407000D01*
X2806700Y-2357000D01*
X2756700Y-2407000D01*
X2806700Y-2457000D01*
X2806700Y-2711000D02*
X2856700Y-2661000D01*
X2806700Y-2611000D01*
X2756700Y-2661000D01*
X2806700Y-2711000D01*
X2806700Y-2965000D02*
X2856700Y-2915000D01*
X2806700Y-2865000D01*
X2756700Y-2915000D01*
X2806700Y-2965000D01*
X2806700Y-3219000D02*
X2856700Y-3169000D01*
X2806700Y-3119000D01*
X2756700Y-3169000D01*
X2806700Y-3219000D01*
X2806700Y-3473000D02*
X2856700Y-3423000D01*
X2806700Y-3373000D01*
X2756700Y-3423000D01*
X2806700Y-3473000D01*
X2806700Y-3727000D02*
X2856700Y-3677000D01*
X2806700Y-3627000D01*
X2756700Y-3677000D01*
X2806700Y-3727000D01*
X2806700Y-3981000D02*
X2856700Y-3931000D01*
X2806700Y-3881000D01*
X2756700Y-3931000D01*
X2806700Y-3981000D01*
X2806700Y-4235000D02*
X2856700Y-4185000D01*
X2806700Y-4135000D01*
X2756700Y-4185000D01*
X2806700Y-4235000D01*
X2806700Y-4489000D02*
X2856700Y-4439000D01*
X2806700Y-4389000D01*
X2756700Y-4439000D01*
X2806700Y-4489000D01*
X2806700Y-4743000D02*
X2856700Y-4693000D01*
X2806700Y-4643000D01*
X2756700Y-4693000D01*
X2806700Y-4743000D01*
X2806700Y-4997000D02*
X2856700Y-4947000D01*
X2806700Y-4897000D01*
X2756700Y-4947000D01*
X2806700Y-4997000D01*
X2806700Y-5251000D02*
X2856700Y-5201000D01*
X2806700Y-5151000D01*
X2756700Y-5201000D01*
X2806700Y-5251000D01*
X2806700Y-5505000D02*
X2856700Y-5455000D01*
X2806700Y-5405000D01*
X2756700Y-5455000D01*
X2806700Y-5505000D01*
X2806700Y-5759000D02*
X2856700Y-5709000D01*
X2806700Y-5659000D01*
X2756700Y-5709000D01*
X2806700Y-5759000D01*
X1574800Y-3476500D02*
X1624800Y-3426500D01*
X1574800Y-3376500D01*
X1524800Y-3426500D01*
X1574800Y-3476500D01*
X1574800Y-3730500D02*
X1624800Y-3680500D01*
X1574800Y-3630500D01*
X1524800Y-3680500D01*
X1574800Y-3730500D01*
X1574800Y-3984500D02*
X1624800Y-3934500D01*
X1574800Y-3884500D01*
X1524800Y-3934500D01*
X1574800Y-3984500D01*
X1574800Y-4238500D02*
X1624800Y-4188500D01*
X1574800Y-4138500D01*
X1524800Y-4188500D01*
X1574800Y-4238500D01*
X1574800Y-4492500D02*
X1624800Y-4442500D01*
X1574800Y-4392500D01*
X1524800Y-4442500D01*
X1574800Y-4492500D01*
X1828800Y-3476500D02*
X1878800Y-3426500D01*
X1828800Y-3376500D01*
X1778800Y-3426500D01*
X1828800Y-3476500D01*
X1828800Y-3730500D02*
X1878800Y-3680500D01*
X1828800Y-3630500D01*
X1778800Y-3680500D01*
X1828800Y-3730500D01*
X1828800Y-3984500D02*
X1878800Y-3934500D01*
X1828800Y-3884500D01*
X1778800Y-3934500D01*
X1828800Y-3984500D01*
X1828800Y-4238500D02*
X1878800Y-4188500D01*
X1828800Y-4138500D01*
X1778800Y-4188500D01*
X1828800Y-4238500D01*
X1828800Y-4492500D02*
X1878800Y-4442500D01*
X1828800Y-4392500D01*
X1778800Y-4442500D01*
X1828800Y-4492500D01*
X22822630Y-4708410D02*
X22872630Y-4658410D01*
X22822630Y-4608410D01*
X22772630Y-4658410D01*
X22822630Y-4708410D01*
X22822630Y-5108410D02*
X22872630Y-5058410D01*
X22822630Y-5008410D01*
X22772630Y-5058410D01*
X22822630Y-5108410D01*
X22822630Y-5508410D02*
X22872630Y-5458410D01*
X22822630Y-5408410D01*
X22772630Y-5458410D01*
X22822630Y-5508410D01*
X23072630Y-4708410D02*
X23122630Y-4658410D01*
X23072630Y-4608410D01*
X23022630Y-4658410D01*
X23072630Y-4708410D01*
X23072630Y-5108410D02*
X23122630Y-5058410D01*
X23072630Y-5008410D01*
X23022630Y-5058410D01*
X23072630Y-5108410D01*
X23072630Y-5508410D02*
X23122630Y-5458410D01*
X23072630Y-5408410D01*
X23022630Y-5458410D01*
X23072630Y-5508410D01*
X4163060Y-5683720D02*
X4213060Y-5633720D01*
X4163060Y-5583720D01*
X4113060Y-5633720D01*
X4163060Y-5683720D01*
X4163060Y-5937720D02*
X4213060Y-5887720D01*
X4163060Y-5837720D01*
X4113060Y-5887720D01*
X4163060Y-5937720D01*
X4163060Y-6191720D02*
X4213060Y-6141720D01*
X4163060Y-6091720D01*
X4113060Y-6141720D01*
X4163060Y-6191720D01*
X4163060Y-6445720D02*
X4213060Y-6395720D01*
X4163060Y-6345720D01*
X4113060Y-6395720D01*
X4163060Y-6445720D01*
X4163060Y-6699720D02*
X4213060Y-6649720D01*
X4163060Y-6599720D01*
X4113060Y-6649720D01*
X4163060Y-6699720D01*
X4163060Y-6953720D02*
X4213060Y-6903720D01*
X4163060Y-6853720D01*
X4113060Y-6903720D01*
X4163060Y-6953720D01*
X4163060Y-7207720D02*
X4213060Y-7157720D01*
X4163060Y-7107720D01*
X4113060Y-7157720D01*
X4163060Y-7207720D01*
X4163060Y-7461720D02*
X4213060Y-7411720D01*
X4163060Y-7361720D01*
X4113060Y-7411720D01*
X4163060Y-7461720D01*
X4163060Y-7715720D02*
X4213060Y-7665720D01*
X4163060Y-7615720D01*
X4113060Y-7665720D01*
X4163060Y-7715720D01*
X4163060Y-7969720D02*
X4213060Y-7919720D01*
X4163060Y-7869720D01*
X4113060Y-7919720D01*
X4163060Y-7969720D01*
X4163060Y-12033720D02*
X4213060Y-11983720D01*
X4163060Y-11933720D01*
X4113060Y-11983720D01*
X4163060Y-12033720D01*
X4163060Y-12287720D02*
X4213060Y-12237720D01*
X4163060Y-12187720D01*
X4113060Y-12237720D01*
X4163060Y-12287720D01*
X4163060Y-12541720D02*
X4213060Y-12491720D01*
X4163060Y-12441720D01*
X4113060Y-12491720D01*
X4163060Y-12541720D01*
X4163060Y-12795720D02*
X4213060Y-12745720D01*
X4163060Y-12695720D01*
X4113060Y-12745720D01*
X4163060Y-12795720D01*
X4163060Y-13049720D02*
X4213060Y-12999720D01*
X4163060Y-12949720D01*
X4113060Y-12999720D01*
X4163060Y-13049720D01*
X4163060Y-13303720D02*
X4213060Y-13253720D01*
X4163060Y-13203720D01*
X4113060Y-13253720D01*
X4163060Y-13303720D01*
X4163060Y-13557720D02*
X4213060Y-13507720D01*
X4163060Y-13457720D01*
X4113060Y-13507720D01*
X4163060Y-13557720D01*
X4163060Y-13811720D02*
X4213060Y-13761720D01*
X4163060Y-13711720D01*
X4113060Y-13761720D01*
X4163060Y-13811720D01*
X4163060Y-14065720D02*
X4213060Y-14015720D01*
X4163060Y-13965720D01*
X4113060Y-14015720D01*
X4163060Y-14065720D01*
X4163060Y-14319720D02*
X4213060Y-14269720D01*
X4163060Y-14219720D01*
X4113060Y-14269720D01*
X4163060Y-14319720D01*
X4417060Y-5683720D02*
X4467060Y-5633720D01*
X4417060Y-5583720D01*
X4367060Y-5633720D01*
X4417060Y-5683720D01*
X4417060Y-5937720D02*
X4467060Y-5887720D01*
X4417060Y-5837720D01*
X4367060Y-5887720D01*
X4417060Y-5937720D01*
X4417060Y-6191720D02*
X4467060Y-6141720D01*
X4417060Y-6091720D01*
X4367060Y-6141720D01*
X4417060Y-6191720D01*
X4417060Y-6445720D02*
X4467060Y-6395720D01*
X4417060Y-6345720D01*
X4367060Y-6395720D01*
X4417060Y-6445720D01*
X4417060Y-6699720D02*
X4467060Y-6649720D01*
X4417060Y-6599720D01*
X4367060Y-6649720D01*
X4417060Y-6699720D01*
X4417060Y-6953720D02*
X4467060Y-6903720D01*
X4417060Y-6853720D01*
X4367060Y-6903720D01*
X4417060Y-6953720D01*
X4417060Y-7207720D02*
X4467060Y-7157720D01*
X4417060Y-7107720D01*
X4367060Y-7157720D01*
X4417060Y-7207720D01*
X4417060Y-7461720D02*
X4467060Y-7411720D01*
X4417060Y-7361720D01*
X4367060Y-7411720D01*
X4417060Y-7461720D01*
X4417060Y-7715720D02*
X4467060Y-7665720D01*
X4417060Y-7615720D01*
X4367060Y-7665720D01*
X4417060Y-7715720D01*
X4417060Y-7969720D02*
X4467060Y-7919720D01*
X4417060Y-7869720D01*
X4367060Y-7919720D01*
X4417060Y-7969720D01*
X4417060Y-12033720D02*
X4467060Y-11983720D01*
X4417060Y-11933720D01*
X4367060Y-11983720D01*
X4417060Y-12033720D01*
X4417060Y-12287720D02*
X4467060Y-12237720D01*
X4417060Y-12187720D01*
X4367060Y-12237720D01*
X4417060Y-12287720D01*
X4417060Y-12541720D02*
X4467060Y-12491720D01*
X4417060Y-12441720D01*
X4367060Y-12491720D01*
X4417060Y-12541720D01*
X4417060Y-12795720D02*
X4467060Y-12745720D01*
X4417060Y-12695720D01*
X4367060Y-12745720D01*
X4417060Y-12795720D01*
X4417060Y-13049720D02*
X4467060Y-12999720D01*
X4417060Y-12949720D01*
X4367060Y-12999720D01*
X4417060Y-13049720D01*
X4417060Y-13303720D02*
X4467060Y-13253720D01*
X4417060Y-13203720D01*
X4367060Y-13253720D01*
X4417060Y-13303720D01*
X4417060Y-13557720D02*
X4467060Y-13507720D01*
X4417060Y-13457720D01*
X4367060Y-13507720D01*
X4417060Y-13557720D01*
X4417060Y-13811720D02*
X4467060Y-13761720D01*
X4417060Y-13711720D01*
X4367060Y-13761720D01*
X4417060Y-13811720D01*
X4417060Y-14065720D02*
X4467060Y-14015720D01*
X4417060Y-13965720D01*
X4367060Y-14015720D01*
X4417060Y-14065720D01*
X4417060Y-14319720D02*
X4467060Y-14269720D01*
X4417060Y-14219720D01*
X4367060Y-14269720D01*
X4417060Y-14319720D01*
X8481060Y-5683720D02*
X8531060Y-5633720D01*
X8481060Y-5583720D01*
X8431060Y-5633720D01*
X8481060Y-5683720D01*
X8481060Y-5937720D02*
X8531060Y-5887720D01*
X8481060Y-5837720D01*
X8431060Y-5887720D01*
X8481060Y-5937720D01*
X8481060Y-6191720D02*
X8531060Y-6141720D01*
X8481060Y-6091720D01*
X8431060Y-6141720D01*
X8481060Y-6191720D01*
X8481060Y-6445720D02*
X8531060Y-6395720D01*
X8481060Y-6345720D01*
X8431060Y-6395720D01*
X8481060Y-6445720D01*
X8481060Y-6699720D02*
X8531060Y-6649720D01*
X8481060Y-6599720D01*
X8431060Y-6649720D01*
X8481060Y-6699720D01*
X8481060Y-6953720D02*
X8531060Y-6903720D01*
X8481060Y-6853720D01*
X8431060Y-6903720D01*
X8481060Y-6953720D01*
X8481060Y-7207720D02*
X8531060Y-7157720D01*
X8481060Y-7107720D01*
X8431060Y-7157720D01*
X8481060Y-7207720D01*
X8481060Y-7461720D02*
X8531060Y-7411720D01*
X8481060Y-7361720D01*
X8431060Y-7411720D01*
X8481060Y-7461720D01*
X8481060Y-7715720D02*
X8531060Y-7665720D01*
X8481060Y-7615720D01*
X8431060Y-7665720D01*
X8481060Y-7715720D01*
X8481060Y-7969720D02*
X8531060Y-7919720D01*
X8481060Y-7869720D01*
X8431060Y-7919720D01*
X8481060Y-7969720D01*
X8481060Y-12033720D02*
X8531060Y-11983720D01*
X8481060Y-11933720D01*
X8431060Y-11983720D01*
X8481060Y-12033720D01*
X8481060Y-12287720D02*
X8531060Y-12237720D01*
X8481060Y-12187720D01*
X8431060Y-12237720D01*
X8481060Y-12287720D01*
X8481060Y-12541720D02*
X8531060Y-12491720D01*
X8481060Y-12441720D01*
X8431060Y-12491720D01*
X8481060Y-12541720D01*
X8481060Y-12795720D02*
X8531060Y-12745720D01*
X8481060Y-12695720D01*
X8431060Y-12745720D01*
X8481060Y-12795720D01*
X8481060Y-13049720D02*
X8531060Y-12999720D01*
X8481060Y-12949720D01*
X8431060Y-12999720D01*
X8481060Y-13049720D01*
X8481060Y-13303720D02*
X8531060Y-13253720D01*
X8481060Y-13203720D01*
X8431060Y-13253720D01*
X8481060Y-13303720D01*
X8481060Y-13557720D02*
X8531060Y-13507720D01*
X8481060Y-13457720D01*
X8431060Y-13507720D01*
X8481060Y-13557720D01*
X8481060Y-13811720D02*
X8531060Y-13761720D01*
X8481060Y-13711720D01*
X8431060Y-13761720D01*
X8481060Y-13811720D01*
X8481060Y-14065720D02*
X8531060Y-14015720D01*
X8481060Y-13965720D01*
X8431060Y-14015720D01*
X8481060Y-14065720D01*
X8481060Y-14319720D02*
X8531060Y-14269720D01*
X8481060Y-14219720D01*
X8431060Y-14269720D01*
X8481060Y-14319720D01*
X8735060Y-5683720D02*
X8785060Y-5633720D01*
X8735060Y-5583720D01*
X8685060Y-5633720D01*
X8735060Y-5683720D01*
X8735060Y-5937720D02*
X8785060Y-5887720D01*
X8735060Y-5837720D01*
X8685060Y-5887720D01*
X8735060Y-5937720D01*
X8735060Y-6191720D02*
X8785060Y-6141720D01*
X8735060Y-6091720D01*
X8685060Y-6141720D01*
X8735060Y-6191720D01*
X8735060Y-6445720D02*
X8785060Y-6395720D01*
X8735060Y-6345720D01*
X8685060Y-6395720D01*
X8735060Y-6445720D01*
X8735060Y-6699720D02*
X8785060Y-6649720D01*
X8735060Y-6599720D01*
X8685060Y-6649720D01*
X8735060Y-6699720D01*
X8735060Y-6953720D02*
X8785060Y-6903720D01*
X8735060Y-6853720D01*
X8685060Y-6903720D01*
X8735060Y-6953720D01*
X8735060Y-7207720D02*
X8785060Y-7157720D01*
X8735060Y-7107720D01*
X8685060Y-7157720D01*
X8735060Y-7207720D01*
X8735060Y-7461720D02*
X8785060Y-7411720D01*
X8735060Y-7361720D01*
X8685060Y-7411720D01*
X8735060Y-7461720D01*
X8735060Y-7715720D02*
X8785060Y-7665720D01*
X8735060Y-7615720D01*
X8685060Y-7665720D01*
X8735060Y-7715720D01*
X8735060Y-7969720D02*
X8785060Y-7919720D01*
X8735060Y-7869720D01*
X8685060Y-7919720D01*
X8735060Y-7969720D01*
X8735060Y-12033720D02*
X8785060Y-11983720D01*
X8735060Y-11933720D01*
X8685060Y-11983720D01*
X8735060Y-12033720D01*
X8735060Y-12287720D02*
X8785060Y-12237720D01*
X8735060Y-12187720D01*
X8685060Y-12237720D01*
X8735060Y-12287720D01*
X8735060Y-12541720D02*
X8785060Y-12491720D01*
X8735060Y-12441720D01*
X8685060Y-12491720D01*
X8735060Y-12541720D01*
X8735060Y-12795720D02*
X8785060Y-12745720D01*
X8735060Y-12695720D01*
X8685060Y-12745720D01*
X8735060Y-12795720D01*
X8735060Y-13049720D02*
X8785060Y-12999720D01*
X8735060Y-12949720D01*
X8685060Y-12999720D01*
X8735060Y-13049720D01*
X8735060Y-13303720D02*
X8785060Y-13253720D01*
X8735060Y-13203720D01*
X8685060Y-13253720D01*
X8735060Y-13303720D01*
X8735060Y-13557720D02*
X8785060Y-13507720D01*
X8735060Y-13457720D01*
X8685060Y-13507720D01*
X8735060Y-13557720D01*
X8735060Y-13811720D02*
X8785060Y-13761720D01*
X8735060Y-13711720D01*
X8685060Y-13761720D01*
X8735060Y-13811720D01*
X8735060Y-14065720D02*
X8785060Y-14015720D01*
X8735060Y-13965720D01*
X8685060Y-14015720D01*
X8735060Y-14065720D01*
X8735060Y-14319720D02*
X8785060Y-14269720D01*
X8735060Y-14219720D01*
X8685060Y-14269720D01*
X8735060Y-14319720D01*
X14383130Y-5425910D02*
X14433130Y-5375910D01*
X14383130Y-5325910D01*
X14333130Y-5375910D01*
X14383130Y-5425910D01*
X14883130Y-5425910D02*
X14933130Y-5375910D01*
X14883130Y-5325910D01*
X14833130Y-5375910D01*
X14883130Y-5425910D01*
X3721100Y-2209000D02*
X3771100Y-2159000D01*
X3721100Y-2109000D01*
X3671100Y-2159000D01*
X3721100Y-2209000D01*
X3975100Y-2209000D02*
X4025100Y-2159000D01*
X3975100Y-2109000D01*
X3925100Y-2159000D01*
X3975100Y-2209000D01*
X3225800Y-11911800D02*
X3275800Y-11861800D01*
X3225800Y-11811800D01*
X3175800Y-11861800D01*
X3225800Y-11911800D01*
X3225800Y-12165800D02*
X3275800Y-12115800D01*
X3225800Y-12065800D01*
X3175800Y-12115800D01*
X3225800Y-12165800D01*
X3225800Y-12419800D02*
X3275800Y-12369800D01*
X3225800Y-12319800D01*
X3175800Y-12369800D01*
X3225800Y-12419800D01*
X12605530Y-6593710D02*
X12655530Y-6543710D01*
X12605530Y-6493710D01*
X12555530Y-6543710D01*
X12605530Y-6593710D01*
X12605530Y-6847710D02*
X12655530Y-6797710D01*
X12605530Y-6747710D01*
X12555530Y-6797710D01*
X12605530Y-6847710D01*
X12605530Y-7355710D02*
X12655530Y-7305710D01*
X12605530Y-7255710D01*
X12555530Y-7305710D01*
X12605530Y-7355710D01*
X12605530Y-7609710D02*
X12655530Y-7559710D01*
X12605530Y-7509710D01*
X12555530Y-7559710D01*
X12605530Y-7609710D01*
X12605530Y-8117710D02*
X12655530Y-8067710D01*
X12605530Y-8017710D01*
X12555530Y-8067710D01*
X12605530Y-8117710D01*
X12605530Y-8371710D02*
X12655530Y-8321710D01*
X12605530Y-8271710D01*
X12555530Y-8321710D01*
X12605530Y-8371710D01*
X12605530Y-8879710D02*
X12655530Y-8829710D01*
X12605530Y-8779710D01*
X12555530Y-8829710D01*
X12605530Y-8879710D01*
X12605530Y-9129710D02*
X12655530Y-9079710D01*
X12605530Y-9029710D01*
X12555530Y-9079710D01*
X12605530Y-9129710D01*
X12605530Y-9637710D02*
X12655530Y-9587710D01*
X12605530Y-9537710D01*
X12555530Y-9587710D01*
X12605530Y-9637710D01*
X12605530Y-9891710D02*
X12655530Y-9841710D01*
X12605530Y-9791710D01*
X12555530Y-9841710D01*
X12605530Y-9891710D01*
X12605530Y-10145710D02*
X12655530Y-10095710D01*
X12605530Y-10045710D01*
X12555530Y-10095710D01*
X12605530Y-10145710D01*
X12605530Y-10653710D02*
X12655530Y-10603710D01*
X12605530Y-10553710D01*
X12555530Y-10603710D01*
X12605530Y-10653710D01*
X12605530Y-10907710D02*
X12655530Y-10857710D01*
X12605530Y-10807710D01*
X12555530Y-10857710D01*
X12605530Y-10907710D01*
X12605530Y-11415710D02*
X12655530Y-11365710D01*
X12605530Y-11315710D01*
X12555530Y-11365710D01*
X12605530Y-11415710D01*
X12605530Y-11923710D02*
X12655530Y-11873710D01*
X12605530Y-11823710D01*
X12555530Y-11873710D01*
X12605530Y-11923710D01*
X12605530Y-12177710D02*
X12655530Y-12127710D01*
X12605530Y-12077710D01*
X12555530Y-12127710D01*
X12605530Y-12177710D01*
X12605530Y-12431710D02*
X12655530Y-12381710D01*
X12605530Y-12331710D01*
X12555530Y-12381710D01*
X12605530Y-12431710D01*
X12605530Y-12685710D02*
X12655530Y-12635710D01*
X12605530Y-12585710D01*
X12555530Y-12635710D01*
X12605530Y-12685710D01*
X12605530Y-12939710D02*
X12655530Y-12889710D01*
X12605530Y-12839710D01*
X12555530Y-12889710D01*
X12605530Y-12939710D01*
X12605530Y-13193710D02*
X12655530Y-13143710D01*
X12605530Y-13093710D01*
X12555530Y-13143710D01*
X12605530Y-13193710D01*
X12605530Y-13447710D02*
X12655530Y-13397710D01*
X12605530Y-13347710D01*
X12555530Y-13397710D01*
X12605530Y-13447710D01*
X12605530Y-13701710D02*
X12655530Y-13651710D01*
X12605530Y-13601710D01*
X12555530Y-13651710D01*
X12605530Y-13701710D01*
X12605530Y-13955710D02*
X12655530Y-13905710D01*
X12605530Y-13855710D01*
X12555530Y-13905710D01*
X12605530Y-13955710D01*
X13432400Y-2180200D02*
X13542400Y-2290200D01*
X13542400Y-2180200D02*
X13432400Y-2290200D01*
X13542400Y-2235200D02*
G75*
G03*
X13542400Y-2235200I-55000J0D01*
G01*
X13686400Y-2180200D02*
X13796400Y-2290200D01*
X13796400Y-2180200D02*
X13686400Y-2290200D01*
X13796400Y-2235200D02*
G75*
G03*
X13796400Y-2235200I-55000J0D01*
G01*
X13940400Y-2180200D02*
X14050400Y-2290200D01*
X14050400Y-2180200D02*
X13940400Y-2290200D01*
X14050400Y-2235200D02*
G75*
G03*
X14050400Y-2235200I-55000J0D01*
G01*
X11964360Y-1908500D02*
X12084360Y-2028500D01*
X12084360Y-1908500D02*
X11964360Y-2028500D01*
X12024360Y-1908500D02*
X12024360Y-2028500D01*
X11964360Y-1968500D02*
X12084360Y-1968500D01*
X11964360Y-2408500D02*
X12084360Y-2528500D01*
X12084360Y-2408500D02*
X11964360Y-2528500D01*
X12024360Y-2408500D02*
X12024360Y-2528500D01*
X11964360Y-2468500D02*
X12084360Y-2468500D01*
X18874130Y-4561910D02*
X18994130Y-4681910D01*
X18994130Y-4561910D02*
X18874130Y-4681910D01*
X18934130Y-4561910D02*
X18934130Y-4681910D01*
X18874130Y-4621910D02*
X18994130Y-4621910D01*
X18874130Y-5561910D02*
X18994130Y-5681910D01*
X18994130Y-5561910D02*
X18874130Y-5681910D01*
X18934130Y-5561910D02*
X18934130Y-5681910D01*
X18874130Y-5621910D02*
X18994130Y-5621910D01*
X10587680Y-1918660D02*
X10707680Y-2038660D01*
X10707680Y-1918660D02*
X10587680Y-2038660D01*
X10647680Y-1918660D02*
X10647680Y-2038660D01*
X10587680Y-1978660D02*
X10707680Y-1978660D01*
X10587680Y-2418660D02*
X10707680Y-2538660D01*
X10707680Y-2418660D02*
X10587680Y-2538660D01*
X10647680Y-2418660D02*
X10647680Y-2538660D01*
X10587680Y-2478660D02*
X10707680Y-2478660D01*
X22582630Y-4393410D02*
X22712630Y-4523410D01*
X22712630Y-4393410D02*
X22582630Y-4523410D01*
X22693592Y-4504372D02*
X22693592Y-4412448D01*
X22601668Y-4412448D01*
X22601668Y-4504372D01*
X22693592Y-4504372D01*
X22582630Y-5593410D02*
X22712630Y-5723410D01*
X22712630Y-5593410D02*
X22582630Y-5723410D01*
X22693592Y-5704372D02*
X22693592Y-5612448D01*
X22601668Y-5612448D01*
X22601668Y-5704372D01*
X22693592Y-5704372D01*
X23182630Y-4393410D02*
X23312630Y-4523410D01*
X23312630Y-4393410D02*
X23182630Y-4523410D01*
X23293592Y-4504372D02*
X23293592Y-4412448D01*
X23201668Y-4412448D01*
X23201668Y-4504372D01*
X23293592Y-4504372D01*
X23182630Y-5593410D02*
X23312630Y-5723410D01*
X23312630Y-5593410D02*
X23182630Y-5723410D01*
X23293592Y-5704372D02*
X23293592Y-5612448D01*
X23201668Y-5612448D01*
X23201668Y-5704372D01*
X23293592Y-5704372D01*
X2871400Y-8942000D02*
X3021400Y-9092000D01*
X3021400Y-8942000D02*
X2871400Y-9092000D01*
X2946400Y-9092000D02*
X3021400Y-9017000D01*
X2946400Y-8942000D01*
X2871400Y-9017000D01*
X2946400Y-9092000D01*
X5326310Y-2917120D02*
X5476310Y-3067120D01*
X5476310Y-2917120D02*
X5326310Y-3067120D01*
X5401310Y-3067120D02*
X5476310Y-2992120D01*
X5401310Y-2917120D01*
X5326310Y-2992120D01*
X5401310Y-3067120D01*
X5326310Y-4949120D02*
X5476310Y-5099120D01*
X5476310Y-4949120D02*
X5326310Y-5099120D01*
X5401310Y-5099120D02*
X5476310Y-5024120D01*
X5401310Y-4949120D01*
X5326310Y-5024120D01*
X5401310Y-5099120D01*
X6088310Y-2917120D02*
X6238310Y-3067120D01*
X6238310Y-2917120D02*
X6088310Y-3067120D01*
X6163310Y-3067120D02*
X6238310Y-2992120D01*
X6163310Y-2917120D01*
X6088310Y-2992120D01*
X6163310Y-3067120D01*
X6596310Y-2917120D02*
X6746310Y-3067120D01*
X6746310Y-2917120D02*
X6596310Y-3067120D01*
X6671310Y-3067120D02*
X6746310Y-2992120D01*
X6671310Y-2917120D01*
X6596310Y-2992120D01*
X6671310Y-3067120D01*
X7358310Y-4949120D02*
X7508310Y-5099120D01*
X7508310Y-4949120D02*
X7358310Y-5099120D01*
X7433310Y-5099120D02*
X7508310Y-5024120D01*
X7433310Y-4949120D01*
X7358310Y-5024120D01*
X7433310Y-5099120D01*
X2871400Y-9983400D02*
X3021400Y-10133400D01*
X3021400Y-9983400D02*
X2871400Y-10133400D01*
X2946400Y-10133400D02*
X3021400Y-10058400D01*
X2946400Y-9983400D01*
X2871400Y-10058400D01*
X2946400Y-10133400D01*
X9170600Y-3163500D02*
X9320600Y-3313500D01*
X9320600Y-3163500D02*
X9170600Y-3313500D01*
X9245600Y-3313500D02*
X9320600Y-3238500D01*
X9245600Y-3163500D01*
X9170600Y-3238500D01*
X9245600Y-3313500D01*
X9170600Y-4179500D02*
X9320600Y-4329500D01*
X9320600Y-4179500D02*
X9170600Y-4329500D01*
X9245600Y-4329500D02*
X9320600Y-4254500D01*
X9245600Y-4179500D01*
X9170600Y-4254500D01*
X9245600Y-4329500D01*
X9170600Y-5195500D02*
X9320600Y-5345500D01*
X9320600Y-5195500D02*
X9170600Y-5345500D01*
X9245600Y-5345500D02*
X9320600Y-5270500D01*
X9245600Y-5195500D01*
X9170600Y-5270500D01*
X9245600Y-5345500D01*
X11202600Y-3163500D02*
X11352600Y-3313500D01*
X11352600Y-3163500D02*
X11202600Y-3313500D01*
X11277600Y-3313500D02*
X11352600Y-3238500D01*
X11277600Y-3163500D01*
X11202600Y-3238500D01*
X11277600Y-3313500D01*
X11202600Y-3925500D02*
X11352600Y-4075500D01*
X11352600Y-3925500D02*
X11202600Y-4075500D01*
X11277600Y-4075500D02*
X11352600Y-4000500D01*
X11277600Y-3925500D01*
X11202600Y-4000500D01*
X11277600Y-4075500D01*
X11202600Y-4433500D02*
X11352600Y-4583500D01*
X11352600Y-4433500D02*
X11202600Y-4583500D01*
X11277600Y-4583500D02*
X11352600Y-4508500D01*
X11277600Y-4433500D01*
X11202600Y-4508500D01*
X11277600Y-4583500D01*
X2871400Y-10986700D02*
X3021400Y-11136700D01*
X3021400Y-10986700D02*
X2871400Y-11136700D01*
X2946400Y-11136700D02*
X3021400Y-11061700D01*
X2946400Y-10986700D01*
X2871400Y-11061700D01*
X2946400Y-11136700D01*
X2692400Y-8678000D02*
X2692400Y-8848000D01*
X2607400Y-8763000D02*
X2777400Y-8763000D01*
X2777400Y-8763000D02*
G75*
G03*
X2777400Y-8763000I-85000J0D01*
G01*
X2692400Y-9186000D02*
X2692400Y-9356000D01*
X2607400Y-9271000D02*
X2777400Y-9271000D01*
X2777400Y-9271000D02*
G75*
G03*
X2777400Y-9271000I-85000J0D01*
G01*
X3200400Y-8678000D02*
X3200400Y-8848000D01*
X3115400Y-8763000D02*
X3285400Y-8763000D01*
X3285400Y-8763000D02*
G75*
G03*
X3285400Y-8763000I-85000J0D01*
G01*
X3200400Y-9186000D02*
X3200400Y-9356000D01*
X3115400Y-9271000D02*
X3285400Y-9271000D01*
X3285400Y-9271000D02*
G75*
G03*
X3285400Y-9271000I-85000J0D01*
G01*
X2692400Y-9719400D02*
X2692400Y-9889400D01*
X2607400Y-9804400D02*
X2777400Y-9804400D01*
X2777400Y-9804400D02*
G75*
G03*
X2777400Y-9804400I-85000J0D01*
G01*
X2692400Y-10227400D02*
X2692400Y-10397400D01*
X2607400Y-10312400D02*
X2777400Y-10312400D01*
X2777400Y-10312400D02*
G75*
G03*
X2777400Y-10312400I-85000J0D01*
G01*
X3200400Y-9719400D02*
X3200400Y-9889400D01*
X3115400Y-9804400D02*
X3285400Y-9804400D01*
X3285400Y-9804400D02*
G75*
G03*
X3285400Y-9804400I-85000J0D01*
G01*
X3200400Y-10227400D02*
X3200400Y-10397400D01*
X3115400Y-10312400D02*
X3285400Y-10312400D01*
X3285400Y-10312400D02*
G75*
G03*
X3285400Y-10312400I-85000J0D01*
G01*
X2692400Y-10722700D02*
X2692400Y-10892700D01*
X2607400Y-10807700D02*
X2777400Y-10807700D01*
X2777400Y-10807700D02*
G75*
G03*
X2777400Y-10807700I-85000J0D01*
G01*
X2692400Y-11230700D02*
X2692400Y-11400700D01*
X2607400Y-11315700D02*
X2777400Y-11315700D01*
X2777400Y-11315700D02*
G75*
G03*
X2777400Y-11315700I-85000J0D01*
G01*
X3200400Y-10722700D02*
X3200400Y-10892700D01*
X3115400Y-10807700D02*
X3285400Y-10807700D01*
X3285400Y-10807700D02*
G75*
G03*
X3285400Y-10807700I-85000J0D01*
G01*
X3200400Y-11230700D02*
X3200400Y-11400700D01*
X3115400Y-11315700D02*
X3285400Y-11315700D01*
X3285400Y-11315700D02*
G75*
G03*
X3285400Y-11315700I-85000J0D01*
G01*
X6753000Y-1883500D02*
X6753000Y-2053500D01*
X6668000Y-1968500D02*
X6838000Y-1968500D01*
X6838000Y-1968500D02*
G75*
G03*
X6838000Y-1968500I-85000J0D01*
G01*
X7149000Y-1883500D02*
X7149000Y-2053500D01*
X7064000Y-1968500D02*
X7234000Y-1968500D01*
X7234000Y-1968500D02*
G75*
G03*
X7234000Y-1968500I-85000J0D01*
G01*
X7545000Y-1883500D02*
X7545000Y-2053500D01*
X7460000Y-1968500D02*
X7630000Y-1968500D01*
X7630000Y-1968500D02*
G75*
G03*
X7630000Y-1968500I-85000J0D01*
G01*
X7941000Y-1883500D02*
X7941000Y-2053500D01*
X7856000Y-1968500D02*
X8026000Y-1968500D01*
X8026000Y-1968500D02*
G75*
G03*
X8026000Y-1968500I-85000J0D01*
G01*
X8337000Y-1883500D02*
X8337000Y-2053500D01*
X8252000Y-1968500D02*
X8422000Y-1968500D01*
X8422000Y-1968500D02*
G75*
G03*
X8422000Y-1968500I-85000J0D01*
G01*
X8733000Y-1883500D02*
X8733000Y-2053500D01*
X8648000Y-1968500D02*
X8818000Y-1968500D01*
X8818000Y-1968500D02*
G75*
G03*
X8818000Y-1968500I-85000J0D01*
G01*
X9129000Y-1883500D02*
X9129000Y-2053500D01*
X9044000Y-1968500D02*
X9214000Y-1968500D01*
X9214000Y-1968500D02*
G75*
G03*
X9214000Y-1968500I-85000J0D01*
G01*
X9525000Y-1883500D02*
X9525000Y-2053500D01*
X9440000Y-1968500D02*
X9610000Y-1968500D01*
X9610000Y-1968500D02*
G75*
G03*
X9610000Y-1968500I-85000J0D01*
G01*
X20414841Y-5891121D02*
X20414841Y-5749699D01*
X20273419Y-5749699D01*
X20273419Y-5891121D01*
X20414841Y-5891121D01*
X20444130Y-5820410D02*
G75*
G03*
X20444130Y-5820410I-100000J0D01*
G01*
X21414841Y-5891121D02*
X21414841Y-5749699D01*
X21273419Y-5749699D01*
X21273419Y-5891121D01*
X21414841Y-5891121D01*
X21444130Y-5820410D02*
G75*
G03*
X21444130Y-5820410I-100000J0D01*
G01*
X16195530Y-7760710D02*
X16320530Y-7635710D01*
X16195530Y-7510710D01*
X16070530Y-7635710D01*
X16195530Y-7760710D01*
X16320530Y-7635710D02*
G75*
G03*
X16320530Y-7635710I-125000J0D01*
G01*
X16195530Y-8760710D02*
X16320530Y-8635710D01*
X16195530Y-8510710D01*
X16070530Y-8635710D01*
X16195530Y-8760710D01*
X16320530Y-8635710D02*
G75*
G03*
X16320530Y-8635710I-125000J0D01*
G01*
X16195530Y-9760710D02*
X16320530Y-9635710D01*
X16195530Y-9510710D01*
X16070530Y-9635710D01*
X16195530Y-9760710D01*
X16320530Y-9635710D02*
G75*
G03*
X16320530Y-9635710I-125000J0D01*
G01*
X16195530Y-10760710D02*
X16320530Y-10635710D01*
X16195530Y-10510710D01*
X16070530Y-10635710D01*
X16195530Y-10760710D01*
X16320530Y-10635710D02*
G75*
G03*
X16320530Y-10635710I-125000J0D01*
G01*
X16195530Y-11760710D02*
X16320530Y-11635710D01*
X16195530Y-11510710D01*
X16070530Y-11635710D01*
X16195530Y-11760710D01*
X16320530Y-11635710D02*
G75*
G03*
X16320530Y-11635710I-125000J0D01*
G01*
X16195530Y-12760710D02*
X16320530Y-12635710D01*
X16195530Y-12510710D01*
X16070530Y-12635710D01*
X16195530Y-12760710D01*
X16320530Y-12635710D02*
G75*
G03*
X16320530Y-12635710I-125000J0D01*
G01*
X16195530Y-13760710D02*
X16320530Y-13635710D01*
X16195530Y-13510710D01*
X16070530Y-13635710D01*
X16195530Y-13760710D01*
X16320530Y-13635710D02*
G75*
G03*
X16320530Y-13635710I-125000J0D01*
G01*
X18196130Y-7192410D02*
X18196130Y-7472410D01*
X18056130Y-7332410D02*
X18336130Y-7332410D01*
X18295126Y-7431406D02*
X18295126Y-7233414D01*
X18097134Y-7233414D01*
X18097134Y-7431406D01*
X18295126Y-7431406D01*
X18196130Y-8492410D02*
X18196130Y-8772410D01*
X18056130Y-8632410D02*
X18336130Y-8632410D01*
X18295126Y-8731406D02*
X18295126Y-8533414D01*
X18097134Y-8533414D01*
X18097134Y-8731406D01*
X18295126Y-8731406D01*
X18196130Y-9792410D02*
X18196130Y-10072410D01*
X18056130Y-9932410D02*
X18336130Y-9932410D01*
X18295126Y-10031406D02*
X18295126Y-9833414D01*
X18097134Y-9833414D01*
X18097134Y-10031406D01*
X18295126Y-10031406D01*
X18196130Y-11092410D02*
X18196130Y-11372410D01*
X18056130Y-11232410D02*
X18336130Y-11232410D01*
X18295126Y-11331406D02*
X18295126Y-11133414D01*
X18097134Y-11133414D01*
X18097134Y-11331406D01*
X18295126Y-11331406D01*
X18196130Y-12392410D02*
X18196130Y-12672410D01*
X18056130Y-12532410D02*
X18336130Y-12532410D01*
X18295126Y-12631406D02*
X18295126Y-12433414D01*
X18097134Y-12433414D01*
X18097134Y-12631406D01*
X18295126Y-12631406D01*
X18196130Y-13692410D02*
X18196130Y-13972410D01*
X18056130Y-13832410D02*
X18336130Y-13832410D01*
X18295126Y-13931406D02*
X18295126Y-13733414D01*
X18097134Y-13733414D01*
X18097134Y-13931406D01*
X18295126Y-13931406D01*
X15509130Y-4606910D02*
X15509130Y-4886910D01*
X15369130Y-4746910D02*
X15649130Y-4746910D01*
X15608126Y-4845906D02*
X15608126Y-4647914D01*
X15410134Y-4647914D01*
X15410134Y-4845906D01*
X15608126Y-4845906D01*
X16184130Y-5356910D02*
X16184130Y-5636910D01*
X16044130Y-5496910D02*
X16324130Y-5496910D01*
X16283126Y-5595906D02*
X16283126Y-5397914D01*
X16085134Y-5397914D01*
X16085134Y-5595906D01*
X16283126Y-5595906D01*
X15950630Y-3192910D02*
X15950630Y-3472910D01*
X15810630Y-3332910D02*
X16090630Y-3332910D01*
X16049626Y-3431906D02*
X16049626Y-3233914D01*
X15851634Y-3233914D01*
X15851634Y-3431906D01*
X16049626Y-3431906D01*
X17250630Y-3192910D02*
X17250630Y-3472910D01*
X17110630Y-3332910D02*
X17390630Y-3332910D01*
X17349626Y-3431906D02*
X17349626Y-3233914D01*
X17151634Y-3233914D01*
X17151634Y-3431906D01*
X17349626Y-3431906D01*
X18550630Y-3192910D02*
X18550630Y-3472910D01*
X18410630Y-3332910D02*
X18690630Y-3332910D01*
X18649626Y-3431906D02*
X18649626Y-3233914D01*
X18451634Y-3233914D01*
X18451634Y-3431906D01*
X18649626Y-3431906D01*
X19850630Y-3192910D02*
X19850630Y-3472910D01*
X19710630Y-3332910D02*
X19990630Y-3332910D01*
X19949626Y-3431906D02*
X19949626Y-3233914D01*
X19751634Y-3233914D01*
X19751634Y-3431906D01*
X19949626Y-3431906D01*
X21150630Y-3192910D02*
X21150630Y-3472910D01*
X21010630Y-3332910D02*
X21290630Y-3332910D01*
X21249626Y-3431906D02*
X21249626Y-3233914D01*
X21051634Y-3233914D01*
X21051634Y-3431906D01*
X21249626Y-3431906D01*
X22450630Y-3192910D02*
X22450630Y-3472910D01*
X22310630Y-3332910D02*
X22590630Y-3332910D01*
X22549626Y-3431906D02*
X22549626Y-3233914D01*
X22351634Y-3233914D01*
X22351634Y-3431906D01*
X22549626Y-3431906D01*
D12*
X1553928Y-16909914D02*
X1553928Y-16609914D01*
X1625357Y-16609914D01*
X1668214Y-16624200D01*
X1696786Y-16652771D01*
X1711071Y-16681343D01*
X1725357Y-16738486D01*
X1725357Y-16781343D01*
X1711071Y-16838486D01*
X1696786Y-16867057D01*
X1668214Y-16895629D01*
X1625357Y-16909914D01*
X1553928Y-16909914D01*
X1853928Y-16909914D02*
X1853928Y-16709914D01*
X1853928Y-16767057D02*
X1868214Y-16738486D01*
X1882500Y-16724200D01*
X1911071Y-16709914D01*
X1939643Y-16709914D01*
X2039643Y-16909914D02*
X2039643Y-16709914D01*
X2039643Y-16609914D02*
X2025357Y-16624200D01*
X2039643Y-16638486D01*
X2053928Y-16624200D01*
X2039643Y-16609914D01*
X2039643Y-16638486D01*
X2225357Y-16909914D02*
X2196786Y-16895629D01*
X2182500Y-16867057D01*
X2182500Y-16609914D01*
X2382500Y-16909914D02*
X2353928Y-16895629D01*
X2339643Y-16867057D01*
X2339643Y-16609914D01*
X2725357Y-16909914D02*
X2725357Y-16609914D01*
X2825357Y-16824200D01*
X2925357Y-16609914D01*
X2925357Y-16909914D01*
X3196786Y-16909914D02*
X3196786Y-16752771D01*
X3182500Y-16724200D01*
X3153928Y-16709914D01*
X3096786Y-16709914D01*
X3068214Y-16724200D01*
X3196786Y-16895629D02*
X3168214Y-16909914D01*
X3096786Y-16909914D01*
X3068214Y-16895629D01*
X3053928Y-16867057D01*
X3053928Y-16838486D01*
X3068214Y-16809914D01*
X3096786Y-16795629D01*
X3168214Y-16795629D01*
X3196786Y-16781343D01*
X3339643Y-16709914D02*
X3339643Y-17009914D01*
X3339643Y-16724200D02*
X3368214Y-16709914D01*
X3425357Y-16709914D01*
X3453928Y-16724200D01*
X3468214Y-16738486D01*
X3482500Y-16767057D01*
X3482500Y-16852772D01*
X3468214Y-16881343D01*
X3453928Y-16895629D01*
X3425357Y-16909914D01*
X3368214Y-16909914D01*
X3339643Y-16895629D01*
X3611071Y-16881343D02*
X3625357Y-16895629D01*
X3611071Y-16909914D01*
X3596786Y-16895629D01*
X3611071Y-16881343D01*
X3611071Y-16909914D01*
X3611071Y-16724200D02*
X3625357Y-16738486D01*
X3611071Y-16752771D01*
X3596786Y-16738486D01*
X3611071Y-16724200D01*
X3611071Y-16752771D01*
X1247500Y-17394200D02*
X1267500Y-17414200D01*
X1267500Y-17394200D02*
X1247500Y-17414200D01*
X1611071Y-17239914D02*
X1639643Y-17239914D01*
X1668214Y-17254200D01*
X1682500Y-17268486D01*
X1696786Y-17297057D01*
X1711071Y-17354200D01*
X1711071Y-17425629D01*
X1696786Y-17482772D01*
X1682500Y-17511343D01*
X1668214Y-17525629D01*
X1639643Y-17539914D01*
X1611071Y-17539914D01*
X1582500Y-17525629D01*
X1568214Y-17511343D01*
X1553928Y-17482772D01*
X1539643Y-17425629D01*
X1539643Y-17354200D01*
X1553928Y-17297057D01*
X1568214Y-17268486D01*
X1582500Y-17254200D01*
X1611071Y-17239914D01*
X1839643Y-17511343D02*
X1853928Y-17525629D01*
X1839643Y-17539914D01*
X1825357Y-17525629D01*
X1839643Y-17511343D01*
X1839643Y-17539914D01*
X1968214Y-17268486D02*
X1982500Y-17254200D01*
X2011071Y-17239914D01*
X2082500Y-17239914D01*
X2111071Y-17254200D01*
X2125357Y-17268486D01*
X2139643Y-17297057D01*
X2139643Y-17325629D01*
X2125357Y-17368486D01*
X1953928Y-17539914D01*
X2139643Y-17539914D01*
X2325357Y-17239914D02*
X2353928Y-17239914D01*
X2382500Y-17254200D01*
X2396786Y-17268486D01*
X2411071Y-17297057D01*
X2425357Y-17354200D01*
X2425357Y-17425629D01*
X2411071Y-17482772D01*
X2396786Y-17511343D01*
X2382500Y-17525629D01*
X2353928Y-17539914D01*
X2325357Y-17539914D01*
X2296786Y-17525629D01*
X2282500Y-17511343D01*
X2268214Y-17482772D01*
X2253928Y-17425629D01*
X2253928Y-17354200D01*
X2268214Y-17297057D01*
X2282500Y-17268486D01*
X2296786Y-17254200D01*
X2325357Y-17239914D01*
X2553928Y-17539914D02*
X2553928Y-17339914D01*
X2553928Y-17368486D02*
X2568214Y-17354200D01*
X2596786Y-17339914D01*
X2639643Y-17339914D01*
X2668214Y-17354200D01*
X2682500Y-17382772D01*
X2682500Y-17539914D01*
X2682500Y-17382772D02*
X2696786Y-17354200D01*
X2725357Y-17339914D01*
X2768214Y-17339914D01*
X2796786Y-17354200D01*
X2811071Y-17382772D01*
X2811071Y-17539914D01*
X2953928Y-17539914D02*
X2953928Y-17339914D01*
X2953928Y-17368486D02*
X2968214Y-17354200D01*
X2996786Y-17339914D01*
X3039643Y-17339914D01*
X3068214Y-17354200D01*
X3082500Y-17382772D01*
X3082500Y-17539914D01*
X3082500Y-17382772D02*
X3096786Y-17354200D01*
X3125357Y-17339914D01*
X3168214Y-17339914D01*
X3196786Y-17354200D01*
X3211071Y-17382772D01*
X3211071Y-17539914D01*
X3796786Y-17225629D02*
X3539643Y-17611343D01*
X4182500Y-17239914D02*
X4211071Y-17239914D01*
X4239643Y-17254200D01*
X4253928Y-17268486D01*
X4268214Y-17297057D01*
X4282500Y-17354200D01*
X4282500Y-17425629D01*
X4268214Y-17482772D01*
X4253928Y-17511343D01*
X4239643Y-17525629D01*
X4211071Y-17539914D01*
X4182500Y-17539914D01*
X4153928Y-17525629D01*
X4139643Y-17511343D01*
X4125357Y-17482772D01*
X4111071Y-17425629D01*
X4111071Y-17354200D01*
X4125357Y-17297057D01*
X4139643Y-17268486D01*
X4153928Y-17254200D01*
X4182500Y-17239914D01*
X4411071Y-17511343D02*
X4425357Y-17525629D01*
X4411071Y-17539914D01*
X4396786Y-17525629D01*
X4411071Y-17511343D01*
X4411071Y-17539914D01*
X4611071Y-17239914D02*
X4639643Y-17239914D01*
X4668214Y-17254200D01*
X4682500Y-17268486D01*
X4696786Y-17297057D01*
X4711071Y-17354200D01*
X4711071Y-17425629D01*
X4696786Y-17482772D01*
X4682500Y-17511343D01*
X4668214Y-17525629D01*
X4639643Y-17539914D01*
X4611071Y-17539914D01*
X4582500Y-17525629D01*
X4568214Y-17511343D01*
X4553928Y-17482772D01*
X4539643Y-17425629D01*
X4539643Y-17354200D01*
X4553928Y-17297057D01*
X4568214Y-17268486D01*
X4582500Y-17254200D01*
X4611071Y-17239914D01*
X4896786Y-17239914D02*
X4925357Y-17239914D01*
X4953928Y-17254200D01*
X4968214Y-17268486D01*
X4982500Y-17297057D01*
X4996786Y-17354200D01*
X4996786Y-17425629D01*
X4982500Y-17482772D01*
X4968214Y-17511343D01*
X4953928Y-17525629D01*
X4925357Y-17539914D01*
X4896786Y-17539914D01*
X4868214Y-17525629D01*
X4853928Y-17511343D01*
X4839643Y-17482772D01*
X4825357Y-17425629D01*
X4825357Y-17354200D01*
X4839643Y-17297057D01*
X4853928Y-17268486D01*
X4868214Y-17254200D01*
X4896786Y-17239914D01*
X5168214Y-17368486D02*
X5139643Y-17354200D01*
X5125357Y-17339914D01*
X5111071Y-17311343D01*
X5111071Y-17297057D01*
X5125357Y-17268486D01*
X5139643Y-17254200D01*
X5168214Y-17239914D01*
X5225357Y-17239914D01*
X5253928Y-17254200D01*
X5268214Y-17268486D01*
X5282500Y-17297057D01*
X5282500Y-17311343D01*
X5268214Y-17339914D01*
X5253928Y-17354200D01*
X5225357Y-17368486D01*
X5168214Y-17368486D01*
X5139643Y-17382772D01*
X5125357Y-17397057D01*
X5111071Y-17425629D01*
X5111071Y-17482772D01*
X5125357Y-17511343D01*
X5139643Y-17525629D01*
X5168214Y-17539914D01*
X5225357Y-17539914D01*
X5253928Y-17525629D01*
X5268214Y-17511343D01*
X5282500Y-17482772D01*
X5282500Y-17425629D01*
X5268214Y-17397057D01*
X5253928Y-17382772D01*
X5225357Y-17368486D01*
X5396786Y-17239914D02*
X5396786Y-17297057D01*
X5511071Y-17239914D02*
X5511071Y-17297057D01*
X5953928Y-17654200D02*
X5939643Y-17639914D01*
X5911071Y-17597057D01*
X5896786Y-17568486D01*
X5882500Y-17525629D01*
X5868214Y-17454200D01*
X5868214Y-17397057D01*
X5882500Y-17325629D01*
X5896786Y-17282772D01*
X5911071Y-17254200D01*
X5939643Y-17211343D01*
X5953928Y-17197057D01*
X6111071Y-17368486D02*
X6082500Y-17354200D01*
X6068214Y-17339914D01*
X6053928Y-17311343D01*
X6053928Y-17297057D01*
X6068214Y-17268486D01*
X6082500Y-17254200D01*
X6111071Y-17239914D01*
X6168214Y-17239914D01*
X6196786Y-17254200D01*
X6211071Y-17268486D01*
X6225357Y-17297057D01*
X6225357Y-17311343D01*
X6211071Y-17339914D01*
X6196786Y-17354200D01*
X6168214Y-17368486D01*
X6111071Y-17368486D01*
X6082500Y-17382772D01*
X6068214Y-17397057D01*
X6053928Y-17425629D01*
X6053928Y-17482772D01*
X6068214Y-17511343D01*
X6082500Y-17525629D01*
X6111071Y-17539914D01*
X6168214Y-17539914D01*
X6196786Y-17525629D01*
X6211071Y-17511343D01*
X6225357Y-17482772D01*
X6225357Y-17425629D01*
X6211071Y-17397057D01*
X6196786Y-17382772D01*
X6168214Y-17368486D01*
X6582500Y-17539914D02*
X6582500Y-17239914D01*
X6711071Y-17539914D02*
X6711071Y-17382772D01*
X6696786Y-17354200D01*
X6668214Y-17339914D01*
X6625357Y-17339914D01*
X6596786Y-17354200D01*
X6582500Y-17368486D01*
X6896786Y-17539914D02*
X6868214Y-17525629D01*
X6853928Y-17511343D01*
X6839643Y-17482772D01*
X6839643Y-17397057D01*
X6853928Y-17368486D01*
X6868214Y-17354200D01*
X6896786Y-17339914D01*
X6939643Y-17339914D01*
X6968214Y-17354200D01*
X6982500Y-17368486D01*
X6996786Y-17397057D01*
X6996786Y-17482772D01*
X6982500Y-17511343D01*
X6968214Y-17525629D01*
X6939643Y-17539914D01*
X6896786Y-17539914D01*
X7168214Y-17539914D02*
X7139643Y-17525629D01*
X7125357Y-17497057D01*
X7125357Y-17239914D01*
X7396786Y-17525629D02*
X7368214Y-17539914D01*
X7311071Y-17539914D01*
X7282500Y-17525629D01*
X7268214Y-17497057D01*
X7268214Y-17382772D01*
X7282500Y-17354200D01*
X7311071Y-17339914D01*
X7368214Y-17339914D01*
X7396786Y-17354200D01*
X7411071Y-17382772D01*
X7411071Y-17411343D01*
X7268214Y-17439914D01*
X7525357Y-17525629D02*
X7553928Y-17539914D01*
X7611071Y-17539914D01*
X7639643Y-17525629D01*
X7653928Y-17497057D01*
X7653928Y-17482772D01*
X7639643Y-17454200D01*
X7611071Y-17439914D01*
X7568214Y-17439914D01*
X7539643Y-17425629D01*
X7525357Y-17397057D01*
X7525357Y-17382772D01*
X7539643Y-17354200D01*
X7568214Y-17339914D01*
X7611071Y-17339914D01*
X7639643Y-17354200D01*
X7753928Y-17654200D02*
X7768214Y-17639914D01*
X7796786Y-17597057D01*
X7811071Y-17568486D01*
X7825357Y-17525629D01*
X7839643Y-17454200D01*
X7839643Y-17397057D01*
X7825357Y-17325629D01*
X7811071Y-17282772D01*
X7796786Y-17254200D01*
X7768214Y-17211343D01*
X7753928Y-17197057D01*
X1267500Y-17800200D02*
G75*
G03*
X1267500Y-17800200I-20000J0D01*
G01*
X1611071Y-17635914D02*
X1639643Y-17635914D01*
X1668214Y-17650200D01*
X1682500Y-17664486D01*
X1696786Y-17693057D01*
X1711071Y-17750200D01*
X1711071Y-17821629D01*
X1696786Y-17878772D01*
X1682500Y-17907343D01*
X1668214Y-17921629D01*
X1639643Y-17935914D01*
X1611071Y-17935914D01*
X1582500Y-17921629D01*
X1568214Y-17907343D01*
X1553928Y-17878772D01*
X1539643Y-17821629D01*
X1539643Y-17750200D01*
X1553928Y-17693057D01*
X1568214Y-17664486D01*
X1582500Y-17650200D01*
X1611071Y-17635914D01*
X1839643Y-17907343D02*
X1853928Y-17921629D01*
X1839643Y-17935914D01*
X1825357Y-17921629D01*
X1839643Y-17907343D01*
X1839643Y-17935914D01*
X2111071Y-17735914D02*
X2111071Y-17935914D01*
X2039643Y-17621629D02*
X1968214Y-17835914D01*
X2153928Y-17835914D01*
X2325357Y-17635914D02*
X2353928Y-17635914D01*
X2382500Y-17650200D01*
X2396786Y-17664486D01*
X2411071Y-17693057D01*
X2425357Y-17750200D01*
X2425357Y-17821629D01*
X2411071Y-17878772D01*
X2396786Y-17907343D01*
X2382500Y-17921629D01*
X2353928Y-17935914D01*
X2325357Y-17935914D01*
X2296786Y-17921629D01*
X2282500Y-17907343D01*
X2268214Y-17878772D01*
X2253928Y-17821629D01*
X2253928Y-17750200D01*
X2268214Y-17693057D01*
X2282500Y-17664486D01*
X2296786Y-17650200D01*
X2325357Y-17635914D01*
X2553928Y-17935914D02*
X2553928Y-17735914D01*
X2553928Y-17764486D02*
X2568214Y-17750200D01*
X2596786Y-17735914D01*
X2639643Y-17735914D01*
X2668214Y-17750200D01*
X2682500Y-17778772D01*
X2682500Y-17935914D01*
X2682500Y-17778772D02*
X2696786Y-17750200D01*
X2725357Y-17735914D01*
X2768214Y-17735914D01*
X2796786Y-17750200D01*
X2811071Y-17778772D01*
X2811071Y-17935914D01*
X2953928Y-17935914D02*
X2953928Y-17735914D01*
X2953928Y-17764486D02*
X2968214Y-17750200D01*
X2996786Y-17735914D01*
X3039643Y-17735914D01*
X3068214Y-17750200D01*
X3082500Y-17778772D01*
X3082500Y-17935914D01*
X3082500Y-17778772D02*
X3096786Y-17750200D01*
X3125357Y-17735914D01*
X3168214Y-17735914D01*
X3196786Y-17750200D01*
X3211071Y-17778772D01*
X3211071Y-17935914D01*
X3796786Y-17621629D02*
X3539643Y-18007343D01*
X4182500Y-17635914D02*
X4211071Y-17635914D01*
X4239643Y-17650200D01*
X4253928Y-17664486D01*
X4268214Y-17693057D01*
X4282500Y-17750200D01*
X4282500Y-17821629D01*
X4268214Y-17878772D01*
X4253928Y-17907343D01*
X4239643Y-17921629D01*
X4211071Y-17935914D01*
X4182500Y-17935914D01*
X4153928Y-17921629D01*
X4139643Y-17907343D01*
X4125357Y-17878772D01*
X4111071Y-17821629D01*
X4111071Y-17750200D01*
X4125357Y-17693057D01*
X4139643Y-17664486D01*
X4153928Y-17650200D01*
X4182500Y-17635914D01*
X4411071Y-17907343D02*
X4425357Y-17921629D01*
X4411071Y-17935914D01*
X4396786Y-17921629D01*
X4411071Y-17907343D01*
X4411071Y-17935914D01*
X4611071Y-17635914D02*
X4639643Y-17635914D01*
X4668214Y-17650200D01*
X4682500Y-17664486D01*
X4696786Y-17693057D01*
X4711071Y-17750200D01*
X4711071Y-17821629D01*
X4696786Y-17878772D01*
X4682500Y-17907343D01*
X4668214Y-17921629D01*
X4639643Y-17935914D01*
X4611071Y-17935914D01*
X4582500Y-17921629D01*
X4568214Y-17907343D01*
X4553928Y-17878772D01*
X4539643Y-17821629D01*
X4539643Y-17750200D01*
X4553928Y-17693057D01*
X4568214Y-17664486D01*
X4582500Y-17650200D01*
X4611071Y-17635914D01*
X4996786Y-17935914D02*
X4825357Y-17935914D01*
X4911071Y-17935914D02*
X4911071Y-17635914D01*
X4882500Y-17678772D01*
X4853928Y-17707343D01*
X4825357Y-17721629D01*
X5253928Y-17635914D02*
X5196786Y-17635914D01*
X5168214Y-17650200D01*
X5153928Y-17664486D01*
X5125357Y-17707343D01*
X5111071Y-17764486D01*
X5111071Y-17878772D01*
X5125357Y-17907343D01*
X5139643Y-17921629D01*
X5168214Y-17935914D01*
X5225357Y-17935914D01*
X5253928Y-17921629D01*
X5268214Y-17907343D01*
X5282500Y-17878772D01*
X5282500Y-17807343D01*
X5268214Y-17778772D01*
X5253928Y-17764486D01*
X5225357Y-17750200D01*
X5168214Y-17750200D01*
X5139643Y-17764486D01*
X5125357Y-17778772D01*
X5111071Y-17807343D01*
X5396786Y-17635914D02*
X5396786Y-17693057D01*
X5511071Y-17635914D02*
X5511071Y-17693057D01*
X5953928Y-18050200D02*
X5939643Y-18035914D01*
X5911071Y-17993057D01*
X5896786Y-17964486D01*
X5882500Y-17921629D01*
X5868214Y-17850200D01*
X5868214Y-17793057D01*
X5882500Y-17721629D01*
X5896786Y-17678772D01*
X5911071Y-17650200D01*
X5939643Y-17607343D01*
X5953928Y-17593057D01*
X6225357Y-17935914D02*
X6053928Y-17935914D01*
X6139643Y-17935914D02*
X6139643Y-17635914D01*
X6111071Y-17678772D01*
X6082500Y-17707343D01*
X6053928Y-17721629D01*
X6511071Y-17935914D02*
X6339643Y-17935914D01*
X6425357Y-17935914D02*
X6425357Y-17635914D01*
X6396786Y-17678772D01*
X6368214Y-17707343D01*
X6339643Y-17721629D01*
X6625357Y-17664486D02*
X6639643Y-17650200D01*
X6668214Y-17635914D01*
X6739643Y-17635914D01*
X6768214Y-17650200D01*
X6782500Y-17664486D01*
X6796786Y-17693057D01*
X6796786Y-17721629D01*
X6782500Y-17764486D01*
X6611071Y-17935914D01*
X6796786Y-17935914D01*
X7153928Y-17935914D02*
X7153928Y-17635914D01*
X7282500Y-17935914D02*
X7282500Y-17778772D01*
X7268214Y-17750200D01*
X7239643Y-17735914D01*
X7196786Y-17735914D01*
X7168214Y-17750200D01*
X7153928Y-17764486D01*
X7468214Y-17935914D02*
X7439643Y-17921629D01*
X7425357Y-17907343D01*
X7411071Y-17878772D01*
X7411071Y-17793057D01*
X7425357Y-17764486D01*
X7439643Y-17750200D01*
X7468214Y-17735914D01*
X7511071Y-17735914D01*
X7539643Y-17750200D01*
X7553928Y-17764486D01*
X7568214Y-17793057D01*
X7568214Y-17878772D01*
X7553928Y-17907343D01*
X7539643Y-17921629D01*
X7511071Y-17935914D01*
X7468214Y-17935914D01*
X7739643Y-17935914D02*
X7711071Y-17921629D01*
X7696786Y-17893057D01*
X7696786Y-17635914D01*
X7968214Y-17921629D02*
X7939643Y-17935914D01*
X7882500Y-17935914D01*
X7853928Y-17921629D01*
X7839643Y-17893057D01*
X7839643Y-17778772D01*
X7853928Y-17750200D01*
X7882500Y-17735914D01*
X7939643Y-17735914D01*
X7968214Y-17750200D01*
X7982500Y-17778772D01*
X7982500Y-17807343D01*
X7839643Y-17835914D01*
X8096786Y-17921629D02*
X8125357Y-17935914D01*
X8182500Y-17935914D01*
X8211071Y-17921629D01*
X8225357Y-17893057D01*
X8225357Y-17878772D01*
X8211071Y-17850200D01*
X8182500Y-17835914D01*
X8139643Y-17835914D01*
X8111071Y-17821629D01*
X8096786Y-17793057D01*
X8096786Y-17778772D01*
X8111071Y-17750200D01*
X8139643Y-17735914D01*
X8182500Y-17735914D01*
X8211071Y-17750200D01*
X8325357Y-18050200D02*
X8339643Y-18035914D01*
X8368214Y-17993057D01*
X8382500Y-17964486D01*
X8396786Y-17921629D01*
X8411071Y-17850200D01*
X8411071Y-17793057D01*
X8396786Y-17721629D01*
X8382500Y-17678772D01*
X8368214Y-17650200D01*
X8339643Y-17607343D01*
X8325357Y-17593057D01*
X1229400Y-18158100D02*
X1229400Y-18234300D01*
X1191300Y-18196200D02*
X1267500Y-18196200D01*
X1611071Y-18031914D02*
X1639643Y-18031914D01*
X1668214Y-18046200D01*
X1682500Y-18060486D01*
X1696786Y-18089057D01*
X1711071Y-18146200D01*
X1711071Y-18217629D01*
X1696786Y-18274772D01*
X1682500Y-18303343D01*
X1668214Y-18317629D01*
X1639643Y-18331914D01*
X1611071Y-18331914D01*
X1582500Y-18317629D01*
X1568214Y-18303343D01*
X1553928Y-18274772D01*
X1539643Y-18217629D01*
X1539643Y-18146200D01*
X1553928Y-18089057D01*
X1568214Y-18060486D01*
X1582500Y-18046200D01*
X1611071Y-18031914D01*
X1839643Y-18303343D02*
X1853928Y-18317629D01*
X1839643Y-18331914D01*
X1825357Y-18317629D01*
X1839643Y-18303343D01*
X1839643Y-18331914D01*
X1953928Y-18031914D02*
X2153928Y-18031914D01*
X2025357Y-18331914D01*
X2396786Y-18031914D02*
X2339643Y-18031914D01*
X2311071Y-18046200D01*
X2296786Y-18060486D01*
X2268214Y-18103343D01*
X2253928Y-18160486D01*
X2253928Y-18274772D01*
X2268214Y-18303343D01*
X2282500Y-18317629D01*
X2311071Y-18331914D01*
X2368214Y-18331914D01*
X2396786Y-18317629D01*
X2411071Y-18303343D01*
X2425357Y-18274772D01*
X2425357Y-18203343D01*
X2411071Y-18174772D01*
X2396786Y-18160486D01*
X2368214Y-18146200D01*
X2311071Y-18146200D01*
X2282500Y-18160486D01*
X2268214Y-18174772D01*
X2253928Y-18203343D01*
X2553928Y-18331914D02*
X2553928Y-18131914D01*
X2553928Y-18160486D02*
X2568214Y-18146200D01*
X2596786Y-18131914D01*
X2639643Y-18131914D01*
X2668214Y-18146200D01*
X2682500Y-18174772D01*
X2682500Y-18331914D01*
X2682500Y-18174772D02*
X2696786Y-18146200D01*
X2725357Y-18131914D01*
X2768214Y-18131914D01*
X2796786Y-18146200D01*
X2811071Y-18174772D01*
X2811071Y-18331914D01*
X2953928Y-18331914D02*
X2953928Y-18131914D01*
X2953928Y-18160486D02*
X2968214Y-18146200D01*
X2996786Y-18131914D01*
X3039643Y-18131914D01*
X3068214Y-18146200D01*
X3082500Y-18174772D01*
X3082500Y-18331914D01*
X3082500Y-18174772D02*
X3096786Y-18146200D01*
X3125357Y-18131914D01*
X3168214Y-18131914D01*
X3196786Y-18146200D01*
X3211071Y-18174772D01*
X3211071Y-18331914D01*
X3796786Y-18017629D02*
X3539643Y-18403343D01*
X4182500Y-18031914D02*
X4211071Y-18031914D01*
X4239643Y-18046200D01*
X4253928Y-18060486D01*
X4268214Y-18089057D01*
X4282500Y-18146200D01*
X4282500Y-18217629D01*
X4268214Y-18274772D01*
X4253928Y-18303343D01*
X4239643Y-18317629D01*
X4211071Y-18331914D01*
X4182500Y-18331914D01*
X4153928Y-18317629D01*
X4139643Y-18303343D01*
X4125357Y-18274772D01*
X4111071Y-18217629D01*
X4111071Y-18146200D01*
X4125357Y-18089057D01*
X4139643Y-18060486D01*
X4153928Y-18046200D01*
X4182500Y-18031914D01*
X4411071Y-18303343D02*
X4425357Y-18317629D01*
X4411071Y-18331914D01*
X4396786Y-18317629D01*
X4411071Y-18303343D01*
X4411071Y-18331914D01*
X4611071Y-18031914D02*
X4639643Y-18031914D01*
X4668214Y-18046200D01*
X4682500Y-18060486D01*
X4696786Y-18089057D01*
X4711071Y-18146200D01*
X4711071Y-18217629D01*
X4696786Y-18274772D01*
X4682500Y-18303343D01*
X4668214Y-18317629D01*
X4639643Y-18331914D01*
X4611071Y-18331914D01*
X4582500Y-18317629D01*
X4568214Y-18303343D01*
X4553928Y-18274772D01*
X4539643Y-18217629D01*
X4539643Y-18146200D01*
X4553928Y-18089057D01*
X4568214Y-18060486D01*
X4582500Y-18046200D01*
X4611071Y-18031914D01*
X4811071Y-18031914D02*
X4996786Y-18031914D01*
X4896786Y-18146200D01*
X4939643Y-18146200D01*
X4968214Y-18160486D01*
X4982500Y-18174772D01*
X4996786Y-18203343D01*
X4996786Y-18274772D01*
X4982500Y-18303343D01*
X4968214Y-18317629D01*
X4939643Y-18331914D01*
X4853928Y-18331914D01*
X4825357Y-18317629D01*
X4811071Y-18303343D01*
X5182500Y-18031914D02*
X5211071Y-18031914D01*
X5239643Y-18046200D01*
X5253928Y-18060486D01*
X5268214Y-18089057D01*
X5282500Y-18146200D01*
X5282500Y-18217629D01*
X5268214Y-18274772D01*
X5253928Y-18303343D01*
X5239643Y-18317629D01*
X5211071Y-18331914D01*
X5182500Y-18331914D01*
X5153928Y-18317629D01*
X5139643Y-18303343D01*
X5125357Y-18274772D01*
X5111071Y-18217629D01*
X5111071Y-18146200D01*
X5125357Y-18089057D01*
X5139643Y-18060486D01*
X5153928Y-18046200D01*
X5182500Y-18031914D01*
X5396786Y-18031914D02*
X5396786Y-18089057D01*
X5511071Y-18031914D02*
X5511071Y-18089057D01*
X5953928Y-18446200D02*
X5939643Y-18431914D01*
X5911071Y-18389057D01*
X5896786Y-18360486D01*
X5882500Y-18317629D01*
X5868214Y-18246200D01*
X5868214Y-18189057D01*
X5882500Y-18117629D01*
X5896786Y-18074772D01*
X5911071Y-18046200D01*
X5939643Y-18003343D01*
X5953928Y-17989057D01*
X6082500Y-18331914D02*
X6139643Y-18331914D01*
X6168214Y-18317629D01*
X6182500Y-18303343D01*
X6211071Y-18260486D01*
X6225357Y-18203343D01*
X6225357Y-18089057D01*
X6211071Y-18060486D01*
X6196786Y-18046200D01*
X6168214Y-18031914D01*
X6111071Y-18031914D01*
X6082500Y-18046200D01*
X6068214Y-18060486D01*
X6053928Y-18089057D01*
X6053928Y-18160486D01*
X6068214Y-18189057D01*
X6082500Y-18203343D01*
X6111071Y-18217629D01*
X6168214Y-18217629D01*
X6196786Y-18203343D01*
X6211071Y-18189057D01*
X6225357Y-18160486D01*
X6582500Y-18331914D02*
X6582500Y-18031914D01*
X6711071Y-18331914D02*
X6711071Y-18174772D01*
X6696786Y-18146200D01*
X6668214Y-18131914D01*
X6625357Y-18131914D01*
X6596786Y-18146200D01*
X6582500Y-18160486D01*
X6896786Y-18331914D02*
X6868214Y-18317629D01*
X6853928Y-18303343D01*
X6839643Y-18274772D01*
X6839643Y-18189057D01*
X6853928Y-18160486D01*
X6868214Y-18146200D01*
X6896786Y-18131914D01*
X6939643Y-18131914D01*
X6968214Y-18146200D01*
X6982500Y-18160486D01*
X6996786Y-18189057D01*
X6996786Y-18274772D01*
X6982500Y-18303343D01*
X6968214Y-18317629D01*
X6939643Y-18331914D01*
X6896786Y-18331914D01*
X7168214Y-18331914D02*
X7139643Y-18317629D01*
X7125357Y-18289057D01*
X7125357Y-18031914D01*
X7396786Y-18317629D02*
X7368214Y-18331914D01*
X7311071Y-18331914D01*
X7282500Y-18317629D01*
X7268214Y-18289057D01*
X7268214Y-18174772D01*
X7282500Y-18146200D01*
X7311071Y-18131914D01*
X7368214Y-18131914D01*
X7396786Y-18146200D01*
X7411071Y-18174772D01*
X7411071Y-18203343D01*
X7268214Y-18231914D01*
X7525357Y-18317629D02*
X7553928Y-18331914D01*
X7611071Y-18331914D01*
X7639643Y-18317629D01*
X7653928Y-18289057D01*
X7653928Y-18274772D01*
X7639643Y-18246200D01*
X7611071Y-18231914D01*
X7568214Y-18231914D01*
X7539643Y-18217629D01*
X7525357Y-18189057D01*
X7525357Y-18174772D01*
X7539643Y-18146200D01*
X7568214Y-18131914D01*
X7611071Y-18131914D01*
X7639643Y-18146200D01*
X7753928Y-18446200D02*
X7768214Y-18431914D01*
X7796786Y-18389057D01*
X7811071Y-18360486D01*
X7825357Y-18317629D01*
X7839643Y-18246200D01*
X7839643Y-18189057D01*
X7825357Y-18117629D01*
X7811071Y-18074772D01*
X7796786Y-18046200D01*
X7768214Y-18003343D01*
X7753928Y-17989057D01*
X1255052Y-18622252D02*
X1255052Y-18562148D01*
X1194948Y-18562148D01*
X1194948Y-18622252D01*
X1255052Y-18622252D01*
X1611071Y-18427914D02*
X1639643Y-18427914D01*
X1668214Y-18442200D01*
X1682500Y-18456486D01*
X1696786Y-18485057D01*
X1711071Y-18542200D01*
X1711071Y-18613629D01*
X1696786Y-18670772D01*
X1682500Y-18699343D01*
X1668214Y-18713629D01*
X1639643Y-18727914D01*
X1611071Y-18727914D01*
X1582500Y-18713629D01*
X1568214Y-18699343D01*
X1553928Y-18670772D01*
X1539643Y-18613629D01*
X1539643Y-18542200D01*
X1553928Y-18485057D01*
X1568214Y-18456486D01*
X1582500Y-18442200D01*
X1611071Y-18427914D01*
X1839643Y-18699343D02*
X1853928Y-18713629D01*
X1839643Y-18727914D01*
X1825357Y-18713629D01*
X1839643Y-18699343D01*
X1839643Y-18727914D01*
X2025357Y-18556486D02*
X1996786Y-18542200D01*
X1982500Y-18527914D01*
X1968214Y-18499343D01*
X1968214Y-18485057D01*
X1982500Y-18456486D01*
X1996786Y-18442200D01*
X2025357Y-18427914D01*
X2082500Y-18427914D01*
X2111071Y-18442200D01*
X2125357Y-18456486D01*
X2139643Y-18485057D01*
X2139643Y-18499343D01*
X2125357Y-18527914D01*
X2111071Y-18542200D01*
X2082500Y-18556486D01*
X2025357Y-18556486D01*
X1996786Y-18570772D01*
X1982500Y-18585057D01*
X1968214Y-18613629D01*
X1968214Y-18670772D01*
X1982500Y-18699343D01*
X1996786Y-18713629D01*
X2025357Y-18727914D01*
X2082500Y-18727914D01*
X2111071Y-18713629D01*
X2125357Y-18699343D01*
X2139643Y-18670772D01*
X2139643Y-18613629D01*
X2125357Y-18585057D01*
X2111071Y-18570772D01*
X2082500Y-18556486D01*
X2411071Y-18427914D02*
X2268214Y-18427914D01*
X2253928Y-18570772D01*
X2268214Y-18556486D01*
X2296786Y-18542200D01*
X2368214Y-18542200D01*
X2396786Y-18556486D01*
X2411071Y-18570772D01*
X2425357Y-18599343D01*
X2425357Y-18670772D01*
X2411071Y-18699343D01*
X2396786Y-18713629D01*
X2368214Y-18727914D01*
X2296786Y-18727914D01*
X2268214Y-18713629D01*
X2253928Y-18699343D01*
X2553928Y-18727914D02*
X2553928Y-18527914D01*
X2553928Y-18556486D02*
X2568214Y-18542200D01*
X2596786Y-18527914D01*
X2639643Y-18527914D01*
X2668214Y-18542200D01*
X2682500Y-18570772D01*
X2682500Y-18727914D01*
X2682500Y-18570772D02*
X2696786Y-18542200D01*
X2725357Y-18527914D01*
X2768214Y-18527914D01*
X2796786Y-18542200D01*
X2811071Y-18570772D01*
X2811071Y-18727914D01*
X2953928Y-18727914D02*
X2953928Y-18527914D01*
X2953928Y-18556486D02*
X2968214Y-18542200D01*
X2996786Y-18527914D01*
X3039643Y-18527914D01*
X3068214Y-18542200D01*
X3082500Y-18570772D01*
X3082500Y-18727914D01*
X3082500Y-18570772D02*
X3096786Y-18542200D01*
X3125357Y-18527914D01*
X3168214Y-18527914D01*
X3196786Y-18542200D01*
X3211071Y-18570772D01*
X3211071Y-18727914D01*
X3796786Y-18413629D02*
X3539643Y-18799343D01*
X4182500Y-18427914D02*
X4211071Y-18427914D01*
X4239643Y-18442200D01*
X4253928Y-18456486D01*
X4268214Y-18485057D01*
X4282500Y-18542200D01*
X4282500Y-18613629D01*
X4268214Y-18670772D01*
X4253928Y-18699343D01*
X4239643Y-18713629D01*
X4211071Y-18727914D01*
X4182500Y-18727914D01*
X4153928Y-18713629D01*
X4139643Y-18699343D01*
X4125357Y-18670772D01*
X4111071Y-18613629D01*
X4111071Y-18542200D01*
X4125357Y-18485057D01*
X4139643Y-18456486D01*
X4153928Y-18442200D01*
X4182500Y-18427914D01*
X4411071Y-18699343D02*
X4425357Y-18713629D01*
X4411071Y-18727914D01*
X4396786Y-18713629D01*
X4411071Y-18699343D01*
X4411071Y-18727914D01*
X4611071Y-18427914D02*
X4639643Y-18427914D01*
X4668214Y-18442200D01*
X4682500Y-18456486D01*
X4696786Y-18485057D01*
X4711071Y-18542200D01*
X4711071Y-18613629D01*
X4696786Y-18670772D01*
X4682500Y-18699343D01*
X4668214Y-18713629D01*
X4639643Y-18727914D01*
X4611071Y-18727914D01*
X4582500Y-18713629D01*
X4568214Y-18699343D01*
X4553928Y-18670772D01*
X4539643Y-18613629D01*
X4539643Y-18542200D01*
X4553928Y-18485057D01*
X4568214Y-18456486D01*
X4582500Y-18442200D01*
X4611071Y-18427914D01*
X4811071Y-18427914D02*
X4996786Y-18427914D01*
X4896786Y-18542200D01*
X4939643Y-18542200D01*
X4968214Y-18556486D01*
X4982500Y-18570772D01*
X4996786Y-18599343D01*
X4996786Y-18670772D01*
X4982500Y-18699343D01*
X4968214Y-18713629D01*
X4939643Y-18727914D01*
X4853928Y-18727914D01*
X4825357Y-18713629D01*
X4811071Y-18699343D01*
X5096786Y-18427914D02*
X5282500Y-18427914D01*
X5182500Y-18542200D01*
X5225357Y-18542200D01*
X5253928Y-18556486D01*
X5268214Y-18570772D01*
X5282500Y-18599343D01*
X5282500Y-18670772D01*
X5268214Y-18699343D01*
X5253928Y-18713629D01*
X5225357Y-18727914D01*
X5139643Y-18727914D01*
X5111071Y-18713629D01*
X5096786Y-18699343D01*
X5396786Y-18427914D02*
X5396786Y-18485057D01*
X5511071Y-18427914D02*
X5511071Y-18485057D01*
X5953928Y-18842200D02*
X5939643Y-18827914D01*
X5911071Y-18785057D01*
X5896786Y-18756486D01*
X5882500Y-18713629D01*
X5868214Y-18642200D01*
X5868214Y-18585057D01*
X5882500Y-18513629D01*
X5896786Y-18470772D01*
X5911071Y-18442200D01*
X5939643Y-18399343D01*
X5953928Y-18385057D01*
X6225357Y-18727914D02*
X6053928Y-18727914D01*
X6139643Y-18727914D02*
X6139643Y-18427914D01*
X6111071Y-18470772D01*
X6082500Y-18499343D01*
X6053928Y-18513629D01*
X6325357Y-18427914D02*
X6511071Y-18427914D01*
X6411071Y-18542200D01*
X6453928Y-18542200D01*
X6482500Y-18556486D01*
X6496786Y-18570772D01*
X6511071Y-18599343D01*
X6511071Y-18670772D01*
X6496786Y-18699343D01*
X6482500Y-18713629D01*
X6453928Y-18727914D01*
X6368214Y-18727914D01*
X6339643Y-18713629D01*
X6325357Y-18699343D01*
X6868214Y-18727914D02*
X6868214Y-18427914D01*
X6996786Y-18727914D02*
X6996786Y-18570772D01*
X6982500Y-18542200D01*
X6953928Y-18527914D01*
X6911071Y-18527914D01*
X6882500Y-18542200D01*
X6868214Y-18556486D01*
X7182500Y-18727914D02*
X7153928Y-18713629D01*
X7139643Y-18699343D01*
X7125357Y-18670772D01*
X7125357Y-18585057D01*
X7139643Y-18556486D01*
X7153928Y-18542200D01*
X7182500Y-18527914D01*
X7225357Y-18527914D01*
X7253928Y-18542200D01*
X7268214Y-18556486D01*
X7282500Y-18585057D01*
X7282500Y-18670772D01*
X7268214Y-18699343D01*
X7253928Y-18713629D01*
X7225357Y-18727914D01*
X7182500Y-18727914D01*
X7453928Y-18727914D02*
X7425357Y-18713629D01*
X7411071Y-18685057D01*
X7411071Y-18427914D01*
X7682500Y-18713629D02*
X7653928Y-18727914D01*
X7596786Y-18727914D01*
X7568214Y-18713629D01*
X7553928Y-18685057D01*
X7553928Y-18570772D01*
X7568214Y-18542200D01*
X7596786Y-18527914D01*
X7653928Y-18527914D01*
X7682500Y-18542200D01*
X7696786Y-18570772D01*
X7696786Y-18599343D01*
X7553928Y-18627914D01*
X7811071Y-18713629D02*
X7839643Y-18727914D01*
X7896786Y-18727914D01*
X7925357Y-18713629D01*
X7939643Y-18685057D01*
X7939643Y-18670772D01*
X7925357Y-18642200D01*
X7896786Y-18627914D01*
X7853928Y-18627914D01*
X7825357Y-18613629D01*
X7811071Y-18585057D01*
X7811071Y-18570772D01*
X7825357Y-18542200D01*
X7853928Y-18527914D01*
X7896786Y-18527914D01*
X7925357Y-18542200D01*
X8039643Y-18842200D02*
X8053928Y-18827914D01*
X8082500Y-18785057D01*
X8096786Y-18756486D01*
X8111071Y-18713629D01*
X8125357Y-18642200D01*
X8125357Y-18585057D01*
X8111071Y-18513629D01*
X8096786Y-18470772D01*
X8082500Y-18442200D01*
X8053928Y-18399343D01*
X8039643Y-18385057D01*
X1217500Y-19038200D02*
X1267500Y-18988200D01*
X1217500Y-18938200D01*
X1167500Y-18988200D01*
X1217500Y-19038200D01*
X1711071Y-19123914D02*
X1539643Y-19123914D01*
X1625357Y-19123914D02*
X1625357Y-18823914D01*
X1596786Y-18866772D01*
X1568214Y-18895343D01*
X1539643Y-18909629D01*
X1839643Y-19095343D02*
X1853928Y-19109629D01*
X1839643Y-19123914D01*
X1825357Y-19109629D01*
X1839643Y-19095343D01*
X1839643Y-19123914D01*
X2039643Y-18823914D02*
X2068214Y-18823914D01*
X2096786Y-18838200D01*
X2111071Y-18852486D01*
X2125357Y-18881057D01*
X2139643Y-18938200D01*
X2139643Y-19009629D01*
X2125357Y-19066772D01*
X2111071Y-19095343D01*
X2096786Y-19109629D01*
X2068214Y-19123914D01*
X2039643Y-19123914D01*
X2011071Y-19109629D01*
X1996786Y-19095343D01*
X1982500Y-19066772D01*
X1968214Y-19009629D01*
X1968214Y-18938200D01*
X1982500Y-18881057D01*
X1996786Y-18852486D01*
X2011071Y-18838200D01*
X2039643Y-18823914D01*
X2325357Y-18823914D02*
X2353928Y-18823914D01*
X2382500Y-18838200D01*
X2396786Y-18852486D01*
X2411071Y-18881057D01*
X2425357Y-18938200D01*
X2425357Y-19009629D01*
X2411071Y-19066772D01*
X2396786Y-19095343D01*
X2382500Y-19109629D01*
X2353928Y-19123914D01*
X2325357Y-19123914D01*
X2296786Y-19109629D01*
X2282500Y-19095343D01*
X2268214Y-19066772D01*
X2253928Y-19009629D01*
X2253928Y-18938200D01*
X2268214Y-18881057D01*
X2282500Y-18852486D01*
X2296786Y-18838200D01*
X2325357Y-18823914D01*
X2553928Y-19123914D02*
X2553928Y-18923914D01*
X2553928Y-18952486D02*
X2568214Y-18938200D01*
X2596786Y-18923914D01*
X2639643Y-18923914D01*
X2668214Y-18938200D01*
X2682500Y-18966772D01*
X2682500Y-19123914D01*
X2682500Y-18966772D02*
X2696786Y-18938200D01*
X2725357Y-18923914D01*
X2768214Y-18923914D01*
X2796786Y-18938200D01*
X2811071Y-18966772D01*
X2811071Y-19123914D01*
X2953928Y-19123914D02*
X2953928Y-18923914D01*
X2953928Y-18952486D02*
X2968214Y-18938200D01*
X2996786Y-18923914D01*
X3039643Y-18923914D01*
X3068214Y-18938200D01*
X3082500Y-18966772D01*
X3082500Y-19123914D01*
X3082500Y-18966772D02*
X3096786Y-18938200D01*
X3125357Y-18923914D01*
X3168214Y-18923914D01*
X3196786Y-18938200D01*
X3211071Y-18966772D01*
X3211071Y-19123914D01*
X3796786Y-18809629D02*
X3539643Y-19195343D01*
X4182500Y-18823914D02*
X4211071Y-18823914D01*
X4239643Y-18838200D01*
X4253928Y-18852486D01*
X4268214Y-18881057D01*
X4282500Y-18938200D01*
X4282500Y-19009629D01*
X4268214Y-19066772D01*
X4253928Y-19095343D01*
X4239643Y-19109629D01*
X4211071Y-19123914D01*
X4182500Y-19123914D01*
X4153928Y-19109629D01*
X4139643Y-19095343D01*
X4125357Y-19066772D01*
X4111071Y-19009629D01*
X4111071Y-18938200D01*
X4125357Y-18881057D01*
X4139643Y-18852486D01*
X4153928Y-18838200D01*
X4182500Y-18823914D01*
X4411071Y-19095343D02*
X4425357Y-19109629D01*
X4411071Y-19123914D01*
X4396786Y-19109629D01*
X4411071Y-19095343D01*
X4411071Y-19123914D01*
X4611071Y-18823914D02*
X4639643Y-18823914D01*
X4668214Y-18838200D01*
X4682500Y-18852486D01*
X4696786Y-18881057D01*
X4711071Y-18938200D01*
X4711071Y-19009629D01*
X4696786Y-19066772D01*
X4682500Y-19095343D01*
X4668214Y-19109629D01*
X4639643Y-19123914D01*
X4611071Y-19123914D01*
X4582500Y-19109629D01*
X4568214Y-19095343D01*
X4553928Y-19066772D01*
X4539643Y-19009629D01*
X4539643Y-18938200D01*
X4553928Y-18881057D01*
X4568214Y-18852486D01*
X4582500Y-18838200D01*
X4611071Y-18823914D01*
X4811071Y-18823914D02*
X4996786Y-18823914D01*
X4896786Y-18938200D01*
X4939643Y-18938200D01*
X4968214Y-18952486D01*
X4982500Y-18966772D01*
X4996786Y-18995343D01*
X4996786Y-19066772D01*
X4982500Y-19095343D01*
X4968214Y-19109629D01*
X4939643Y-19123914D01*
X4853928Y-19123914D01*
X4825357Y-19109629D01*
X4811071Y-19095343D01*
X5139643Y-19123914D02*
X5196786Y-19123914D01*
X5225357Y-19109629D01*
X5239643Y-19095343D01*
X5268214Y-19052486D01*
X5282500Y-18995343D01*
X5282500Y-18881057D01*
X5268214Y-18852486D01*
X5253928Y-18838200D01*
X5225357Y-18823914D01*
X5168214Y-18823914D01*
X5139643Y-18838200D01*
X5125357Y-18852486D01*
X5111071Y-18881057D01*
X5111071Y-18952486D01*
X5125357Y-18981057D01*
X5139643Y-18995343D01*
X5168214Y-19009629D01*
X5225357Y-19009629D01*
X5253928Y-18995343D01*
X5268214Y-18981057D01*
X5282500Y-18952486D01*
X5396786Y-18823914D02*
X5396786Y-18881057D01*
X5511071Y-18823914D02*
X5511071Y-18881057D01*
X5953928Y-19238200D02*
X5939643Y-19223914D01*
X5911071Y-19181057D01*
X5896786Y-19152486D01*
X5882500Y-19109629D01*
X5868214Y-19038200D01*
X5868214Y-18981057D01*
X5882500Y-18909629D01*
X5896786Y-18866772D01*
X5911071Y-18838200D01*
X5939643Y-18795343D01*
X5953928Y-18781057D01*
X6225357Y-19123914D02*
X6053928Y-19123914D01*
X6139643Y-19123914D02*
X6139643Y-18823914D01*
X6111071Y-18866772D01*
X6082500Y-18895343D01*
X6053928Y-18909629D01*
X6496786Y-18823914D02*
X6353928Y-18823914D01*
X6339643Y-18966772D01*
X6353928Y-18952486D01*
X6382500Y-18938200D01*
X6453928Y-18938200D01*
X6482500Y-18952486D01*
X6496786Y-18966772D01*
X6511071Y-18995343D01*
X6511071Y-19066772D01*
X6496786Y-19095343D01*
X6482500Y-19109629D01*
X6453928Y-19123914D01*
X6382500Y-19123914D01*
X6353928Y-19109629D01*
X6339643Y-19095343D01*
X6682500Y-18952486D02*
X6653928Y-18938200D01*
X6639643Y-18923914D01*
X6625357Y-18895343D01*
X6625357Y-18881057D01*
X6639643Y-18852486D01*
X6653928Y-18838200D01*
X6682500Y-18823914D01*
X6739643Y-18823914D01*
X6768214Y-18838200D01*
X6782500Y-18852486D01*
X6796786Y-18881057D01*
X6796786Y-18895343D01*
X6782500Y-18923914D01*
X6768214Y-18938200D01*
X6739643Y-18952486D01*
X6682500Y-18952486D01*
X6653928Y-18966772D01*
X6639643Y-18981057D01*
X6625357Y-19009629D01*
X6625357Y-19066772D01*
X6639643Y-19095343D01*
X6653928Y-19109629D01*
X6682500Y-19123914D01*
X6739643Y-19123914D01*
X6768214Y-19109629D01*
X6782500Y-19095343D01*
X6796786Y-19066772D01*
X6796786Y-19009629D01*
X6782500Y-18981057D01*
X6768214Y-18966772D01*
X6739643Y-18952486D01*
X7153928Y-19123914D02*
X7153928Y-18823914D01*
X7282500Y-19123914D02*
X7282500Y-18966772D01*
X7268214Y-18938200D01*
X7239643Y-18923914D01*
X7196786Y-18923914D01*
X7168214Y-18938200D01*
X7153928Y-18952486D01*
X7468214Y-19123914D02*
X7439643Y-19109629D01*
X7425357Y-19095343D01*
X7411071Y-19066772D01*
X7411071Y-18981057D01*
X7425357Y-18952486D01*
X7439643Y-18938200D01*
X7468214Y-18923914D01*
X7511071Y-18923914D01*
X7539643Y-18938200D01*
X7553928Y-18952486D01*
X7568214Y-18981057D01*
X7568214Y-19066772D01*
X7553928Y-19095343D01*
X7539643Y-19109629D01*
X7511071Y-19123914D01*
X7468214Y-19123914D01*
X7739643Y-19123914D02*
X7711071Y-19109629D01*
X7696786Y-19081057D01*
X7696786Y-18823914D01*
X7968214Y-19109629D02*
X7939643Y-19123914D01*
X7882500Y-19123914D01*
X7853928Y-19109629D01*
X7839643Y-19081057D01*
X7839643Y-18966772D01*
X7853928Y-18938200D01*
X7882500Y-18923914D01*
X7939643Y-18923914D01*
X7968214Y-18938200D01*
X7982500Y-18966772D01*
X7982500Y-18995343D01*
X7839643Y-19023914D01*
X8096786Y-19109629D02*
X8125357Y-19123914D01*
X8182500Y-19123914D01*
X8211071Y-19109629D01*
X8225357Y-19081057D01*
X8225357Y-19066772D01*
X8211071Y-19038200D01*
X8182500Y-19023914D01*
X8139643Y-19023914D01*
X8111071Y-19009629D01*
X8096786Y-18981057D01*
X8096786Y-18966772D01*
X8111071Y-18938200D01*
X8139643Y-18923914D01*
X8182500Y-18923914D01*
X8211071Y-18938200D01*
X8325357Y-19238200D02*
X8339643Y-19223914D01*
X8368214Y-19181057D01*
X8382500Y-19152486D01*
X8396786Y-19109629D01*
X8411071Y-19038200D01*
X8411071Y-18981057D01*
X8396786Y-18909629D01*
X8382500Y-18866772D01*
X8368214Y-18838200D01*
X8339643Y-18795343D01*
X8325357Y-18781057D01*
X1157500Y-19329200D02*
X1267500Y-19439200D01*
X1267500Y-19329200D02*
X1157500Y-19439200D01*
X1267500Y-19384200D02*
G75*
G03*
X1267500Y-19384200I-55000J0D01*
G01*
X1711071Y-19519914D02*
X1539643Y-19519914D01*
X1625357Y-19519914D02*
X1625357Y-19219914D01*
X1596786Y-19262772D01*
X1568214Y-19291343D01*
X1539643Y-19305629D01*
X1839643Y-19491343D02*
X1853928Y-19505629D01*
X1839643Y-19519914D01*
X1825357Y-19505629D01*
X1839643Y-19491343D01*
X1839643Y-19519914D01*
X2139643Y-19519914D02*
X1968214Y-19519914D01*
X2053928Y-19519914D02*
X2053928Y-19219914D01*
X2025357Y-19262772D01*
X1996786Y-19291343D01*
X1968214Y-19305629D01*
X2325357Y-19219914D02*
X2353928Y-19219914D01*
X2382500Y-19234200D01*
X2396786Y-19248486D01*
X2411071Y-19277057D01*
X2425357Y-19334200D01*
X2425357Y-19405629D01*
X2411071Y-19462772D01*
X2396786Y-19491343D01*
X2382500Y-19505629D01*
X2353928Y-19519914D01*
X2325357Y-19519914D01*
X2296786Y-19505629D01*
X2282500Y-19491343D01*
X2268214Y-19462772D01*
X2253928Y-19405629D01*
X2253928Y-19334200D01*
X2268214Y-19277057D01*
X2282500Y-19248486D01*
X2296786Y-19234200D01*
X2325357Y-19219914D01*
X2553928Y-19519914D02*
X2553928Y-19319914D01*
X2553928Y-19348486D02*
X2568214Y-19334200D01*
X2596786Y-19319914D01*
X2639643Y-19319914D01*
X2668214Y-19334200D01*
X2682500Y-19362772D01*
X2682500Y-19519914D01*
X2682500Y-19362772D02*
X2696786Y-19334200D01*
X2725357Y-19319914D01*
X2768214Y-19319914D01*
X2796786Y-19334200D01*
X2811071Y-19362772D01*
X2811071Y-19519914D01*
X2953928Y-19519914D02*
X2953928Y-19319914D01*
X2953928Y-19348486D02*
X2968214Y-19334200D01*
X2996786Y-19319914D01*
X3039643Y-19319914D01*
X3068214Y-19334200D01*
X3082500Y-19362772D01*
X3082500Y-19519914D01*
X3082500Y-19362772D02*
X3096786Y-19334200D01*
X3125357Y-19319914D01*
X3168214Y-19319914D01*
X3196786Y-19334200D01*
X3211071Y-19362772D01*
X3211071Y-19519914D01*
X3796786Y-19205629D02*
X3539643Y-19591343D01*
X4182500Y-19219914D02*
X4211071Y-19219914D01*
X4239643Y-19234200D01*
X4253928Y-19248486D01*
X4268214Y-19277057D01*
X4282500Y-19334200D01*
X4282500Y-19405629D01*
X4268214Y-19462772D01*
X4253928Y-19491343D01*
X4239643Y-19505629D01*
X4211071Y-19519914D01*
X4182500Y-19519914D01*
X4153928Y-19505629D01*
X4139643Y-19491343D01*
X4125357Y-19462772D01*
X4111071Y-19405629D01*
X4111071Y-19334200D01*
X4125357Y-19277057D01*
X4139643Y-19248486D01*
X4153928Y-19234200D01*
X4182500Y-19219914D01*
X4411071Y-19491343D02*
X4425357Y-19505629D01*
X4411071Y-19519914D01*
X4396786Y-19505629D01*
X4411071Y-19491343D01*
X4411071Y-19519914D01*
X4611071Y-19219914D02*
X4639643Y-19219914D01*
X4668214Y-19234200D01*
X4682500Y-19248486D01*
X4696786Y-19277057D01*
X4711071Y-19334200D01*
X4711071Y-19405629D01*
X4696786Y-19462772D01*
X4682500Y-19491343D01*
X4668214Y-19505629D01*
X4639643Y-19519914D01*
X4611071Y-19519914D01*
X4582500Y-19505629D01*
X4568214Y-19491343D01*
X4553928Y-19462772D01*
X4539643Y-19405629D01*
X4539643Y-19334200D01*
X4553928Y-19277057D01*
X4568214Y-19248486D01*
X4582500Y-19234200D01*
X4611071Y-19219914D01*
X4968214Y-19319914D02*
X4968214Y-19519914D01*
X4896786Y-19205629D02*
X4825357Y-19419914D01*
X5011071Y-19419914D01*
X5096786Y-19219914D02*
X5282500Y-19219914D01*
X5182500Y-19334200D01*
X5225357Y-19334200D01*
X5253928Y-19348486D01*
X5268214Y-19362772D01*
X5282500Y-19391343D01*
X5282500Y-19462772D01*
X5268214Y-19491343D01*
X5253928Y-19505629D01*
X5225357Y-19519914D01*
X5139643Y-19519914D01*
X5111071Y-19505629D01*
X5096786Y-19491343D01*
X5396786Y-19219914D02*
X5396786Y-19277057D01*
X5511071Y-19219914D02*
X5511071Y-19277057D01*
X5953928Y-19634200D02*
X5939643Y-19619914D01*
X5911071Y-19577057D01*
X5896786Y-19548486D01*
X5882500Y-19505629D01*
X5868214Y-19434200D01*
X5868214Y-19377057D01*
X5882500Y-19305629D01*
X5896786Y-19262772D01*
X5911071Y-19234200D01*
X5939643Y-19191343D01*
X5953928Y-19177057D01*
X6039643Y-19219914D02*
X6225357Y-19219914D01*
X6125357Y-19334200D01*
X6168214Y-19334200D01*
X6196786Y-19348486D01*
X6211071Y-19362772D01*
X6225357Y-19391343D01*
X6225357Y-19462772D01*
X6211071Y-19491343D01*
X6196786Y-19505629D01*
X6168214Y-19519914D01*
X6082500Y-19519914D01*
X6053928Y-19505629D01*
X6039643Y-19491343D01*
X6582500Y-19519914D02*
X6582500Y-19219914D01*
X6711071Y-19519914D02*
X6711071Y-19362772D01*
X6696786Y-19334200D01*
X6668214Y-19319914D01*
X6625357Y-19319914D01*
X6596786Y-19334200D01*
X6582500Y-19348486D01*
X6896786Y-19519914D02*
X6868214Y-19505629D01*
X6853928Y-19491343D01*
X6839643Y-19462772D01*
X6839643Y-19377057D01*
X6853928Y-19348486D01*
X6868214Y-19334200D01*
X6896786Y-19319914D01*
X6939643Y-19319914D01*
X6968214Y-19334200D01*
X6982500Y-19348486D01*
X6996786Y-19377057D01*
X6996786Y-19462772D01*
X6982500Y-19491343D01*
X6968214Y-19505629D01*
X6939643Y-19519914D01*
X6896786Y-19519914D01*
X7168214Y-19519914D02*
X7139643Y-19505629D01*
X7125357Y-19477057D01*
X7125357Y-19219914D01*
X7396786Y-19505629D02*
X7368214Y-19519914D01*
X7311071Y-19519914D01*
X7282500Y-19505629D01*
X7268214Y-19477057D01*
X7268214Y-19362772D01*
X7282500Y-19334200D01*
X7311071Y-19319914D01*
X7368214Y-19319914D01*
X7396786Y-19334200D01*
X7411071Y-19362772D01*
X7411071Y-19391343D01*
X7268214Y-19419914D01*
X7525357Y-19505629D02*
X7553928Y-19519914D01*
X7611071Y-19519914D01*
X7639643Y-19505629D01*
X7653928Y-19477057D01*
X7653928Y-19462772D01*
X7639643Y-19434200D01*
X7611071Y-19419914D01*
X7568214Y-19419914D01*
X7539643Y-19405629D01*
X7525357Y-19377057D01*
X7525357Y-19362772D01*
X7539643Y-19334200D01*
X7568214Y-19319914D01*
X7611071Y-19319914D01*
X7639643Y-19334200D01*
X7753928Y-19634200D02*
X7768214Y-19619914D01*
X7796786Y-19577057D01*
X7811071Y-19548486D01*
X7825357Y-19505629D01*
X7839643Y-19434200D01*
X7839643Y-19377057D01*
X7825357Y-19305629D01*
X7811071Y-19262772D01*
X7796786Y-19234200D01*
X7768214Y-19191343D01*
X7753928Y-19177057D01*
X1147500Y-19720200D02*
X1267500Y-19840200D01*
X1267500Y-19720200D02*
X1147500Y-19840200D01*
X1207500Y-19720200D02*
X1207500Y-19840200D01*
X1147500Y-19780200D02*
X1267500Y-19780200D01*
X1711071Y-19915914D02*
X1539643Y-19915914D01*
X1625357Y-19915914D02*
X1625357Y-19615914D01*
X1596786Y-19658772D01*
X1568214Y-19687343D01*
X1539643Y-19701629D01*
X1839643Y-19887343D02*
X1853928Y-19901629D01*
X1839643Y-19915914D01*
X1825357Y-19901629D01*
X1839643Y-19887343D01*
X1839643Y-19915914D01*
X1968214Y-19644486D02*
X1982500Y-19630200D01*
X2011071Y-19615914D01*
X2082500Y-19615914D01*
X2111071Y-19630200D01*
X2125357Y-19644486D01*
X2139643Y-19673057D01*
X2139643Y-19701629D01*
X2125357Y-19744486D01*
X1953928Y-19915914D01*
X2139643Y-19915914D01*
X2325357Y-19615914D02*
X2353928Y-19615914D01*
X2382500Y-19630200D01*
X2396786Y-19644486D01*
X2411071Y-19673057D01*
X2425357Y-19730200D01*
X2425357Y-19801629D01*
X2411071Y-19858772D01*
X2396786Y-19887343D01*
X2382500Y-19901629D01*
X2353928Y-19915914D01*
X2325357Y-19915914D01*
X2296786Y-19901629D01*
X2282500Y-19887343D01*
X2268214Y-19858772D01*
X2253928Y-19801629D01*
X2253928Y-19730200D01*
X2268214Y-19673057D01*
X2282500Y-19644486D01*
X2296786Y-19630200D01*
X2325357Y-19615914D01*
X2553928Y-19915914D02*
X2553928Y-19715914D01*
X2553928Y-19744486D02*
X2568214Y-19730200D01*
X2596786Y-19715914D01*
X2639643Y-19715914D01*
X2668214Y-19730200D01*
X2682500Y-19758772D01*
X2682500Y-19915914D01*
X2682500Y-19758772D02*
X2696786Y-19730200D01*
X2725357Y-19715914D01*
X2768214Y-19715914D01*
X2796786Y-19730200D01*
X2811071Y-19758772D01*
X2811071Y-19915914D01*
X2953928Y-19915914D02*
X2953928Y-19715914D01*
X2953928Y-19744486D02*
X2968214Y-19730200D01*
X2996786Y-19715914D01*
X3039643Y-19715914D01*
X3068214Y-19730200D01*
X3082500Y-19758772D01*
X3082500Y-19915914D01*
X3082500Y-19758772D02*
X3096786Y-19730200D01*
X3125357Y-19715914D01*
X3168214Y-19715914D01*
X3196786Y-19730200D01*
X3211071Y-19758772D01*
X3211071Y-19915914D01*
X3796786Y-19601629D02*
X3539643Y-19987343D01*
X4182500Y-19615914D02*
X4211071Y-19615914D01*
X4239643Y-19630200D01*
X4253928Y-19644486D01*
X4268214Y-19673057D01*
X4282500Y-19730200D01*
X4282500Y-19801629D01*
X4268214Y-19858772D01*
X4253928Y-19887343D01*
X4239643Y-19901629D01*
X4211071Y-19915914D01*
X4182500Y-19915914D01*
X4153928Y-19901629D01*
X4139643Y-19887343D01*
X4125357Y-19858772D01*
X4111071Y-19801629D01*
X4111071Y-19730200D01*
X4125357Y-19673057D01*
X4139643Y-19644486D01*
X4153928Y-19630200D01*
X4182500Y-19615914D01*
X4411071Y-19887343D02*
X4425357Y-19901629D01*
X4411071Y-19915914D01*
X4396786Y-19901629D01*
X4411071Y-19887343D01*
X4411071Y-19915914D01*
X4611071Y-19615914D02*
X4639643Y-19615914D01*
X4668214Y-19630200D01*
X4682500Y-19644486D01*
X4696786Y-19673057D01*
X4711071Y-19730200D01*
X4711071Y-19801629D01*
X4696786Y-19858772D01*
X4682500Y-19887343D01*
X4668214Y-19901629D01*
X4639643Y-19915914D01*
X4611071Y-19915914D01*
X4582500Y-19901629D01*
X4568214Y-19887343D01*
X4553928Y-19858772D01*
X4539643Y-19801629D01*
X4539643Y-19730200D01*
X4553928Y-19673057D01*
X4568214Y-19644486D01*
X4582500Y-19630200D01*
X4611071Y-19615914D01*
X4968214Y-19715914D02*
X4968214Y-19915914D01*
X4896786Y-19601629D02*
X4825357Y-19815914D01*
X5011071Y-19815914D01*
X5096786Y-19615914D02*
X5296786Y-19615914D01*
X5168214Y-19915914D01*
X5396786Y-19615914D02*
X5396786Y-19673057D01*
X5511071Y-19615914D02*
X5511071Y-19673057D01*
X5953928Y-20030200D02*
X5939643Y-20015914D01*
X5911071Y-19973057D01*
X5896786Y-19944486D01*
X5882500Y-19901629D01*
X5868214Y-19830200D01*
X5868214Y-19773057D01*
X5882500Y-19701629D01*
X5896786Y-19658772D01*
X5911071Y-19630200D01*
X5939643Y-19587343D01*
X5953928Y-19573057D01*
X6196786Y-19615914D02*
X6139643Y-19615914D01*
X6111071Y-19630200D01*
X6096786Y-19644486D01*
X6068214Y-19687343D01*
X6053928Y-19744486D01*
X6053928Y-19858772D01*
X6068214Y-19887343D01*
X6082500Y-19901629D01*
X6111071Y-19915914D01*
X6168214Y-19915914D01*
X6196786Y-19901629D01*
X6211071Y-19887343D01*
X6225357Y-19858772D01*
X6225357Y-19787343D01*
X6211071Y-19758772D01*
X6196786Y-19744486D01*
X6168214Y-19730200D01*
X6111071Y-19730200D01*
X6082500Y-19744486D01*
X6068214Y-19758772D01*
X6053928Y-19787343D01*
X6582500Y-19915914D02*
X6582500Y-19615914D01*
X6711071Y-19915914D02*
X6711071Y-19758772D01*
X6696786Y-19730200D01*
X6668214Y-19715914D01*
X6625357Y-19715914D01*
X6596786Y-19730200D01*
X6582500Y-19744486D01*
X6896786Y-19915914D02*
X6868214Y-19901629D01*
X6853928Y-19887343D01*
X6839643Y-19858772D01*
X6839643Y-19773057D01*
X6853928Y-19744486D01*
X6868214Y-19730200D01*
X6896786Y-19715914D01*
X6939643Y-19715914D01*
X6968214Y-19730200D01*
X6982500Y-19744486D01*
X6996786Y-19773057D01*
X6996786Y-19858772D01*
X6982500Y-19887343D01*
X6968214Y-19901629D01*
X6939643Y-19915914D01*
X6896786Y-19915914D01*
X7168214Y-19915914D02*
X7139643Y-19901629D01*
X7125357Y-19873057D01*
X7125357Y-19615914D01*
X7396786Y-19901629D02*
X7368214Y-19915914D01*
X7311071Y-19915914D01*
X7282500Y-19901629D01*
X7268214Y-19873057D01*
X7268214Y-19758772D01*
X7282500Y-19730200D01*
X7311071Y-19715914D01*
X7368214Y-19715914D01*
X7396786Y-19730200D01*
X7411071Y-19758772D01*
X7411071Y-19787343D01*
X7268214Y-19815914D01*
X7525357Y-19901629D02*
X7553928Y-19915914D01*
X7611071Y-19915914D01*
X7639643Y-19901629D01*
X7653928Y-19873057D01*
X7653928Y-19858772D01*
X7639643Y-19830200D01*
X7611071Y-19815914D01*
X7568214Y-19815914D01*
X7539643Y-19801629D01*
X7525357Y-19773057D01*
X7525357Y-19758772D01*
X7539643Y-19730200D01*
X7568214Y-19715914D01*
X7611071Y-19715914D01*
X7639643Y-19730200D01*
X7753928Y-20030200D02*
X7768214Y-20015914D01*
X7796786Y-19973057D01*
X7811071Y-19944486D01*
X7825357Y-19901629D01*
X7839643Y-19830200D01*
X7839643Y-19773057D01*
X7825357Y-19701629D01*
X7811071Y-19658772D01*
X7796786Y-19630200D01*
X7768214Y-19587343D01*
X7753928Y-19573057D01*
X1137500Y-20111200D02*
X1267500Y-20241200D01*
X1267500Y-20111200D02*
X1137500Y-20241200D01*
X1248462Y-20222163D02*
X1248462Y-20130238D01*
X1156538Y-20130238D01*
X1156538Y-20222163D01*
X1248462Y-20222163D01*
X1711071Y-20311914D02*
X1539643Y-20311914D01*
X1625357Y-20311914D02*
X1625357Y-20011914D01*
X1596786Y-20054772D01*
X1568214Y-20083343D01*
X1539643Y-20097629D01*
X1839643Y-20283343D02*
X1853928Y-20297629D01*
X1839643Y-20311914D01*
X1825357Y-20297629D01*
X1839643Y-20283343D01*
X1839643Y-20311914D01*
X1953928Y-20011914D02*
X2139643Y-20011914D01*
X2039643Y-20126200D01*
X2082500Y-20126200D01*
X2111071Y-20140486D01*
X2125357Y-20154772D01*
X2139643Y-20183343D01*
X2139643Y-20254772D01*
X2125357Y-20283343D01*
X2111071Y-20297629D01*
X2082500Y-20311914D01*
X1996786Y-20311914D01*
X1968214Y-20297629D01*
X1953928Y-20283343D01*
X2325357Y-20011914D02*
X2353928Y-20011914D01*
X2382500Y-20026200D01*
X2396786Y-20040486D01*
X2411071Y-20069057D01*
X2425357Y-20126200D01*
X2425357Y-20197629D01*
X2411071Y-20254772D01*
X2396786Y-20283343D01*
X2382500Y-20297629D01*
X2353928Y-20311914D01*
X2325357Y-20311914D01*
X2296786Y-20297629D01*
X2282500Y-20283343D01*
X2268214Y-20254772D01*
X2253928Y-20197629D01*
X2253928Y-20126200D01*
X2268214Y-20069057D01*
X2282500Y-20040486D01*
X2296786Y-20026200D01*
X2325357Y-20011914D01*
X2553928Y-20311914D02*
X2553928Y-20111914D01*
X2553928Y-20140486D02*
X2568214Y-20126200D01*
X2596786Y-20111914D01*
X2639643Y-20111914D01*
X2668214Y-20126200D01*
X2682500Y-20154772D01*
X2682500Y-20311914D01*
X2682500Y-20154772D02*
X2696786Y-20126200D01*
X2725357Y-20111914D01*
X2768214Y-20111914D01*
X2796786Y-20126200D01*
X2811071Y-20154772D01*
X2811071Y-20311914D01*
X2953928Y-20311914D02*
X2953928Y-20111914D01*
X2953928Y-20140486D02*
X2968214Y-20126200D01*
X2996786Y-20111914D01*
X3039643Y-20111914D01*
X3068214Y-20126200D01*
X3082500Y-20154772D01*
X3082500Y-20311914D01*
X3082500Y-20154772D02*
X3096786Y-20126200D01*
X3125357Y-20111914D01*
X3168214Y-20111914D01*
X3196786Y-20126200D01*
X3211071Y-20154772D01*
X3211071Y-20311914D01*
X3796786Y-19997629D02*
X3539643Y-20383343D01*
X4182500Y-20011914D02*
X4211071Y-20011914D01*
X4239643Y-20026200D01*
X4253928Y-20040486D01*
X4268214Y-20069057D01*
X4282500Y-20126200D01*
X4282500Y-20197629D01*
X4268214Y-20254772D01*
X4253928Y-20283343D01*
X4239643Y-20297629D01*
X4211071Y-20311914D01*
X4182500Y-20311914D01*
X4153928Y-20297629D01*
X4139643Y-20283343D01*
X4125357Y-20254772D01*
X4111071Y-20197629D01*
X4111071Y-20126200D01*
X4125357Y-20069057D01*
X4139643Y-20040486D01*
X4153928Y-20026200D01*
X4182500Y-20011914D01*
X4411071Y-20283343D02*
X4425357Y-20297629D01*
X4411071Y-20311914D01*
X4396786Y-20297629D01*
X4411071Y-20283343D01*
X4411071Y-20311914D01*
X4611071Y-20011914D02*
X4639643Y-20011914D01*
X4668214Y-20026200D01*
X4682500Y-20040486D01*
X4696786Y-20069057D01*
X4711071Y-20126200D01*
X4711071Y-20197629D01*
X4696786Y-20254772D01*
X4682500Y-20283343D01*
X4668214Y-20297629D01*
X4639643Y-20311914D01*
X4611071Y-20311914D01*
X4582500Y-20297629D01*
X4568214Y-20283343D01*
X4553928Y-20254772D01*
X4539643Y-20197629D01*
X4539643Y-20126200D01*
X4553928Y-20069057D01*
X4568214Y-20040486D01*
X4582500Y-20026200D01*
X4611071Y-20011914D01*
X4982500Y-20011914D02*
X4839643Y-20011914D01*
X4825357Y-20154772D01*
X4839643Y-20140486D01*
X4868214Y-20126200D01*
X4939643Y-20126200D01*
X4968214Y-20140486D01*
X4982500Y-20154772D01*
X4996786Y-20183343D01*
X4996786Y-20254772D01*
X4982500Y-20283343D01*
X4968214Y-20297629D01*
X4939643Y-20311914D01*
X4868214Y-20311914D01*
X4839643Y-20297629D01*
X4825357Y-20283343D01*
X5282500Y-20311914D02*
X5111071Y-20311914D01*
X5196786Y-20311914D02*
X5196786Y-20011914D01*
X5168214Y-20054772D01*
X5139643Y-20083343D01*
X5111071Y-20097629D01*
X5396786Y-20011914D02*
X5396786Y-20069057D01*
X5511071Y-20011914D02*
X5511071Y-20069057D01*
X5953928Y-20426200D02*
X5939643Y-20411914D01*
X5911071Y-20369057D01*
X5896786Y-20340486D01*
X5882500Y-20297629D01*
X5868214Y-20226200D01*
X5868214Y-20169057D01*
X5882500Y-20097629D01*
X5896786Y-20054772D01*
X5911071Y-20026200D01*
X5939643Y-19983343D01*
X5953928Y-19969057D01*
X6196786Y-20111914D02*
X6196786Y-20311914D01*
X6125357Y-19997629D02*
X6053928Y-20211914D01*
X6239643Y-20211914D01*
X6582500Y-20311914D02*
X6582500Y-20011914D01*
X6711071Y-20311914D02*
X6711071Y-20154772D01*
X6696786Y-20126200D01*
X6668214Y-20111914D01*
X6625357Y-20111914D01*
X6596786Y-20126200D01*
X6582500Y-20140486D01*
X6896786Y-20311914D02*
X6868214Y-20297629D01*
X6853928Y-20283343D01*
X6839643Y-20254772D01*
X6839643Y-20169057D01*
X6853928Y-20140486D01*
X6868214Y-20126200D01*
X6896786Y-20111914D01*
X6939643Y-20111914D01*
X6968214Y-20126200D01*
X6982500Y-20140486D01*
X6996786Y-20169057D01*
X6996786Y-20254772D01*
X6982500Y-20283343D01*
X6968214Y-20297629D01*
X6939643Y-20311914D01*
X6896786Y-20311914D01*
X7168214Y-20311914D02*
X7139643Y-20297629D01*
X7125357Y-20269057D01*
X7125357Y-20011914D01*
X7396786Y-20297629D02*
X7368214Y-20311914D01*
X7311071Y-20311914D01*
X7282500Y-20297629D01*
X7268214Y-20269057D01*
X7268214Y-20154772D01*
X7282500Y-20126200D01*
X7311071Y-20111914D01*
X7368214Y-20111914D01*
X7396786Y-20126200D01*
X7411071Y-20154772D01*
X7411071Y-20183343D01*
X7268214Y-20211914D01*
X7525357Y-20297629D02*
X7553928Y-20311914D01*
X7611071Y-20311914D01*
X7639643Y-20297629D01*
X7653928Y-20269057D01*
X7653928Y-20254772D01*
X7639643Y-20226200D01*
X7611071Y-20211914D01*
X7568214Y-20211914D01*
X7539643Y-20197629D01*
X7525357Y-20169057D01*
X7525357Y-20154772D01*
X7539643Y-20126200D01*
X7568214Y-20111914D01*
X7611071Y-20111914D01*
X7639643Y-20126200D01*
X7753928Y-20426200D02*
X7768214Y-20411914D01*
X7796786Y-20369057D01*
X7811071Y-20340486D01*
X7825357Y-20297629D01*
X7839643Y-20226200D01*
X7839643Y-20169057D01*
X7825357Y-20097629D01*
X7811071Y-20054772D01*
X7796786Y-20026200D01*
X7768214Y-19983343D01*
X7753928Y-19969057D01*
X1117500Y-20497200D02*
X1267500Y-20647200D01*
X1267500Y-20497200D02*
X1117500Y-20647200D01*
X1192500Y-20647200D02*
X1267500Y-20572200D01*
X1192500Y-20497200D01*
X1117500Y-20572200D01*
X1192500Y-20647200D01*
X1711071Y-20707914D02*
X1539643Y-20707914D01*
X1625357Y-20707914D02*
X1625357Y-20407914D01*
X1596786Y-20450772D01*
X1568214Y-20479343D01*
X1539643Y-20493629D01*
X1839643Y-20679343D02*
X1853928Y-20693629D01*
X1839643Y-20707914D01*
X1825357Y-20693629D01*
X1839643Y-20679343D01*
X1839643Y-20707914D01*
X2125357Y-20407914D02*
X1982500Y-20407914D01*
X1968214Y-20550772D01*
X1982500Y-20536486D01*
X2011071Y-20522200D01*
X2082500Y-20522200D01*
X2111071Y-20536486D01*
X2125357Y-20550772D01*
X2139643Y-20579343D01*
X2139643Y-20650772D01*
X2125357Y-20679343D01*
X2111071Y-20693629D01*
X2082500Y-20707914D01*
X2011071Y-20707914D01*
X1982500Y-20693629D01*
X1968214Y-20679343D01*
X2325357Y-20407914D02*
X2353928Y-20407914D01*
X2382500Y-20422200D01*
X2396786Y-20436486D01*
X2411071Y-20465057D01*
X2425357Y-20522200D01*
X2425357Y-20593629D01*
X2411071Y-20650772D01*
X2396786Y-20679343D01*
X2382500Y-20693629D01*
X2353928Y-20707914D01*
X2325357Y-20707914D01*
X2296786Y-20693629D01*
X2282500Y-20679343D01*
X2268214Y-20650772D01*
X2253928Y-20593629D01*
X2253928Y-20522200D01*
X2268214Y-20465057D01*
X2282500Y-20436486D01*
X2296786Y-20422200D01*
X2325357Y-20407914D01*
X2553928Y-20707914D02*
X2553928Y-20507914D01*
X2553928Y-20536486D02*
X2568214Y-20522200D01*
X2596786Y-20507914D01*
X2639643Y-20507914D01*
X2668214Y-20522200D01*
X2682500Y-20550772D01*
X2682500Y-20707914D01*
X2682500Y-20550772D02*
X2696786Y-20522200D01*
X2725357Y-20507914D01*
X2768214Y-20507914D01*
X2796786Y-20522200D01*
X2811071Y-20550772D01*
X2811071Y-20707914D01*
X2953928Y-20707914D02*
X2953928Y-20507914D01*
X2953928Y-20536486D02*
X2968214Y-20522200D01*
X2996786Y-20507914D01*
X3039643Y-20507914D01*
X3068214Y-20522200D01*
X3082500Y-20550772D01*
X3082500Y-20707914D01*
X3082500Y-20550772D02*
X3096786Y-20522200D01*
X3125357Y-20507914D01*
X3168214Y-20507914D01*
X3196786Y-20522200D01*
X3211071Y-20550772D01*
X3211071Y-20707914D01*
X3796786Y-20393629D02*
X3539643Y-20779343D01*
X4182500Y-20407914D02*
X4211071Y-20407914D01*
X4239643Y-20422200D01*
X4253928Y-20436486D01*
X4268214Y-20465057D01*
X4282500Y-20522200D01*
X4282500Y-20593629D01*
X4268214Y-20650772D01*
X4253928Y-20679343D01*
X4239643Y-20693629D01*
X4211071Y-20707914D01*
X4182500Y-20707914D01*
X4153928Y-20693629D01*
X4139643Y-20679343D01*
X4125357Y-20650772D01*
X4111071Y-20593629D01*
X4111071Y-20522200D01*
X4125357Y-20465057D01*
X4139643Y-20436486D01*
X4153928Y-20422200D01*
X4182500Y-20407914D01*
X4411071Y-20679343D02*
X4425357Y-20693629D01*
X4411071Y-20707914D01*
X4396786Y-20693629D01*
X4411071Y-20679343D01*
X4411071Y-20707914D01*
X4611071Y-20407914D02*
X4639643Y-20407914D01*
X4668214Y-20422200D01*
X4682500Y-20436486D01*
X4696786Y-20465057D01*
X4711071Y-20522200D01*
X4711071Y-20593629D01*
X4696786Y-20650772D01*
X4682500Y-20679343D01*
X4668214Y-20693629D01*
X4639643Y-20707914D01*
X4611071Y-20707914D01*
X4582500Y-20693629D01*
X4568214Y-20679343D01*
X4553928Y-20650772D01*
X4539643Y-20593629D01*
X4539643Y-20522200D01*
X4553928Y-20465057D01*
X4568214Y-20436486D01*
X4582500Y-20422200D01*
X4611071Y-20407914D01*
X4982500Y-20407914D02*
X4839643Y-20407914D01*
X4825357Y-20550772D01*
X4839643Y-20536486D01*
X4868214Y-20522200D01*
X4939643Y-20522200D01*
X4968214Y-20536486D01*
X4982500Y-20550772D01*
X4996786Y-20579343D01*
X4996786Y-20650772D01*
X4982500Y-20679343D01*
X4968214Y-20693629D01*
X4939643Y-20707914D01*
X4868214Y-20707914D01*
X4839643Y-20693629D01*
X4825357Y-20679343D01*
X5139643Y-20707914D02*
X5196786Y-20707914D01*
X5225357Y-20693629D01*
X5239643Y-20679343D01*
X5268214Y-20636486D01*
X5282500Y-20579343D01*
X5282500Y-20465057D01*
X5268214Y-20436486D01*
X5253928Y-20422200D01*
X5225357Y-20407914D01*
X5168214Y-20407914D01*
X5139643Y-20422200D01*
X5125357Y-20436486D01*
X5111071Y-20465057D01*
X5111071Y-20536486D01*
X5125357Y-20565057D01*
X5139643Y-20579343D01*
X5168214Y-20593629D01*
X5225357Y-20593629D01*
X5253928Y-20579343D01*
X5268214Y-20565057D01*
X5282500Y-20536486D01*
X5396786Y-20407914D02*
X5396786Y-20465057D01*
X5511071Y-20407914D02*
X5511071Y-20465057D01*
X5953928Y-20822200D02*
X5939643Y-20807914D01*
X5911071Y-20765057D01*
X5896786Y-20736486D01*
X5882500Y-20693629D01*
X5868214Y-20622200D01*
X5868214Y-20565057D01*
X5882500Y-20493629D01*
X5896786Y-20450772D01*
X5911071Y-20422200D01*
X5939643Y-20379343D01*
X5953928Y-20365057D01*
X6225357Y-20707914D02*
X6053928Y-20707914D01*
X6139643Y-20707914D02*
X6139643Y-20407914D01*
X6111071Y-20450772D01*
X6082500Y-20479343D01*
X6053928Y-20493629D01*
X6482500Y-20507914D02*
X6482500Y-20707914D01*
X6411071Y-20393629D02*
X6339643Y-20607914D01*
X6525357Y-20607914D01*
X6868214Y-20707914D02*
X6868214Y-20407914D01*
X6996786Y-20707914D02*
X6996786Y-20550772D01*
X6982500Y-20522200D01*
X6953928Y-20507914D01*
X6911071Y-20507914D01*
X6882500Y-20522200D01*
X6868214Y-20536486D01*
X7182500Y-20707914D02*
X7153928Y-20693629D01*
X7139643Y-20679343D01*
X7125357Y-20650772D01*
X7125357Y-20565057D01*
X7139643Y-20536486D01*
X7153928Y-20522200D01*
X7182500Y-20507914D01*
X7225357Y-20507914D01*
X7253928Y-20522200D01*
X7268214Y-20536486D01*
X7282500Y-20565057D01*
X7282500Y-20650772D01*
X7268214Y-20679343D01*
X7253928Y-20693629D01*
X7225357Y-20707914D01*
X7182500Y-20707914D01*
X7453928Y-20707914D02*
X7425357Y-20693629D01*
X7411071Y-20665057D01*
X7411071Y-20407914D01*
X7682500Y-20693629D02*
X7653928Y-20707914D01*
X7596786Y-20707914D01*
X7568214Y-20693629D01*
X7553928Y-20665057D01*
X7553928Y-20550772D01*
X7568214Y-20522200D01*
X7596786Y-20507914D01*
X7653928Y-20507914D01*
X7682500Y-20522200D01*
X7696786Y-20550772D01*
X7696786Y-20579343D01*
X7553928Y-20607914D01*
X7811071Y-20693629D02*
X7839643Y-20707914D01*
X7896786Y-20707914D01*
X7925357Y-20693629D01*
X7939643Y-20665057D01*
X7939643Y-20650772D01*
X7925357Y-20622200D01*
X7896786Y-20607914D01*
X7853928Y-20607914D01*
X7825357Y-20593629D01*
X7811071Y-20565057D01*
X7811071Y-20550772D01*
X7825357Y-20522200D01*
X7853928Y-20507914D01*
X7896786Y-20507914D01*
X7925357Y-20522200D01*
X8039643Y-20822200D02*
X8053928Y-20807914D01*
X8082500Y-20765057D01*
X8096786Y-20736486D01*
X8111071Y-20693629D01*
X8125357Y-20622200D01*
X8125357Y-20565057D01*
X8111071Y-20493629D01*
X8096786Y-20450772D01*
X8082500Y-20422200D01*
X8053928Y-20379343D01*
X8039643Y-20365057D01*
X1182500Y-20883200D02*
X1182500Y-21053200D01*
X1097500Y-20968200D02*
X1267500Y-20968200D01*
X1267500Y-20968200D02*
G75*
G03*
X1267500Y-20968200I-85000J0D01*
G01*
X1711071Y-21103914D02*
X1539643Y-21103914D01*
X1625357Y-21103914D02*
X1625357Y-20803914D01*
X1596786Y-20846772D01*
X1568214Y-20875343D01*
X1539643Y-20889629D01*
X1839643Y-21075343D02*
X1853928Y-21089629D01*
X1839643Y-21103914D01*
X1825357Y-21089629D01*
X1839643Y-21075343D01*
X1839643Y-21103914D01*
X1953928Y-20803914D02*
X2153928Y-20803914D01*
X2025357Y-21103914D01*
X2325357Y-20803914D02*
X2353928Y-20803914D01*
X2382500Y-20818200D01*
X2396786Y-20832486D01*
X2411071Y-20861057D01*
X2425357Y-20918200D01*
X2425357Y-20989629D01*
X2411071Y-21046772D01*
X2396786Y-21075343D01*
X2382500Y-21089629D01*
X2353928Y-21103914D01*
X2325357Y-21103914D01*
X2296786Y-21089629D01*
X2282500Y-21075343D01*
X2268214Y-21046772D01*
X2253928Y-20989629D01*
X2253928Y-20918200D01*
X2268214Y-20861057D01*
X2282500Y-20832486D01*
X2296786Y-20818200D01*
X2325357Y-20803914D01*
X2553928Y-21103914D02*
X2553928Y-20903914D01*
X2553928Y-20932486D02*
X2568214Y-20918200D01*
X2596786Y-20903914D01*
X2639643Y-20903914D01*
X2668214Y-20918200D01*
X2682500Y-20946772D01*
X2682500Y-21103914D01*
X2682500Y-20946772D02*
X2696786Y-20918200D01*
X2725357Y-20903914D01*
X2768214Y-20903914D01*
X2796786Y-20918200D01*
X2811071Y-20946772D01*
X2811071Y-21103914D01*
X2953928Y-21103914D02*
X2953928Y-20903914D01*
X2953928Y-20932486D02*
X2968214Y-20918200D01*
X2996786Y-20903914D01*
X3039643Y-20903914D01*
X3068214Y-20918200D01*
X3082500Y-20946772D01*
X3082500Y-21103914D01*
X3082500Y-20946772D02*
X3096786Y-20918200D01*
X3125357Y-20903914D01*
X3168214Y-20903914D01*
X3196786Y-20918200D01*
X3211071Y-20946772D01*
X3211071Y-21103914D01*
X3796786Y-20789629D02*
X3539643Y-21175343D01*
X4182500Y-20803914D02*
X4211071Y-20803914D01*
X4239643Y-20818200D01*
X4253928Y-20832486D01*
X4268214Y-20861057D01*
X4282500Y-20918200D01*
X4282500Y-20989629D01*
X4268214Y-21046772D01*
X4253928Y-21075343D01*
X4239643Y-21089629D01*
X4211071Y-21103914D01*
X4182500Y-21103914D01*
X4153928Y-21089629D01*
X4139643Y-21075343D01*
X4125357Y-21046772D01*
X4111071Y-20989629D01*
X4111071Y-20918200D01*
X4125357Y-20861057D01*
X4139643Y-20832486D01*
X4153928Y-20818200D01*
X4182500Y-20803914D01*
X4411071Y-21075343D02*
X4425357Y-21089629D01*
X4411071Y-21103914D01*
X4396786Y-21089629D01*
X4411071Y-21075343D01*
X4411071Y-21103914D01*
X4611071Y-20803914D02*
X4639643Y-20803914D01*
X4668214Y-20818200D01*
X4682500Y-20832486D01*
X4696786Y-20861057D01*
X4711071Y-20918200D01*
X4711071Y-20989629D01*
X4696786Y-21046772D01*
X4682500Y-21075343D01*
X4668214Y-21089629D01*
X4639643Y-21103914D01*
X4611071Y-21103914D01*
X4582500Y-21089629D01*
X4568214Y-21075343D01*
X4553928Y-21046772D01*
X4539643Y-20989629D01*
X4539643Y-20918200D01*
X4553928Y-20861057D01*
X4568214Y-20832486D01*
X4582500Y-20818200D01*
X4611071Y-20803914D01*
X4968214Y-20803914D02*
X4911071Y-20803914D01*
X4882500Y-20818200D01*
X4868214Y-20832486D01*
X4839643Y-20875343D01*
X4825357Y-20932486D01*
X4825357Y-21046772D01*
X4839643Y-21075343D01*
X4853928Y-21089629D01*
X4882500Y-21103914D01*
X4939643Y-21103914D01*
X4968214Y-21089629D01*
X4982500Y-21075343D01*
X4996786Y-21046772D01*
X4996786Y-20975343D01*
X4982500Y-20946772D01*
X4968214Y-20932486D01*
X4939643Y-20918200D01*
X4882500Y-20918200D01*
X4853928Y-20932486D01*
X4839643Y-20946772D01*
X4825357Y-20975343D01*
X5096786Y-20803914D02*
X5296786Y-20803914D01*
X5168214Y-21103914D01*
X5396786Y-20803914D02*
X5396786Y-20861057D01*
X5511071Y-20803914D02*
X5511071Y-20861057D01*
X5953928Y-21218200D02*
X5939643Y-21203914D01*
X5911071Y-21161057D01*
X5896786Y-21132486D01*
X5882500Y-21089629D01*
X5868214Y-21018200D01*
X5868214Y-20961057D01*
X5882500Y-20889629D01*
X5896786Y-20846772D01*
X5911071Y-20818200D01*
X5939643Y-20775343D01*
X5953928Y-20761057D01*
X6053928Y-20832486D02*
X6068214Y-20818200D01*
X6096786Y-20803914D01*
X6168214Y-20803914D01*
X6196786Y-20818200D01*
X6211071Y-20832486D01*
X6225357Y-20861057D01*
X6225357Y-20889629D01*
X6211071Y-20932486D01*
X6039643Y-21103914D01*
X6225357Y-21103914D01*
X6411071Y-20803914D02*
X6439643Y-20803914D01*
X6468214Y-20818200D01*
X6482500Y-20832486D01*
X6496786Y-20861057D01*
X6511071Y-20918200D01*
X6511071Y-20989629D01*
X6496786Y-21046772D01*
X6482500Y-21075343D01*
X6468214Y-21089629D01*
X6439643Y-21103914D01*
X6411071Y-21103914D01*
X6382500Y-21089629D01*
X6368214Y-21075343D01*
X6353928Y-21046772D01*
X6339643Y-20989629D01*
X6339643Y-20918200D01*
X6353928Y-20861057D01*
X6368214Y-20832486D01*
X6382500Y-20818200D01*
X6411071Y-20803914D01*
X6868214Y-21103914D02*
X6868214Y-20803914D01*
X6996786Y-21103914D02*
X6996786Y-20946772D01*
X6982500Y-20918200D01*
X6953928Y-20903914D01*
X6911071Y-20903914D01*
X6882500Y-20918200D01*
X6868214Y-20932486D01*
X7182500Y-21103914D02*
X7153928Y-21089629D01*
X7139643Y-21075343D01*
X7125357Y-21046772D01*
X7125357Y-20961057D01*
X7139643Y-20932486D01*
X7153928Y-20918200D01*
X7182500Y-20903914D01*
X7225357Y-20903914D01*
X7253928Y-20918200D01*
X7268214Y-20932486D01*
X7282500Y-20961057D01*
X7282500Y-21046772D01*
X7268214Y-21075343D01*
X7253928Y-21089629D01*
X7225357Y-21103914D01*
X7182500Y-21103914D01*
X7453928Y-21103914D02*
X7425357Y-21089629D01*
X7411071Y-21061057D01*
X7411071Y-20803914D01*
X7682500Y-21089629D02*
X7653928Y-21103914D01*
X7596786Y-21103914D01*
X7568214Y-21089629D01*
X7553928Y-21061057D01*
X7553928Y-20946772D01*
X7568214Y-20918200D01*
X7596786Y-20903914D01*
X7653928Y-20903914D01*
X7682500Y-20918200D01*
X7696786Y-20946772D01*
X7696786Y-20975343D01*
X7553928Y-21003914D01*
X7811071Y-21089629D02*
X7839643Y-21103914D01*
X7896786Y-21103914D01*
X7925357Y-21089629D01*
X7939643Y-21061057D01*
X7939643Y-21046772D01*
X7925357Y-21018200D01*
X7896786Y-21003914D01*
X7853928Y-21003914D01*
X7825357Y-20989629D01*
X7811071Y-20961057D01*
X7811071Y-20946772D01*
X7825357Y-20918200D01*
X7853928Y-20903914D01*
X7896786Y-20903914D01*
X7925357Y-20918200D01*
X8039643Y-21218200D02*
X8053928Y-21203914D01*
X8082500Y-21161057D01*
X8096786Y-21132486D01*
X8111071Y-21089629D01*
X8125357Y-21018200D01*
X8125357Y-20961057D01*
X8111071Y-20889629D01*
X8096786Y-20846772D01*
X8082500Y-20818200D01*
X8053928Y-20775343D01*
X8039643Y-20761057D01*
X1238211Y-21434912D02*
X1238211Y-21293489D01*
X1096789Y-21293489D01*
X1096789Y-21434912D01*
X1238211Y-21434912D01*
X1267500Y-21364200D02*
G75*
G03*
X1267500Y-21364200I-100000J0D01*
G01*
X1539643Y-21228486D02*
X1553928Y-21214200D01*
X1582500Y-21199914D01*
X1653928Y-21199914D01*
X1682500Y-21214200D01*
X1696786Y-21228486D01*
X1711071Y-21257057D01*
X1711071Y-21285629D01*
X1696786Y-21328486D01*
X1525357Y-21499914D01*
X1711071Y-21499914D01*
X1839643Y-21471343D02*
X1853928Y-21485629D01*
X1839643Y-21499914D01*
X1825357Y-21485629D01*
X1839643Y-21471343D01*
X1839643Y-21499914D01*
X2039643Y-21199914D02*
X2068214Y-21199914D01*
X2096786Y-21214200D01*
X2111071Y-21228486D01*
X2125357Y-21257057D01*
X2139643Y-21314200D01*
X2139643Y-21385629D01*
X2125357Y-21442772D01*
X2111071Y-21471343D01*
X2096786Y-21485629D01*
X2068214Y-21499914D01*
X2039643Y-21499914D01*
X2011071Y-21485629D01*
X1996786Y-21471343D01*
X1982500Y-21442772D01*
X1968214Y-21385629D01*
X1968214Y-21314200D01*
X1982500Y-21257057D01*
X1996786Y-21228486D01*
X2011071Y-21214200D01*
X2039643Y-21199914D01*
X2325357Y-21199914D02*
X2353928Y-21199914D01*
X2382500Y-21214200D01*
X2396786Y-21228486D01*
X2411071Y-21257057D01*
X2425357Y-21314200D01*
X2425357Y-21385629D01*
X2411071Y-21442772D01*
X2396786Y-21471343D01*
X2382500Y-21485629D01*
X2353928Y-21499914D01*
X2325357Y-21499914D01*
X2296786Y-21485629D01*
X2282500Y-21471343D01*
X2268214Y-21442772D01*
X2253928Y-21385629D01*
X2253928Y-21314200D01*
X2268214Y-21257057D01*
X2282500Y-21228486D01*
X2296786Y-21214200D01*
X2325357Y-21199914D01*
X2553928Y-21499914D02*
X2553928Y-21299914D01*
X2553928Y-21328486D02*
X2568214Y-21314200D01*
X2596786Y-21299914D01*
X2639643Y-21299914D01*
X2668214Y-21314200D01*
X2682500Y-21342772D01*
X2682500Y-21499914D01*
X2682500Y-21342772D02*
X2696786Y-21314200D01*
X2725357Y-21299914D01*
X2768214Y-21299914D01*
X2796786Y-21314200D01*
X2811071Y-21342772D01*
X2811071Y-21499914D01*
X2953928Y-21499914D02*
X2953928Y-21299914D01*
X2953928Y-21328486D02*
X2968214Y-21314200D01*
X2996786Y-21299914D01*
X3039643Y-21299914D01*
X3068214Y-21314200D01*
X3082500Y-21342772D01*
X3082500Y-21499914D01*
X3082500Y-21342772D02*
X3096786Y-21314200D01*
X3125357Y-21299914D01*
X3168214Y-21299914D01*
X3196786Y-21314200D01*
X3211071Y-21342772D01*
X3211071Y-21499914D01*
X3796786Y-21185629D02*
X3539643Y-21571343D01*
X4182500Y-21199914D02*
X4211071Y-21199914D01*
X4239643Y-21214200D01*
X4253928Y-21228486D01*
X4268214Y-21257057D01*
X4282500Y-21314200D01*
X4282500Y-21385629D01*
X4268214Y-21442772D01*
X4253928Y-21471343D01*
X4239643Y-21485629D01*
X4211071Y-21499914D01*
X4182500Y-21499914D01*
X4153928Y-21485629D01*
X4139643Y-21471343D01*
X4125357Y-21442772D01*
X4111071Y-21385629D01*
X4111071Y-21314200D01*
X4125357Y-21257057D01*
X4139643Y-21228486D01*
X4153928Y-21214200D01*
X4182500Y-21199914D01*
X4411071Y-21471343D02*
X4425357Y-21485629D01*
X4411071Y-21499914D01*
X4396786Y-21485629D01*
X4411071Y-21471343D01*
X4411071Y-21499914D01*
X4611071Y-21199914D02*
X4639643Y-21199914D01*
X4668214Y-21214200D01*
X4682500Y-21228486D01*
X4696786Y-21257057D01*
X4711071Y-21314200D01*
X4711071Y-21385629D01*
X4696786Y-21442772D01*
X4682500Y-21471343D01*
X4668214Y-21485629D01*
X4639643Y-21499914D01*
X4611071Y-21499914D01*
X4582500Y-21485629D01*
X4568214Y-21471343D01*
X4553928Y-21442772D01*
X4539643Y-21385629D01*
X4539643Y-21314200D01*
X4553928Y-21257057D01*
X4568214Y-21228486D01*
X4582500Y-21214200D01*
X4611071Y-21199914D01*
X4811071Y-21199914D02*
X5011071Y-21199914D01*
X4882500Y-21499914D01*
X5139643Y-21499914D02*
X5196786Y-21499914D01*
X5225357Y-21485629D01*
X5239643Y-21471343D01*
X5268214Y-21428486D01*
X5282500Y-21371343D01*
X5282500Y-21257057D01*
X5268214Y-21228486D01*
X5253928Y-21214200D01*
X5225357Y-21199914D01*
X5168214Y-21199914D01*
X5139643Y-21214200D01*
X5125357Y-21228486D01*
X5111071Y-21257057D01*
X5111071Y-21328486D01*
X5125357Y-21357057D01*
X5139643Y-21371343D01*
X5168214Y-21385629D01*
X5225357Y-21385629D01*
X5253928Y-21371343D01*
X5268214Y-21357057D01*
X5282500Y-21328486D01*
X5396786Y-21199914D02*
X5396786Y-21257057D01*
X5511071Y-21199914D02*
X5511071Y-21257057D01*
X5953928Y-21614200D02*
X5939643Y-21599914D01*
X5911071Y-21557057D01*
X5896786Y-21528486D01*
X5882500Y-21485629D01*
X5868214Y-21414200D01*
X5868214Y-21357057D01*
X5882500Y-21285629D01*
X5896786Y-21242772D01*
X5911071Y-21214200D01*
X5939643Y-21171343D01*
X5953928Y-21157057D01*
X6053928Y-21228486D02*
X6068214Y-21214200D01*
X6096786Y-21199914D01*
X6168214Y-21199914D01*
X6196786Y-21214200D01*
X6211071Y-21228486D01*
X6225357Y-21257057D01*
X6225357Y-21285629D01*
X6211071Y-21328486D01*
X6039643Y-21499914D01*
X6225357Y-21499914D01*
X6582500Y-21499914D02*
X6582500Y-21199914D01*
X6711071Y-21499914D02*
X6711071Y-21342772D01*
X6696786Y-21314200D01*
X6668214Y-21299914D01*
X6625357Y-21299914D01*
X6596786Y-21314200D01*
X6582500Y-21328486D01*
X6896786Y-21499914D02*
X6868214Y-21485629D01*
X6853928Y-21471343D01*
X6839643Y-21442772D01*
X6839643Y-21357057D01*
X6853928Y-21328486D01*
X6868214Y-21314200D01*
X6896786Y-21299914D01*
X6939643Y-21299914D01*
X6968214Y-21314200D01*
X6982500Y-21328486D01*
X6996786Y-21357057D01*
X6996786Y-21442772D01*
X6982500Y-21471343D01*
X6968214Y-21485629D01*
X6939643Y-21499914D01*
X6896786Y-21499914D01*
X7168214Y-21499914D02*
X7139643Y-21485629D01*
X7125357Y-21457057D01*
X7125357Y-21199914D01*
X7396786Y-21485629D02*
X7368214Y-21499914D01*
X7311071Y-21499914D01*
X7282500Y-21485629D01*
X7268214Y-21457057D01*
X7268214Y-21342772D01*
X7282500Y-21314200D01*
X7311071Y-21299914D01*
X7368214Y-21299914D01*
X7396786Y-21314200D01*
X7411071Y-21342772D01*
X7411071Y-21371343D01*
X7268214Y-21399914D01*
X7525357Y-21485629D02*
X7553928Y-21499914D01*
X7611071Y-21499914D01*
X7639643Y-21485629D01*
X7653928Y-21457057D01*
X7653928Y-21442772D01*
X7639643Y-21414200D01*
X7611071Y-21399914D01*
X7568214Y-21399914D01*
X7539643Y-21385629D01*
X7525357Y-21357057D01*
X7525357Y-21342772D01*
X7539643Y-21314200D01*
X7568214Y-21299914D01*
X7611071Y-21299914D01*
X7639643Y-21314200D01*
X7753928Y-21614200D02*
X7768214Y-21599914D01*
X7796786Y-21557057D01*
X7811071Y-21528486D01*
X7825357Y-21485629D01*
X7839643Y-21414200D01*
X7839643Y-21357057D01*
X7825357Y-21285629D01*
X7811071Y-21242772D01*
X7796786Y-21214200D01*
X7768214Y-21171343D01*
X7753928Y-21157057D01*
X1142500Y-21885200D02*
X1267500Y-21760200D01*
X1142500Y-21635200D01*
X1017500Y-21760200D01*
X1142500Y-21885200D01*
X1267500Y-21760200D02*
G75*
G03*
X1267500Y-21760200I-125000J0D01*
G01*
X1539643Y-21624486D02*
X1553928Y-21610200D01*
X1582500Y-21595914D01*
X1653928Y-21595914D01*
X1682500Y-21610200D01*
X1696786Y-21624486D01*
X1711071Y-21653057D01*
X1711071Y-21681629D01*
X1696786Y-21724486D01*
X1525357Y-21895914D01*
X1711071Y-21895914D01*
X1839643Y-21867343D02*
X1853928Y-21881629D01*
X1839643Y-21895914D01*
X1825357Y-21881629D01*
X1839643Y-21867343D01*
X1839643Y-21895914D01*
X2125357Y-21595914D02*
X1982500Y-21595914D01*
X1968214Y-21738772D01*
X1982500Y-21724486D01*
X2011071Y-21710200D01*
X2082500Y-21710200D01*
X2111071Y-21724486D01*
X2125357Y-21738772D01*
X2139643Y-21767343D01*
X2139643Y-21838772D01*
X2125357Y-21867343D01*
X2111071Y-21881629D01*
X2082500Y-21895914D01*
X2011071Y-21895914D01*
X1982500Y-21881629D01*
X1968214Y-21867343D01*
X2325357Y-21595914D02*
X2353928Y-21595914D01*
X2382500Y-21610200D01*
X2396786Y-21624486D01*
X2411071Y-21653057D01*
X2425357Y-21710200D01*
X2425357Y-21781629D01*
X2411071Y-21838772D01*
X2396786Y-21867343D01*
X2382500Y-21881629D01*
X2353928Y-21895914D01*
X2325357Y-21895914D01*
X2296786Y-21881629D01*
X2282500Y-21867343D01*
X2268214Y-21838772D01*
X2253928Y-21781629D01*
X2253928Y-21710200D01*
X2268214Y-21653057D01*
X2282500Y-21624486D01*
X2296786Y-21610200D01*
X2325357Y-21595914D01*
X2553928Y-21895914D02*
X2553928Y-21695914D01*
X2553928Y-21724486D02*
X2568214Y-21710200D01*
X2596786Y-21695914D01*
X2639643Y-21695914D01*
X2668214Y-21710200D01*
X2682500Y-21738772D01*
X2682500Y-21895914D01*
X2682500Y-21738772D02*
X2696786Y-21710200D01*
X2725357Y-21695914D01*
X2768214Y-21695914D01*
X2796786Y-21710200D01*
X2811071Y-21738772D01*
X2811071Y-21895914D01*
X2953928Y-21895914D02*
X2953928Y-21695914D01*
X2953928Y-21724486D02*
X2968214Y-21710200D01*
X2996786Y-21695914D01*
X3039643Y-21695914D01*
X3068214Y-21710200D01*
X3082500Y-21738772D01*
X3082500Y-21895914D01*
X3082500Y-21738772D02*
X3096786Y-21710200D01*
X3125357Y-21695914D01*
X3168214Y-21695914D01*
X3196786Y-21710200D01*
X3211071Y-21738772D01*
X3211071Y-21895914D01*
X3796786Y-21581629D02*
X3539643Y-21967343D01*
X4182500Y-21595914D02*
X4211071Y-21595914D01*
X4239643Y-21610200D01*
X4253928Y-21624486D01*
X4268214Y-21653057D01*
X4282500Y-21710200D01*
X4282500Y-21781629D01*
X4268214Y-21838772D01*
X4253928Y-21867343D01*
X4239643Y-21881629D01*
X4211071Y-21895914D01*
X4182500Y-21895914D01*
X4153928Y-21881629D01*
X4139643Y-21867343D01*
X4125357Y-21838772D01*
X4111071Y-21781629D01*
X4111071Y-21710200D01*
X4125357Y-21653057D01*
X4139643Y-21624486D01*
X4153928Y-21610200D01*
X4182500Y-21595914D01*
X4411071Y-21867343D02*
X4425357Y-21881629D01*
X4411071Y-21895914D01*
X4396786Y-21881629D01*
X4411071Y-21867343D01*
X4411071Y-21895914D01*
X4611071Y-21595914D02*
X4639643Y-21595914D01*
X4668214Y-21610200D01*
X4682500Y-21624486D01*
X4696786Y-21653057D01*
X4711071Y-21710200D01*
X4711071Y-21781629D01*
X4696786Y-21838772D01*
X4682500Y-21867343D01*
X4668214Y-21881629D01*
X4639643Y-21895914D01*
X4611071Y-21895914D01*
X4582500Y-21881629D01*
X4568214Y-21867343D01*
X4553928Y-21838772D01*
X4539643Y-21781629D01*
X4539643Y-21710200D01*
X4553928Y-21653057D01*
X4568214Y-21624486D01*
X4582500Y-21610200D01*
X4611071Y-21595914D01*
X4853928Y-21895914D02*
X4911071Y-21895914D01*
X4939643Y-21881629D01*
X4953928Y-21867343D01*
X4982500Y-21824486D01*
X4996786Y-21767343D01*
X4996786Y-21653057D01*
X4982500Y-21624486D01*
X4968214Y-21610200D01*
X4939643Y-21595914D01*
X4882500Y-21595914D01*
X4853928Y-21610200D01*
X4839643Y-21624486D01*
X4825357Y-21653057D01*
X4825357Y-21724486D01*
X4839643Y-21753057D01*
X4853928Y-21767343D01*
X4882500Y-21781629D01*
X4939643Y-21781629D01*
X4968214Y-21767343D01*
X4982500Y-21753057D01*
X4996786Y-21724486D01*
X5168214Y-21724486D02*
X5139643Y-21710200D01*
X5125357Y-21695914D01*
X5111071Y-21667343D01*
X5111071Y-21653057D01*
X5125357Y-21624486D01*
X5139643Y-21610200D01*
X5168214Y-21595914D01*
X5225357Y-21595914D01*
X5253928Y-21610200D01*
X5268214Y-21624486D01*
X5282500Y-21653057D01*
X5282500Y-21667343D01*
X5268214Y-21695914D01*
X5253928Y-21710200D01*
X5225357Y-21724486D01*
X5168214Y-21724486D01*
X5139643Y-21738772D01*
X5125357Y-21753057D01*
X5111071Y-21781629D01*
X5111071Y-21838772D01*
X5125357Y-21867343D01*
X5139643Y-21881629D01*
X5168214Y-21895914D01*
X5225357Y-21895914D01*
X5253928Y-21881629D01*
X5268214Y-21867343D01*
X5282500Y-21838772D01*
X5282500Y-21781629D01*
X5268214Y-21753057D01*
X5253928Y-21738772D01*
X5225357Y-21724486D01*
X5396786Y-21595914D02*
X5396786Y-21653057D01*
X5511071Y-21595914D02*
X5511071Y-21653057D01*
X5953928Y-22010200D02*
X5939643Y-21995914D01*
X5911071Y-21953057D01*
X5896786Y-21924486D01*
X5882500Y-21881629D01*
X5868214Y-21810200D01*
X5868214Y-21753057D01*
X5882500Y-21681629D01*
X5896786Y-21638772D01*
X5911071Y-21610200D01*
X5939643Y-21567343D01*
X5953928Y-21553057D01*
X6039643Y-21595914D02*
X6239643Y-21595914D01*
X6111071Y-21895914D01*
X6582500Y-21895914D02*
X6582500Y-21595914D01*
X6711071Y-21895914D02*
X6711071Y-21738772D01*
X6696786Y-21710200D01*
X6668214Y-21695914D01*
X6625357Y-21695914D01*
X6596786Y-21710200D01*
X6582500Y-21724486D01*
X6896786Y-21895914D02*
X6868214Y-21881629D01*
X6853928Y-21867343D01*
X6839643Y-21838772D01*
X6839643Y-21753057D01*
X6853928Y-21724486D01*
X6868214Y-21710200D01*
X6896786Y-21695914D01*
X6939643Y-21695914D01*
X6968214Y-21710200D01*
X6982500Y-21724486D01*
X6996786Y-21753057D01*
X6996786Y-21838772D01*
X6982500Y-21867343D01*
X6968214Y-21881629D01*
X6939643Y-21895914D01*
X6896786Y-21895914D01*
X7168214Y-21895914D02*
X7139643Y-21881629D01*
X7125357Y-21853057D01*
X7125357Y-21595914D01*
X7396786Y-21881629D02*
X7368214Y-21895914D01*
X7311071Y-21895914D01*
X7282500Y-21881629D01*
X7268214Y-21853057D01*
X7268214Y-21738772D01*
X7282500Y-21710200D01*
X7311071Y-21695914D01*
X7368214Y-21695914D01*
X7396786Y-21710200D01*
X7411071Y-21738772D01*
X7411071Y-21767343D01*
X7268214Y-21795914D01*
X7525357Y-21881629D02*
X7553928Y-21895914D01*
X7611071Y-21895914D01*
X7639643Y-21881629D01*
X7653928Y-21853057D01*
X7653928Y-21838772D01*
X7639643Y-21810200D01*
X7611071Y-21795914D01*
X7568214Y-21795914D01*
X7539643Y-21781629D01*
X7525357Y-21753057D01*
X7525357Y-21738772D01*
X7539643Y-21710200D01*
X7568214Y-21695914D01*
X7611071Y-21695914D01*
X7639643Y-21710200D01*
X7753928Y-22010200D02*
X7768214Y-21995914D01*
X7796786Y-21953057D01*
X7811071Y-21924486D01*
X7825357Y-21881629D01*
X7839643Y-21810200D01*
X7839643Y-21753057D01*
X7825357Y-21681629D01*
X7811071Y-21638772D01*
X7796786Y-21610200D01*
X7768214Y-21567343D01*
X7753928Y-21553057D01*
X1127500Y-22016200D02*
X1127500Y-22296200D01*
X987500Y-22156200D02*
X1267500Y-22156200D01*
X1226496Y-22255196D02*
X1226496Y-22057204D01*
X1028504Y-22057204D01*
X1028504Y-22255196D01*
X1226496Y-22255196D01*
X1539643Y-22020486D02*
X1553928Y-22006200D01*
X1582500Y-21991914D01*
X1653928Y-21991914D01*
X1682500Y-22006200D01*
X1696786Y-22020486D01*
X1711071Y-22049057D01*
X1711071Y-22077629D01*
X1696786Y-22120486D01*
X1525357Y-22291914D01*
X1711071Y-22291914D01*
X1839643Y-22263343D02*
X1853928Y-22277629D01*
X1839643Y-22291914D01*
X1825357Y-22277629D01*
X1839643Y-22263343D01*
X1839643Y-22291914D01*
X2025357Y-22120486D02*
X1996786Y-22106200D01*
X1982500Y-22091914D01*
X1968214Y-22063343D01*
X1968214Y-22049057D01*
X1982500Y-22020486D01*
X1996786Y-22006200D01*
X2025357Y-21991914D01*
X2082500Y-21991914D01*
X2111071Y-22006200D01*
X2125357Y-22020486D01*
X2139643Y-22049057D01*
X2139643Y-22063343D01*
X2125357Y-22091914D01*
X2111071Y-22106200D01*
X2082500Y-22120486D01*
X2025357Y-22120486D01*
X1996786Y-22134772D01*
X1982500Y-22149057D01*
X1968214Y-22177629D01*
X1968214Y-22234772D01*
X1982500Y-22263343D01*
X1996786Y-22277629D01*
X2025357Y-22291914D01*
X2082500Y-22291914D01*
X2111071Y-22277629D01*
X2125357Y-22263343D01*
X2139643Y-22234772D01*
X2139643Y-22177629D01*
X2125357Y-22149057D01*
X2111071Y-22134772D01*
X2082500Y-22120486D01*
X2325357Y-21991914D02*
X2353928Y-21991914D01*
X2382500Y-22006200D01*
X2396786Y-22020486D01*
X2411071Y-22049057D01*
X2425357Y-22106200D01*
X2425357Y-22177629D01*
X2411071Y-22234772D01*
X2396786Y-22263343D01*
X2382500Y-22277629D01*
X2353928Y-22291914D01*
X2325357Y-22291914D01*
X2296786Y-22277629D01*
X2282500Y-22263343D01*
X2268214Y-22234772D01*
X2253928Y-22177629D01*
X2253928Y-22106200D01*
X2268214Y-22049057D01*
X2282500Y-22020486D01*
X2296786Y-22006200D01*
X2325357Y-21991914D01*
X2553928Y-22291914D02*
X2553928Y-22091914D01*
X2553928Y-22120486D02*
X2568214Y-22106200D01*
X2596786Y-22091914D01*
X2639643Y-22091914D01*
X2668214Y-22106200D01*
X2682500Y-22134772D01*
X2682500Y-22291914D01*
X2682500Y-22134772D02*
X2696786Y-22106200D01*
X2725357Y-22091914D01*
X2768214Y-22091914D01*
X2796786Y-22106200D01*
X2811071Y-22134772D01*
X2811071Y-22291914D01*
X2953928Y-22291914D02*
X2953928Y-22091914D01*
X2953928Y-22120486D02*
X2968214Y-22106200D01*
X2996786Y-22091914D01*
X3039643Y-22091914D01*
X3068214Y-22106200D01*
X3082500Y-22134772D01*
X3082500Y-22291914D01*
X3082500Y-22134772D02*
X3096786Y-22106200D01*
X3125357Y-22091914D01*
X3168214Y-22091914D01*
X3196786Y-22106200D01*
X3211071Y-22134772D01*
X3211071Y-22291914D01*
X3796786Y-21977629D02*
X3539643Y-22363343D01*
X4182500Y-21991914D02*
X4211071Y-21991914D01*
X4239643Y-22006200D01*
X4253928Y-22020486D01*
X4268214Y-22049057D01*
X4282500Y-22106200D01*
X4282500Y-22177629D01*
X4268214Y-22234772D01*
X4253928Y-22263343D01*
X4239643Y-22277629D01*
X4211071Y-22291914D01*
X4182500Y-22291914D01*
X4153928Y-22277629D01*
X4139643Y-22263343D01*
X4125357Y-22234772D01*
X4111071Y-22177629D01*
X4111071Y-22106200D01*
X4125357Y-22049057D01*
X4139643Y-22020486D01*
X4153928Y-22006200D01*
X4182500Y-21991914D01*
X4411071Y-22263343D02*
X4425357Y-22277629D01*
X4411071Y-22291914D01*
X4396786Y-22277629D01*
X4411071Y-22263343D01*
X4411071Y-22291914D01*
X4711071Y-22291914D02*
X4539643Y-22291914D01*
X4625357Y-22291914D02*
X4625357Y-21991914D01*
X4596786Y-22034772D01*
X4568214Y-22063343D01*
X4539643Y-22077629D01*
X4996786Y-22291914D02*
X4825357Y-22291914D01*
X4911071Y-22291914D02*
X4911071Y-21991914D01*
X4882500Y-22034772D01*
X4853928Y-22063343D01*
X4825357Y-22077629D01*
X5182500Y-21991914D02*
X5211071Y-21991914D01*
X5239643Y-22006200D01*
X5253928Y-22020486D01*
X5268214Y-22049057D01*
X5282500Y-22106200D01*
X5282500Y-22177629D01*
X5268214Y-22234772D01*
X5253928Y-22263343D01*
X5239643Y-22277629D01*
X5211071Y-22291914D01*
X5182500Y-22291914D01*
X5153928Y-22277629D01*
X5139643Y-22263343D01*
X5125357Y-22234772D01*
X5111071Y-22177629D01*
X5111071Y-22106200D01*
X5125357Y-22049057D01*
X5139643Y-22020486D01*
X5153928Y-22006200D01*
X5182500Y-21991914D01*
X5396786Y-21991914D02*
X5396786Y-22049057D01*
X5511071Y-21991914D02*
X5511071Y-22049057D01*
X5953928Y-22406200D02*
X5939643Y-22391914D01*
X5911071Y-22349057D01*
X5896786Y-22320486D01*
X5882500Y-22277629D01*
X5868214Y-22206200D01*
X5868214Y-22149057D01*
X5882500Y-22077629D01*
X5896786Y-22034772D01*
X5911071Y-22006200D01*
X5939643Y-21963343D01*
X5953928Y-21949057D01*
X6225357Y-22291914D02*
X6053928Y-22291914D01*
X6139643Y-22291914D02*
X6139643Y-21991914D01*
X6111071Y-22034772D01*
X6082500Y-22063343D01*
X6053928Y-22077629D01*
X6482500Y-22091914D02*
X6482500Y-22291914D01*
X6411071Y-21977629D02*
X6339643Y-22191914D01*
X6525357Y-22191914D01*
X6868214Y-22291914D02*
X6868214Y-21991914D01*
X6996786Y-22291914D02*
X6996786Y-22134772D01*
X6982500Y-22106200D01*
X6953928Y-22091914D01*
X6911071Y-22091914D01*
X6882500Y-22106200D01*
X6868214Y-22120486D01*
X7182500Y-22291914D02*
X7153928Y-22277629D01*
X7139643Y-22263343D01*
X7125357Y-22234772D01*
X7125357Y-22149057D01*
X7139643Y-22120486D01*
X7153928Y-22106200D01*
X7182500Y-22091914D01*
X7225357Y-22091914D01*
X7253928Y-22106200D01*
X7268214Y-22120486D01*
X7282500Y-22149057D01*
X7282500Y-22234772D01*
X7268214Y-22263343D01*
X7253928Y-22277629D01*
X7225357Y-22291914D01*
X7182500Y-22291914D01*
X7453928Y-22291914D02*
X7425357Y-22277629D01*
X7411071Y-22249057D01*
X7411071Y-21991914D01*
X7682500Y-22277629D02*
X7653928Y-22291914D01*
X7596786Y-22291914D01*
X7568214Y-22277629D01*
X7553928Y-22249057D01*
X7553928Y-22134772D01*
X7568214Y-22106200D01*
X7596786Y-22091914D01*
X7653928Y-22091914D01*
X7682500Y-22106200D01*
X7696786Y-22134772D01*
X7696786Y-22163343D01*
X7553928Y-22191914D01*
X7811071Y-22277629D02*
X7839643Y-22291914D01*
X7896786Y-22291914D01*
X7925357Y-22277629D01*
X7939643Y-22249057D01*
X7939643Y-22234772D01*
X7925357Y-22206200D01*
X7896786Y-22191914D01*
X7853928Y-22191914D01*
X7825357Y-22177629D01*
X7811071Y-22149057D01*
X7811071Y-22134772D01*
X7825357Y-22106200D01*
X7853928Y-22091914D01*
X7896786Y-22091914D01*
X7925357Y-22106200D01*
X8039643Y-22406200D02*
X8053928Y-22391914D01*
X8082500Y-22349057D01*
X8096786Y-22320486D01*
X8111071Y-22277629D01*
X8125357Y-22206200D01*
X8125357Y-22149057D01*
X8111071Y-22077629D01*
X8096786Y-22034772D01*
X8082500Y-22006200D01*
X8053928Y-21963343D01*
X8039643Y-21949057D01*
M02*
