%TF.GenerationSoftware,KiCad,Pcbnew,(5.1.8)-1*%
%TF.CreationDate,2021-03-22T22:31:27+09:00*%
%TF.ProjectId,inverter_IPM,696e7665-7274-4657-925f-49504d2e6b69,rev?*%
%TF.SameCoordinates,Original*%
%TF.FileFunction,Soldermask,Top*%
%TF.FilePolarity,Negative*%
%FSLAX46Y46*%
G04 Gerber Fmt 4.6, Leading zero omitted, Abs format (unit mm)*
G04 Created by KiCad (PCBNEW (5.1.8)-1) date 2021-03-22 22:31:27*
%MOMM*%
%LPD*%
G01*
G04 APERTURE LIST*
%ADD10C,0.010000*%
%ADD11O,1.905000X2.000000*%
%ADD12R,1.905000X2.000000*%
%ADD13C,1.700000*%
%ADD14C,3.175000*%
%ADD15C,3.000000*%
%ADD16R,1.000000X2.000000*%
%ADD17R,1.300000X0.800000*%
%ADD18R,2.250000X2.250000*%
%ADD19C,2.250000*%
%ADD20C,1.500000*%
%ADD21R,3.770000X3.770000*%
%ADD22C,3.770000*%
%ADD23C,0.300000*%
%ADD24R,10.800000X9.400000*%
%ADD25R,1.100000X4.600000*%
%ADD26C,1.950000*%
%ADD27C,1.508000*%
%ADD28R,1.500000X4.200000*%
%ADD29R,12.320000X3.825000*%
%ADD30C,4.250000*%
%ADD31C,1.850000*%
%ADD32R,1.850000X1.850000*%
%ADD33O,1.700000X1.700000*%
%ADD34R,1.700000X1.700000*%
%ADD35O,1.850000X1.700000*%
%ADD36C,2.700000*%
%ADD37C,5.600000*%
%ADD38R,1.800000X3.500000*%
%ADD39R,2.400000X2.400000*%
%ADD40C,2.400000*%
%ADD41C,2.000000*%
%ADD42R,2.000000X2.000000*%
%ADD43C,4.000000*%
%ADD44R,4.000000X4.000000*%
%ADD45C,0.254000*%
%ADD46C,0.100000*%
G04 APERTURE END LIST*
D10*
%TO.C,U4*%
G36*
X126000600Y-46179000D02*
G01*
X128710600Y-46179000D01*
X128710600Y-49579000D01*
X126000600Y-49579000D01*
X126000600Y-46179000D01*
G37*
X126000600Y-46179000D02*
X128710600Y-46179000D01*
X128710600Y-49579000D01*
X126000600Y-49579000D01*
X126000600Y-46179000D01*
G36*
X125450600Y-46344000D02*
G01*
X123860600Y-46344000D01*
X123857983Y-46343931D01*
X123855374Y-46343726D01*
X123852778Y-46343384D01*
X123850204Y-46342907D01*
X123847659Y-46342296D01*
X123845149Y-46341553D01*
X123842682Y-46340679D01*
X123840263Y-46339677D01*
X123837900Y-46338550D01*
X123835600Y-46337301D01*
X123833368Y-46335934D01*
X123831211Y-46334451D01*
X123829134Y-46332857D01*
X123827143Y-46331157D01*
X123825245Y-46329355D01*
X123823443Y-46327457D01*
X123821743Y-46325466D01*
X123820149Y-46323389D01*
X123818666Y-46321232D01*
X123817299Y-46319000D01*
X123816050Y-46316700D01*
X123814923Y-46314337D01*
X123813921Y-46311918D01*
X123813047Y-46309451D01*
X123812304Y-46306941D01*
X123811693Y-46304396D01*
X123811216Y-46301822D01*
X123810874Y-46299226D01*
X123810669Y-46296617D01*
X123810600Y-46294000D01*
X123810600Y-45654000D01*
X123810669Y-45651383D01*
X123810874Y-45648774D01*
X123811216Y-45646178D01*
X123811693Y-45643604D01*
X123812304Y-45641059D01*
X123813047Y-45638549D01*
X123813921Y-45636082D01*
X123814923Y-45633663D01*
X123816050Y-45631300D01*
X123817299Y-45629000D01*
X123818666Y-45626768D01*
X123820149Y-45624611D01*
X123821743Y-45622534D01*
X123823443Y-45620543D01*
X123825245Y-45618645D01*
X123827143Y-45616843D01*
X123829134Y-45615143D01*
X123831211Y-45613549D01*
X123833368Y-45612066D01*
X123835600Y-45610699D01*
X123837900Y-45609450D01*
X123840263Y-45608323D01*
X123842682Y-45607321D01*
X123845149Y-45606447D01*
X123847659Y-45605704D01*
X123850204Y-45605093D01*
X123852778Y-45604616D01*
X123855374Y-45604274D01*
X123857983Y-45604069D01*
X123860600Y-45604000D01*
X125450600Y-45604000D01*
X125453217Y-45604069D01*
X125455826Y-45604274D01*
X125458422Y-45604616D01*
X125460996Y-45605093D01*
X125463541Y-45605704D01*
X125466051Y-45606447D01*
X125468518Y-45607321D01*
X125470937Y-45608323D01*
X125473300Y-45609450D01*
X125475600Y-45610699D01*
X125477832Y-45612066D01*
X125479989Y-45613549D01*
X125482066Y-45615143D01*
X125484057Y-45616843D01*
X125485955Y-45618645D01*
X125487757Y-45620543D01*
X125489457Y-45622534D01*
X125491051Y-45624611D01*
X125492534Y-45626768D01*
X125493901Y-45629000D01*
X125495150Y-45631300D01*
X125496277Y-45633663D01*
X125497279Y-45636082D01*
X125498153Y-45638549D01*
X125498896Y-45641059D01*
X125499507Y-45643604D01*
X125499984Y-45646178D01*
X125500326Y-45648774D01*
X125500531Y-45651383D01*
X125500600Y-45654000D01*
X125500600Y-46294000D01*
X125500531Y-46296617D01*
X125500326Y-46299226D01*
X125499984Y-46301822D01*
X125499507Y-46304396D01*
X125498896Y-46306941D01*
X125498153Y-46309451D01*
X125497279Y-46311918D01*
X125496277Y-46314337D01*
X125495150Y-46316700D01*
X125493901Y-46319000D01*
X125492534Y-46321232D01*
X125491051Y-46323389D01*
X125489457Y-46325466D01*
X125487757Y-46327457D01*
X125485955Y-46329355D01*
X125484057Y-46331157D01*
X125482066Y-46332857D01*
X125479989Y-46334451D01*
X125477832Y-46335934D01*
X125475600Y-46337301D01*
X125473300Y-46338550D01*
X125470937Y-46339677D01*
X125468518Y-46340679D01*
X125466051Y-46341553D01*
X125463541Y-46342296D01*
X125460996Y-46342907D01*
X125458422Y-46343384D01*
X125455826Y-46343726D01*
X125453217Y-46343931D01*
X125450600Y-46344000D01*
G37*
X125450600Y-46344000D02*
X123860600Y-46344000D01*
X123857983Y-46343931D01*
X123855374Y-46343726D01*
X123852778Y-46343384D01*
X123850204Y-46342907D01*
X123847659Y-46342296D01*
X123845149Y-46341553D01*
X123842682Y-46340679D01*
X123840263Y-46339677D01*
X123837900Y-46338550D01*
X123835600Y-46337301D01*
X123833368Y-46335934D01*
X123831211Y-46334451D01*
X123829134Y-46332857D01*
X123827143Y-46331157D01*
X123825245Y-46329355D01*
X123823443Y-46327457D01*
X123821743Y-46325466D01*
X123820149Y-46323389D01*
X123818666Y-46321232D01*
X123817299Y-46319000D01*
X123816050Y-46316700D01*
X123814923Y-46314337D01*
X123813921Y-46311918D01*
X123813047Y-46309451D01*
X123812304Y-46306941D01*
X123811693Y-46304396D01*
X123811216Y-46301822D01*
X123810874Y-46299226D01*
X123810669Y-46296617D01*
X123810600Y-46294000D01*
X123810600Y-45654000D01*
X123810669Y-45651383D01*
X123810874Y-45648774D01*
X123811216Y-45646178D01*
X123811693Y-45643604D01*
X123812304Y-45641059D01*
X123813047Y-45638549D01*
X123813921Y-45636082D01*
X123814923Y-45633663D01*
X123816050Y-45631300D01*
X123817299Y-45629000D01*
X123818666Y-45626768D01*
X123820149Y-45624611D01*
X123821743Y-45622534D01*
X123823443Y-45620543D01*
X123825245Y-45618645D01*
X123827143Y-45616843D01*
X123829134Y-45615143D01*
X123831211Y-45613549D01*
X123833368Y-45612066D01*
X123835600Y-45610699D01*
X123837900Y-45609450D01*
X123840263Y-45608323D01*
X123842682Y-45607321D01*
X123845149Y-45606447D01*
X123847659Y-45605704D01*
X123850204Y-45605093D01*
X123852778Y-45604616D01*
X123855374Y-45604274D01*
X123857983Y-45604069D01*
X123860600Y-45604000D01*
X125450600Y-45604000D01*
X125453217Y-45604069D01*
X125455826Y-45604274D01*
X125458422Y-45604616D01*
X125460996Y-45605093D01*
X125463541Y-45605704D01*
X125466051Y-45606447D01*
X125468518Y-45607321D01*
X125470937Y-45608323D01*
X125473300Y-45609450D01*
X125475600Y-45610699D01*
X125477832Y-45612066D01*
X125479989Y-45613549D01*
X125482066Y-45615143D01*
X125484057Y-45616843D01*
X125485955Y-45618645D01*
X125487757Y-45620543D01*
X125489457Y-45622534D01*
X125491051Y-45624611D01*
X125492534Y-45626768D01*
X125493901Y-45629000D01*
X125495150Y-45631300D01*
X125496277Y-45633663D01*
X125497279Y-45636082D01*
X125498153Y-45638549D01*
X125498896Y-45641059D01*
X125499507Y-45643604D01*
X125499984Y-45646178D01*
X125500326Y-45648774D01*
X125500531Y-45651383D01*
X125500600Y-45654000D01*
X125500600Y-46294000D01*
X125500531Y-46296617D01*
X125500326Y-46299226D01*
X125499984Y-46301822D01*
X125499507Y-46304396D01*
X125498896Y-46306941D01*
X125498153Y-46309451D01*
X125497279Y-46311918D01*
X125496277Y-46314337D01*
X125495150Y-46316700D01*
X125493901Y-46319000D01*
X125492534Y-46321232D01*
X125491051Y-46323389D01*
X125489457Y-46325466D01*
X125487757Y-46327457D01*
X125485955Y-46329355D01*
X125484057Y-46331157D01*
X125482066Y-46332857D01*
X125479989Y-46334451D01*
X125477832Y-46335934D01*
X125475600Y-46337301D01*
X125473300Y-46338550D01*
X125470937Y-46339677D01*
X125468518Y-46340679D01*
X125466051Y-46341553D01*
X125463541Y-46342296D01*
X125460996Y-46342907D01*
X125458422Y-46343384D01*
X125455826Y-46343726D01*
X125453217Y-46343931D01*
X125450600Y-46344000D01*
G36*
X125450600Y-47614000D02*
G01*
X123860600Y-47614000D01*
X123857983Y-47613931D01*
X123855374Y-47613726D01*
X123852778Y-47613384D01*
X123850204Y-47612907D01*
X123847659Y-47612296D01*
X123845149Y-47611553D01*
X123842682Y-47610679D01*
X123840263Y-47609677D01*
X123837900Y-47608550D01*
X123835600Y-47607301D01*
X123833368Y-47605934D01*
X123831211Y-47604451D01*
X123829134Y-47602857D01*
X123827143Y-47601157D01*
X123825245Y-47599355D01*
X123823443Y-47597457D01*
X123821743Y-47595466D01*
X123820149Y-47593389D01*
X123818666Y-47591232D01*
X123817299Y-47589000D01*
X123816050Y-47586700D01*
X123814923Y-47584337D01*
X123813921Y-47581918D01*
X123813047Y-47579451D01*
X123812304Y-47576941D01*
X123811693Y-47574396D01*
X123811216Y-47571822D01*
X123810874Y-47569226D01*
X123810669Y-47566617D01*
X123810600Y-47564000D01*
X123810600Y-46924000D01*
X123810669Y-46921383D01*
X123810874Y-46918774D01*
X123811216Y-46916178D01*
X123811693Y-46913604D01*
X123812304Y-46911059D01*
X123813047Y-46908549D01*
X123813921Y-46906082D01*
X123814923Y-46903663D01*
X123816050Y-46901300D01*
X123817299Y-46899000D01*
X123818666Y-46896768D01*
X123820149Y-46894611D01*
X123821743Y-46892534D01*
X123823443Y-46890543D01*
X123825245Y-46888645D01*
X123827143Y-46886843D01*
X123829134Y-46885143D01*
X123831211Y-46883549D01*
X123833368Y-46882066D01*
X123835600Y-46880699D01*
X123837900Y-46879450D01*
X123840263Y-46878323D01*
X123842682Y-46877321D01*
X123845149Y-46876447D01*
X123847659Y-46875704D01*
X123850204Y-46875093D01*
X123852778Y-46874616D01*
X123855374Y-46874274D01*
X123857983Y-46874069D01*
X123860600Y-46874000D01*
X125450600Y-46874000D01*
X125453217Y-46874069D01*
X125455826Y-46874274D01*
X125458422Y-46874616D01*
X125460996Y-46875093D01*
X125463541Y-46875704D01*
X125466051Y-46876447D01*
X125468518Y-46877321D01*
X125470937Y-46878323D01*
X125473300Y-46879450D01*
X125475600Y-46880699D01*
X125477832Y-46882066D01*
X125479989Y-46883549D01*
X125482066Y-46885143D01*
X125484057Y-46886843D01*
X125485955Y-46888645D01*
X125487757Y-46890543D01*
X125489457Y-46892534D01*
X125491051Y-46894611D01*
X125492534Y-46896768D01*
X125493901Y-46899000D01*
X125495150Y-46901300D01*
X125496277Y-46903663D01*
X125497279Y-46906082D01*
X125498153Y-46908549D01*
X125498896Y-46911059D01*
X125499507Y-46913604D01*
X125499984Y-46916178D01*
X125500326Y-46918774D01*
X125500531Y-46921383D01*
X125500600Y-46924000D01*
X125500600Y-47564000D01*
X125500531Y-47566617D01*
X125500326Y-47569226D01*
X125499984Y-47571822D01*
X125499507Y-47574396D01*
X125498896Y-47576941D01*
X125498153Y-47579451D01*
X125497279Y-47581918D01*
X125496277Y-47584337D01*
X125495150Y-47586700D01*
X125493901Y-47589000D01*
X125492534Y-47591232D01*
X125491051Y-47593389D01*
X125489457Y-47595466D01*
X125487757Y-47597457D01*
X125485955Y-47599355D01*
X125484057Y-47601157D01*
X125482066Y-47602857D01*
X125479989Y-47604451D01*
X125477832Y-47605934D01*
X125475600Y-47607301D01*
X125473300Y-47608550D01*
X125470937Y-47609677D01*
X125468518Y-47610679D01*
X125466051Y-47611553D01*
X125463541Y-47612296D01*
X125460996Y-47612907D01*
X125458422Y-47613384D01*
X125455826Y-47613726D01*
X125453217Y-47613931D01*
X125450600Y-47614000D01*
G37*
X125450600Y-47614000D02*
X123860600Y-47614000D01*
X123857983Y-47613931D01*
X123855374Y-47613726D01*
X123852778Y-47613384D01*
X123850204Y-47612907D01*
X123847659Y-47612296D01*
X123845149Y-47611553D01*
X123842682Y-47610679D01*
X123840263Y-47609677D01*
X123837900Y-47608550D01*
X123835600Y-47607301D01*
X123833368Y-47605934D01*
X123831211Y-47604451D01*
X123829134Y-47602857D01*
X123827143Y-47601157D01*
X123825245Y-47599355D01*
X123823443Y-47597457D01*
X123821743Y-47595466D01*
X123820149Y-47593389D01*
X123818666Y-47591232D01*
X123817299Y-47589000D01*
X123816050Y-47586700D01*
X123814923Y-47584337D01*
X123813921Y-47581918D01*
X123813047Y-47579451D01*
X123812304Y-47576941D01*
X123811693Y-47574396D01*
X123811216Y-47571822D01*
X123810874Y-47569226D01*
X123810669Y-47566617D01*
X123810600Y-47564000D01*
X123810600Y-46924000D01*
X123810669Y-46921383D01*
X123810874Y-46918774D01*
X123811216Y-46916178D01*
X123811693Y-46913604D01*
X123812304Y-46911059D01*
X123813047Y-46908549D01*
X123813921Y-46906082D01*
X123814923Y-46903663D01*
X123816050Y-46901300D01*
X123817299Y-46899000D01*
X123818666Y-46896768D01*
X123820149Y-46894611D01*
X123821743Y-46892534D01*
X123823443Y-46890543D01*
X123825245Y-46888645D01*
X123827143Y-46886843D01*
X123829134Y-46885143D01*
X123831211Y-46883549D01*
X123833368Y-46882066D01*
X123835600Y-46880699D01*
X123837900Y-46879450D01*
X123840263Y-46878323D01*
X123842682Y-46877321D01*
X123845149Y-46876447D01*
X123847659Y-46875704D01*
X123850204Y-46875093D01*
X123852778Y-46874616D01*
X123855374Y-46874274D01*
X123857983Y-46874069D01*
X123860600Y-46874000D01*
X125450600Y-46874000D01*
X125453217Y-46874069D01*
X125455826Y-46874274D01*
X125458422Y-46874616D01*
X125460996Y-46875093D01*
X125463541Y-46875704D01*
X125466051Y-46876447D01*
X125468518Y-46877321D01*
X125470937Y-46878323D01*
X125473300Y-46879450D01*
X125475600Y-46880699D01*
X125477832Y-46882066D01*
X125479989Y-46883549D01*
X125482066Y-46885143D01*
X125484057Y-46886843D01*
X125485955Y-46888645D01*
X125487757Y-46890543D01*
X125489457Y-46892534D01*
X125491051Y-46894611D01*
X125492534Y-46896768D01*
X125493901Y-46899000D01*
X125495150Y-46901300D01*
X125496277Y-46903663D01*
X125497279Y-46906082D01*
X125498153Y-46908549D01*
X125498896Y-46911059D01*
X125499507Y-46913604D01*
X125499984Y-46916178D01*
X125500326Y-46918774D01*
X125500531Y-46921383D01*
X125500600Y-46924000D01*
X125500600Y-47564000D01*
X125500531Y-47566617D01*
X125500326Y-47569226D01*
X125499984Y-47571822D01*
X125499507Y-47574396D01*
X125498896Y-47576941D01*
X125498153Y-47579451D01*
X125497279Y-47581918D01*
X125496277Y-47584337D01*
X125495150Y-47586700D01*
X125493901Y-47589000D01*
X125492534Y-47591232D01*
X125491051Y-47593389D01*
X125489457Y-47595466D01*
X125487757Y-47597457D01*
X125485955Y-47599355D01*
X125484057Y-47601157D01*
X125482066Y-47602857D01*
X125479989Y-47604451D01*
X125477832Y-47605934D01*
X125475600Y-47607301D01*
X125473300Y-47608550D01*
X125470937Y-47609677D01*
X125468518Y-47610679D01*
X125466051Y-47611553D01*
X125463541Y-47612296D01*
X125460996Y-47612907D01*
X125458422Y-47613384D01*
X125455826Y-47613726D01*
X125453217Y-47613931D01*
X125450600Y-47614000D01*
G36*
X125450600Y-48884000D02*
G01*
X123860600Y-48884000D01*
X123857983Y-48883931D01*
X123855374Y-48883726D01*
X123852778Y-48883384D01*
X123850204Y-48882907D01*
X123847659Y-48882296D01*
X123845149Y-48881553D01*
X123842682Y-48880679D01*
X123840263Y-48879677D01*
X123837900Y-48878550D01*
X123835600Y-48877301D01*
X123833368Y-48875934D01*
X123831211Y-48874451D01*
X123829134Y-48872857D01*
X123827143Y-48871157D01*
X123825245Y-48869355D01*
X123823443Y-48867457D01*
X123821743Y-48865466D01*
X123820149Y-48863389D01*
X123818666Y-48861232D01*
X123817299Y-48859000D01*
X123816050Y-48856700D01*
X123814923Y-48854337D01*
X123813921Y-48851918D01*
X123813047Y-48849451D01*
X123812304Y-48846941D01*
X123811693Y-48844396D01*
X123811216Y-48841822D01*
X123810874Y-48839226D01*
X123810669Y-48836617D01*
X123810600Y-48834000D01*
X123810600Y-48194000D01*
X123810669Y-48191383D01*
X123810874Y-48188774D01*
X123811216Y-48186178D01*
X123811693Y-48183604D01*
X123812304Y-48181059D01*
X123813047Y-48178549D01*
X123813921Y-48176082D01*
X123814923Y-48173663D01*
X123816050Y-48171300D01*
X123817299Y-48169000D01*
X123818666Y-48166768D01*
X123820149Y-48164611D01*
X123821743Y-48162534D01*
X123823443Y-48160543D01*
X123825245Y-48158645D01*
X123827143Y-48156843D01*
X123829134Y-48155143D01*
X123831211Y-48153549D01*
X123833368Y-48152066D01*
X123835600Y-48150699D01*
X123837900Y-48149450D01*
X123840263Y-48148323D01*
X123842682Y-48147321D01*
X123845149Y-48146447D01*
X123847659Y-48145704D01*
X123850204Y-48145093D01*
X123852778Y-48144616D01*
X123855374Y-48144274D01*
X123857983Y-48144069D01*
X123860600Y-48144000D01*
X125450600Y-48144000D01*
X125453217Y-48144069D01*
X125455826Y-48144274D01*
X125458422Y-48144616D01*
X125460996Y-48145093D01*
X125463541Y-48145704D01*
X125466051Y-48146447D01*
X125468518Y-48147321D01*
X125470937Y-48148323D01*
X125473300Y-48149450D01*
X125475600Y-48150699D01*
X125477832Y-48152066D01*
X125479989Y-48153549D01*
X125482066Y-48155143D01*
X125484057Y-48156843D01*
X125485955Y-48158645D01*
X125487757Y-48160543D01*
X125489457Y-48162534D01*
X125491051Y-48164611D01*
X125492534Y-48166768D01*
X125493901Y-48169000D01*
X125495150Y-48171300D01*
X125496277Y-48173663D01*
X125497279Y-48176082D01*
X125498153Y-48178549D01*
X125498896Y-48181059D01*
X125499507Y-48183604D01*
X125499984Y-48186178D01*
X125500326Y-48188774D01*
X125500531Y-48191383D01*
X125500600Y-48194000D01*
X125500600Y-48834000D01*
X125500531Y-48836617D01*
X125500326Y-48839226D01*
X125499984Y-48841822D01*
X125499507Y-48844396D01*
X125498896Y-48846941D01*
X125498153Y-48849451D01*
X125497279Y-48851918D01*
X125496277Y-48854337D01*
X125495150Y-48856700D01*
X125493901Y-48859000D01*
X125492534Y-48861232D01*
X125491051Y-48863389D01*
X125489457Y-48865466D01*
X125487757Y-48867457D01*
X125485955Y-48869355D01*
X125484057Y-48871157D01*
X125482066Y-48872857D01*
X125479989Y-48874451D01*
X125477832Y-48875934D01*
X125475600Y-48877301D01*
X125473300Y-48878550D01*
X125470937Y-48879677D01*
X125468518Y-48880679D01*
X125466051Y-48881553D01*
X125463541Y-48882296D01*
X125460996Y-48882907D01*
X125458422Y-48883384D01*
X125455826Y-48883726D01*
X125453217Y-48883931D01*
X125450600Y-48884000D01*
G37*
X125450600Y-48884000D02*
X123860600Y-48884000D01*
X123857983Y-48883931D01*
X123855374Y-48883726D01*
X123852778Y-48883384D01*
X123850204Y-48882907D01*
X123847659Y-48882296D01*
X123845149Y-48881553D01*
X123842682Y-48880679D01*
X123840263Y-48879677D01*
X123837900Y-48878550D01*
X123835600Y-48877301D01*
X123833368Y-48875934D01*
X123831211Y-48874451D01*
X123829134Y-48872857D01*
X123827143Y-48871157D01*
X123825245Y-48869355D01*
X123823443Y-48867457D01*
X123821743Y-48865466D01*
X123820149Y-48863389D01*
X123818666Y-48861232D01*
X123817299Y-48859000D01*
X123816050Y-48856700D01*
X123814923Y-48854337D01*
X123813921Y-48851918D01*
X123813047Y-48849451D01*
X123812304Y-48846941D01*
X123811693Y-48844396D01*
X123811216Y-48841822D01*
X123810874Y-48839226D01*
X123810669Y-48836617D01*
X123810600Y-48834000D01*
X123810600Y-48194000D01*
X123810669Y-48191383D01*
X123810874Y-48188774D01*
X123811216Y-48186178D01*
X123811693Y-48183604D01*
X123812304Y-48181059D01*
X123813047Y-48178549D01*
X123813921Y-48176082D01*
X123814923Y-48173663D01*
X123816050Y-48171300D01*
X123817299Y-48169000D01*
X123818666Y-48166768D01*
X123820149Y-48164611D01*
X123821743Y-48162534D01*
X123823443Y-48160543D01*
X123825245Y-48158645D01*
X123827143Y-48156843D01*
X123829134Y-48155143D01*
X123831211Y-48153549D01*
X123833368Y-48152066D01*
X123835600Y-48150699D01*
X123837900Y-48149450D01*
X123840263Y-48148323D01*
X123842682Y-48147321D01*
X123845149Y-48146447D01*
X123847659Y-48145704D01*
X123850204Y-48145093D01*
X123852778Y-48144616D01*
X123855374Y-48144274D01*
X123857983Y-48144069D01*
X123860600Y-48144000D01*
X125450600Y-48144000D01*
X125453217Y-48144069D01*
X125455826Y-48144274D01*
X125458422Y-48144616D01*
X125460996Y-48145093D01*
X125463541Y-48145704D01*
X125466051Y-48146447D01*
X125468518Y-48147321D01*
X125470937Y-48148323D01*
X125473300Y-48149450D01*
X125475600Y-48150699D01*
X125477832Y-48152066D01*
X125479989Y-48153549D01*
X125482066Y-48155143D01*
X125484057Y-48156843D01*
X125485955Y-48158645D01*
X125487757Y-48160543D01*
X125489457Y-48162534D01*
X125491051Y-48164611D01*
X125492534Y-48166768D01*
X125493901Y-48169000D01*
X125495150Y-48171300D01*
X125496277Y-48173663D01*
X125497279Y-48176082D01*
X125498153Y-48178549D01*
X125498896Y-48181059D01*
X125499507Y-48183604D01*
X125499984Y-48186178D01*
X125500326Y-48188774D01*
X125500531Y-48191383D01*
X125500600Y-48194000D01*
X125500600Y-48834000D01*
X125500531Y-48836617D01*
X125500326Y-48839226D01*
X125499984Y-48841822D01*
X125499507Y-48844396D01*
X125498896Y-48846941D01*
X125498153Y-48849451D01*
X125497279Y-48851918D01*
X125496277Y-48854337D01*
X125495150Y-48856700D01*
X125493901Y-48859000D01*
X125492534Y-48861232D01*
X125491051Y-48863389D01*
X125489457Y-48865466D01*
X125487757Y-48867457D01*
X125485955Y-48869355D01*
X125484057Y-48871157D01*
X125482066Y-48872857D01*
X125479989Y-48874451D01*
X125477832Y-48875934D01*
X125475600Y-48877301D01*
X125473300Y-48878550D01*
X125470937Y-48879677D01*
X125468518Y-48880679D01*
X125466051Y-48881553D01*
X125463541Y-48882296D01*
X125460996Y-48882907D01*
X125458422Y-48883384D01*
X125455826Y-48883726D01*
X125453217Y-48883931D01*
X125450600Y-48884000D01*
G36*
X125450600Y-50154000D02*
G01*
X123860600Y-50154000D01*
X123857983Y-50153931D01*
X123855374Y-50153726D01*
X123852778Y-50153384D01*
X123850204Y-50152907D01*
X123847659Y-50152296D01*
X123845149Y-50151553D01*
X123842682Y-50150679D01*
X123840263Y-50149677D01*
X123837900Y-50148550D01*
X123835600Y-50147301D01*
X123833368Y-50145934D01*
X123831211Y-50144451D01*
X123829134Y-50142857D01*
X123827143Y-50141157D01*
X123825245Y-50139355D01*
X123823443Y-50137457D01*
X123821743Y-50135466D01*
X123820149Y-50133389D01*
X123818666Y-50131232D01*
X123817299Y-50129000D01*
X123816050Y-50126700D01*
X123814923Y-50124337D01*
X123813921Y-50121918D01*
X123813047Y-50119451D01*
X123812304Y-50116941D01*
X123811693Y-50114396D01*
X123811216Y-50111822D01*
X123810874Y-50109226D01*
X123810669Y-50106617D01*
X123810600Y-50104000D01*
X123810600Y-49464000D01*
X123810669Y-49461383D01*
X123810874Y-49458774D01*
X123811216Y-49456178D01*
X123811693Y-49453604D01*
X123812304Y-49451059D01*
X123813047Y-49448549D01*
X123813921Y-49446082D01*
X123814923Y-49443663D01*
X123816050Y-49441300D01*
X123817299Y-49439000D01*
X123818666Y-49436768D01*
X123820149Y-49434611D01*
X123821743Y-49432534D01*
X123823443Y-49430543D01*
X123825245Y-49428645D01*
X123827143Y-49426843D01*
X123829134Y-49425143D01*
X123831211Y-49423549D01*
X123833368Y-49422066D01*
X123835600Y-49420699D01*
X123837900Y-49419450D01*
X123840263Y-49418323D01*
X123842682Y-49417321D01*
X123845149Y-49416447D01*
X123847659Y-49415704D01*
X123850204Y-49415093D01*
X123852778Y-49414616D01*
X123855374Y-49414274D01*
X123857983Y-49414069D01*
X123860600Y-49414000D01*
X125450600Y-49414000D01*
X125453217Y-49414069D01*
X125455826Y-49414274D01*
X125458422Y-49414616D01*
X125460996Y-49415093D01*
X125463541Y-49415704D01*
X125466051Y-49416447D01*
X125468518Y-49417321D01*
X125470937Y-49418323D01*
X125473300Y-49419450D01*
X125475600Y-49420699D01*
X125477832Y-49422066D01*
X125479989Y-49423549D01*
X125482066Y-49425143D01*
X125484057Y-49426843D01*
X125485955Y-49428645D01*
X125487757Y-49430543D01*
X125489457Y-49432534D01*
X125491051Y-49434611D01*
X125492534Y-49436768D01*
X125493901Y-49439000D01*
X125495150Y-49441300D01*
X125496277Y-49443663D01*
X125497279Y-49446082D01*
X125498153Y-49448549D01*
X125498896Y-49451059D01*
X125499507Y-49453604D01*
X125499984Y-49456178D01*
X125500326Y-49458774D01*
X125500531Y-49461383D01*
X125500600Y-49464000D01*
X125500600Y-50104000D01*
X125500531Y-50106617D01*
X125500326Y-50109226D01*
X125499984Y-50111822D01*
X125499507Y-50114396D01*
X125498896Y-50116941D01*
X125498153Y-50119451D01*
X125497279Y-50121918D01*
X125496277Y-50124337D01*
X125495150Y-50126700D01*
X125493901Y-50129000D01*
X125492534Y-50131232D01*
X125491051Y-50133389D01*
X125489457Y-50135466D01*
X125487757Y-50137457D01*
X125485955Y-50139355D01*
X125484057Y-50141157D01*
X125482066Y-50142857D01*
X125479989Y-50144451D01*
X125477832Y-50145934D01*
X125475600Y-50147301D01*
X125473300Y-50148550D01*
X125470937Y-50149677D01*
X125468518Y-50150679D01*
X125466051Y-50151553D01*
X125463541Y-50152296D01*
X125460996Y-50152907D01*
X125458422Y-50153384D01*
X125455826Y-50153726D01*
X125453217Y-50153931D01*
X125450600Y-50154000D01*
G37*
X125450600Y-50154000D02*
X123860600Y-50154000D01*
X123857983Y-50153931D01*
X123855374Y-50153726D01*
X123852778Y-50153384D01*
X123850204Y-50152907D01*
X123847659Y-50152296D01*
X123845149Y-50151553D01*
X123842682Y-50150679D01*
X123840263Y-50149677D01*
X123837900Y-50148550D01*
X123835600Y-50147301D01*
X123833368Y-50145934D01*
X123831211Y-50144451D01*
X123829134Y-50142857D01*
X123827143Y-50141157D01*
X123825245Y-50139355D01*
X123823443Y-50137457D01*
X123821743Y-50135466D01*
X123820149Y-50133389D01*
X123818666Y-50131232D01*
X123817299Y-50129000D01*
X123816050Y-50126700D01*
X123814923Y-50124337D01*
X123813921Y-50121918D01*
X123813047Y-50119451D01*
X123812304Y-50116941D01*
X123811693Y-50114396D01*
X123811216Y-50111822D01*
X123810874Y-50109226D01*
X123810669Y-50106617D01*
X123810600Y-50104000D01*
X123810600Y-49464000D01*
X123810669Y-49461383D01*
X123810874Y-49458774D01*
X123811216Y-49456178D01*
X123811693Y-49453604D01*
X123812304Y-49451059D01*
X123813047Y-49448549D01*
X123813921Y-49446082D01*
X123814923Y-49443663D01*
X123816050Y-49441300D01*
X123817299Y-49439000D01*
X123818666Y-49436768D01*
X123820149Y-49434611D01*
X123821743Y-49432534D01*
X123823443Y-49430543D01*
X123825245Y-49428645D01*
X123827143Y-49426843D01*
X123829134Y-49425143D01*
X123831211Y-49423549D01*
X123833368Y-49422066D01*
X123835600Y-49420699D01*
X123837900Y-49419450D01*
X123840263Y-49418323D01*
X123842682Y-49417321D01*
X123845149Y-49416447D01*
X123847659Y-49415704D01*
X123850204Y-49415093D01*
X123852778Y-49414616D01*
X123855374Y-49414274D01*
X123857983Y-49414069D01*
X123860600Y-49414000D01*
X125450600Y-49414000D01*
X125453217Y-49414069D01*
X125455826Y-49414274D01*
X125458422Y-49414616D01*
X125460996Y-49415093D01*
X125463541Y-49415704D01*
X125466051Y-49416447D01*
X125468518Y-49417321D01*
X125470937Y-49418323D01*
X125473300Y-49419450D01*
X125475600Y-49420699D01*
X125477832Y-49422066D01*
X125479989Y-49423549D01*
X125482066Y-49425143D01*
X125484057Y-49426843D01*
X125485955Y-49428645D01*
X125487757Y-49430543D01*
X125489457Y-49432534D01*
X125491051Y-49434611D01*
X125492534Y-49436768D01*
X125493901Y-49439000D01*
X125495150Y-49441300D01*
X125496277Y-49443663D01*
X125497279Y-49446082D01*
X125498153Y-49448549D01*
X125498896Y-49451059D01*
X125499507Y-49453604D01*
X125499984Y-49456178D01*
X125500326Y-49458774D01*
X125500531Y-49461383D01*
X125500600Y-49464000D01*
X125500600Y-50104000D01*
X125500531Y-50106617D01*
X125500326Y-50109226D01*
X125499984Y-50111822D01*
X125499507Y-50114396D01*
X125498896Y-50116941D01*
X125498153Y-50119451D01*
X125497279Y-50121918D01*
X125496277Y-50124337D01*
X125495150Y-50126700D01*
X125493901Y-50129000D01*
X125492534Y-50131232D01*
X125491051Y-50133389D01*
X125489457Y-50135466D01*
X125487757Y-50137457D01*
X125485955Y-50139355D01*
X125484057Y-50141157D01*
X125482066Y-50142857D01*
X125479989Y-50144451D01*
X125477832Y-50145934D01*
X125475600Y-50147301D01*
X125473300Y-50148550D01*
X125470937Y-50149677D01*
X125468518Y-50150679D01*
X125466051Y-50151553D01*
X125463541Y-50152296D01*
X125460996Y-50152907D01*
X125458422Y-50153384D01*
X125455826Y-50153726D01*
X125453217Y-50153931D01*
X125450600Y-50154000D01*
G36*
X130850600Y-46344000D02*
G01*
X129260600Y-46344000D01*
X129257983Y-46343931D01*
X129255374Y-46343726D01*
X129252778Y-46343384D01*
X129250204Y-46342907D01*
X129247659Y-46342296D01*
X129245149Y-46341553D01*
X129242682Y-46340679D01*
X129240263Y-46339677D01*
X129237900Y-46338550D01*
X129235600Y-46337301D01*
X129233368Y-46335934D01*
X129231211Y-46334451D01*
X129229134Y-46332857D01*
X129227143Y-46331157D01*
X129225245Y-46329355D01*
X129223443Y-46327457D01*
X129221743Y-46325466D01*
X129220149Y-46323389D01*
X129218666Y-46321232D01*
X129217299Y-46319000D01*
X129216050Y-46316700D01*
X129214923Y-46314337D01*
X129213921Y-46311918D01*
X129213047Y-46309451D01*
X129212304Y-46306941D01*
X129211693Y-46304396D01*
X129211216Y-46301822D01*
X129210874Y-46299226D01*
X129210669Y-46296617D01*
X129210600Y-46294000D01*
X129210600Y-45654000D01*
X129210669Y-45651383D01*
X129210874Y-45648774D01*
X129211216Y-45646178D01*
X129211693Y-45643604D01*
X129212304Y-45641059D01*
X129213047Y-45638549D01*
X129213921Y-45636082D01*
X129214923Y-45633663D01*
X129216050Y-45631300D01*
X129217299Y-45629000D01*
X129218666Y-45626768D01*
X129220149Y-45624611D01*
X129221743Y-45622534D01*
X129223443Y-45620543D01*
X129225245Y-45618645D01*
X129227143Y-45616843D01*
X129229134Y-45615143D01*
X129231211Y-45613549D01*
X129233368Y-45612066D01*
X129235600Y-45610699D01*
X129237900Y-45609450D01*
X129240263Y-45608323D01*
X129242682Y-45607321D01*
X129245149Y-45606447D01*
X129247659Y-45605704D01*
X129250204Y-45605093D01*
X129252778Y-45604616D01*
X129255374Y-45604274D01*
X129257983Y-45604069D01*
X129260600Y-45604000D01*
X130850600Y-45604000D01*
X130853217Y-45604069D01*
X130855826Y-45604274D01*
X130858422Y-45604616D01*
X130860996Y-45605093D01*
X130863541Y-45605704D01*
X130866051Y-45606447D01*
X130868518Y-45607321D01*
X130870937Y-45608323D01*
X130873300Y-45609450D01*
X130875600Y-45610699D01*
X130877832Y-45612066D01*
X130879989Y-45613549D01*
X130882066Y-45615143D01*
X130884057Y-45616843D01*
X130885955Y-45618645D01*
X130887757Y-45620543D01*
X130889457Y-45622534D01*
X130891051Y-45624611D01*
X130892534Y-45626768D01*
X130893901Y-45629000D01*
X130895150Y-45631300D01*
X130896277Y-45633663D01*
X130897279Y-45636082D01*
X130898153Y-45638549D01*
X130898896Y-45641059D01*
X130899507Y-45643604D01*
X130899984Y-45646178D01*
X130900326Y-45648774D01*
X130900531Y-45651383D01*
X130900600Y-45654000D01*
X130900600Y-46294000D01*
X130900531Y-46296617D01*
X130900326Y-46299226D01*
X130899984Y-46301822D01*
X130899507Y-46304396D01*
X130898896Y-46306941D01*
X130898153Y-46309451D01*
X130897279Y-46311918D01*
X130896277Y-46314337D01*
X130895150Y-46316700D01*
X130893901Y-46319000D01*
X130892534Y-46321232D01*
X130891051Y-46323389D01*
X130889457Y-46325466D01*
X130887757Y-46327457D01*
X130885955Y-46329355D01*
X130884057Y-46331157D01*
X130882066Y-46332857D01*
X130879989Y-46334451D01*
X130877832Y-46335934D01*
X130875600Y-46337301D01*
X130873300Y-46338550D01*
X130870937Y-46339677D01*
X130868518Y-46340679D01*
X130866051Y-46341553D01*
X130863541Y-46342296D01*
X130860996Y-46342907D01*
X130858422Y-46343384D01*
X130855826Y-46343726D01*
X130853217Y-46343931D01*
X130850600Y-46344000D01*
G37*
X130850600Y-46344000D02*
X129260600Y-46344000D01*
X129257983Y-46343931D01*
X129255374Y-46343726D01*
X129252778Y-46343384D01*
X129250204Y-46342907D01*
X129247659Y-46342296D01*
X129245149Y-46341553D01*
X129242682Y-46340679D01*
X129240263Y-46339677D01*
X129237900Y-46338550D01*
X129235600Y-46337301D01*
X129233368Y-46335934D01*
X129231211Y-46334451D01*
X129229134Y-46332857D01*
X129227143Y-46331157D01*
X129225245Y-46329355D01*
X129223443Y-46327457D01*
X129221743Y-46325466D01*
X129220149Y-46323389D01*
X129218666Y-46321232D01*
X129217299Y-46319000D01*
X129216050Y-46316700D01*
X129214923Y-46314337D01*
X129213921Y-46311918D01*
X129213047Y-46309451D01*
X129212304Y-46306941D01*
X129211693Y-46304396D01*
X129211216Y-46301822D01*
X129210874Y-46299226D01*
X129210669Y-46296617D01*
X129210600Y-46294000D01*
X129210600Y-45654000D01*
X129210669Y-45651383D01*
X129210874Y-45648774D01*
X129211216Y-45646178D01*
X129211693Y-45643604D01*
X129212304Y-45641059D01*
X129213047Y-45638549D01*
X129213921Y-45636082D01*
X129214923Y-45633663D01*
X129216050Y-45631300D01*
X129217299Y-45629000D01*
X129218666Y-45626768D01*
X129220149Y-45624611D01*
X129221743Y-45622534D01*
X129223443Y-45620543D01*
X129225245Y-45618645D01*
X129227143Y-45616843D01*
X129229134Y-45615143D01*
X129231211Y-45613549D01*
X129233368Y-45612066D01*
X129235600Y-45610699D01*
X129237900Y-45609450D01*
X129240263Y-45608323D01*
X129242682Y-45607321D01*
X129245149Y-45606447D01*
X129247659Y-45605704D01*
X129250204Y-45605093D01*
X129252778Y-45604616D01*
X129255374Y-45604274D01*
X129257983Y-45604069D01*
X129260600Y-45604000D01*
X130850600Y-45604000D01*
X130853217Y-45604069D01*
X130855826Y-45604274D01*
X130858422Y-45604616D01*
X130860996Y-45605093D01*
X130863541Y-45605704D01*
X130866051Y-45606447D01*
X130868518Y-45607321D01*
X130870937Y-45608323D01*
X130873300Y-45609450D01*
X130875600Y-45610699D01*
X130877832Y-45612066D01*
X130879989Y-45613549D01*
X130882066Y-45615143D01*
X130884057Y-45616843D01*
X130885955Y-45618645D01*
X130887757Y-45620543D01*
X130889457Y-45622534D01*
X130891051Y-45624611D01*
X130892534Y-45626768D01*
X130893901Y-45629000D01*
X130895150Y-45631300D01*
X130896277Y-45633663D01*
X130897279Y-45636082D01*
X130898153Y-45638549D01*
X130898896Y-45641059D01*
X130899507Y-45643604D01*
X130899984Y-45646178D01*
X130900326Y-45648774D01*
X130900531Y-45651383D01*
X130900600Y-45654000D01*
X130900600Y-46294000D01*
X130900531Y-46296617D01*
X130900326Y-46299226D01*
X130899984Y-46301822D01*
X130899507Y-46304396D01*
X130898896Y-46306941D01*
X130898153Y-46309451D01*
X130897279Y-46311918D01*
X130896277Y-46314337D01*
X130895150Y-46316700D01*
X130893901Y-46319000D01*
X130892534Y-46321232D01*
X130891051Y-46323389D01*
X130889457Y-46325466D01*
X130887757Y-46327457D01*
X130885955Y-46329355D01*
X130884057Y-46331157D01*
X130882066Y-46332857D01*
X130879989Y-46334451D01*
X130877832Y-46335934D01*
X130875600Y-46337301D01*
X130873300Y-46338550D01*
X130870937Y-46339677D01*
X130868518Y-46340679D01*
X130866051Y-46341553D01*
X130863541Y-46342296D01*
X130860996Y-46342907D01*
X130858422Y-46343384D01*
X130855826Y-46343726D01*
X130853217Y-46343931D01*
X130850600Y-46344000D01*
G36*
X130850600Y-47614000D02*
G01*
X129260600Y-47614000D01*
X129257983Y-47613931D01*
X129255374Y-47613726D01*
X129252778Y-47613384D01*
X129250204Y-47612907D01*
X129247659Y-47612296D01*
X129245149Y-47611553D01*
X129242682Y-47610679D01*
X129240263Y-47609677D01*
X129237900Y-47608550D01*
X129235600Y-47607301D01*
X129233368Y-47605934D01*
X129231211Y-47604451D01*
X129229134Y-47602857D01*
X129227143Y-47601157D01*
X129225245Y-47599355D01*
X129223443Y-47597457D01*
X129221743Y-47595466D01*
X129220149Y-47593389D01*
X129218666Y-47591232D01*
X129217299Y-47589000D01*
X129216050Y-47586700D01*
X129214923Y-47584337D01*
X129213921Y-47581918D01*
X129213047Y-47579451D01*
X129212304Y-47576941D01*
X129211693Y-47574396D01*
X129211216Y-47571822D01*
X129210874Y-47569226D01*
X129210669Y-47566617D01*
X129210600Y-47564000D01*
X129210600Y-46924000D01*
X129210669Y-46921383D01*
X129210874Y-46918774D01*
X129211216Y-46916178D01*
X129211693Y-46913604D01*
X129212304Y-46911059D01*
X129213047Y-46908549D01*
X129213921Y-46906082D01*
X129214923Y-46903663D01*
X129216050Y-46901300D01*
X129217299Y-46899000D01*
X129218666Y-46896768D01*
X129220149Y-46894611D01*
X129221743Y-46892534D01*
X129223443Y-46890543D01*
X129225245Y-46888645D01*
X129227143Y-46886843D01*
X129229134Y-46885143D01*
X129231211Y-46883549D01*
X129233368Y-46882066D01*
X129235600Y-46880699D01*
X129237900Y-46879450D01*
X129240263Y-46878323D01*
X129242682Y-46877321D01*
X129245149Y-46876447D01*
X129247659Y-46875704D01*
X129250204Y-46875093D01*
X129252778Y-46874616D01*
X129255374Y-46874274D01*
X129257983Y-46874069D01*
X129260600Y-46874000D01*
X130850600Y-46874000D01*
X130853217Y-46874069D01*
X130855826Y-46874274D01*
X130858422Y-46874616D01*
X130860996Y-46875093D01*
X130863541Y-46875704D01*
X130866051Y-46876447D01*
X130868518Y-46877321D01*
X130870937Y-46878323D01*
X130873300Y-46879450D01*
X130875600Y-46880699D01*
X130877832Y-46882066D01*
X130879989Y-46883549D01*
X130882066Y-46885143D01*
X130884057Y-46886843D01*
X130885955Y-46888645D01*
X130887757Y-46890543D01*
X130889457Y-46892534D01*
X130891051Y-46894611D01*
X130892534Y-46896768D01*
X130893901Y-46899000D01*
X130895150Y-46901300D01*
X130896277Y-46903663D01*
X130897279Y-46906082D01*
X130898153Y-46908549D01*
X130898896Y-46911059D01*
X130899507Y-46913604D01*
X130899984Y-46916178D01*
X130900326Y-46918774D01*
X130900531Y-46921383D01*
X130900600Y-46924000D01*
X130900600Y-47564000D01*
X130900531Y-47566617D01*
X130900326Y-47569226D01*
X130899984Y-47571822D01*
X130899507Y-47574396D01*
X130898896Y-47576941D01*
X130898153Y-47579451D01*
X130897279Y-47581918D01*
X130896277Y-47584337D01*
X130895150Y-47586700D01*
X130893901Y-47589000D01*
X130892534Y-47591232D01*
X130891051Y-47593389D01*
X130889457Y-47595466D01*
X130887757Y-47597457D01*
X130885955Y-47599355D01*
X130884057Y-47601157D01*
X130882066Y-47602857D01*
X130879989Y-47604451D01*
X130877832Y-47605934D01*
X130875600Y-47607301D01*
X130873300Y-47608550D01*
X130870937Y-47609677D01*
X130868518Y-47610679D01*
X130866051Y-47611553D01*
X130863541Y-47612296D01*
X130860996Y-47612907D01*
X130858422Y-47613384D01*
X130855826Y-47613726D01*
X130853217Y-47613931D01*
X130850600Y-47614000D01*
G37*
X130850600Y-47614000D02*
X129260600Y-47614000D01*
X129257983Y-47613931D01*
X129255374Y-47613726D01*
X129252778Y-47613384D01*
X129250204Y-47612907D01*
X129247659Y-47612296D01*
X129245149Y-47611553D01*
X129242682Y-47610679D01*
X129240263Y-47609677D01*
X129237900Y-47608550D01*
X129235600Y-47607301D01*
X129233368Y-47605934D01*
X129231211Y-47604451D01*
X129229134Y-47602857D01*
X129227143Y-47601157D01*
X129225245Y-47599355D01*
X129223443Y-47597457D01*
X129221743Y-47595466D01*
X129220149Y-47593389D01*
X129218666Y-47591232D01*
X129217299Y-47589000D01*
X129216050Y-47586700D01*
X129214923Y-47584337D01*
X129213921Y-47581918D01*
X129213047Y-47579451D01*
X129212304Y-47576941D01*
X129211693Y-47574396D01*
X129211216Y-47571822D01*
X129210874Y-47569226D01*
X129210669Y-47566617D01*
X129210600Y-47564000D01*
X129210600Y-46924000D01*
X129210669Y-46921383D01*
X129210874Y-46918774D01*
X129211216Y-46916178D01*
X129211693Y-46913604D01*
X129212304Y-46911059D01*
X129213047Y-46908549D01*
X129213921Y-46906082D01*
X129214923Y-46903663D01*
X129216050Y-46901300D01*
X129217299Y-46899000D01*
X129218666Y-46896768D01*
X129220149Y-46894611D01*
X129221743Y-46892534D01*
X129223443Y-46890543D01*
X129225245Y-46888645D01*
X129227143Y-46886843D01*
X129229134Y-46885143D01*
X129231211Y-46883549D01*
X129233368Y-46882066D01*
X129235600Y-46880699D01*
X129237900Y-46879450D01*
X129240263Y-46878323D01*
X129242682Y-46877321D01*
X129245149Y-46876447D01*
X129247659Y-46875704D01*
X129250204Y-46875093D01*
X129252778Y-46874616D01*
X129255374Y-46874274D01*
X129257983Y-46874069D01*
X129260600Y-46874000D01*
X130850600Y-46874000D01*
X130853217Y-46874069D01*
X130855826Y-46874274D01*
X130858422Y-46874616D01*
X130860996Y-46875093D01*
X130863541Y-46875704D01*
X130866051Y-46876447D01*
X130868518Y-46877321D01*
X130870937Y-46878323D01*
X130873300Y-46879450D01*
X130875600Y-46880699D01*
X130877832Y-46882066D01*
X130879989Y-46883549D01*
X130882066Y-46885143D01*
X130884057Y-46886843D01*
X130885955Y-46888645D01*
X130887757Y-46890543D01*
X130889457Y-46892534D01*
X130891051Y-46894611D01*
X130892534Y-46896768D01*
X130893901Y-46899000D01*
X130895150Y-46901300D01*
X130896277Y-46903663D01*
X130897279Y-46906082D01*
X130898153Y-46908549D01*
X130898896Y-46911059D01*
X130899507Y-46913604D01*
X130899984Y-46916178D01*
X130900326Y-46918774D01*
X130900531Y-46921383D01*
X130900600Y-46924000D01*
X130900600Y-47564000D01*
X130900531Y-47566617D01*
X130900326Y-47569226D01*
X130899984Y-47571822D01*
X130899507Y-47574396D01*
X130898896Y-47576941D01*
X130898153Y-47579451D01*
X130897279Y-47581918D01*
X130896277Y-47584337D01*
X130895150Y-47586700D01*
X130893901Y-47589000D01*
X130892534Y-47591232D01*
X130891051Y-47593389D01*
X130889457Y-47595466D01*
X130887757Y-47597457D01*
X130885955Y-47599355D01*
X130884057Y-47601157D01*
X130882066Y-47602857D01*
X130879989Y-47604451D01*
X130877832Y-47605934D01*
X130875600Y-47607301D01*
X130873300Y-47608550D01*
X130870937Y-47609677D01*
X130868518Y-47610679D01*
X130866051Y-47611553D01*
X130863541Y-47612296D01*
X130860996Y-47612907D01*
X130858422Y-47613384D01*
X130855826Y-47613726D01*
X130853217Y-47613931D01*
X130850600Y-47614000D01*
G36*
X130850600Y-48884000D02*
G01*
X129260600Y-48884000D01*
X129257983Y-48883931D01*
X129255374Y-48883726D01*
X129252778Y-48883384D01*
X129250204Y-48882907D01*
X129247659Y-48882296D01*
X129245149Y-48881553D01*
X129242682Y-48880679D01*
X129240263Y-48879677D01*
X129237900Y-48878550D01*
X129235600Y-48877301D01*
X129233368Y-48875934D01*
X129231211Y-48874451D01*
X129229134Y-48872857D01*
X129227143Y-48871157D01*
X129225245Y-48869355D01*
X129223443Y-48867457D01*
X129221743Y-48865466D01*
X129220149Y-48863389D01*
X129218666Y-48861232D01*
X129217299Y-48859000D01*
X129216050Y-48856700D01*
X129214923Y-48854337D01*
X129213921Y-48851918D01*
X129213047Y-48849451D01*
X129212304Y-48846941D01*
X129211693Y-48844396D01*
X129211216Y-48841822D01*
X129210874Y-48839226D01*
X129210669Y-48836617D01*
X129210600Y-48834000D01*
X129210600Y-48194000D01*
X129210669Y-48191383D01*
X129210874Y-48188774D01*
X129211216Y-48186178D01*
X129211693Y-48183604D01*
X129212304Y-48181059D01*
X129213047Y-48178549D01*
X129213921Y-48176082D01*
X129214923Y-48173663D01*
X129216050Y-48171300D01*
X129217299Y-48169000D01*
X129218666Y-48166768D01*
X129220149Y-48164611D01*
X129221743Y-48162534D01*
X129223443Y-48160543D01*
X129225245Y-48158645D01*
X129227143Y-48156843D01*
X129229134Y-48155143D01*
X129231211Y-48153549D01*
X129233368Y-48152066D01*
X129235600Y-48150699D01*
X129237900Y-48149450D01*
X129240263Y-48148323D01*
X129242682Y-48147321D01*
X129245149Y-48146447D01*
X129247659Y-48145704D01*
X129250204Y-48145093D01*
X129252778Y-48144616D01*
X129255374Y-48144274D01*
X129257983Y-48144069D01*
X129260600Y-48144000D01*
X130850600Y-48144000D01*
X130853217Y-48144069D01*
X130855826Y-48144274D01*
X130858422Y-48144616D01*
X130860996Y-48145093D01*
X130863541Y-48145704D01*
X130866051Y-48146447D01*
X130868518Y-48147321D01*
X130870937Y-48148323D01*
X130873300Y-48149450D01*
X130875600Y-48150699D01*
X130877832Y-48152066D01*
X130879989Y-48153549D01*
X130882066Y-48155143D01*
X130884057Y-48156843D01*
X130885955Y-48158645D01*
X130887757Y-48160543D01*
X130889457Y-48162534D01*
X130891051Y-48164611D01*
X130892534Y-48166768D01*
X130893901Y-48169000D01*
X130895150Y-48171300D01*
X130896277Y-48173663D01*
X130897279Y-48176082D01*
X130898153Y-48178549D01*
X130898896Y-48181059D01*
X130899507Y-48183604D01*
X130899984Y-48186178D01*
X130900326Y-48188774D01*
X130900531Y-48191383D01*
X130900600Y-48194000D01*
X130900600Y-48834000D01*
X130900531Y-48836617D01*
X130900326Y-48839226D01*
X130899984Y-48841822D01*
X130899507Y-48844396D01*
X130898896Y-48846941D01*
X130898153Y-48849451D01*
X130897279Y-48851918D01*
X130896277Y-48854337D01*
X130895150Y-48856700D01*
X130893901Y-48859000D01*
X130892534Y-48861232D01*
X130891051Y-48863389D01*
X130889457Y-48865466D01*
X130887757Y-48867457D01*
X130885955Y-48869355D01*
X130884057Y-48871157D01*
X130882066Y-48872857D01*
X130879989Y-48874451D01*
X130877832Y-48875934D01*
X130875600Y-48877301D01*
X130873300Y-48878550D01*
X130870937Y-48879677D01*
X130868518Y-48880679D01*
X130866051Y-48881553D01*
X130863541Y-48882296D01*
X130860996Y-48882907D01*
X130858422Y-48883384D01*
X130855826Y-48883726D01*
X130853217Y-48883931D01*
X130850600Y-48884000D01*
G37*
X130850600Y-48884000D02*
X129260600Y-48884000D01*
X129257983Y-48883931D01*
X129255374Y-48883726D01*
X129252778Y-48883384D01*
X129250204Y-48882907D01*
X129247659Y-48882296D01*
X129245149Y-48881553D01*
X129242682Y-48880679D01*
X129240263Y-48879677D01*
X129237900Y-48878550D01*
X129235600Y-48877301D01*
X129233368Y-48875934D01*
X129231211Y-48874451D01*
X129229134Y-48872857D01*
X129227143Y-48871157D01*
X129225245Y-48869355D01*
X129223443Y-48867457D01*
X129221743Y-48865466D01*
X129220149Y-48863389D01*
X129218666Y-48861232D01*
X129217299Y-48859000D01*
X129216050Y-48856700D01*
X129214923Y-48854337D01*
X129213921Y-48851918D01*
X129213047Y-48849451D01*
X129212304Y-48846941D01*
X129211693Y-48844396D01*
X129211216Y-48841822D01*
X129210874Y-48839226D01*
X129210669Y-48836617D01*
X129210600Y-48834000D01*
X129210600Y-48194000D01*
X129210669Y-48191383D01*
X129210874Y-48188774D01*
X129211216Y-48186178D01*
X129211693Y-48183604D01*
X129212304Y-48181059D01*
X129213047Y-48178549D01*
X129213921Y-48176082D01*
X129214923Y-48173663D01*
X129216050Y-48171300D01*
X129217299Y-48169000D01*
X129218666Y-48166768D01*
X129220149Y-48164611D01*
X129221743Y-48162534D01*
X129223443Y-48160543D01*
X129225245Y-48158645D01*
X129227143Y-48156843D01*
X129229134Y-48155143D01*
X129231211Y-48153549D01*
X129233368Y-48152066D01*
X129235600Y-48150699D01*
X129237900Y-48149450D01*
X129240263Y-48148323D01*
X129242682Y-48147321D01*
X129245149Y-48146447D01*
X129247659Y-48145704D01*
X129250204Y-48145093D01*
X129252778Y-48144616D01*
X129255374Y-48144274D01*
X129257983Y-48144069D01*
X129260600Y-48144000D01*
X130850600Y-48144000D01*
X130853217Y-48144069D01*
X130855826Y-48144274D01*
X130858422Y-48144616D01*
X130860996Y-48145093D01*
X130863541Y-48145704D01*
X130866051Y-48146447D01*
X130868518Y-48147321D01*
X130870937Y-48148323D01*
X130873300Y-48149450D01*
X130875600Y-48150699D01*
X130877832Y-48152066D01*
X130879989Y-48153549D01*
X130882066Y-48155143D01*
X130884057Y-48156843D01*
X130885955Y-48158645D01*
X130887757Y-48160543D01*
X130889457Y-48162534D01*
X130891051Y-48164611D01*
X130892534Y-48166768D01*
X130893901Y-48169000D01*
X130895150Y-48171300D01*
X130896277Y-48173663D01*
X130897279Y-48176082D01*
X130898153Y-48178549D01*
X130898896Y-48181059D01*
X130899507Y-48183604D01*
X130899984Y-48186178D01*
X130900326Y-48188774D01*
X130900531Y-48191383D01*
X130900600Y-48194000D01*
X130900600Y-48834000D01*
X130900531Y-48836617D01*
X130900326Y-48839226D01*
X130899984Y-48841822D01*
X130899507Y-48844396D01*
X130898896Y-48846941D01*
X130898153Y-48849451D01*
X130897279Y-48851918D01*
X130896277Y-48854337D01*
X130895150Y-48856700D01*
X130893901Y-48859000D01*
X130892534Y-48861232D01*
X130891051Y-48863389D01*
X130889457Y-48865466D01*
X130887757Y-48867457D01*
X130885955Y-48869355D01*
X130884057Y-48871157D01*
X130882066Y-48872857D01*
X130879989Y-48874451D01*
X130877832Y-48875934D01*
X130875600Y-48877301D01*
X130873300Y-48878550D01*
X130870937Y-48879677D01*
X130868518Y-48880679D01*
X130866051Y-48881553D01*
X130863541Y-48882296D01*
X130860996Y-48882907D01*
X130858422Y-48883384D01*
X130855826Y-48883726D01*
X130853217Y-48883931D01*
X130850600Y-48884000D01*
G36*
X130850600Y-50154000D02*
G01*
X129260600Y-50154000D01*
X129257983Y-50153931D01*
X129255374Y-50153726D01*
X129252778Y-50153384D01*
X129250204Y-50152907D01*
X129247659Y-50152296D01*
X129245149Y-50151553D01*
X129242682Y-50150679D01*
X129240263Y-50149677D01*
X129237900Y-50148550D01*
X129235600Y-50147301D01*
X129233368Y-50145934D01*
X129231211Y-50144451D01*
X129229134Y-50142857D01*
X129227143Y-50141157D01*
X129225245Y-50139355D01*
X129223443Y-50137457D01*
X129221743Y-50135466D01*
X129220149Y-50133389D01*
X129218666Y-50131232D01*
X129217299Y-50129000D01*
X129216050Y-50126700D01*
X129214923Y-50124337D01*
X129213921Y-50121918D01*
X129213047Y-50119451D01*
X129212304Y-50116941D01*
X129211693Y-50114396D01*
X129211216Y-50111822D01*
X129210874Y-50109226D01*
X129210669Y-50106617D01*
X129210600Y-50104000D01*
X129210600Y-49464000D01*
X129210669Y-49461383D01*
X129210874Y-49458774D01*
X129211216Y-49456178D01*
X129211693Y-49453604D01*
X129212304Y-49451059D01*
X129213047Y-49448549D01*
X129213921Y-49446082D01*
X129214923Y-49443663D01*
X129216050Y-49441300D01*
X129217299Y-49439000D01*
X129218666Y-49436768D01*
X129220149Y-49434611D01*
X129221743Y-49432534D01*
X129223443Y-49430543D01*
X129225245Y-49428645D01*
X129227143Y-49426843D01*
X129229134Y-49425143D01*
X129231211Y-49423549D01*
X129233368Y-49422066D01*
X129235600Y-49420699D01*
X129237900Y-49419450D01*
X129240263Y-49418323D01*
X129242682Y-49417321D01*
X129245149Y-49416447D01*
X129247659Y-49415704D01*
X129250204Y-49415093D01*
X129252778Y-49414616D01*
X129255374Y-49414274D01*
X129257983Y-49414069D01*
X129260600Y-49414000D01*
X130850600Y-49414000D01*
X130853217Y-49414069D01*
X130855826Y-49414274D01*
X130858422Y-49414616D01*
X130860996Y-49415093D01*
X130863541Y-49415704D01*
X130866051Y-49416447D01*
X130868518Y-49417321D01*
X130870937Y-49418323D01*
X130873300Y-49419450D01*
X130875600Y-49420699D01*
X130877832Y-49422066D01*
X130879989Y-49423549D01*
X130882066Y-49425143D01*
X130884057Y-49426843D01*
X130885955Y-49428645D01*
X130887757Y-49430543D01*
X130889457Y-49432534D01*
X130891051Y-49434611D01*
X130892534Y-49436768D01*
X130893901Y-49439000D01*
X130895150Y-49441300D01*
X130896277Y-49443663D01*
X130897279Y-49446082D01*
X130898153Y-49448549D01*
X130898896Y-49451059D01*
X130899507Y-49453604D01*
X130899984Y-49456178D01*
X130900326Y-49458774D01*
X130900531Y-49461383D01*
X130900600Y-49464000D01*
X130900600Y-50104000D01*
X130900531Y-50106617D01*
X130900326Y-50109226D01*
X130899984Y-50111822D01*
X130899507Y-50114396D01*
X130898896Y-50116941D01*
X130898153Y-50119451D01*
X130897279Y-50121918D01*
X130896277Y-50124337D01*
X130895150Y-50126700D01*
X130893901Y-50129000D01*
X130892534Y-50131232D01*
X130891051Y-50133389D01*
X130889457Y-50135466D01*
X130887757Y-50137457D01*
X130885955Y-50139355D01*
X130884057Y-50141157D01*
X130882066Y-50142857D01*
X130879989Y-50144451D01*
X130877832Y-50145934D01*
X130875600Y-50147301D01*
X130873300Y-50148550D01*
X130870937Y-50149677D01*
X130868518Y-50150679D01*
X130866051Y-50151553D01*
X130863541Y-50152296D01*
X130860996Y-50152907D01*
X130858422Y-50153384D01*
X130855826Y-50153726D01*
X130853217Y-50153931D01*
X130850600Y-50154000D01*
G37*
X130850600Y-50154000D02*
X129260600Y-50154000D01*
X129257983Y-50153931D01*
X129255374Y-50153726D01*
X129252778Y-50153384D01*
X129250204Y-50152907D01*
X129247659Y-50152296D01*
X129245149Y-50151553D01*
X129242682Y-50150679D01*
X129240263Y-50149677D01*
X129237900Y-50148550D01*
X129235600Y-50147301D01*
X129233368Y-50145934D01*
X129231211Y-50144451D01*
X129229134Y-50142857D01*
X129227143Y-50141157D01*
X129225245Y-50139355D01*
X129223443Y-50137457D01*
X129221743Y-50135466D01*
X129220149Y-50133389D01*
X129218666Y-50131232D01*
X129217299Y-50129000D01*
X129216050Y-50126700D01*
X129214923Y-50124337D01*
X129213921Y-50121918D01*
X129213047Y-50119451D01*
X129212304Y-50116941D01*
X129211693Y-50114396D01*
X129211216Y-50111822D01*
X129210874Y-50109226D01*
X129210669Y-50106617D01*
X129210600Y-50104000D01*
X129210600Y-49464000D01*
X129210669Y-49461383D01*
X129210874Y-49458774D01*
X129211216Y-49456178D01*
X129211693Y-49453604D01*
X129212304Y-49451059D01*
X129213047Y-49448549D01*
X129213921Y-49446082D01*
X129214923Y-49443663D01*
X129216050Y-49441300D01*
X129217299Y-49439000D01*
X129218666Y-49436768D01*
X129220149Y-49434611D01*
X129221743Y-49432534D01*
X129223443Y-49430543D01*
X129225245Y-49428645D01*
X129227143Y-49426843D01*
X129229134Y-49425143D01*
X129231211Y-49423549D01*
X129233368Y-49422066D01*
X129235600Y-49420699D01*
X129237900Y-49419450D01*
X129240263Y-49418323D01*
X129242682Y-49417321D01*
X129245149Y-49416447D01*
X129247659Y-49415704D01*
X129250204Y-49415093D01*
X129252778Y-49414616D01*
X129255374Y-49414274D01*
X129257983Y-49414069D01*
X129260600Y-49414000D01*
X130850600Y-49414000D01*
X130853217Y-49414069D01*
X130855826Y-49414274D01*
X130858422Y-49414616D01*
X130860996Y-49415093D01*
X130863541Y-49415704D01*
X130866051Y-49416447D01*
X130868518Y-49417321D01*
X130870937Y-49418323D01*
X130873300Y-49419450D01*
X130875600Y-49420699D01*
X130877832Y-49422066D01*
X130879989Y-49423549D01*
X130882066Y-49425143D01*
X130884057Y-49426843D01*
X130885955Y-49428645D01*
X130887757Y-49430543D01*
X130889457Y-49432534D01*
X130891051Y-49434611D01*
X130892534Y-49436768D01*
X130893901Y-49439000D01*
X130895150Y-49441300D01*
X130896277Y-49443663D01*
X130897279Y-49446082D01*
X130898153Y-49448549D01*
X130898896Y-49451059D01*
X130899507Y-49453604D01*
X130899984Y-49456178D01*
X130900326Y-49458774D01*
X130900531Y-49461383D01*
X130900600Y-49464000D01*
X130900600Y-50104000D01*
X130900531Y-50106617D01*
X130900326Y-50109226D01*
X130899984Y-50111822D01*
X130899507Y-50114396D01*
X130898896Y-50116941D01*
X130898153Y-50119451D01*
X130897279Y-50121918D01*
X130896277Y-50124337D01*
X130895150Y-50126700D01*
X130893901Y-50129000D01*
X130892534Y-50131232D01*
X130891051Y-50133389D01*
X130889457Y-50135466D01*
X130887757Y-50137457D01*
X130885955Y-50139355D01*
X130884057Y-50141157D01*
X130882066Y-50142857D01*
X130879989Y-50144451D01*
X130877832Y-50145934D01*
X130875600Y-50147301D01*
X130873300Y-50148550D01*
X130870937Y-50149677D01*
X130868518Y-50150679D01*
X130866051Y-50151553D01*
X130863541Y-50152296D01*
X130860996Y-50152907D01*
X130858422Y-50153384D01*
X130855826Y-50153726D01*
X130853217Y-50153931D01*
X130850600Y-50154000D01*
%TD*%
D11*
%TO.C,D1*%
X139954000Y-22352000D03*
X137414000Y-22352000D03*
D12*
X134874000Y-22352000D03*
%TD*%
D13*
%TO.C,U3*%
X84810600Y-142697200D03*
X84810600Y-140157200D03*
X84810600Y-137617200D03*
X84810600Y-135077200D03*
X84810600Y-132537200D03*
X84810600Y-129997200D03*
X84810600Y-127457200D03*
X84810600Y-124917200D03*
X84810600Y-122377200D03*
X87350600Y-142697200D03*
X87350600Y-140157200D03*
X87350600Y-137617200D03*
X87350600Y-135077200D03*
X87350600Y-132537200D03*
X87350600Y-129997200D03*
X87350600Y-127457200D03*
X87350600Y-124917200D03*
X87350600Y-122377200D03*
X84810600Y-79197200D03*
X84810600Y-76657200D03*
X84810600Y-74117200D03*
X84810600Y-71577200D03*
X84810600Y-69037200D03*
X84810600Y-66497200D03*
X84810600Y-63957200D03*
X84810600Y-61417200D03*
X84810600Y-58877200D03*
X87350600Y-79197200D03*
X87350600Y-76657200D03*
X87350600Y-74117200D03*
X87350600Y-71577200D03*
X87350600Y-69037200D03*
X87350600Y-66497200D03*
X87350600Y-63957200D03*
X87350600Y-61417200D03*
X87350600Y-58877200D03*
X84810600Y-119837200D03*
X87350600Y-119837200D03*
X84810600Y-56337200D03*
X87350600Y-56337200D03*
X44170600Y-142697200D03*
X44170600Y-140157200D03*
X44170600Y-137617200D03*
X44170600Y-135077200D03*
X44170600Y-132537200D03*
X44170600Y-129997200D03*
X44170600Y-127457200D03*
X44170600Y-124917200D03*
X44170600Y-122377200D03*
X44170600Y-119837200D03*
X41630600Y-142697200D03*
X41630600Y-140157200D03*
X41630600Y-137617200D03*
X41630600Y-135077200D03*
X41630600Y-132537200D03*
X41630600Y-129997200D03*
X41630600Y-127457200D03*
X41630600Y-124917200D03*
X41630600Y-122377200D03*
X41630600Y-119837200D03*
X44170600Y-79197200D03*
X44170600Y-76657200D03*
X44170600Y-74117200D03*
X44170600Y-71577200D03*
X44170600Y-69037200D03*
X44170600Y-66497200D03*
X44170600Y-63957200D03*
X44170600Y-61417200D03*
X44170600Y-58877200D03*
X44170600Y-56337200D03*
X41630600Y-79197200D03*
X41630600Y-76657200D03*
X41630600Y-74117200D03*
X41630600Y-71577200D03*
X41630600Y-69037200D03*
X41630600Y-66497200D03*
X41630600Y-63957200D03*
X41630600Y-61417200D03*
X41630600Y-58877200D03*
X41630600Y-56337200D03*
D14*
X91160600Y-151587200D03*
X37820600Y-151587200D03*
X91160600Y-27127200D03*
X37820600Y-27127200D03*
%TD*%
D15*
%TO.C,U18*%
X223387680Y-105729101D03*
X223387680Y-118729101D03*
D16*
X222817680Y-112229101D03*
X224087680Y-112229101D03*
X225357680Y-112229101D03*
%TD*%
%TO.C,U17*%
X225357680Y-86229101D03*
X224087680Y-86229101D03*
X222817680Y-86229101D03*
D15*
X223387680Y-92729101D03*
X223387680Y-79729101D03*
%TD*%
%TO.C,U16*%
G36*
G01*
X51839000Y-76024000D02*
X51539000Y-76024000D01*
G75*
G02*
X51389000Y-75874000I0J150000D01*
G01*
X51389000Y-74424000D01*
G75*
G02*
X51539000Y-74274000I150000J0D01*
G01*
X51839000Y-74274000D01*
G75*
G02*
X51989000Y-74424000I0J-150000D01*
G01*
X51989000Y-75874000D01*
G75*
G02*
X51839000Y-76024000I-150000J0D01*
G01*
G37*
G36*
G01*
X53109000Y-76024000D02*
X52809000Y-76024000D01*
G75*
G02*
X52659000Y-75874000I0J150000D01*
G01*
X52659000Y-74424000D01*
G75*
G02*
X52809000Y-74274000I150000J0D01*
G01*
X53109000Y-74274000D01*
G75*
G02*
X53259000Y-74424000I0J-150000D01*
G01*
X53259000Y-75874000D01*
G75*
G02*
X53109000Y-76024000I-150000J0D01*
G01*
G37*
G36*
G01*
X54379000Y-76024000D02*
X54079000Y-76024000D01*
G75*
G02*
X53929000Y-75874000I0J150000D01*
G01*
X53929000Y-74424000D01*
G75*
G02*
X54079000Y-74274000I150000J0D01*
G01*
X54379000Y-74274000D01*
G75*
G02*
X54529000Y-74424000I0J-150000D01*
G01*
X54529000Y-75874000D01*
G75*
G02*
X54379000Y-76024000I-150000J0D01*
G01*
G37*
G36*
G01*
X55649000Y-76024000D02*
X55349000Y-76024000D01*
G75*
G02*
X55199000Y-75874000I0J150000D01*
G01*
X55199000Y-74424000D01*
G75*
G02*
X55349000Y-74274000I150000J0D01*
G01*
X55649000Y-74274000D01*
G75*
G02*
X55799000Y-74424000I0J-150000D01*
G01*
X55799000Y-75874000D01*
G75*
G02*
X55649000Y-76024000I-150000J0D01*
G01*
G37*
G36*
G01*
X55649000Y-81174000D02*
X55349000Y-81174000D01*
G75*
G02*
X55199000Y-81024000I0J150000D01*
G01*
X55199000Y-79574000D01*
G75*
G02*
X55349000Y-79424000I150000J0D01*
G01*
X55649000Y-79424000D01*
G75*
G02*
X55799000Y-79574000I0J-150000D01*
G01*
X55799000Y-81024000D01*
G75*
G02*
X55649000Y-81174000I-150000J0D01*
G01*
G37*
G36*
G01*
X54379000Y-81174000D02*
X54079000Y-81174000D01*
G75*
G02*
X53929000Y-81024000I0J150000D01*
G01*
X53929000Y-79574000D01*
G75*
G02*
X54079000Y-79424000I150000J0D01*
G01*
X54379000Y-79424000D01*
G75*
G02*
X54529000Y-79574000I0J-150000D01*
G01*
X54529000Y-81024000D01*
G75*
G02*
X54379000Y-81174000I-150000J0D01*
G01*
G37*
G36*
G01*
X53109000Y-81174000D02*
X52809000Y-81174000D01*
G75*
G02*
X52659000Y-81024000I0J150000D01*
G01*
X52659000Y-79574000D01*
G75*
G02*
X52809000Y-79424000I150000J0D01*
G01*
X53109000Y-79424000D01*
G75*
G02*
X53259000Y-79574000I0J-150000D01*
G01*
X53259000Y-81024000D01*
G75*
G02*
X53109000Y-81174000I-150000J0D01*
G01*
G37*
G36*
G01*
X51839000Y-81174000D02*
X51539000Y-81174000D01*
G75*
G02*
X51389000Y-81024000I0J150000D01*
G01*
X51389000Y-79574000D01*
G75*
G02*
X51539000Y-79424000I150000J0D01*
G01*
X51839000Y-79424000D01*
G75*
G02*
X51989000Y-79574000I0J-150000D01*
G01*
X51989000Y-81024000D01*
G75*
G02*
X51839000Y-81174000I-150000J0D01*
G01*
G37*
%TD*%
%TO.C,U15*%
X223387680Y-131729101D03*
X223387680Y-144729101D03*
D16*
X222817680Y-138229101D03*
X224087680Y-138229101D03*
X225357680Y-138229101D03*
%TD*%
%TO.C,U14*%
G36*
G01*
X51331000Y-94947000D02*
X51031000Y-94947000D01*
G75*
G02*
X50881000Y-94797000I0J150000D01*
G01*
X50881000Y-93347000D01*
G75*
G02*
X51031000Y-93197000I150000J0D01*
G01*
X51331000Y-93197000D01*
G75*
G02*
X51481000Y-93347000I0J-150000D01*
G01*
X51481000Y-94797000D01*
G75*
G02*
X51331000Y-94947000I-150000J0D01*
G01*
G37*
G36*
G01*
X52601000Y-94947000D02*
X52301000Y-94947000D01*
G75*
G02*
X52151000Y-94797000I0J150000D01*
G01*
X52151000Y-93347000D01*
G75*
G02*
X52301000Y-93197000I150000J0D01*
G01*
X52601000Y-93197000D01*
G75*
G02*
X52751000Y-93347000I0J-150000D01*
G01*
X52751000Y-94797000D01*
G75*
G02*
X52601000Y-94947000I-150000J0D01*
G01*
G37*
G36*
G01*
X53871000Y-94947000D02*
X53571000Y-94947000D01*
G75*
G02*
X53421000Y-94797000I0J150000D01*
G01*
X53421000Y-93347000D01*
G75*
G02*
X53571000Y-93197000I150000J0D01*
G01*
X53871000Y-93197000D01*
G75*
G02*
X54021000Y-93347000I0J-150000D01*
G01*
X54021000Y-94797000D01*
G75*
G02*
X53871000Y-94947000I-150000J0D01*
G01*
G37*
G36*
G01*
X55141000Y-94947000D02*
X54841000Y-94947000D01*
G75*
G02*
X54691000Y-94797000I0J150000D01*
G01*
X54691000Y-93347000D01*
G75*
G02*
X54841000Y-93197000I150000J0D01*
G01*
X55141000Y-93197000D01*
G75*
G02*
X55291000Y-93347000I0J-150000D01*
G01*
X55291000Y-94797000D01*
G75*
G02*
X55141000Y-94947000I-150000J0D01*
G01*
G37*
G36*
G01*
X55141000Y-100097000D02*
X54841000Y-100097000D01*
G75*
G02*
X54691000Y-99947000I0J150000D01*
G01*
X54691000Y-98497000D01*
G75*
G02*
X54841000Y-98347000I150000J0D01*
G01*
X55141000Y-98347000D01*
G75*
G02*
X55291000Y-98497000I0J-150000D01*
G01*
X55291000Y-99947000D01*
G75*
G02*
X55141000Y-100097000I-150000J0D01*
G01*
G37*
G36*
G01*
X53871000Y-100097000D02*
X53571000Y-100097000D01*
G75*
G02*
X53421000Y-99947000I0J150000D01*
G01*
X53421000Y-98497000D01*
G75*
G02*
X53571000Y-98347000I150000J0D01*
G01*
X53871000Y-98347000D01*
G75*
G02*
X54021000Y-98497000I0J-150000D01*
G01*
X54021000Y-99947000D01*
G75*
G02*
X53871000Y-100097000I-150000J0D01*
G01*
G37*
G36*
G01*
X52601000Y-100097000D02*
X52301000Y-100097000D01*
G75*
G02*
X52151000Y-99947000I0J150000D01*
G01*
X52151000Y-98497000D01*
G75*
G02*
X52301000Y-98347000I150000J0D01*
G01*
X52601000Y-98347000D01*
G75*
G02*
X52751000Y-98497000I0J-150000D01*
G01*
X52751000Y-99947000D01*
G75*
G02*
X52601000Y-100097000I-150000J0D01*
G01*
G37*
G36*
G01*
X51331000Y-100097000D02*
X51031000Y-100097000D01*
G75*
G02*
X50881000Y-99947000I0J150000D01*
G01*
X50881000Y-98497000D01*
G75*
G02*
X51031000Y-98347000I150000J0D01*
G01*
X51331000Y-98347000D01*
G75*
G02*
X51481000Y-98497000I0J-150000D01*
G01*
X51481000Y-99947000D01*
G75*
G02*
X51331000Y-100097000I-150000J0D01*
G01*
G37*
%TD*%
D17*
%TO.C,U13*%
X93098420Y-147485100D03*
X93098420Y-146215100D03*
X93098420Y-144945100D03*
X102598420Y-144945100D03*
X102598420Y-146215100D03*
X102598420Y-147485100D03*
%TD*%
%TO.C,U12*%
X101117600Y-113411000D03*
X101117600Y-114681000D03*
X101117600Y-115951000D03*
X91617600Y-115951000D03*
X91617600Y-114681000D03*
X91617600Y-113411000D03*
%TD*%
%TO.C,U11*%
X101117600Y-107408980D03*
X101117600Y-108678980D03*
X101117600Y-109948980D03*
X91617600Y-109948980D03*
X91617600Y-108678980D03*
X91617600Y-107408980D03*
%TD*%
%TO.C,U10*%
X101117600Y-101406960D03*
X101117600Y-102676960D03*
X101117600Y-103946960D03*
X91617600Y-103946960D03*
X91617600Y-102676960D03*
X91617600Y-101406960D03*
%TD*%
D18*
%TO.C,U9*%
X112776000Y-40005000D03*
D19*
X112776000Y-45085000D03*
X92456000Y-52705000D03*
X92456000Y-42545000D03*
X92456000Y-32385000D03*
X112776000Y-32385000D03*
%TD*%
D17*
%TO.C,U8*%
X101117600Y-95404940D03*
X101117600Y-96674940D03*
X101117600Y-97944940D03*
X91617600Y-97944940D03*
X91617600Y-96674940D03*
X91617600Y-95404940D03*
%TD*%
%TO.C,U7*%
X101117600Y-89402920D03*
X101117600Y-90672920D03*
X101117600Y-91942920D03*
X91617600Y-91942920D03*
X91617600Y-90672920D03*
X91617600Y-89402920D03*
%TD*%
%TO.C,U6*%
X101117600Y-83400900D03*
X101117600Y-84670900D03*
X101117600Y-85940900D03*
X91617600Y-85940900D03*
X91617600Y-84670900D03*
X91617600Y-83400900D03*
%TD*%
D20*
%TO.C,U5*%
X126055300Y-139057100D03*
X126055300Y-136517100D03*
X126055300Y-133977100D03*
X126055300Y-131437100D03*
X126055300Y-128897100D03*
X126055300Y-126357100D03*
X126055300Y-123817100D03*
X126055300Y-121277100D03*
X126055300Y-118737100D03*
X126055300Y-113657100D03*
X126055300Y-108577100D03*
X126055300Y-106037100D03*
X126055300Y-67977100D03*
X126055300Y-65437100D03*
X126055300Y-73057100D03*
X126055300Y-75597100D03*
X126055300Y-80677100D03*
X126055300Y-83217100D03*
X126055300Y-88297100D03*
X126055300Y-90797100D03*
X126055300Y-95877100D03*
X126055300Y-98417100D03*
D21*
X161955300Y-136357100D03*
D22*
X161955300Y-126357100D03*
X161955300Y-116357100D03*
X161955300Y-106357100D03*
X161955300Y-96357100D03*
X161955300Y-86357100D03*
X161955300Y-76357100D03*
D20*
X126055300Y-100957100D03*
%TD*%
D23*
%TO.C,U4*%
X128005600Y-49829000D03*
X126705600Y-49829000D03*
X128005600Y-48529000D03*
X126705600Y-48529000D03*
X128005600Y-47229000D03*
X126705600Y-47229000D03*
X128005600Y-45929000D03*
X126705600Y-45929000D03*
%TD*%
D24*
%TO.C,U2*%
X63773100Y-49618200D03*
D25*
X66313100Y-58768200D03*
X63773100Y-58768200D03*
X61233100Y-58768200D03*
%TD*%
D18*
%TO.C,U1*%
X61633100Y-29921200D03*
D19*
X66713100Y-29921200D03*
X74333100Y-50241200D03*
X54013100Y-50241200D03*
X54013100Y-29921200D03*
%TD*%
D26*
%TO.C,S1*%
X232476300Y-44584100D03*
X232476300Y-56584100D03*
X226476300Y-44584100D03*
X226476300Y-56584100D03*
D27*
X230726300Y-46584100D03*
X230726300Y-50584100D03*
X230726300Y-54584100D03*
X228226300Y-46584100D03*
X228226300Y-54584100D03*
X228226300Y-50584100D03*
%TD*%
%TO.C,R39*%
G36*
G01*
X39445000Y-32761501D02*
X39445000Y-30611499D01*
G75*
G02*
X39694999Y-30361500I249999J0D01*
G01*
X40595001Y-30361500D01*
G75*
G02*
X40845000Y-30611499I0J-249999D01*
G01*
X40845000Y-32761501D01*
G75*
G02*
X40595001Y-33011500I-249999J0D01*
G01*
X39694999Y-33011500D01*
G75*
G02*
X39445000Y-32761501I0J249999D01*
G01*
G37*
G36*
G01*
X44245000Y-32761501D02*
X44245000Y-30611499D01*
G75*
G02*
X44494999Y-30361500I249999J0D01*
G01*
X45395001Y-30361500D01*
G75*
G02*
X45645000Y-30611499I0J-249999D01*
G01*
X45645000Y-32761501D01*
G75*
G02*
X45395001Y-33011500I-249999J0D01*
G01*
X44494999Y-33011500D01*
G75*
G02*
X44245000Y-32761501I0J249999D01*
G01*
G37*
%TD*%
%TO.C,R38*%
G36*
G01*
X39445000Y-36571501D02*
X39445000Y-34421499D01*
G75*
G02*
X39694999Y-34171500I249999J0D01*
G01*
X40595001Y-34171500D01*
G75*
G02*
X40845000Y-34421499I0J-249999D01*
G01*
X40845000Y-36571501D01*
G75*
G02*
X40595001Y-36821500I-249999J0D01*
G01*
X39694999Y-36821500D01*
G75*
G02*
X39445000Y-36571501I0J249999D01*
G01*
G37*
G36*
G01*
X44245000Y-36571501D02*
X44245000Y-34421499D01*
G75*
G02*
X44494999Y-34171500I249999J0D01*
G01*
X45395001Y-34171500D01*
G75*
G02*
X45645000Y-34421499I0J-249999D01*
G01*
X45645000Y-36571501D01*
G75*
G02*
X45395001Y-36821500I-249999J0D01*
G01*
X44494999Y-36821500D01*
G75*
G02*
X44245000Y-36571501I0J249999D01*
G01*
G37*
%TD*%
%TO.C,R37*%
G36*
G01*
X39445000Y-40508501D02*
X39445000Y-38358499D01*
G75*
G02*
X39694999Y-38108500I249999J0D01*
G01*
X40595001Y-38108500D01*
G75*
G02*
X40845000Y-38358499I0J-249999D01*
G01*
X40845000Y-40508501D01*
G75*
G02*
X40595001Y-40758500I-249999J0D01*
G01*
X39694999Y-40758500D01*
G75*
G02*
X39445000Y-40508501I0J249999D01*
G01*
G37*
G36*
G01*
X44245000Y-40508501D02*
X44245000Y-38358499D01*
G75*
G02*
X44494999Y-38108500I249999J0D01*
G01*
X45395001Y-38108500D01*
G75*
G02*
X45645000Y-38358499I0J-249999D01*
G01*
X45645000Y-40508501D01*
G75*
G02*
X45395001Y-40758500I-249999J0D01*
G01*
X44494999Y-40758500D01*
G75*
G02*
X44245000Y-40508501I0J249999D01*
G01*
G37*
%TD*%
%TO.C,R36*%
G36*
G01*
X45772000Y-51058499D02*
X45772000Y-53208501D01*
G75*
G02*
X45522001Y-53458500I-249999J0D01*
G01*
X44621999Y-53458500D01*
G75*
G02*
X44372000Y-53208501I0J249999D01*
G01*
X44372000Y-51058499D01*
G75*
G02*
X44621999Y-50808500I249999J0D01*
G01*
X45522001Y-50808500D01*
G75*
G02*
X45772000Y-51058499I0J-249999D01*
G01*
G37*
G36*
G01*
X40972000Y-51058499D02*
X40972000Y-53208501D01*
G75*
G02*
X40722001Y-53458500I-249999J0D01*
G01*
X39821999Y-53458500D01*
G75*
G02*
X39572000Y-53208501I0J249999D01*
G01*
X39572000Y-51058499D01*
G75*
G02*
X39821999Y-50808500I249999J0D01*
G01*
X40722001Y-50808500D01*
G75*
G02*
X40972000Y-51058499I0J-249999D01*
G01*
G37*
%TD*%
%TO.C,R35*%
G36*
G01*
X45772000Y-47248499D02*
X45772000Y-49398501D01*
G75*
G02*
X45522001Y-49648500I-249999J0D01*
G01*
X44621999Y-49648500D01*
G75*
G02*
X44372000Y-49398501I0J249999D01*
G01*
X44372000Y-47248499D01*
G75*
G02*
X44621999Y-46998500I249999J0D01*
G01*
X45522001Y-46998500D01*
G75*
G02*
X45772000Y-47248499I0J-249999D01*
G01*
G37*
G36*
G01*
X40972000Y-47248499D02*
X40972000Y-49398501D01*
G75*
G02*
X40722001Y-49648500I-249999J0D01*
G01*
X39821999Y-49648500D01*
G75*
G02*
X39572000Y-49398501I0J249999D01*
G01*
X39572000Y-47248499D01*
G75*
G02*
X39821999Y-46998500I249999J0D01*
G01*
X40722001Y-46998500D01*
G75*
G02*
X40972000Y-47248499I0J-249999D01*
G01*
G37*
%TD*%
%TO.C,R34*%
G36*
G01*
X45772000Y-43438499D02*
X45772000Y-45588501D01*
G75*
G02*
X45522001Y-45838500I-249999J0D01*
G01*
X44621999Y-45838500D01*
G75*
G02*
X44372000Y-45588501I0J249999D01*
G01*
X44372000Y-43438499D01*
G75*
G02*
X44621999Y-43188500I249999J0D01*
G01*
X45522001Y-43188500D01*
G75*
G02*
X45772000Y-43438499I0J-249999D01*
G01*
G37*
G36*
G01*
X40972000Y-43438499D02*
X40972000Y-45588501D01*
G75*
G02*
X40722001Y-45838500I-249999J0D01*
G01*
X39821999Y-45838500D01*
G75*
G02*
X39572000Y-45588501I0J249999D01*
G01*
X39572000Y-43438499D01*
G75*
G02*
X39821999Y-43188500I249999J0D01*
G01*
X40722001Y-43188500D01*
G75*
G02*
X40972000Y-43438499I0J-249999D01*
G01*
G37*
%TD*%
%TO.C,R33*%
G36*
G01*
X49647001Y-26405000D02*
X48396999Y-26405000D01*
G75*
G02*
X48147000Y-26155001I0J249999D01*
G01*
X48147000Y-25354999D01*
G75*
G02*
X48396999Y-25105000I249999J0D01*
G01*
X49647001Y-25105000D01*
G75*
G02*
X49897000Y-25354999I0J-249999D01*
G01*
X49897000Y-26155001D01*
G75*
G02*
X49647001Y-26405000I-249999J0D01*
G01*
G37*
G36*
G01*
X49647001Y-29505000D02*
X48396999Y-29505000D01*
G75*
G02*
X48147000Y-29255001I0J249999D01*
G01*
X48147000Y-28454999D01*
G75*
G02*
X48396999Y-28205000I249999J0D01*
G01*
X49647001Y-28205000D01*
G75*
G02*
X49897000Y-28454999I0J-249999D01*
G01*
X49897000Y-29255001D01*
G75*
G02*
X49647001Y-29505000I-249999J0D01*
G01*
G37*
%TD*%
%TO.C,R32*%
G36*
G01*
X52948000Y-25155999D02*
X52948000Y-26406001D01*
G75*
G02*
X52698001Y-26656000I-249999J0D01*
G01*
X51897999Y-26656000D01*
G75*
G02*
X51648000Y-26406001I0J249999D01*
G01*
X51648000Y-25155999D01*
G75*
G02*
X51897999Y-24906000I249999J0D01*
G01*
X52698001Y-24906000D01*
G75*
G02*
X52948000Y-25155999I0J-249999D01*
G01*
G37*
G36*
G01*
X56048000Y-25155999D02*
X56048000Y-26406001D01*
G75*
G02*
X55798001Y-26656000I-249999J0D01*
G01*
X54997999Y-26656000D01*
G75*
G02*
X54748000Y-26406001I0J249999D01*
G01*
X54748000Y-25155999D01*
G75*
G02*
X54997999Y-24906000I249999J0D01*
G01*
X55798001Y-24906000D01*
G75*
G02*
X56048000Y-25155999I0J-249999D01*
G01*
G37*
%TD*%
%TO.C,R31*%
G36*
G01*
X63363001Y-74363500D02*
X62112999Y-74363500D01*
G75*
G02*
X61863000Y-74113501I0J249999D01*
G01*
X61863000Y-73313499D01*
G75*
G02*
X62112999Y-73063500I249999J0D01*
G01*
X63363001Y-73063500D01*
G75*
G02*
X63613000Y-73313499I0J-249999D01*
G01*
X63613000Y-74113501D01*
G75*
G02*
X63363001Y-74363500I-249999J0D01*
G01*
G37*
G36*
G01*
X63363001Y-77463500D02*
X62112999Y-77463500D01*
G75*
G02*
X61863000Y-77213501I0J249999D01*
G01*
X61863000Y-76413499D01*
G75*
G02*
X62112999Y-76163500I249999J0D01*
G01*
X63363001Y-76163500D01*
G75*
G02*
X63613000Y-76413499I0J-249999D01*
G01*
X63613000Y-77213501D01*
G75*
G02*
X63363001Y-77463500I-249999J0D01*
G01*
G37*
%TD*%
%TO.C,R30*%
G36*
G01*
X59439499Y-76163500D02*
X60689501Y-76163500D01*
G75*
G02*
X60939500Y-76413499I0J-249999D01*
G01*
X60939500Y-77213501D01*
G75*
G02*
X60689501Y-77463500I-249999J0D01*
G01*
X59439499Y-77463500D01*
G75*
G02*
X59189500Y-77213501I0J249999D01*
G01*
X59189500Y-76413499D01*
G75*
G02*
X59439499Y-76163500I249999J0D01*
G01*
G37*
G36*
G01*
X59439499Y-73063500D02*
X60689501Y-73063500D01*
G75*
G02*
X60939500Y-73313499I0J-249999D01*
G01*
X60939500Y-74113501D01*
G75*
G02*
X60689501Y-74363500I-249999J0D01*
G01*
X59439499Y-74363500D01*
G75*
G02*
X59189500Y-74113501I0J249999D01*
G01*
X59189500Y-73313499D01*
G75*
G02*
X59439499Y-73063500I249999J0D01*
G01*
G37*
%TD*%
%TO.C,R29*%
G36*
G01*
X51779000Y-84972999D02*
X51779000Y-86223001D01*
G75*
G02*
X51529001Y-86473000I-249999J0D01*
G01*
X50728999Y-86473000D01*
G75*
G02*
X50479000Y-86223001I0J249999D01*
G01*
X50479000Y-84972999D01*
G75*
G02*
X50728999Y-84723000I249999J0D01*
G01*
X51529001Y-84723000D01*
G75*
G02*
X51779000Y-84972999I0J-249999D01*
G01*
G37*
G36*
G01*
X54879000Y-84972999D02*
X54879000Y-86223001D01*
G75*
G02*
X54629001Y-86473000I-249999J0D01*
G01*
X53828999Y-86473000D01*
G75*
G02*
X53579000Y-86223001I0J249999D01*
G01*
X53579000Y-84972999D01*
G75*
G02*
X53828999Y-84723000I249999J0D01*
G01*
X54629001Y-84723000D01*
G75*
G02*
X54879000Y-84972999I0J-249999D01*
G01*
G37*
%TD*%
%TO.C,R28*%
G36*
G01*
X46598000Y-84972999D02*
X46598000Y-86223001D01*
G75*
G02*
X46348001Y-86473000I-249999J0D01*
G01*
X45547999Y-86473000D01*
G75*
G02*
X45298000Y-86223001I0J249999D01*
G01*
X45298000Y-84972999D01*
G75*
G02*
X45547999Y-84723000I249999J0D01*
G01*
X46348001Y-84723000D01*
G75*
G02*
X46598000Y-84972999I0J-249999D01*
G01*
G37*
G36*
G01*
X49698000Y-84972999D02*
X49698000Y-86223001D01*
G75*
G02*
X49448001Y-86473000I-249999J0D01*
G01*
X48647999Y-86473000D01*
G75*
G02*
X48398000Y-86223001I0J249999D01*
G01*
X48398000Y-84972999D01*
G75*
G02*
X48647999Y-84723000I249999J0D01*
G01*
X49448001Y-84723000D01*
G75*
G02*
X49698000Y-84972999I0J-249999D01*
G01*
G37*
%TD*%
%TO.C,R27*%
G36*
G01*
X56778999Y-97420000D02*
X58029001Y-97420000D01*
G75*
G02*
X58279000Y-97669999I0J-249999D01*
G01*
X58279000Y-98470001D01*
G75*
G02*
X58029001Y-98720000I-249999J0D01*
G01*
X56778999Y-98720000D01*
G75*
G02*
X56529000Y-98470001I0J249999D01*
G01*
X56529000Y-97669999D01*
G75*
G02*
X56778999Y-97420000I249999J0D01*
G01*
G37*
G36*
G01*
X56778999Y-94320000D02*
X58029001Y-94320000D01*
G75*
G02*
X58279000Y-94569999I0J-249999D01*
G01*
X58279000Y-95370001D01*
G75*
G02*
X58029001Y-95620000I-249999J0D01*
G01*
X56778999Y-95620000D01*
G75*
G02*
X56529000Y-95370001I0J249999D01*
G01*
X56529000Y-94569999D01*
G75*
G02*
X56778999Y-94320000I249999J0D01*
G01*
G37*
%TD*%
%TO.C,R26*%
G36*
G01*
X51271000Y-103514999D02*
X51271000Y-104765001D01*
G75*
G02*
X51021001Y-105015000I-249999J0D01*
G01*
X50220999Y-105015000D01*
G75*
G02*
X49971000Y-104765001I0J249999D01*
G01*
X49971000Y-103514999D01*
G75*
G02*
X50220999Y-103265000I249999J0D01*
G01*
X51021001Y-103265000D01*
G75*
G02*
X51271000Y-103514999I0J-249999D01*
G01*
G37*
G36*
G01*
X54371000Y-103514999D02*
X54371000Y-104765001D01*
G75*
G02*
X54121001Y-105015000I-249999J0D01*
G01*
X53320999Y-105015000D01*
G75*
G02*
X53071000Y-104765001I0J249999D01*
G01*
X53071000Y-103514999D01*
G75*
G02*
X53320999Y-103265000I249999J0D01*
G01*
X54121001Y-103265000D01*
G75*
G02*
X54371000Y-103514999I0J-249999D01*
G01*
G37*
%TD*%
%TO.C,R25*%
G36*
G01*
X59828000Y-93208001D02*
X59828000Y-91957999D01*
G75*
G02*
X60077999Y-91708000I249999J0D01*
G01*
X60878001Y-91708000D01*
G75*
G02*
X61128000Y-91957999I0J-249999D01*
G01*
X61128000Y-93208001D01*
G75*
G02*
X60878001Y-93458000I-249999J0D01*
G01*
X60077999Y-93458000D01*
G75*
G02*
X59828000Y-93208001I0J249999D01*
G01*
G37*
G36*
G01*
X56728000Y-93208001D02*
X56728000Y-91957999D01*
G75*
G02*
X56977999Y-91708000I249999J0D01*
G01*
X57778001Y-91708000D01*
G75*
G02*
X58028000Y-91957999I0J-249999D01*
G01*
X58028000Y-93208001D01*
G75*
G02*
X57778001Y-93458000I-249999J0D01*
G01*
X56977999Y-93458000D01*
G75*
G02*
X56728000Y-93208001I0J249999D01*
G01*
G37*
%TD*%
%TO.C,R24*%
G36*
G01*
X46116000Y-103514999D02*
X46116000Y-104765001D01*
G75*
G02*
X45866001Y-105015000I-249999J0D01*
G01*
X45065999Y-105015000D01*
G75*
G02*
X44816000Y-104765001I0J249999D01*
G01*
X44816000Y-103514999D01*
G75*
G02*
X45065999Y-103265000I249999J0D01*
G01*
X45866001Y-103265000D01*
G75*
G02*
X46116000Y-103514999I0J-249999D01*
G01*
G37*
G36*
G01*
X49216000Y-103514999D02*
X49216000Y-104765001D01*
G75*
G02*
X48966001Y-105015000I-249999J0D01*
G01*
X48165999Y-105015000D01*
G75*
G02*
X47916000Y-104765001I0J249999D01*
G01*
X47916000Y-103514999D01*
G75*
G02*
X48165999Y-103265000I249999J0D01*
G01*
X48966001Y-103265000D01*
G75*
G02*
X49216000Y-103514999I0J-249999D01*
G01*
G37*
%TD*%
%TO.C,R23*%
G36*
G01*
X119876300Y-138607099D02*
X119876300Y-139507101D01*
G75*
G02*
X119626301Y-139757100I-249999J0D01*
G01*
X118926299Y-139757100D01*
G75*
G02*
X118676300Y-139507101I0J249999D01*
G01*
X118676300Y-138607099D01*
G75*
G02*
X118926299Y-138357100I249999J0D01*
G01*
X119626301Y-138357100D01*
G75*
G02*
X119876300Y-138607099I0J-249999D01*
G01*
G37*
G36*
G01*
X121876300Y-138607099D02*
X121876300Y-139507101D01*
G75*
G02*
X121626301Y-139757100I-249999J0D01*
G01*
X120926299Y-139757100D01*
G75*
G02*
X120676300Y-139507101I0J249999D01*
G01*
X120676300Y-138607099D01*
G75*
G02*
X120926299Y-138357100I249999J0D01*
G01*
X121626301Y-138357100D01*
G75*
G02*
X121876300Y-138607099I0J-249999D01*
G01*
G37*
%TD*%
%TO.C,R22*%
G36*
G01*
X111868000Y-135058999D02*
X111868000Y-135959001D01*
G75*
G02*
X111618001Y-136209000I-249999J0D01*
G01*
X110917999Y-136209000D01*
G75*
G02*
X110668000Y-135959001I0J249999D01*
G01*
X110668000Y-135058999D01*
G75*
G02*
X110917999Y-134809000I249999J0D01*
G01*
X111618001Y-134809000D01*
G75*
G02*
X111868000Y-135058999I0J-249999D01*
G01*
G37*
G36*
G01*
X113868000Y-135058999D02*
X113868000Y-135959001D01*
G75*
G02*
X113618001Y-136209000I-249999J0D01*
G01*
X112917999Y-136209000D01*
G75*
G02*
X112668000Y-135959001I0J249999D01*
G01*
X112668000Y-135058999D01*
G75*
G02*
X112917999Y-134809000I249999J0D01*
G01*
X113618001Y-134809000D01*
G75*
G02*
X113868000Y-135058999I0J-249999D01*
G01*
G37*
%TD*%
%TO.C,R21*%
G36*
G01*
X124974300Y-146131701D02*
X124974300Y-145231699D01*
G75*
G02*
X125224299Y-144981700I249999J0D01*
G01*
X125924301Y-144981700D01*
G75*
G02*
X126174300Y-145231699I0J-249999D01*
G01*
X126174300Y-146131701D01*
G75*
G02*
X125924301Y-146381700I-249999J0D01*
G01*
X125224299Y-146381700D01*
G75*
G02*
X124974300Y-146131701I0J249999D01*
G01*
G37*
G36*
G01*
X122974300Y-146131701D02*
X122974300Y-145231699D01*
G75*
G02*
X123224299Y-144981700I249999J0D01*
G01*
X123924301Y-144981700D01*
G75*
G02*
X124174300Y-145231699I0J-249999D01*
G01*
X124174300Y-146131701D01*
G75*
G02*
X123924301Y-146381700I-249999J0D01*
G01*
X123224299Y-146381700D01*
G75*
G02*
X122974300Y-146131701I0J249999D01*
G01*
G37*
%TD*%
%TO.C,R20*%
G36*
G01*
X119876300Y-133466724D02*
X119876300Y-134366726D01*
G75*
G02*
X119626301Y-134616725I-249999J0D01*
G01*
X118926299Y-134616725D01*
G75*
G02*
X118676300Y-134366726I0J249999D01*
G01*
X118676300Y-133466724D01*
G75*
G02*
X118926299Y-133216725I249999J0D01*
G01*
X119626301Y-133216725D01*
G75*
G02*
X119876300Y-133466724I0J-249999D01*
G01*
G37*
G36*
G01*
X121876300Y-133466724D02*
X121876300Y-134366726D01*
G75*
G02*
X121626301Y-134616725I-249999J0D01*
G01*
X120926299Y-134616725D01*
G75*
G02*
X120676300Y-134366726I0J249999D01*
G01*
X120676300Y-133466724D01*
G75*
G02*
X120926299Y-133216725I249999J0D01*
G01*
X121626301Y-133216725D01*
G75*
G02*
X121876300Y-133466724I0J-249999D01*
G01*
G37*
%TD*%
%TO.C,R19*%
G36*
G01*
X106655181Y-143407960D02*
X104505179Y-143407960D01*
G75*
G02*
X104255180Y-143157961I0J249999D01*
G01*
X104255180Y-142257959D01*
G75*
G02*
X104505179Y-142007960I249999J0D01*
G01*
X106655181Y-142007960D01*
G75*
G02*
X106905180Y-142257959I0J-249999D01*
G01*
X106905180Y-143157961D01*
G75*
G02*
X106655181Y-143407960I-249999J0D01*
G01*
G37*
G36*
G01*
X106655181Y-148207960D02*
X104505179Y-148207960D01*
G75*
G02*
X104255180Y-147957961I0J249999D01*
G01*
X104255180Y-147057959D01*
G75*
G02*
X104505179Y-146807960I249999J0D01*
G01*
X106655181Y-146807960D01*
G75*
G02*
X106905180Y-147057959I0J-249999D01*
G01*
X106905180Y-147957961D01*
G75*
G02*
X106655181Y-148207960I-249999J0D01*
G01*
G37*
%TD*%
%TO.C,R18*%
G36*
G01*
X122974300Y-148328801D02*
X122974300Y-147428799D01*
G75*
G02*
X123224299Y-147178800I249999J0D01*
G01*
X123924301Y-147178800D01*
G75*
G02*
X124174300Y-147428799I0J-249999D01*
G01*
X124174300Y-148328801D01*
G75*
G02*
X123924301Y-148578800I-249999J0D01*
G01*
X123224299Y-148578800D01*
G75*
G02*
X122974300Y-148328801I0J249999D01*
G01*
G37*
G36*
G01*
X120974300Y-148328801D02*
X120974300Y-147428799D01*
G75*
G02*
X121224299Y-147178800I249999J0D01*
G01*
X121924301Y-147178800D01*
G75*
G02*
X122174300Y-147428799I0J-249999D01*
G01*
X122174300Y-148328801D01*
G75*
G02*
X121924301Y-148578800I-249999J0D01*
G01*
X121224299Y-148578800D01*
G75*
G02*
X120974300Y-148328801I0J249999D01*
G01*
G37*
%TD*%
%TO.C,R17*%
G36*
G01*
X110753700Y-128021499D02*
X110753700Y-128921501D01*
G75*
G02*
X110503701Y-129171500I-249999J0D01*
G01*
X109803699Y-129171500D01*
G75*
G02*
X109553700Y-128921501I0J249999D01*
G01*
X109553700Y-128021499D01*
G75*
G02*
X109803699Y-127771500I249999J0D01*
G01*
X110503701Y-127771500D01*
G75*
G02*
X110753700Y-128021499I0J-249999D01*
G01*
G37*
G36*
G01*
X112753700Y-128021499D02*
X112753700Y-128921501D01*
G75*
G02*
X112503701Y-129171500I-249999J0D01*
G01*
X111803699Y-129171500D01*
G75*
G02*
X111553700Y-128921501I0J249999D01*
G01*
X111553700Y-128021499D01*
G75*
G02*
X111803699Y-127771500I249999J0D01*
G01*
X112503701Y-127771500D01*
G75*
G02*
X112753700Y-128021499I0J-249999D01*
G01*
G37*
%TD*%
%TO.C,R16*%
G36*
G01*
X115031099Y-127971500D02*
X115931101Y-127971500D01*
G75*
G02*
X116181100Y-128221499I0J-249999D01*
G01*
X116181100Y-128921501D01*
G75*
G02*
X115931101Y-129171500I-249999J0D01*
G01*
X115031099Y-129171500D01*
G75*
G02*
X114781100Y-128921501I0J249999D01*
G01*
X114781100Y-128221499D01*
G75*
G02*
X115031099Y-127971500I249999J0D01*
G01*
G37*
G36*
G01*
X115031099Y-125971500D02*
X115931101Y-125971500D01*
G75*
G02*
X116181100Y-126221499I0J-249999D01*
G01*
X116181100Y-126921501D01*
G75*
G02*
X115931101Y-127171500I-249999J0D01*
G01*
X115031099Y-127171500D01*
G75*
G02*
X114781100Y-126921501I0J249999D01*
G01*
X114781100Y-126221499D01*
G75*
G02*
X115031099Y-125971500I249999J0D01*
G01*
G37*
%TD*%
%TO.C,R15*%
G36*
G01*
X119749300Y-95409599D02*
X119749300Y-96309601D01*
G75*
G02*
X119499301Y-96559600I-249999J0D01*
G01*
X118799299Y-96559600D01*
G75*
G02*
X118549300Y-96309601I0J249999D01*
G01*
X118549300Y-95409599D01*
G75*
G02*
X118799299Y-95159600I249999J0D01*
G01*
X119499301Y-95159600D01*
G75*
G02*
X119749300Y-95409599I0J-249999D01*
G01*
G37*
G36*
G01*
X121749300Y-95409599D02*
X121749300Y-96309601D01*
G75*
G02*
X121499301Y-96559600I-249999J0D01*
G01*
X120799299Y-96559600D01*
G75*
G02*
X120549300Y-96309601I0J249999D01*
G01*
X120549300Y-95409599D01*
G75*
G02*
X120799299Y-95159600I249999J0D01*
G01*
X121499301Y-95159600D01*
G75*
G02*
X121749300Y-95409599I0J-249999D01*
G01*
G37*
%TD*%
%TO.C,R14*%
G36*
G01*
X84220580Y-112335999D02*
X84220580Y-114486001D01*
G75*
G02*
X83970581Y-114736000I-249999J0D01*
G01*
X83070579Y-114736000D01*
G75*
G02*
X82820580Y-114486001I0J249999D01*
G01*
X82820580Y-112335999D01*
G75*
G02*
X83070579Y-112086000I249999J0D01*
G01*
X83970581Y-112086000D01*
G75*
G02*
X84220580Y-112335999I0J-249999D01*
G01*
G37*
G36*
G01*
X89020580Y-112335999D02*
X89020580Y-114486001D01*
G75*
G02*
X88770581Y-114736000I-249999J0D01*
G01*
X87870579Y-114736000D01*
G75*
G02*
X87620580Y-114486001I0J249999D01*
G01*
X87620580Y-112335999D01*
G75*
G02*
X87870579Y-112086000I249999J0D01*
G01*
X88770581Y-112086000D01*
G75*
G02*
X89020580Y-112335999I0J-249999D01*
G01*
G37*
%TD*%
%TO.C,R13*%
G36*
G01*
X84220580Y-106333979D02*
X84220580Y-108483981D01*
G75*
G02*
X83970581Y-108733980I-249999J0D01*
G01*
X83070579Y-108733980D01*
G75*
G02*
X82820580Y-108483981I0J249999D01*
G01*
X82820580Y-106333979D01*
G75*
G02*
X83070579Y-106083980I249999J0D01*
G01*
X83970581Y-106083980D01*
G75*
G02*
X84220580Y-106333979I0J-249999D01*
G01*
G37*
G36*
G01*
X89020580Y-106333979D02*
X89020580Y-108483981D01*
G75*
G02*
X88770581Y-108733980I-249999J0D01*
G01*
X87870579Y-108733980D01*
G75*
G02*
X87620580Y-108483981I0J249999D01*
G01*
X87620580Y-106333979D01*
G75*
G02*
X87870579Y-106083980I249999J0D01*
G01*
X88770581Y-106083980D01*
G75*
G02*
X89020580Y-106333979I0J-249999D01*
G01*
G37*
%TD*%
%TO.C,R12*%
G36*
G01*
X84220580Y-100331959D02*
X84220580Y-102481961D01*
G75*
G02*
X83970581Y-102731960I-249999J0D01*
G01*
X83070579Y-102731960D01*
G75*
G02*
X82820580Y-102481961I0J249999D01*
G01*
X82820580Y-100331959D01*
G75*
G02*
X83070579Y-100081960I249999J0D01*
G01*
X83970581Y-100081960D01*
G75*
G02*
X84220580Y-100331959I0J-249999D01*
G01*
G37*
G36*
G01*
X89020580Y-100331959D02*
X89020580Y-102481961D01*
G75*
G02*
X88770581Y-102731960I-249999J0D01*
G01*
X87870579Y-102731960D01*
G75*
G02*
X87620580Y-102481961I0J249999D01*
G01*
X87620580Y-100331959D01*
G75*
G02*
X87870579Y-100081960I249999J0D01*
G01*
X88770581Y-100081960D01*
G75*
G02*
X89020580Y-100331959I0J-249999D01*
G01*
G37*
%TD*%
%TO.C,R11*%
G36*
G01*
X119749300Y-80238179D02*
X119749300Y-81138181D01*
G75*
G02*
X119499301Y-81388180I-249999J0D01*
G01*
X118799299Y-81388180D01*
G75*
G02*
X118549300Y-81138181I0J249999D01*
G01*
X118549300Y-80238179D01*
G75*
G02*
X118799299Y-79988180I249999J0D01*
G01*
X119499301Y-79988180D01*
G75*
G02*
X119749300Y-80238179I0J-249999D01*
G01*
G37*
G36*
G01*
X121749300Y-80238179D02*
X121749300Y-81138181D01*
G75*
G02*
X121499301Y-81388180I-249999J0D01*
G01*
X120799299Y-81388180D01*
G75*
G02*
X120549300Y-81138181I0J249999D01*
G01*
X120549300Y-80238179D01*
G75*
G02*
X120799299Y-79988180I249999J0D01*
G01*
X121499301Y-79988180D01*
G75*
G02*
X121749300Y-80238179I0J-249999D01*
G01*
G37*
%TD*%
%TO.C,R10*%
G36*
G01*
X84220580Y-94329939D02*
X84220580Y-96479941D01*
G75*
G02*
X83970581Y-96729940I-249999J0D01*
G01*
X83070579Y-96729940D01*
G75*
G02*
X82820580Y-96479941I0J249999D01*
G01*
X82820580Y-94329939D01*
G75*
G02*
X83070579Y-94079940I249999J0D01*
G01*
X83970581Y-94079940D01*
G75*
G02*
X84220580Y-94329939I0J-249999D01*
G01*
G37*
G36*
G01*
X89020580Y-94329939D02*
X89020580Y-96479941D01*
G75*
G02*
X88770581Y-96729940I-249999J0D01*
G01*
X87870579Y-96729940D01*
G75*
G02*
X87620580Y-96479941I0J249999D01*
G01*
X87620580Y-94329939D01*
G75*
G02*
X87870579Y-94079940I249999J0D01*
G01*
X88770581Y-94079940D01*
G75*
G02*
X89020580Y-94329939I0J-249999D01*
G01*
G37*
%TD*%
%TO.C,R9*%
G36*
G01*
X84220580Y-88327919D02*
X84220580Y-90477921D01*
G75*
G02*
X83970581Y-90727920I-249999J0D01*
G01*
X83070579Y-90727920D01*
G75*
G02*
X82820580Y-90477921I0J249999D01*
G01*
X82820580Y-88327919D01*
G75*
G02*
X83070579Y-88077920I249999J0D01*
G01*
X83970581Y-88077920D01*
G75*
G02*
X84220580Y-88327919I0J-249999D01*
G01*
G37*
G36*
G01*
X89020580Y-88327919D02*
X89020580Y-90477921D01*
G75*
G02*
X88770581Y-90727920I-249999J0D01*
G01*
X87870579Y-90727920D01*
G75*
G02*
X87620580Y-90477921I0J249999D01*
G01*
X87620580Y-88327919D01*
G75*
G02*
X87870579Y-88077920I249999J0D01*
G01*
X88770581Y-88077920D01*
G75*
G02*
X89020580Y-88327919I0J-249999D01*
G01*
G37*
%TD*%
%TO.C,R8*%
G36*
G01*
X84220580Y-82325899D02*
X84220580Y-84475901D01*
G75*
G02*
X83970581Y-84725900I-249999J0D01*
G01*
X83070579Y-84725900D01*
G75*
G02*
X82820580Y-84475901I0J249999D01*
G01*
X82820580Y-82325899D01*
G75*
G02*
X83070579Y-82075900I249999J0D01*
G01*
X83970581Y-82075900D01*
G75*
G02*
X84220580Y-82325899I0J-249999D01*
G01*
G37*
G36*
G01*
X89020580Y-82325899D02*
X89020580Y-84475901D01*
G75*
G02*
X88770581Y-84725900I-249999J0D01*
G01*
X87870579Y-84725900D01*
G75*
G02*
X87620580Y-84475901I0J249999D01*
G01*
X87620580Y-82325899D01*
G75*
G02*
X87870579Y-82075900I249999J0D01*
G01*
X88770581Y-82075900D01*
G75*
G02*
X89020580Y-82325899I0J-249999D01*
G01*
G37*
%TD*%
%TO.C,R7*%
G36*
G01*
X119749300Y-64993099D02*
X119749300Y-65893101D01*
G75*
G02*
X119499301Y-66143100I-249999J0D01*
G01*
X118799299Y-66143100D01*
G75*
G02*
X118549300Y-65893101I0J249999D01*
G01*
X118549300Y-64993099D01*
G75*
G02*
X118799299Y-64743100I249999J0D01*
G01*
X119499301Y-64743100D01*
G75*
G02*
X119749300Y-64993099I0J-249999D01*
G01*
G37*
G36*
G01*
X121749300Y-64993099D02*
X121749300Y-65893101D01*
G75*
G02*
X121499301Y-66143100I-249999J0D01*
G01*
X120799299Y-66143100D01*
G75*
G02*
X120549300Y-65893101I0J249999D01*
G01*
X120549300Y-64993099D01*
G75*
G02*
X120799299Y-64743100I249999J0D01*
G01*
X121499301Y-64743100D01*
G75*
G02*
X121749300Y-64993099I0J-249999D01*
G01*
G37*
%TD*%
%TO.C,R6*%
G36*
G01*
X132268800Y-52618801D02*
X132268800Y-51368799D01*
G75*
G02*
X132518799Y-51118800I249999J0D01*
G01*
X133318801Y-51118800D01*
G75*
G02*
X133568800Y-51368799I0J-249999D01*
G01*
X133568800Y-52618801D01*
G75*
G02*
X133318801Y-52868800I-249999J0D01*
G01*
X132518799Y-52868800D01*
G75*
G02*
X132268800Y-52618801I0J249999D01*
G01*
G37*
G36*
G01*
X129168800Y-52618801D02*
X129168800Y-51368799D01*
G75*
G02*
X129418799Y-51118800I249999J0D01*
G01*
X130218801Y-51118800D01*
G75*
G02*
X130468800Y-51368799I0J-249999D01*
G01*
X130468800Y-52618801D01*
G75*
G02*
X130218801Y-52868800I-249999J0D01*
G01*
X129418799Y-52868800D01*
G75*
G02*
X129168800Y-52618801I0J249999D01*
G01*
G37*
%TD*%
%TO.C,R5*%
G36*
G01*
X135422400Y-48727199D02*
X135422400Y-49977201D01*
G75*
G02*
X135172401Y-50227200I-249999J0D01*
G01*
X134372399Y-50227200D01*
G75*
G02*
X134122400Y-49977201I0J249999D01*
G01*
X134122400Y-48727199D01*
G75*
G02*
X134372399Y-48477200I249999J0D01*
G01*
X135172401Y-48477200D01*
G75*
G02*
X135422400Y-48727199I0J-249999D01*
G01*
G37*
G36*
G01*
X138522400Y-48727199D02*
X138522400Y-49977201D01*
G75*
G02*
X138272401Y-50227200I-249999J0D01*
G01*
X137472399Y-50227200D01*
G75*
G02*
X137222400Y-49977201I0J249999D01*
G01*
X137222400Y-48727199D01*
G75*
G02*
X137472399Y-48477200I249999J0D01*
G01*
X138272401Y-48477200D01*
G75*
G02*
X138522400Y-48727199I0J-249999D01*
G01*
G37*
%TD*%
%TO.C,R4*%
G36*
G01*
X125313200Y-51368799D02*
X125313200Y-52618801D01*
G75*
G02*
X125063201Y-52868800I-249999J0D01*
G01*
X124263199Y-52868800D01*
G75*
G02*
X124013200Y-52618801I0J249999D01*
G01*
X124013200Y-51368799D01*
G75*
G02*
X124263199Y-51118800I249999J0D01*
G01*
X125063201Y-51118800D01*
G75*
G02*
X125313200Y-51368799I0J-249999D01*
G01*
G37*
G36*
G01*
X128413200Y-51368799D02*
X128413200Y-52618801D01*
G75*
G02*
X128163201Y-52868800I-249999J0D01*
G01*
X127363199Y-52868800D01*
G75*
G02*
X127113200Y-52618801I0J249999D01*
G01*
X127113200Y-51368799D01*
G75*
G02*
X127363199Y-51118800I249999J0D01*
G01*
X128163201Y-51118800D01*
G75*
G02*
X128413200Y-51368799I0J-249999D01*
G01*
G37*
%TD*%
%TO.C,R3*%
G36*
G01*
X137322800Y-52618801D02*
X137322800Y-51368799D01*
G75*
G02*
X137572799Y-51118800I249999J0D01*
G01*
X138372801Y-51118800D01*
G75*
G02*
X138622800Y-51368799I0J-249999D01*
G01*
X138622800Y-52618801D01*
G75*
G02*
X138372801Y-52868800I-249999J0D01*
G01*
X137572799Y-52868800D01*
G75*
G02*
X137322800Y-52618801I0J249999D01*
G01*
G37*
G36*
G01*
X134222800Y-52618801D02*
X134222800Y-51368799D01*
G75*
G02*
X134472799Y-51118800I249999J0D01*
G01*
X135272801Y-51118800D01*
G75*
G02*
X135522800Y-51368799I0J-249999D01*
G01*
X135522800Y-52618801D01*
G75*
G02*
X135272801Y-52868800I-249999J0D01*
G01*
X134472799Y-52868800D01*
G75*
G02*
X134222800Y-52618801I0J249999D01*
G01*
G37*
%TD*%
%TO.C,R2*%
G36*
G01*
X120692599Y-54036200D02*
X122842601Y-54036200D01*
G75*
G02*
X123092600Y-54286199I0J-249999D01*
G01*
X123092600Y-55086201D01*
G75*
G02*
X122842601Y-55336200I-249999J0D01*
G01*
X120692599Y-55336200D01*
G75*
G02*
X120442600Y-55086201I0J249999D01*
G01*
X120442600Y-54286199D01*
G75*
G02*
X120692599Y-54036200I249999J0D01*
G01*
G37*
G36*
G01*
X120692599Y-50936200D02*
X122842601Y-50936200D01*
G75*
G02*
X123092600Y-51186199I0J-249999D01*
G01*
X123092600Y-51986201D01*
G75*
G02*
X122842601Y-52236200I-249999J0D01*
G01*
X120692599Y-52236200D01*
G75*
G02*
X120442600Y-51986201I0J249999D01*
G01*
X120442600Y-51186199D01*
G75*
G02*
X120692599Y-50936200I249999J0D01*
G01*
G37*
%TD*%
%TO.C,R1*%
G36*
G01*
X122849801Y-47003800D02*
X121599799Y-47003800D01*
G75*
G02*
X121349800Y-46753801I0J249999D01*
G01*
X121349800Y-45953799D01*
G75*
G02*
X121599799Y-45703800I249999J0D01*
G01*
X122849801Y-45703800D01*
G75*
G02*
X123099800Y-45953799I0J-249999D01*
G01*
X123099800Y-46753801D01*
G75*
G02*
X122849801Y-47003800I-249999J0D01*
G01*
G37*
G36*
G01*
X122849801Y-50103800D02*
X121599799Y-50103800D01*
G75*
G02*
X121349800Y-49853801I0J249999D01*
G01*
X121349800Y-49053799D01*
G75*
G02*
X121599799Y-48803800I249999J0D01*
G01*
X122849801Y-48803800D01*
G75*
G02*
X123099800Y-49053799I0J-249999D01*
G01*
X123099800Y-49853801D01*
G75*
G02*
X122849801Y-50103800I-249999J0D01*
G01*
G37*
%TD*%
D28*
%TO.C,L3*%
X116310000Y-35941000D03*
X119910000Y-35941000D03*
%TD*%
D29*
%TO.C,L2*%
X141732000Y-26294500D03*
X141732000Y-42539500D03*
%TD*%
D28*
%TO.C,L1*%
X69866100Y-29921200D03*
X73466100Y-29921200D03*
%TD*%
D30*
%TO.C,K1*%
X161841300Y-54969100D03*
X155091300Y-47469100D03*
D31*
X189341300Y-56219100D03*
D32*
X189341300Y-46219100D03*
%TD*%
D33*
%TO.C,J13*%
X18288000Y-44425000D03*
X15748000Y-44425000D03*
X18288000Y-41885000D03*
X15748000Y-41885000D03*
X18288000Y-39345000D03*
X15748000Y-39345000D03*
X18288000Y-36805000D03*
X15748000Y-36805000D03*
X18288000Y-34265000D03*
D34*
X15748000Y-34265000D03*
%TD*%
D33*
%TO.C,J12*%
X39751000Y-21590000D03*
D34*
X37211000Y-21590000D03*
%TD*%
D33*
%TO.C,J11*%
X28067000Y-21530000D03*
X25527000Y-21530000D03*
X28067000Y-24070000D03*
X25527000Y-24070000D03*
X28067000Y-26610000D03*
X25527000Y-26610000D03*
X28067000Y-29150000D03*
X25527000Y-29150000D03*
X28067000Y-31690000D03*
X25527000Y-31690000D03*
X28067000Y-34230000D03*
X25527000Y-34230000D03*
X28067000Y-36770000D03*
X25527000Y-36770000D03*
X28067000Y-39310000D03*
X25527000Y-39310000D03*
X28067000Y-41850000D03*
X25527000Y-41850000D03*
X28067000Y-44390000D03*
X25527000Y-44390000D03*
X28067000Y-46930000D03*
X25527000Y-46930000D03*
X28067000Y-49470000D03*
X25527000Y-49470000D03*
X28067000Y-52010000D03*
X25527000Y-52010000D03*
X28067000Y-54550000D03*
X25527000Y-54550000D03*
X28067000Y-57090000D03*
D34*
X25527000Y-57090000D03*
%TD*%
D35*
%TO.C,J10*%
X18415000Y-81755000D03*
X18415000Y-79255000D03*
X18415000Y-76755000D03*
X18415000Y-74255000D03*
G36*
G01*
X17740000Y-70905000D02*
X19090000Y-70905000D01*
G75*
G02*
X19340000Y-71155000I0J-250000D01*
G01*
X19340000Y-72355000D01*
G75*
G02*
X19090000Y-72605000I-250000J0D01*
G01*
X17740000Y-72605000D01*
G75*
G02*
X17490000Y-72355000I0J250000D01*
G01*
X17490000Y-71155000D01*
G75*
G02*
X17740000Y-70905000I250000J0D01*
G01*
G37*
%TD*%
D19*
%TO.C,J9*%
X29464000Y-110617000D03*
X32004000Y-108077000D03*
X26924000Y-108077000D03*
X26924000Y-113157000D03*
X32004000Y-113157000D03*
%TD*%
%TO.C,J8*%
X29464000Y-100584000D03*
X32004000Y-98044000D03*
X26924000Y-98044000D03*
X26924000Y-103124000D03*
X32004000Y-103124000D03*
%TD*%
D36*
%TO.C,J7*%
X67530000Y-19685000D03*
X71490000Y-19685000D03*
X75450000Y-19685000D03*
X79410000Y-19685000D03*
X83370000Y-19685000D03*
X87330000Y-19685000D03*
X91290000Y-19685000D03*
G36*
G01*
X96600000Y-18585001D02*
X96600000Y-20784999D01*
G75*
G02*
X96349999Y-21035000I-250001J0D01*
G01*
X94150001Y-21035000D01*
G75*
G02*
X93900000Y-20784999I0J250001D01*
G01*
X93900000Y-18585001D01*
G75*
G02*
X94150001Y-18335000I250001J0D01*
G01*
X96349999Y-18335000D01*
G75*
G02*
X96600000Y-18585001I0J-250001D01*
G01*
G37*
%TD*%
D19*
%TO.C,J6*%
X29464000Y-90170000D03*
X32004000Y-87630000D03*
X26924000Y-87630000D03*
X26924000Y-92710000D03*
X32004000Y-92710000D03*
%TD*%
D35*
%TO.C,J5*%
X29972000Y-79215000D03*
X29972000Y-76715000D03*
X29972000Y-74215000D03*
X29972000Y-71715000D03*
G36*
G01*
X29297000Y-68365000D02*
X30647000Y-68365000D01*
G75*
G02*
X30897000Y-68615000I0J-250000D01*
G01*
X30897000Y-69815000D01*
G75*
G02*
X30647000Y-70065000I-250000J0D01*
G01*
X29297000Y-70065000D01*
G75*
G02*
X29047000Y-69815000I0J250000D01*
G01*
X29047000Y-68615000D01*
G75*
G02*
X29297000Y-68365000I250000J0D01*
G01*
G37*
%TD*%
%TO.C,J4*%
X23876000Y-126158000D03*
X23876000Y-123658000D03*
G36*
G01*
X23201000Y-120308000D02*
X24551000Y-120308000D01*
G75*
G02*
X24801000Y-120558000I0J-250000D01*
G01*
X24801000Y-121758000D01*
G75*
G02*
X24551000Y-122008000I-250000J0D01*
G01*
X23201000Y-122008000D01*
G75*
G02*
X22951000Y-121758000I0J250000D01*
G01*
X22951000Y-120558000D01*
G75*
G02*
X23201000Y-120308000I250000J0D01*
G01*
G37*
%TD*%
D37*
%TO.C,J3*%
X181961300Y-73324100D03*
X181961300Y-86324100D03*
X181961300Y-99324100D03*
X181961300Y-112324100D03*
X181961300Y-125324100D03*
X181961300Y-138324100D03*
%TD*%
%TO.C,J2*%
X224506300Y-33329100D03*
X211506300Y-33329100D03*
X198506300Y-33329100D03*
X185506300Y-33329100D03*
X172506300Y-33329100D03*
X159506300Y-33329100D03*
%TD*%
D33*
%TO.C,J1*%
X32258000Y-123698000D03*
X32258000Y-121158000D03*
D34*
X32258000Y-118618000D03*
%TD*%
D38*
%TO.C,D5*%
X118328440Y-120365460D03*
X118328440Y-115365460D03*
%TD*%
%TO.C,D4*%
X113271300Y-107489800D03*
X113271300Y-102489800D03*
%TD*%
%TO.C,D3*%
X113271300Y-89710200D03*
X113271300Y-84710200D03*
%TD*%
%TO.C,D2*%
X113271300Y-74520600D03*
X113271300Y-69520600D03*
%TD*%
%TO.C,C64*%
G36*
G01*
X214536000Y-112774100D02*
X215486000Y-112774100D01*
G75*
G02*
X215736000Y-113024100I0J-250000D01*
G01*
X215736000Y-113699100D01*
G75*
G02*
X215486000Y-113949100I-250000J0D01*
G01*
X214536000Y-113949100D01*
G75*
G02*
X214286000Y-113699100I0J250000D01*
G01*
X214286000Y-113024100D01*
G75*
G02*
X214536000Y-112774100I250000J0D01*
G01*
G37*
G36*
G01*
X214536000Y-110699100D02*
X215486000Y-110699100D01*
G75*
G02*
X215736000Y-110949100I0J-250000D01*
G01*
X215736000Y-111624100D01*
G75*
G02*
X215486000Y-111874100I-250000J0D01*
G01*
X214536000Y-111874100D01*
G75*
G02*
X214286000Y-111624100I0J250000D01*
G01*
X214286000Y-110949100D01*
G75*
G02*
X214536000Y-110699100I250000J0D01*
G01*
G37*
%TD*%
%TO.C,C63*%
G36*
G01*
X218074002Y-111424100D02*
X216773998Y-111424100D01*
G75*
G02*
X216524000Y-111174102I0J249998D01*
G01*
X216524000Y-110349098D01*
G75*
G02*
X216773998Y-110099100I249998J0D01*
G01*
X218074002Y-110099100D01*
G75*
G02*
X218324000Y-110349098I0J-249998D01*
G01*
X218324000Y-111174102D01*
G75*
G02*
X218074002Y-111424100I-249998J0D01*
G01*
G37*
G36*
G01*
X218074002Y-114549100D02*
X216773998Y-114549100D01*
G75*
G02*
X216524000Y-114299102I0J249998D01*
G01*
X216524000Y-113474098D01*
G75*
G02*
X216773998Y-113224100I249998J0D01*
G01*
X218074002Y-113224100D01*
G75*
G02*
X218324000Y-113474098I0J-249998D01*
G01*
X218324000Y-114299102D01*
G75*
G02*
X218074002Y-114549100I-249998J0D01*
G01*
G37*
%TD*%
%TO.C,C62*%
G36*
G01*
X214536000Y-86774100D02*
X215486000Y-86774100D01*
G75*
G02*
X215736000Y-87024100I0J-250000D01*
G01*
X215736000Y-87699100D01*
G75*
G02*
X215486000Y-87949100I-250000J0D01*
G01*
X214536000Y-87949100D01*
G75*
G02*
X214286000Y-87699100I0J250000D01*
G01*
X214286000Y-87024100D01*
G75*
G02*
X214536000Y-86774100I250000J0D01*
G01*
G37*
G36*
G01*
X214536000Y-84699100D02*
X215486000Y-84699100D01*
G75*
G02*
X215736000Y-84949100I0J-250000D01*
G01*
X215736000Y-85624100D01*
G75*
G02*
X215486000Y-85874100I-250000J0D01*
G01*
X214536000Y-85874100D01*
G75*
G02*
X214286000Y-85624100I0J250000D01*
G01*
X214286000Y-84949100D01*
G75*
G02*
X214536000Y-84699100I250000J0D01*
G01*
G37*
%TD*%
%TO.C,C61*%
G36*
G01*
X96166500Y-38338998D02*
X96166500Y-39639002D01*
G75*
G02*
X95916502Y-39889000I-249998J0D01*
G01*
X95091498Y-39889000D01*
G75*
G02*
X94841500Y-39639002I0J249998D01*
G01*
X94841500Y-38338998D01*
G75*
G02*
X95091498Y-38089000I249998J0D01*
G01*
X95916502Y-38089000D01*
G75*
G02*
X96166500Y-38338998I0J-249998D01*
G01*
G37*
G36*
G01*
X99291500Y-38338998D02*
X99291500Y-39639002D01*
G75*
G02*
X99041502Y-39889000I-249998J0D01*
G01*
X98216498Y-39889000D01*
G75*
G02*
X97966500Y-39639002I0J249998D01*
G01*
X97966500Y-38338998D01*
G75*
G02*
X98216498Y-38089000I249998J0D01*
G01*
X99041502Y-38089000D01*
G75*
G02*
X99291500Y-38338998I0J-249998D01*
G01*
G37*
%TD*%
%TO.C,C60*%
G36*
G01*
X91355998Y-38326500D02*
X93556002Y-38326500D01*
G75*
G02*
X93806000Y-38576498I0J-249998D01*
G01*
X93806000Y-39401502D01*
G75*
G02*
X93556002Y-39651500I-249998J0D01*
G01*
X91355998Y-39651500D01*
G75*
G02*
X91106000Y-39401502I0J249998D01*
G01*
X91106000Y-38576498D01*
G75*
G02*
X91355998Y-38326500I249998J0D01*
G01*
G37*
G36*
G01*
X91355998Y-35201500D02*
X93556002Y-35201500D01*
G75*
G02*
X93806000Y-35451498I0J-249998D01*
G01*
X93806000Y-36276502D01*
G75*
G02*
X93556002Y-36526500I-249998J0D01*
G01*
X91355998Y-36526500D01*
G75*
G02*
X91106000Y-36276502I0J249998D01*
G01*
X91106000Y-35451498D01*
G75*
G02*
X91355998Y-35201500I249998J0D01*
G01*
G37*
%TD*%
%TO.C,C59*%
G36*
G01*
X117463600Y-30630098D02*
X117463600Y-31930102D01*
G75*
G02*
X117213602Y-32180100I-249998J0D01*
G01*
X116388598Y-32180100D01*
G75*
G02*
X116138600Y-31930102I0J249998D01*
G01*
X116138600Y-30630098D01*
G75*
G02*
X116388598Y-30380100I249998J0D01*
G01*
X117213602Y-30380100D01*
G75*
G02*
X117463600Y-30630098I0J-249998D01*
G01*
G37*
G36*
G01*
X120588600Y-30630098D02*
X120588600Y-31930102D01*
G75*
G02*
X120338602Y-32180100I-249998J0D01*
G01*
X119513598Y-32180100D01*
G75*
G02*
X119263600Y-31930102I0J249998D01*
G01*
X119263600Y-30630098D01*
G75*
G02*
X119513598Y-30380100I249998J0D01*
G01*
X120338602Y-30380100D01*
G75*
G02*
X120588600Y-30630098I0J-249998D01*
G01*
G37*
%TD*%
D39*
%TO.C,C58*%
X120243600Y-19685000D03*
D40*
X120243600Y-24685000D03*
%TD*%
%TO.C,C57*%
G36*
G01*
X91355998Y-48486500D02*
X93556002Y-48486500D01*
G75*
G02*
X93806000Y-48736498I0J-249998D01*
G01*
X93806000Y-49561502D01*
G75*
G02*
X93556002Y-49811500I-249998J0D01*
G01*
X91355998Y-49811500D01*
G75*
G02*
X91106000Y-49561502I0J249998D01*
G01*
X91106000Y-48736498D01*
G75*
G02*
X91355998Y-48486500I249998J0D01*
G01*
G37*
G36*
G01*
X91355998Y-45361500D02*
X93556002Y-45361500D01*
G75*
G02*
X93806000Y-45611498I0J-249998D01*
G01*
X93806000Y-46436502D01*
G75*
G02*
X93556002Y-46686500I-249998J0D01*
G01*
X91355998Y-46686500D01*
G75*
G02*
X91106000Y-46436502I0J249998D01*
G01*
X91106000Y-45611498D01*
G75*
G02*
X91355998Y-45361500I249998J0D01*
G01*
G37*
%TD*%
%TO.C,C56*%
G36*
G01*
X96166500Y-52054998D02*
X96166500Y-53355002D01*
G75*
G02*
X95916502Y-53605000I-249998J0D01*
G01*
X95091498Y-53605000D01*
G75*
G02*
X94841500Y-53355002I0J249998D01*
G01*
X94841500Y-52054998D01*
G75*
G02*
X95091498Y-51805000I249998J0D01*
G01*
X95916502Y-51805000D01*
G75*
G02*
X96166500Y-52054998I0J-249998D01*
G01*
G37*
G36*
G01*
X99291500Y-52054998D02*
X99291500Y-53355002D01*
G75*
G02*
X99041502Y-53605000I-249998J0D01*
G01*
X98216498Y-53605000D01*
G75*
G02*
X97966500Y-53355002I0J249998D01*
G01*
X97966500Y-52054998D01*
G75*
G02*
X98216498Y-51805000I249998J0D01*
G01*
X99041502Y-51805000D01*
G75*
G02*
X99291500Y-52054998I0J-249998D01*
G01*
G37*
%TD*%
%TO.C,C55*%
G36*
G01*
X58006000Y-77401000D02*
X57056000Y-77401000D01*
G75*
G02*
X56806000Y-77151000I0J250000D01*
G01*
X56806000Y-76476000D01*
G75*
G02*
X57056000Y-76226000I250000J0D01*
G01*
X58006000Y-76226000D01*
G75*
G02*
X58256000Y-76476000I0J-250000D01*
G01*
X58256000Y-77151000D01*
G75*
G02*
X58006000Y-77401000I-250000J0D01*
G01*
G37*
G36*
G01*
X58006000Y-79476000D02*
X57056000Y-79476000D01*
G75*
G02*
X56806000Y-79226000I0J250000D01*
G01*
X56806000Y-78551000D01*
G75*
G02*
X57056000Y-78301000I250000J0D01*
G01*
X58006000Y-78301000D01*
G75*
G02*
X58256000Y-78551000I0J-250000D01*
G01*
X58256000Y-79226000D01*
G75*
G02*
X58006000Y-79476000I-250000J0D01*
G01*
G37*
%TD*%
%TO.C,C54*%
G36*
G01*
X218074002Y-85424100D02*
X216773998Y-85424100D01*
G75*
G02*
X216524000Y-85174102I0J249998D01*
G01*
X216524000Y-84349098D01*
G75*
G02*
X216773998Y-84099100I249998J0D01*
G01*
X218074002Y-84099100D01*
G75*
G02*
X218324000Y-84349098I0J-249998D01*
G01*
X218324000Y-85174102D01*
G75*
G02*
X218074002Y-85424100I-249998J0D01*
G01*
G37*
G36*
G01*
X218074002Y-88549100D02*
X216773998Y-88549100D01*
G75*
G02*
X216524000Y-88299102I0J249998D01*
G01*
X216524000Y-87474098D01*
G75*
G02*
X216773998Y-87224100I249998J0D01*
G01*
X218074002Y-87224100D01*
G75*
G02*
X218324000Y-87474098I0J-249998D01*
G01*
X218324000Y-88299102D01*
G75*
G02*
X218074002Y-88549100I-249998J0D01*
G01*
G37*
%TD*%
%TO.C,C53*%
G36*
G01*
X53621500Y-71866998D02*
X53621500Y-73167002D01*
G75*
G02*
X53371502Y-73417000I-249998J0D01*
G01*
X52546498Y-73417000D01*
G75*
G02*
X52296500Y-73167002I0J249998D01*
G01*
X52296500Y-71866998D01*
G75*
G02*
X52546498Y-71617000I249998J0D01*
G01*
X53371502Y-71617000D01*
G75*
G02*
X53621500Y-71866998I0J-249998D01*
G01*
G37*
G36*
G01*
X56746500Y-71866998D02*
X56746500Y-73167002D01*
G75*
G02*
X56496502Y-73417000I-249998J0D01*
G01*
X55671498Y-73417000D01*
G75*
G02*
X55421500Y-73167002I0J249998D01*
G01*
X55421500Y-71866998D01*
G75*
G02*
X55671498Y-71617000I249998J0D01*
G01*
X56496502Y-71617000D01*
G75*
G02*
X56746500Y-71866998I0J-249998D01*
G01*
G37*
%TD*%
%TO.C,C52*%
G36*
G01*
X218074002Y-137424100D02*
X216773998Y-137424100D01*
G75*
G02*
X216524000Y-137174102I0J249998D01*
G01*
X216524000Y-136349098D01*
G75*
G02*
X216773998Y-136099100I249998J0D01*
G01*
X218074002Y-136099100D01*
G75*
G02*
X218324000Y-136349098I0J-249998D01*
G01*
X218324000Y-137174102D01*
G75*
G02*
X218074002Y-137424100I-249998J0D01*
G01*
G37*
G36*
G01*
X218074002Y-140549100D02*
X216773998Y-140549100D01*
G75*
G02*
X216524000Y-140299102I0J249998D01*
G01*
X216524000Y-139474098D01*
G75*
G02*
X216773998Y-139224100I249998J0D01*
G01*
X218074002Y-139224100D01*
G75*
G02*
X218324000Y-139474098I0J-249998D01*
G01*
X218324000Y-140299102D01*
G75*
G02*
X218074002Y-140549100I-249998J0D01*
G01*
G37*
%TD*%
%TO.C,C51*%
G36*
G01*
X49710500Y-82280998D02*
X49710500Y-83581002D01*
G75*
G02*
X49460502Y-83831000I-249998J0D01*
G01*
X48635498Y-83831000D01*
G75*
G02*
X48385500Y-83581002I0J249998D01*
G01*
X48385500Y-82280998D01*
G75*
G02*
X48635498Y-82031000I249998J0D01*
G01*
X49460502Y-82031000D01*
G75*
G02*
X49710500Y-82280998I0J-249998D01*
G01*
G37*
G36*
G01*
X52835500Y-82280998D02*
X52835500Y-83581002D01*
G75*
G02*
X52585502Y-83831000I-249998J0D01*
G01*
X51760498Y-83831000D01*
G75*
G02*
X51510500Y-83581002I0J249998D01*
G01*
X51510500Y-82280998D01*
G75*
G02*
X51760498Y-82031000I249998J0D01*
G01*
X52585502Y-82031000D01*
G75*
G02*
X52835500Y-82280998I0J-249998D01*
G01*
G37*
%TD*%
%TO.C,C50*%
G36*
G01*
X55716500Y-83406000D02*
X55716500Y-82456000D01*
G75*
G02*
X55966500Y-82206000I250000J0D01*
G01*
X56641500Y-82206000D01*
G75*
G02*
X56891500Y-82456000I0J-250000D01*
G01*
X56891500Y-83406000D01*
G75*
G02*
X56641500Y-83656000I-250000J0D01*
G01*
X55966500Y-83656000D01*
G75*
G02*
X55716500Y-83406000I0J250000D01*
G01*
G37*
G36*
G01*
X53641500Y-83406000D02*
X53641500Y-82456000D01*
G75*
G02*
X53891500Y-82206000I250000J0D01*
G01*
X54566500Y-82206000D01*
G75*
G02*
X54816500Y-82456000I0J-250000D01*
G01*
X54816500Y-83406000D01*
G75*
G02*
X54566500Y-83656000I-250000J0D01*
G01*
X53891500Y-83656000D01*
G75*
G02*
X53641500Y-83406000I0J250000D01*
G01*
G37*
%TD*%
%TO.C,C49*%
G36*
G01*
X214536000Y-138774100D02*
X215486000Y-138774100D01*
G75*
G02*
X215736000Y-139024100I0J-250000D01*
G01*
X215736000Y-139699100D01*
G75*
G02*
X215486000Y-139949100I-250000J0D01*
G01*
X214536000Y-139949100D01*
G75*
G02*
X214286000Y-139699100I0J250000D01*
G01*
X214286000Y-139024100D01*
G75*
G02*
X214536000Y-138774100I250000J0D01*
G01*
G37*
G36*
G01*
X214536000Y-136699100D02*
X215486000Y-136699100D01*
G75*
G02*
X215736000Y-136949100I0J-250000D01*
G01*
X215736000Y-137624100D01*
G75*
G02*
X215486000Y-137874100I-250000J0D01*
G01*
X214536000Y-137874100D01*
G75*
G02*
X214286000Y-137624100I0J250000D01*
G01*
X214286000Y-136949100D01*
G75*
G02*
X214536000Y-136699100I250000J0D01*
G01*
G37*
%TD*%
%TO.C,C48*%
G36*
G01*
X49226500Y-101076998D02*
X49226500Y-102377002D01*
G75*
G02*
X48976502Y-102627000I-249998J0D01*
G01*
X48151498Y-102627000D01*
G75*
G02*
X47901500Y-102377002I0J249998D01*
G01*
X47901500Y-101076998D01*
G75*
G02*
X48151498Y-100827000I249998J0D01*
G01*
X48976502Y-100827000D01*
G75*
G02*
X49226500Y-101076998I0J-249998D01*
G01*
G37*
G36*
G01*
X52351500Y-101076998D02*
X52351500Y-102377002D01*
G75*
G02*
X52101502Y-102627000I-249998J0D01*
G01*
X51276498Y-102627000D01*
G75*
G02*
X51026500Y-102377002I0J249998D01*
G01*
X51026500Y-101076998D01*
G75*
G02*
X51276498Y-100827000I249998J0D01*
G01*
X52101502Y-100827000D01*
G75*
G02*
X52351500Y-101076998I0J-249998D01*
G01*
G37*
%TD*%
%TO.C,C47*%
G36*
G01*
X120546300Y-142229602D02*
X120546300Y-140929598D01*
G75*
G02*
X120796298Y-140679600I249998J0D01*
G01*
X121621302Y-140679600D01*
G75*
G02*
X121871300Y-140929598I0J-249998D01*
G01*
X121871300Y-142229602D01*
G75*
G02*
X121621302Y-142479600I-249998J0D01*
G01*
X120796298Y-142479600D01*
G75*
G02*
X120546300Y-142229602I0J249998D01*
G01*
G37*
G36*
G01*
X117421300Y-142229602D02*
X117421300Y-140929598D01*
G75*
G02*
X117671298Y-140679600I249998J0D01*
G01*
X118496302Y-140679600D01*
G75*
G02*
X118746300Y-140929598I0J-249998D01*
G01*
X118746300Y-142229602D01*
G75*
G02*
X118496302Y-142479600I-249998J0D01*
G01*
X117671298Y-142479600D01*
G75*
G02*
X117421300Y-142229602I0J249998D01*
G01*
G37*
%TD*%
%TO.C,C46*%
G36*
G01*
X55208500Y-102202000D02*
X55208500Y-101252000D01*
G75*
G02*
X55458500Y-101002000I250000J0D01*
G01*
X56133500Y-101002000D01*
G75*
G02*
X56383500Y-101252000I0J-250000D01*
G01*
X56383500Y-102202000D01*
G75*
G02*
X56133500Y-102452000I-250000J0D01*
G01*
X55458500Y-102452000D01*
G75*
G02*
X55208500Y-102202000I0J250000D01*
G01*
G37*
G36*
G01*
X53133500Y-102202000D02*
X53133500Y-101252000D01*
G75*
G02*
X53383500Y-101002000I250000J0D01*
G01*
X54058500Y-101002000D01*
G75*
G02*
X54308500Y-101252000I0J-250000D01*
G01*
X54308500Y-102202000D01*
G75*
G02*
X54058500Y-102452000I-250000J0D01*
G01*
X53383500Y-102452000D01*
G75*
G02*
X53133500Y-102202000I0J250000D01*
G01*
G37*
%TD*%
%TO.C,C45*%
G36*
G01*
X118596300Y-145206700D02*
X118596300Y-146156700D01*
G75*
G02*
X118346300Y-146406700I-250000J0D01*
G01*
X117671300Y-146406700D01*
G75*
G02*
X117421300Y-146156700I0J250000D01*
G01*
X117421300Y-145206700D01*
G75*
G02*
X117671300Y-144956700I250000J0D01*
G01*
X118346300Y-144956700D01*
G75*
G02*
X118596300Y-145206700I0J-250000D01*
G01*
G37*
G36*
G01*
X120671300Y-145206700D02*
X120671300Y-146156700D01*
G75*
G02*
X120421300Y-146406700I-250000J0D01*
G01*
X119746300Y-146406700D01*
G75*
G02*
X119496300Y-146156700I0J250000D01*
G01*
X119496300Y-145206700D01*
G75*
G02*
X119746300Y-144956700I250000J0D01*
G01*
X120421300Y-144956700D01*
G75*
G02*
X120671300Y-145206700I0J-250000D01*
G01*
G37*
%TD*%
%TO.C,C44*%
G36*
G01*
X115161298Y-134816725D02*
X116461302Y-134816725D01*
G75*
G02*
X116711300Y-135066723I0J-249998D01*
G01*
X116711300Y-135891727D01*
G75*
G02*
X116461302Y-136141725I-249998J0D01*
G01*
X115161298Y-136141725D01*
G75*
G02*
X114911300Y-135891727I0J249998D01*
G01*
X114911300Y-135066723D01*
G75*
G02*
X115161298Y-134816725I249998J0D01*
G01*
G37*
G36*
G01*
X115161298Y-131691725D02*
X116461302Y-131691725D01*
G75*
G02*
X116711300Y-131941723I0J-249998D01*
G01*
X116711300Y-132766727D01*
G75*
G02*
X116461302Y-133016725I-249998J0D01*
G01*
X115161298Y-133016725D01*
G75*
G02*
X114911300Y-132766727I0J249998D01*
G01*
X114911300Y-131941723D01*
G75*
G02*
X115161298Y-131691725I249998J0D01*
G01*
G37*
%TD*%
%TO.C,C43*%
G36*
G01*
X121040038Y-120785460D02*
X122340042Y-120785460D01*
G75*
G02*
X122590040Y-121035458I0J-249998D01*
G01*
X122590040Y-121860462D01*
G75*
G02*
X122340042Y-122110460I-249998J0D01*
G01*
X121040038Y-122110460D01*
G75*
G02*
X120790040Y-121860462I0J249998D01*
G01*
X120790040Y-121035458D01*
G75*
G02*
X121040038Y-120785460I249998J0D01*
G01*
G37*
G36*
G01*
X121040038Y-117660460D02*
X122340042Y-117660460D01*
G75*
G02*
X122590040Y-117910458I0J-249998D01*
G01*
X122590040Y-118735462D01*
G75*
G02*
X122340042Y-118985460I-249998J0D01*
G01*
X121040038Y-118985460D01*
G75*
G02*
X120790040Y-118735462I0J249998D01*
G01*
X120790040Y-117910458D01*
G75*
G02*
X121040038Y-117660460I249998J0D01*
G01*
G37*
%TD*%
D41*
%TO.C,C42*%
X110490000Y-118665000D03*
D42*
X110490000Y-113665000D03*
%TD*%
%TO.C,C41*%
G36*
G01*
X120546300Y-131879102D02*
X120546300Y-130579098D01*
G75*
G02*
X120796298Y-130329100I249998J0D01*
G01*
X121621302Y-130329100D01*
G75*
G02*
X121871300Y-130579098I0J-249998D01*
G01*
X121871300Y-131879102D01*
G75*
G02*
X121621302Y-132129100I-249998J0D01*
G01*
X120796298Y-132129100D01*
G75*
G02*
X120546300Y-131879102I0J249998D01*
G01*
G37*
G36*
G01*
X117421300Y-131879102D02*
X117421300Y-130579098D01*
G75*
G02*
X117671298Y-130329100I249998J0D01*
G01*
X118496302Y-130329100D01*
G75*
G02*
X118746300Y-130579098I0J-249998D01*
G01*
X118746300Y-131879102D01*
G75*
G02*
X118496302Y-132129100I-249998J0D01*
G01*
X117671298Y-132129100D01*
G75*
G02*
X117421300Y-131879102I0J249998D01*
G01*
G37*
%TD*%
%TO.C,C40*%
G36*
G01*
X91467402Y-145315100D02*
X90167398Y-145315100D01*
G75*
G02*
X89917400Y-145065102I0J249998D01*
G01*
X89917400Y-144240098D01*
G75*
G02*
X90167398Y-143990100I249998J0D01*
G01*
X91467402Y-143990100D01*
G75*
G02*
X91717400Y-144240098I0J-249998D01*
G01*
X91717400Y-145065102D01*
G75*
G02*
X91467402Y-145315100I-249998J0D01*
G01*
G37*
G36*
G01*
X91467402Y-148440100D02*
X90167398Y-148440100D01*
G75*
G02*
X89917400Y-148190102I0J249998D01*
G01*
X89917400Y-147365098D01*
G75*
G02*
X90167398Y-147115100I249998J0D01*
G01*
X91467402Y-147115100D01*
G75*
G02*
X91717400Y-147365098I0J-249998D01*
G01*
X91717400Y-148190102D01*
G75*
G02*
X91467402Y-148440100I-249998J0D01*
G01*
G37*
%TD*%
%TO.C,C39*%
G36*
G01*
X120559000Y-126938802D02*
X120559000Y-125638798D01*
G75*
G02*
X120808998Y-125388800I249998J0D01*
G01*
X121634002Y-125388800D01*
G75*
G02*
X121884000Y-125638798I0J-249998D01*
G01*
X121884000Y-126938802D01*
G75*
G02*
X121634002Y-127188800I-249998J0D01*
G01*
X120808998Y-127188800D01*
G75*
G02*
X120559000Y-126938802I0J249998D01*
G01*
G37*
G36*
G01*
X117434000Y-126938802D02*
X117434000Y-125638798D01*
G75*
G02*
X117683998Y-125388800I249998J0D01*
G01*
X118509002Y-125388800D01*
G75*
G02*
X118759000Y-125638798I0J-249998D01*
G01*
X118759000Y-126938802D01*
G75*
G02*
X118509002Y-127188800I-249998J0D01*
G01*
X117683998Y-127188800D01*
G75*
G02*
X117434000Y-126938802I0J249998D01*
G01*
G37*
%TD*%
%TO.C,C38*%
G36*
G01*
X111808498Y-125804100D02*
X113108502Y-125804100D01*
G75*
G02*
X113358500Y-126054098I0J-249998D01*
G01*
X113358500Y-126879102D01*
G75*
G02*
X113108502Y-127129100I-249998J0D01*
G01*
X111808498Y-127129100D01*
G75*
G02*
X111558500Y-126879102I0J249998D01*
G01*
X111558500Y-126054098D01*
G75*
G02*
X111808498Y-125804100I249998J0D01*
G01*
G37*
G36*
G01*
X111808498Y-122679100D02*
X113108502Y-122679100D01*
G75*
G02*
X113358500Y-122929098I0J-249998D01*
G01*
X113358500Y-123754102D01*
G75*
G02*
X113108502Y-124004100I-249998J0D01*
G01*
X111808498Y-124004100D01*
G75*
G02*
X111558500Y-123754102I0J249998D01*
G01*
X111558500Y-122929098D01*
G75*
G02*
X111808498Y-122679100I249998J0D01*
G01*
G37*
%TD*%
%TO.C,C37*%
G36*
G01*
X109116098Y-125804100D02*
X110416102Y-125804100D01*
G75*
G02*
X110666100Y-126054098I0J-249998D01*
G01*
X110666100Y-126879102D01*
G75*
G02*
X110416102Y-127129100I-249998J0D01*
G01*
X109116098Y-127129100D01*
G75*
G02*
X108866100Y-126879102I0J249998D01*
G01*
X108866100Y-126054098D01*
G75*
G02*
X109116098Y-125804100I249998J0D01*
G01*
G37*
G36*
G01*
X109116098Y-122679100D02*
X110416102Y-122679100D01*
G75*
G02*
X110666100Y-122929098I0J-249998D01*
G01*
X110666100Y-123754102D01*
G75*
G02*
X110416102Y-124004100I-249998J0D01*
G01*
X109116098Y-124004100D01*
G75*
G02*
X108866100Y-123754102I0J249998D01*
G01*
X108866100Y-122929098D01*
G75*
G02*
X109116098Y-122679100I249998J0D01*
G01*
G37*
%TD*%
%TO.C,C36*%
G36*
G01*
X120199298Y-107909800D02*
X121499302Y-107909800D01*
G75*
G02*
X121749300Y-108159798I0J-249998D01*
G01*
X121749300Y-108984802D01*
G75*
G02*
X121499302Y-109234800I-249998J0D01*
G01*
X120199298Y-109234800D01*
G75*
G02*
X119949300Y-108984802I0J249998D01*
G01*
X119949300Y-108159798D01*
G75*
G02*
X120199298Y-107909800I249998J0D01*
G01*
G37*
G36*
G01*
X120199298Y-104784800D02*
X121499302Y-104784800D01*
G75*
G02*
X121749300Y-105034798I0J-249998D01*
G01*
X121749300Y-105859802D01*
G75*
G02*
X121499302Y-106109800I-249998J0D01*
G01*
X120199298Y-106109800D01*
G75*
G02*
X119949300Y-105859802I0J249998D01*
G01*
X119949300Y-105034798D01*
G75*
G02*
X120199298Y-104784800I249998J0D01*
G01*
G37*
%TD*%
%TO.C,C35*%
G36*
G01*
X118689302Y-106109800D02*
X116489298Y-106109800D01*
G75*
G02*
X116239300Y-105859802I0J249998D01*
G01*
X116239300Y-105034798D01*
G75*
G02*
X116489298Y-104784800I249998J0D01*
G01*
X118689302Y-104784800D01*
G75*
G02*
X118939300Y-105034798I0J-249998D01*
G01*
X118939300Y-105859802D01*
G75*
G02*
X118689302Y-106109800I-249998J0D01*
G01*
G37*
G36*
G01*
X118689302Y-109234800D02*
X116489298Y-109234800D01*
G75*
G02*
X116239300Y-108984802I0J249998D01*
G01*
X116239300Y-108159798D01*
G75*
G02*
X116489298Y-107909800I249998J0D01*
G01*
X118689302Y-107909800D01*
G75*
G02*
X118939300Y-108159798I0J-249998D01*
G01*
X118939300Y-108984802D01*
G75*
G02*
X118689302Y-109234800I-249998J0D01*
G01*
G37*
%TD*%
%TO.C,C34*%
G36*
G01*
X118619300Y-97787698D02*
X118619300Y-99087702D01*
G75*
G02*
X118369302Y-99337700I-249998J0D01*
G01*
X117544298Y-99337700D01*
G75*
G02*
X117294300Y-99087702I0J249998D01*
G01*
X117294300Y-97787698D01*
G75*
G02*
X117544298Y-97537700I249998J0D01*
G01*
X118369302Y-97537700D01*
G75*
G02*
X118619300Y-97787698I0J-249998D01*
G01*
G37*
G36*
G01*
X121744300Y-97787698D02*
X121744300Y-99087702D01*
G75*
G02*
X121494302Y-99337700I-249998J0D01*
G01*
X120669298Y-99337700D01*
G75*
G02*
X120419300Y-99087702I0J249998D01*
G01*
X120419300Y-97787698D01*
G75*
G02*
X120669298Y-97537700I249998J0D01*
G01*
X121494302Y-97537700D01*
G75*
G02*
X121744300Y-97787698I0J-249998D01*
G01*
G37*
%TD*%
%TO.C,C33*%
G36*
G01*
X120419300Y-94033102D02*
X120419300Y-92733098D01*
G75*
G02*
X120669298Y-92483100I249998J0D01*
G01*
X121494302Y-92483100D01*
G75*
G02*
X121744300Y-92733098I0J-249998D01*
G01*
X121744300Y-94033102D01*
G75*
G02*
X121494302Y-94283100I-249998J0D01*
G01*
X120669298Y-94283100D01*
G75*
G02*
X120419300Y-94033102I0J249998D01*
G01*
G37*
G36*
G01*
X117294300Y-94033102D02*
X117294300Y-92733098D01*
G75*
G02*
X117544298Y-92483100I249998J0D01*
G01*
X118369302Y-92483100D01*
G75*
G02*
X118619300Y-92733098I0J-249998D01*
G01*
X118619300Y-94033102D01*
G75*
G02*
X118369302Y-94283100I-249998J0D01*
G01*
X117544298Y-94283100D01*
G75*
G02*
X117294300Y-94033102I0J249998D01*
G01*
G37*
%TD*%
%TO.C,C32*%
G36*
G01*
X120199298Y-90130200D02*
X121499302Y-90130200D01*
G75*
G02*
X121749300Y-90380198I0J-249998D01*
G01*
X121749300Y-91205202D01*
G75*
G02*
X121499302Y-91455200I-249998J0D01*
G01*
X120199298Y-91455200D01*
G75*
G02*
X119949300Y-91205202I0J249998D01*
G01*
X119949300Y-90380198D01*
G75*
G02*
X120199298Y-90130200I249998J0D01*
G01*
G37*
G36*
G01*
X120199298Y-87005200D02*
X121499302Y-87005200D01*
G75*
G02*
X121749300Y-87255198I0J-249998D01*
G01*
X121749300Y-88080202D01*
G75*
G02*
X121499302Y-88330200I-249998J0D01*
G01*
X120199298Y-88330200D01*
G75*
G02*
X119949300Y-88080202I0J249998D01*
G01*
X119949300Y-87255198D01*
G75*
G02*
X120199298Y-87005200I249998J0D01*
G01*
G37*
%TD*%
%TO.C,C31*%
G36*
G01*
X118689302Y-88330200D02*
X116489298Y-88330200D01*
G75*
G02*
X116239300Y-88080202I0J249998D01*
G01*
X116239300Y-87255198D01*
G75*
G02*
X116489298Y-87005200I249998J0D01*
G01*
X118689302Y-87005200D01*
G75*
G02*
X118939300Y-87255198I0J-249998D01*
G01*
X118939300Y-88080202D01*
G75*
G02*
X118689302Y-88330200I-249998J0D01*
G01*
G37*
G36*
G01*
X118689302Y-91455200D02*
X116489298Y-91455200D01*
G75*
G02*
X116239300Y-91205202I0J249998D01*
G01*
X116239300Y-90380198D01*
G75*
G02*
X116489298Y-90130200I249998J0D01*
G01*
X118689302Y-90130200D01*
G75*
G02*
X118939300Y-90380198I0J-249998D01*
G01*
X118939300Y-91205202D01*
G75*
G02*
X118689302Y-91455200I-249998J0D01*
G01*
G37*
%TD*%
%TO.C,C30*%
G36*
G01*
X103083598Y-115581000D02*
X104383602Y-115581000D01*
G75*
G02*
X104633600Y-115830998I0J-249998D01*
G01*
X104633600Y-116656002D01*
G75*
G02*
X104383602Y-116906000I-249998J0D01*
G01*
X103083598Y-116906000D01*
G75*
G02*
X102833600Y-116656002I0J249998D01*
G01*
X102833600Y-115830998D01*
G75*
G02*
X103083598Y-115581000I249998J0D01*
G01*
G37*
G36*
G01*
X103083598Y-112456000D02*
X104383602Y-112456000D01*
G75*
G02*
X104633600Y-112705998I0J-249998D01*
G01*
X104633600Y-113531002D01*
G75*
G02*
X104383602Y-113781000I-249998J0D01*
G01*
X103083598Y-113781000D01*
G75*
G02*
X102833600Y-113531002I0J249998D01*
G01*
X102833600Y-112705998D01*
G75*
G02*
X103083598Y-112456000I249998J0D01*
G01*
G37*
%TD*%
%TO.C,C29*%
G36*
G01*
X103083598Y-109578980D02*
X104383602Y-109578980D01*
G75*
G02*
X104633600Y-109828978I0J-249998D01*
G01*
X104633600Y-110653982D01*
G75*
G02*
X104383602Y-110903980I-249998J0D01*
G01*
X103083598Y-110903980D01*
G75*
G02*
X102833600Y-110653982I0J249998D01*
G01*
X102833600Y-109828978D01*
G75*
G02*
X103083598Y-109578980I249998J0D01*
G01*
G37*
G36*
G01*
X103083598Y-106453980D02*
X104383602Y-106453980D01*
G75*
G02*
X104633600Y-106703978I0J-249998D01*
G01*
X104633600Y-107528982D01*
G75*
G02*
X104383602Y-107778980I-249998J0D01*
G01*
X103083598Y-107778980D01*
G75*
G02*
X102833600Y-107528982I0J249998D01*
G01*
X102833600Y-106703978D01*
G75*
G02*
X103083598Y-106453980I249998J0D01*
G01*
G37*
%TD*%
%TO.C,C28*%
G36*
G01*
X103083598Y-103576960D02*
X104383602Y-103576960D01*
G75*
G02*
X104633600Y-103826958I0J-249998D01*
G01*
X104633600Y-104651962D01*
G75*
G02*
X104383602Y-104901960I-249998J0D01*
G01*
X103083598Y-104901960D01*
G75*
G02*
X102833600Y-104651962I0J249998D01*
G01*
X102833600Y-103826958D01*
G75*
G02*
X103083598Y-103576960I249998J0D01*
G01*
G37*
G36*
G01*
X103083598Y-100451960D02*
X104383602Y-100451960D01*
G75*
G02*
X104633600Y-100701958I0J-249998D01*
G01*
X104633600Y-101526962D01*
G75*
G02*
X104383602Y-101776960I-249998J0D01*
G01*
X103083598Y-101776960D01*
G75*
G02*
X102833600Y-101526962I0J249998D01*
G01*
X102833600Y-100701958D01*
G75*
G02*
X103083598Y-100451960I249998J0D01*
G01*
G37*
%TD*%
%TO.C,C27*%
G36*
G01*
X118619300Y-82560398D02*
X118619300Y-83860402D01*
G75*
G02*
X118369302Y-84110400I-249998J0D01*
G01*
X117544298Y-84110400D01*
G75*
G02*
X117294300Y-83860402I0J249998D01*
G01*
X117294300Y-82560398D01*
G75*
G02*
X117544298Y-82310400I249998J0D01*
G01*
X118369302Y-82310400D01*
G75*
G02*
X118619300Y-82560398I0J-249998D01*
G01*
G37*
G36*
G01*
X121744300Y-82560398D02*
X121744300Y-83860402D01*
G75*
G02*
X121494302Y-84110400I-249998J0D01*
G01*
X120669298Y-84110400D01*
G75*
G02*
X120419300Y-83860402I0J249998D01*
G01*
X120419300Y-82560398D01*
G75*
G02*
X120669298Y-82310400I249998J0D01*
G01*
X121494302Y-82310400D01*
G75*
G02*
X121744300Y-82560398I0J-249998D01*
G01*
G37*
%TD*%
D41*
%TO.C,C26*%
X143831300Y-53759100D03*
D42*
X148831300Y-53759100D03*
%TD*%
%TO.C,C25*%
G36*
G01*
X139283202Y-56084500D02*
X137983198Y-56084500D01*
G75*
G02*
X137733200Y-55834502I0J249998D01*
G01*
X137733200Y-55009498D01*
G75*
G02*
X137983198Y-54759500I249998J0D01*
G01*
X139283202Y-54759500D01*
G75*
G02*
X139533200Y-55009498I0J-249998D01*
G01*
X139533200Y-55834502D01*
G75*
G02*
X139283202Y-56084500I-249998J0D01*
G01*
G37*
G36*
G01*
X139283202Y-59209500D02*
X137983198Y-59209500D01*
G75*
G02*
X137733200Y-58959502I0J249998D01*
G01*
X137733200Y-58134498D01*
G75*
G02*
X137983198Y-57884500I249998J0D01*
G01*
X139283202Y-57884500D01*
G75*
G02*
X139533200Y-58134498I0J-249998D01*
G01*
X139533200Y-58959502D01*
G75*
G02*
X139283202Y-59209500I-249998J0D01*
G01*
G37*
%TD*%
%TO.C,C24*%
G36*
G01*
X120419300Y-78793102D02*
X120419300Y-77493098D01*
G75*
G02*
X120669298Y-77243100I249998J0D01*
G01*
X121494302Y-77243100D01*
G75*
G02*
X121744300Y-77493098I0J-249998D01*
G01*
X121744300Y-78793102D01*
G75*
G02*
X121494302Y-79043100I-249998J0D01*
G01*
X120669298Y-79043100D01*
G75*
G02*
X120419300Y-78793102I0J249998D01*
G01*
G37*
G36*
G01*
X117294300Y-78793102D02*
X117294300Y-77493098D01*
G75*
G02*
X117544298Y-77243100I249998J0D01*
G01*
X118369302Y-77243100D01*
G75*
G02*
X118619300Y-77493098I0J-249998D01*
G01*
X118619300Y-78793102D01*
G75*
G02*
X118369302Y-79043100I-249998J0D01*
G01*
X117544298Y-79043100D01*
G75*
G02*
X117294300Y-78793102I0J249998D01*
G01*
G37*
%TD*%
%TO.C,C23*%
G36*
G01*
X120241298Y-74940600D02*
X121541302Y-74940600D01*
G75*
G02*
X121791300Y-75190598I0J-249998D01*
G01*
X121791300Y-76015602D01*
G75*
G02*
X121541302Y-76265600I-249998J0D01*
G01*
X120241298Y-76265600D01*
G75*
G02*
X119991300Y-76015602I0J249998D01*
G01*
X119991300Y-75190598D01*
G75*
G02*
X120241298Y-74940600I249998J0D01*
G01*
G37*
G36*
G01*
X120241298Y-71815600D02*
X121541302Y-71815600D01*
G75*
G02*
X121791300Y-72065598I0J-249998D01*
G01*
X121791300Y-72890602D01*
G75*
G02*
X121541302Y-73140600I-249998J0D01*
G01*
X120241298Y-73140600D01*
G75*
G02*
X119991300Y-72890602I0J249998D01*
G01*
X119991300Y-72065598D01*
G75*
G02*
X120241298Y-71815600I249998J0D01*
G01*
G37*
%TD*%
%TO.C,C22*%
G36*
G01*
X118689302Y-73140600D02*
X116489298Y-73140600D01*
G75*
G02*
X116239300Y-72890602I0J249998D01*
G01*
X116239300Y-72065598D01*
G75*
G02*
X116489298Y-71815600I249998J0D01*
G01*
X118689302Y-71815600D01*
G75*
G02*
X118939300Y-72065598I0J-249998D01*
G01*
X118939300Y-72890602D01*
G75*
G02*
X118689302Y-73140600I-249998J0D01*
G01*
G37*
G36*
G01*
X118689302Y-76265600D02*
X116489298Y-76265600D01*
G75*
G02*
X116239300Y-76015602I0J249998D01*
G01*
X116239300Y-75190598D01*
G75*
G02*
X116489298Y-74940600I249998J0D01*
G01*
X118689302Y-74940600D01*
G75*
G02*
X118939300Y-75190598I0J-249998D01*
G01*
X118939300Y-76015602D01*
G75*
G02*
X118689302Y-76265600I-249998J0D01*
G01*
G37*
%TD*%
%TO.C,C21*%
G36*
G01*
X103083598Y-97574940D02*
X104383602Y-97574940D01*
G75*
G02*
X104633600Y-97824938I0J-249998D01*
G01*
X104633600Y-98649942D01*
G75*
G02*
X104383602Y-98899940I-249998J0D01*
G01*
X103083598Y-98899940D01*
G75*
G02*
X102833600Y-98649942I0J249998D01*
G01*
X102833600Y-97824938D01*
G75*
G02*
X103083598Y-97574940I249998J0D01*
G01*
G37*
G36*
G01*
X103083598Y-94449940D02*
X104383602Y-94449940D01*
G75*
G02*
X104633600Y-94699938I0J-249998D01*
G01*
X104633600Y-95524942D01*
G75*
G02*
X104383602Y-95774940I-249998J0D01*
G01*
X103083598Y-95774940D01*
G75*
G02*
X102833600Y-95524942I0J249998D01*
G01*
X102833600Y-94699938D01*
G75*
G02*
X103083598Y-94449940I249998J0D01*
G01*
G37*
%TD*%
%TO.C,C20*%
G36*
G01*
X103083598Y-91572920D02*
X104383602Y-91572920D01*
G75*
G02*
X104633600Y-91822918I0J-249998D01*
G01*
X104633600Y-92647922D01*
G75*
G02*
X104383602Y-92897920I-249998J0D01*
G01*
X103083598Y-92897920D01*
G75*
G02*
X102833600Y-92647922I0J249998D01*
G01*
X102833600Y-91822918D01*
G75*
G02*
X103083598Y-91572920I249998J0D01*
G01*
G37*
G36*
G01*
X103083598Y-88447920D02*
X104383602Y-88447920D01*
G75*
G02*
X104633600Y-88697918I0J-249998D01*
G01*
X104633600Y-89522922D01*
G75*
G02*
X104383602Y-89772920I-249998J0D01*
G01*
X103083598Y-89772920D01*
G75*
G02*
X102833600Y-89522922I0J249998D01*
G01*
X102833600Y-88697918D01*
G75*
G02*
X103083598Y-88447920I249998J0D01*
G01*
G37*
%TD*%
%TO.C,C19*%
G36*
G01*
X103083598Y-85570900D02*
X104383602Y-85570900D01*
G75*
G02*
X104633600Y-85820898I0J-249998D01*
G01*
X104633600Y-86645902D01*
G75*
G02*
X104383602Y-86895900I-249998J0D01*
G01*
X103083598Y-86895900D01*
G75*
G02*
X102833600Y-86645902I0J249998D01*
G01*
X102833600Y-85820898D01*
G75*
G02*
X103083598Y-85570900I249998J0D01*
G01*
G37*
G36*
G01*
X103083598Y-82445900D02*
X104383602Y-82445900D01*
G75*
G02*
X104633600Y-82695898I0J-249998D01*
G01*
X104633600Y-83520902D01*
G75*
G02*
X104383602Y-83770900I-249998J0D01*
G01*
X103083598Y-83770900D01*
G75*
G02*
X102833600Y-83520902I0J249998D01*
G01*
X102833600Y-82695898D01*
G75*
G02*
X103083598Y-82445900I249998J0D01*
G01*
G37*
%TD*%
%TO.C,C18*%
G36*
G01*
X118619300Y-67333098D02*
X118619300Y-68633102D01*
G75*
G02*
X118369302Y-68883100I-249998J0D01*
G01*
X117544298Y-68883100D01*
G75*
G02*
X117294300Y-68633102I0J249998D01*
G01*
X117294300Y-67333098D01*
G75*
G02*
X117544298Y-67083100I249998J0D01*
G01*
X118369302Y-67083100D01*
G75*
G02*
X118619300Y-67333098I0J-249998D01*
G01*
G37*
G36*
G01*
X121744300Y-67333098D02*
X121744300Y-68633102D01*
G75*
G02*
X121494302Y-68883100I-249998J0D01*
G01*
X120669298Y-68883100D01*
G75*
G02*
X120419300Y-68633102I0J249998D01*
G01*
X120419300Y-67333098D01*
G75*
G02*
X120669298Y-67083100I249998J0D01*
G01*
X121494302Y-67083100D01*
G75*
G02*
X121744300Y-67333098I0J-249998D01*
G01*
G37*
%TD*%
%TO.C,C17*%
G36*
G01*
X120419300Y-63553102D02*
X120419300Y-62253098D01*
G75*
G02*
X120669298Y-62003100I249998J0D01*
G01*
X121494302Y-62003100D01*
G75*
G02*
X121744300Y-62253098I0J-249998D01*
G01*
X121744300Y-63553102D01*
G75*
G02*
X121494302Y-63803100I-249998J0D01*
G01*
X120669298Y-63803100D01*
G75*
G02*
X120419300Y-63553102I0J249998D01*
G01*
G37*
G36*
G01*
X117294300Y-63553102D02*
X117294300Y-62253098D01*
G75*
G02*
X117544298Y-62003100I249998J0D01*
G01*
X118369302Y-62003100D01*
G75*
G02*
X118619300Y-62253098I0J-249998D01*
G01*
X118619300Y-63553102D01*
G75*
G02*
X118369302Y-63803100I-249998J0D01*
G01*
X117544298Y-63803100D01*
G75*
G02*
X117294300Y-63553102I0J249998D01*
G01*
G37*
%TD*%
%TO.C,C16*%
G36*
G01*
X231011300Y-60759102D02*
X231011300Y-59459098D01*
G75*
G02*
X231261298Y-59209100I249998J0D01*
G01*
X232086302Y-59209100D01*
G75*
G02*
X232336300Y-59459098I0J-249998D01*
G01*
X232336300Y-60759102D01*
G75*
G02*
X232086302Y-61009100I-249998J0D01*
G01*
X231261298Y-61009100D01*
G75*
G02*
X231011300Y-60759102I0J249998D01*
G01*
G37*
G36*
G01*
X227886300Y-60759102D02*
X227886300Y-59459098D01*
G75*
G02*
X228136298Y-59209100I249998J0D01*
G01*
X228961302Y-59209100D01*
G75*
G02*
X229211300Y-59459098I0J-249998D01*
G01*
X229211300Y-60759102D01*
G75*
G02*
X228961302Y-61009100I-249998J0D01*
G01*
X228136298Y-61009100D01*
G75*
G02*
X227886300Y-60759102I0J249998D01*
G01*
G37*
%TD*%
%TO.C,C15*%
G36*
G01*
X135408700Y-46111398D02*
X135408700Y-47411402D01*
G75*
G02*
X135158702Y-47661400I-249998J0D01*
G01*
X134333698Y-47661400D01*
G75*
G02*
X134083700Y-47411402I0J249998D01*
G01*
X134083700Y-46111398D01*
G75*
G02*
X134333698Y-45861400I249998J0D01*
G01*
X135158702Y-45861400D01*
G75*
G02*
X135408700Y-46111398I0J-249998D01*
G01*
G37*
G36*
G01*
X138533700Y-46111398D02*
X138533700Y-47411402D01*
G75*
G02*
X138283702Y-47661400I-249998J0D01*
G01*
X137458698Y-47661400D01*
G75*
G02*
X137208700Y-47411402I0J249998D01*
G01*
X137208700Y-46111398D01*
G75*
G02*
X137458698Y-45861400I249998J0D01*
G01*
X138283702Y-45861400D01*
G75*
G02*
X138533700Y-46111398I0J-249998D01*
G01*
G37*
%TD*%
%TO.C,C14*%
G36*
G01*
X117476300Y-40962398D02*
X117476300Y-43162402D01*
G75*
G02*
X117226302Y-43412400I-249998J0D01*
G01*
X116401298Y-43412400D01*
G75*
G02*
X116151300Y-43162402I0J249998D01*
G01*
X116151300Y-40962398D01*
G75*
G02*
X116401298Y-40712400I249998J0D01*
G01*
X117226302Y-40712400D01*
G75*
G02*
X117476300Y-40962398I0J-249998D01*
G01*
G37*
G36*
G01*
X120601300Y-40962398D02*
X120601300Y-43162402D01*
G75*
G02*
X120351302Y-43412400I-249998J0D01*
G01*
X119526298Y-43412400D01*
G75*
G02*
X119276300Y-43162402I0J249998D01*
G01*
X119276300Y-40962398D01*
G75*
G02*
X119526298Y-40712400I249998J0D01*
G01*
X120351302Y-40712400D01*
G75*
G02*
X120601300Y-40962398I0J-249998D01*
G01*
G37*
%TD*%
%TO.C,C13*%
G36*
G01*
X117527900Y-47667998D02*
X117527900Y-49868002D01*
G75*
G02*
X117277902Y-50118000I-249998J0D01*
G01*
X116452898Y-50118000D01*
G75*
G02*
X116202900Y-49868002I0J249998D01*
G01*
X116202900Y-47667998D01*
G75*
G02*
X116452898Y-47418000I249998J0D01*
G01*
X117277902Y-47418000D01*
G75*
G02*
X117527900Y-47667998I0J-249998D01*
G01*
G37*
G36*
G01*
X120652900Y-47667998D02*
X120652900Y-49868002D01*
G75*
G02*
X120402902Y-50118000I-249998J0D01*
G01*
X119577898Y-50118000D01*
G75*
G02*
X119327900Y-49868002I0J249998D01*
G01*
X119327900Y-47667998D01*
G75*
G02*
X119577898Y-47418000I249998J0D01*
G01*
X120402902Y-47418000D01*
G75*
G02*
X120652900Y-47667998I0J-249998D01*
G01*
G37*
%TD*%
%TO.C,C12*%
G36*
G01*
X117527900Y-44340598D02*
X117527900Y-46540602D01*
G75*
G02*
X117277902Y-46790600I-249998J0D01*
G01*
X116452898Y-46790600D01*
G75*
G02*
X116202900Y-46540602I0J249998D01*
G01*
X116202900Y-44340598D01*
G75*
G02*
X116452898Y-44090600I249998J0D01*
G01*
X117277902Y-44090600D01*
G75*
G02*
X117527900Y-44340598I0J-249998D01*
G01*
G37*
G36*
G01*
X120652900Y-44340598D02*
X120652900Y-46540602D01*
G75*
G02*
X120402902Y-46790600I-249998J0D01*
G01*
X119577898Y-46790600D01*
G75*
G02*
X119327900Y-46540602I0J249998D01*
G01*
X119327900Y-44340598D01*
G75*
G02*
X119577898Y-44090600I249998J0D01*
G01*
X120402902Y-44090600D01*
G75*
G02*
X120652900Y-44340598I0J-249998D01*
G01*
G37*
%TD*%
%TO.C,C11*%
G36*
G01*
X128970002Y-33098000D02*
X127569998Y-33098000D01*
G75*
G02*
X127320000Y-32848002I0J249998D01*
G01*
X127320000Y-29197998D01*
G75*
G02*
X127569998Y-28948000I249998J0D01*
G01*
X128970002Y-28948000D01*
G75*
G02*
X129220000Y-29197998I0J-249998D01*
G01*
X129220000Y-32848002D01*
G75*
G02*
X128970002Y-33098000I-249998J0D01*
G01*
G37*
G36*
G01*
X128970002Y-40048000D02*
X127569998Y-40048000D01*
G75*
G02*
X127320000Y-39798002I0J249998D01*
G01*
X127320000Y-36147998D01*
G75*
G02*
X127569998Y-35898000I249998J0D01*
G01*
X128970002Y-35898000D01*
G75*
G02*
X129220000Y-36147998I0J-249998D01*
G01*
X129220000Y-39798002D01*
G75*
G02*
X128970002Y-40048000I-249998J0D01*
G01*
G37*
%TD*%
%TO.C,C10*%
G36*
G01*
X133136402Y-47143700D02*
X131836398Y-47143700D01*
G75*
G02*
X131586400Y-46893702I0J249998D01*
G01*
X131586400Y-46068698D01*
G75*
G02*
X131836398Y-45818700I249998J0D01*
G01*
X133136402Y-45818700D01*
G75*
G02*
X133386400Y-46068698I0J-249998D01*
G01*
X133386400Y-46893702D01*
G75*
G02*
X133136402Y-47143700I-249998J0D01*
G01*
G37*
G36*
G01*
X133136402Y-50268700D02*
X131836398Y-50268700D01*
G75*
G02*
X131586400Y-50018702I0J249998D01*
G01*
X131586400Y-49193698D01*
G75*
G02*
X131836398Y-48943700I249998J0D01*
G01*
X133136402Y-48943700D01*
G75*
G02*
X133386400Y-49193698I0J-249998D01*
G01*
X133386400Y-50018702D01*
G75*
G02*
X133136402Y-50268700I-249998J0D01*
G01*
G37*
%TD*%
%TO.C,C9*%
G36*
G01*
X127074900Y-44312602D02*
X127074900Y-43012598D01*
G75*
G02*
X127324898Y-42762600I249998J0D01*
G01*
X128149902Y-42762600D01*
G75*
G02*
X128399900Y-43012598I0J-249998D01*
G01*
X128399900Y-44312602D01*
G75*
G02*
X128149902Y-44562600I-249998J0D01*
G01*
X127324898Y-44562600D01*
G75*
G02*
X127074900Y-44312602I0J249998D01*
G01*
G37*
G36*
G01*
X123949900Y-44312602D02*
X123949900Y-43012598D01*
G75*
G02*
X124199898Y-42762600I249998J0D01*
G01*
X125024902Y-42762600D01*
G75*
G02*
X125274900Y-43012598I0J-249998D01*
G01*
X125274900Y-44312602D01*
G75*
G02*
X125024902Y-44562600I-249998J0D01*
G01*
X124199898Y-44562600D01*
G75*
G02*
X123949900Y-44312602I0J249998D01*
G01*
G37*
%TD*%
%TO.C,C8*%
G36*
G01*
X64990600Y-67477199D02*
X64990600Y-69327201D01*
G75*
G02*
X64740601Y-69577200I-249999J0D01*
G01*
X62990599Y-69577200D01*
G75*
G02*
X62740600Y-69327201I0J249999D01*
G01*
X62740600Y-67477199D01*
G75*
G02*
X62990599Y-67227200I249999J0D01*
G01*
X64740601Y-67227200D01*
G75*
G02*
X64990600Y-67477199I0J-249999D01*
G01*
G37*
G36*
G01*
X59890600Y-67477199D02*
X59890600Y-69327201D01*
G75*
G02*
X59640601Y-69577200I-249999J0D01*
G01*
X57890599Y-69577200D01*
G75*
G02*
X57640600Y-69327201I0J249999D01*
G01*
X57640600Y-67477199D01*
G75*
G02*
X57890599Y-67227200I249999J0D01*
G01*
X59640601Y-67227200D01*
G75*
G02*
X59890600Y-67477199I0J-249999D01*
G01*
G37*
%TD*%
%TO.C,C7*%
G36*
G01*
X62430600Y-63032199D02*
X62430600Y-64882201D01*
G75*
G02*
X62180601Y-65132200I-249999J0D01*
G01*
X60430599Y-65132200D01*
G75*
G02*
X60180600Y-64882201I0J249999D01*
G01*
X60180600Y-63032199D01*
G75*
G02*
X60430599Y-62782200I249999J0D01*
G01*
X62180601Y-62782200D01*
G75*
G02*
X62430600Y-63032199I0J-249999D01*
G01*
G37*
G36*
G01*
X67530600Y-63032199D02*
X67530600Y-64882201D01*
G75*
G02*
X67280601Y-65132200I-249999J0D01*
G01*
X65530599Y-65132200D01*
G75*
G02*
X65280600Y-64882201I0J249999D01*
G01*
X65280600Y-63032199D01*
G75*
G02*
X65530599Y-62782200I249999J0D01*
G01*
X67280601Y-62782200D01*
G75*
G02*
X67530600Y-63032199I0J-249999D01*
G01*
G37*
%TD*%
D43*
%TO.C,C6*%
X213441300Y-58204100D03*
D44*
X203441300Y-58204100D03*
%TD*%
%TO.C,C5*%
G36*
G01*
X56753998Y-30160000D02*
X58054002Y-30160000D01*
G75*
G02*
X58304000Y-30409998I0J-249998D01*
G01*
X58304000Y-31235002D01*
G75*
G02*
X58054002Y-31485000I-249998J0D01*
G01*
X56753998Y-31485000D01*
G75*
G02*
X56504000Y-31235002I0J249998D01*
G01*
X56504000Y-30409998D01*
G75*
G02*
X56753998Y-30160000I249998J0D01*
G01*
G37*
G36*
G01*
X56753998Y-33285000D02*
X58054002Y-33285000D01*
G75*
G02*
X58304000Y-33534998I0J-249998D01*
G01*
X58304000Y-34360002D01*
G75*
G02*
X58054002Y-34610000I-249998J0D01*
G01*
X56753998Y-34610000D01*
G75*
G02*
X56504000Y-34360002I0J249998D01*
G01*
X56504000Y-33534998D01*
G75*
G02*
X56753998Y-33285000I249998J0D01*
G01*
G37*
%TD*%
%TO.C,C4*%
G36*
G01*
X63427100Y-41892200D02*
X63427100Y-42842200D01*
G75*
G02*
X63177100Y-43092200I-250000J0D01*
G01*
X62502100Y-43092200D01*
G75*
G02*
X62252100Y-42842200I0J250000D01*
G01*
X62252100Y-41892200D01*
G75*
G02*
X62502100Y-41642200I250000J0D01*
G01*
X63177100Y-41642200D01*
G75*
G02*
X63427100Y-41892200I0J-250000D01*
G01*
G37*
G36*
G01*
X65502100Y-41892200D02*
X65502100Y-42842200D01*
G75*
G02*
X65252100Y-43092200I-250000J0D01*
G01*
X64577100Y-43092200D01*
G75*
G02*
X64327100Y-42842200I0J250000D01*
G01*
X64327100Y-41892200D01*
G75*
G02*
X64577100Y-41642200I250000J0D01*
G01*
X65252100Y-41642200D01*
G75*
G02*
X65502100Y-41892200I0J-250000D01*
G01*
G37*
%TD*%
%TO.C,C3*%
G36*
G01*
X71020100Y-33462198D02*
X71020100Y-34762202D01*
G75*
G02*
X70770102Y-35012200I-249998J0D01*
G01*
X69945098Y-35012200D01*
G75*
G02*
X69695100Y-34762202I0J249998D01*
G01*
X69695100Y-33462198D01*
G75*
G02*
X69945098Y-33212200I249998J0D01*
G01*
X70770102Y-33212200D01*
G75*
G02*
X71020100Y-33462198I0J-249998D01*
G01*
G37*
G36*
G01*
X74145100Y-33462198D02*
X74145100Y-34762202D01*
G75*
G02*
X73895102Y-35012200I-249998J0D01*
G01*
X73070098Y-35012200D01*
G75*
G02*
X72820100Y-34762202I0J249998D01*
G01*
X72820100Y-33462198D01*
G75*
G02*
X73070098Y-33212200I249998J0D01*
G01*
X73895102Y-33212200D01*
G75*
G02*
X74145100Y-33462198I0J-249998D01*
G01*
G37*
%TD*%
D40*
%TO.C,C2*%
X106476800Y-24786600D03*
D39*
X106476800Y-19786600D03*
%TD*%
%TO.C,C1*%
G36*
G01*
X73683098Y-41704700D02*
X74983102Y-41704700D01*
G75*
G02*
X75233100Y-41954698I0J-249998D01*
G01*
X75233100Y-42779702D01*
G75*
G02*
X74983102Y-43029700I-249998J0D01*
G01*
X73683098Y-43029700D01*
G75*
G02*
X73433100Y-42779702I0J249998D01*
G01*
X73433100Y-41954698D01*
G75*
G02*
X73683098Y-41704700I249998J0D01*
G01*
G37*
G36*
G01*
X73683098Y-38579700D02*
X74983102Y-38579700D01*
G75*
G02*
X75233100Y-38829698I0J-249998D01*
G01*
X75233100Y-39654702D01*
G75*
G02*
X74983102Y-39904700I-249998J0D01*
G01*
X73683098Y-39904700D01*
G75*
G02*
X73433100Y-39654702I0J249998D01*
G01*
X73433100Y-38829698D01*
G75*
G02*
X73683098Y-38579700I249998J0D01*
G01*
G37*
%TD*%
D45*
X185293000Y-89408000D02*
X158877000Y-89408000D01*
X158877000Y-82677000D01*
X185293000Y-82677000D01*
X185293000Y-89408000D01*
D46*
G36*
X185293000Y-89408000D02*
G01*
X158877000Y-89408000D01*
X158877000Y-82677000D01*
X185293000Y-82677000D01*
X185293000Y-89408000D01*
G37*
D45*
X185293000Y-100203000D02*
X158877000Y-100203000D01*
X158877000Y-94107000D01*
X185293000Y-94107000D01*
X185293000Y-100203000D01*
D46*
G36*
X185293000Y-100203000D02*
G01*
X158877000Y-100203000D01*
X158877000Y-94107000D01*
X185293000Y-94107000D01*
X185293000Y-100203000D01*
G37*
D45*
X172339000Y-105977085D02*
X172339000Y-120015000D01*
X172341440Y-120039776D01*
X172348667Y-120063601D01*
X172360403Y-120085557D01*
X172376197Y-120104803D01*
X173265197Y-120993803D01*
X173284443Y-121009597D01*
X173306399Y-121021333D01*
X173330224Y-121028560D01*
X173355000Y-121031000D01*
X186133477Y-121031000D01*
X188468000Y-123119783D01*
X188468000Y-128397000D01*
X177927000Y-128397000D01*
X177927000Y-125222000D01*
X177924560Y-125197224D01*
X177917333Y-125173399D01*
X177905597Y-125151443D01*
X177889803Y-125132197D01*
X177870557Y-125116403D01*
X177848601Y-125104667D01*
X177824776Y-125097440D01*
X177800000Y-125095000D01*
X169856031Y-125095000D01*
X167894000Y-122887715D01*
X167894000Y-109855000D01*
X167891560Y-109830224D01*
X167884333Y-109806399D01*
X167872597Y-109784443D01*
X167856803Y-109765197D01*
X167837557Y-109749403D01*
X167815601Y-109737667D01*
X167791776Y-109730440D01*
X167767000Y-109728000D01*
X159004000Y-109728000D01*
X159004000Y-104013000D01*
X170006649Y-104013000D01*
X172339000Y-105977085D01*
D46*
G36*
X172339000Y-105977085D02*
G01*
X172339000Y-120015000D01*
X172341440Y-120039776D01*
X172348667Y-120063601D01*
X172360403Y-120085557D01*
X172376197Y-120104803D01*
X173265197Y-120993803D01*
X173284443Y-121009597D01*
X173306399Y-121021333D01*
X173330224Y-121028560D01*
X173355000Y-121031000D01*
X186133477Y-121031000D01*
X188468000Y-123119783D01*
X188468000Y-128397000D01*
X177927000Y-128397000D01*
X177927000Y-125222000D01*
X177924560Y-125197224D01*
X177917333Y-125173399D01*
X177905597Y-125151443D01*
X177889803Y-125132197D01*
X177870557Y-125116403D01*
X177848601Y-125104667D01*
X177824776Y-125097440D01*
X177800000Y-125095000D01*
X169856031Y-125095000D01*
X167894000Y-122887715D01*
X167894000Y-109855000D01*
X167891560Y-109830224D01*
X167884333Y-109806399D01*
X167872597Y-109784443D01*
X167856803Y-109765197D01*
X167837557Y-109749403D01*
X167815601Y-109737667D01*
X167791776Y-109730440D01*
X167767000Y-109728000D01*
X159004000Y-109728000D01*
X159004000Y-104013000D01*
X170006649Y-104013000D01*
X172339000Y-105977085D01*
G37*
M02*
