M48
; DRILL file {KiCad (5.1.8)-1} date 03/22/21 22:31:24
; FORMAT={-:-/ absolute / metric / decimal}
; #@! TF.CreationDate,2021-03-22T22:31:24+09:00
; #@! TF.GenerationSoftware,Kicad,Pcbnew,(5.1.8)-1
; #@! TF.FileFunction,Plated,1,4,PTH
FMAT,2
METRIC
T1C0.200
T2C0.400
T3C0.762
T4C0.850
T5C1.000
T6C1.100
T7C1.200
T8C1.300
T9C1.500
T10C1.700
T11C2.000
T12C2.500
T13C2.800
%
G90
G05
T1
X126.706Y-45.929
X126.706Y-47.229
X126.706Y-48.529
X126.706Y-49.829
X128.006Y-45.929
X128.006Y-47.229
X128.006Y-48.529
X128.006Y-49.829
T2
X13.598Y-38.989
X41.688Y-84.233
X43.688Y-93.408
X45.402Y-104.203
X45.974Y-98.044
X47.752Y-41.529
X47.752Y-53.213
X49.022Y-25.755
X51.308Y-93.853
X51.689Y-101.727
X51.816Y-75.057
X52.173Y-82.931
X52.959Y-72.517
X53.178Y-94.072
X55.118Y-99.314
X55.499Y-80.264
X55.88Y-101.854
X56.388Y-83.058
X57.404Y-98.044
X57.658Y-78.867
X58.42Y-68.58
X60.478Y-92.583
X61.233Y-58.768
X61.595Y-64.135
X62.738Y-76.835
X63.866Y-61.483
X63.866Y-63.515
X63.866Y-65.547
X63.866Y-67.071
X63.866Y-68.402
X69.866Y-29.921
X70.358Y-34.112
X74.295Y-39.37
X74.333Y-42.367
X75.87Y-61.417
X75.882Y-88.646
X77.153Y-59.817
X80.061Y-56.337
X80.772Y-54.737
X80.772Y-59.817
X80.772Y-64.897
X83.439Y-83.439
X83.439Y-89.535
X83.439Y-95.504
X83.439Y-107.505
X83.521Y-113.411
X83.629Y-101.473
X88.392Y-33.909
X90.817Y-147.778
X90.868Y-144.78
X91.63Y-86.042
X91.63Y-92.075
X91.63Y-109.982
X91.63Y-116.078
X91.694Y-98.044
X91.694Y-104.013
X92.456Y-32.385
X92.456Y-38.989
X92.456Y-46.024
X92.964Y-146.177
X93.154Y-144.907
X95.504Y-38.989
X98.629Y-38.989
X101.155Y-85.979
X101.155Y-91.948
X101.155Y-97.98
X101.155Y-103.95
X101.155Y-109.982
X101.155Y-115.951
X102.679Y-144.97
X103.632Y-86.233
X103.632Y-92.329
X103.632Y-98.171
X103.632Y-104.521
X103.632Y-110.363
X103.632Y-116.459
X103.661Y-89.183
X103.664Y-113.189
X103.676Y-83.166
X103.734Y-95.112
X103.734Y-101.114
X103.734Y-107.116
X105.664Y-142.748
X109.766Y-126.467
X109.791Y-123.38
X110.154Y-128.471
X112.585Y-123.253
X115.824Y-132.461
X116.84Y-42.037
X116.84Y-45.593
X116.84Y-48.641
X117.856Y-62.865
X117.856Y-67.945
X117.856Y-78.105
X117.856Y-83.185
X117.856Y-93.345
X117.856Y-98.425
X117.856Y-126.365
X117.856Y-131.445
X117.856Y-141.605
X118.009Y-145.682
X118.364Y-120.269
X121.666Y-147.891
X121.92Y-54.737
X128.219Y-51.994
X128.524Y-30.861
X129.819Y-51.994
X132.588Y-46.609
X134.62Y-46.609
X138.557Y-55.435
X138.684Y-58.547
X141.481Y-42.288
T3
X222.818Y-112.229
X224.088Y-112.229
X225.358Y-112.229
X222.818Y-138.229
X224.088Y-138.229
X225.358Y-138.229
X222.818Y-86.229
X224.088Y-86.229
X225.358Y-86.229
T4
X18.415Y-71.755
X18.415Y-74.255
X18.415Y-76.755
X18.415Y-79.255
X18.415Y-81.755
X29.972Y-69.215
X29.972Y-71.715
X29.972Y-74.215
X29.972Y-76.715
X29.972Y-79.215
X23.876Y-121.158
X23.876Y-123.658
X23.876Y-126.158
T5
X110.49Y-113.665
X110.49Y-118.665
X25.527Y-21.53
X25.527Y-24.07
X25.527Y-26.61
X25.527Y-29.15
X25.527Y-31.69
X25.527Y-34.23
X25.527Y-36.77
X25.527Y-39.31
X25.527Y-41.85
X25.527Y-44.39
X25.527Y-46.93
X25.527Y-49.47
X25.527Y-52.01
X25.527Y-54.55
X25.527Y-57.09
X28.067Y-21.53
X28.067Y-24.07
X28.067Y-26.61
X28.067Y-29.15
X28.067Y-31.69
X28.067Y-34.23
X28.067Y-36.77
X28.067Y-39.31
X28.067Y-41.85
X28.067Y-44.39
X28.067Y-46.93
X28.067Y-49.47
X28.067Y-52.01
X28.067Y-54.55
X28.067Y-57.09
X15.748Y-34.265
X15.748Y-36.805
X15.748Y-39.345
X15.748Y-41.885
X15.748Y-44.425
X18.288Y-34.265
X18.288Y-36.805
X18.288Y-39.345
X18.288Y-41.885
X18.288Y-44.425
X228.226Y-46.584
X228.226Y-50.584
X228.226Y-54.584
X230.726Y-46.584
X230.726Y-50.584
X230.726Y-54.584
X41.631Y-56.337
X41.631Y-58.877
X41.631Y-61.417
X41.631Y-63.957
X41.631Y-66.497
X41.631Y-69.037
X41.631Y-71.577
X41.631Y-74.117
X41.631Y-76.657
X41.631Y-79.197
X41.631Y-119.837
X41.631Y-122.377
X41.631Y-124.917
X41.631Y-127.457
X41.631Y-129.997
X41.631Y-132.537
X41.631Y-135.077
X41.631Y-137.617
X41.631Y-140.157
X41.631Y-142.697
X44.171Y-56.337
X44.171Y-58.877
X44.171Y-61.417
X44.171Y-63.957
X44.171Y-66.497
X44.171Y-69.037
X44.171Y-71.577
X44.171Y-74.117
X44.171Y-76.657
X44.171Y-79.197
X44.171Y-119.837
X44.171Y-122.377
X44.171Y-124.917
X44.171Y-127.457
X44.171Y-129.997
X44.171Y-132.537
X44.171Y-135.077
X44.171Y-137.617
X44.171Y-140.157
X44.171Y-142.697
X84.811Y-56.337
X84.811Y-58.877
X84.811Y-61.417
X84.811Y-63.957
X84.811Y-66.497
X84.811Y-69.037
X84.811Y-71.577
X84.811Y-74.117
X84.811Y-76.657
X84.811Y-79.197
X84.811Y-119.837
X84.811Y-122.377
X84.811Y-124.917
X84.811Y-127.457
X84.811Y-129.997
X84.811Y-132.537
X84.811Y-135.077
X84.811Y-137.617
X84.811Y-140.157
X84.811Y-142.697
X87.351Y-56.337
X87.351Y-58.877
X87.351Y-61.417
X87.351Y-63.957
X87.351Y-66.497
X87.351Y-69.037
X87.351Y-71.577
X87.351Y-74.117
X87.351Y-76.657
X87.351Y-79.197
X87.351Y-119.837
X87.351Y-122.377
X87.351Y-124.917
X87.351Y-127.457
X87.351Y-129.997
X87.351Y-132.537
X87.351Y-135.077
X87.351Y-137.617
X87.351Y-140.157
X87.351Y-142.697
X143.831Y-53.759
X148.831Y-53.759
X37.211Y-21.59
X39.751Y-21.59
X32.258Y-118.618
X32.258Y-121.158
X32.258Y-123.698
X126.055Y-65.437
X126.055Y-67.977
X126.055Y-73.057
X126.055Y-75.597
X126.055Y-80.677
X126.055Y-83.217
X126.055Y-88.297
X126.055Y-90.797
X126.055Y-95.877
X126.055Y-98.417
X126.055Y-100.957
X126.055Y-106.037
X126.055Y-108.577
X126.055Y-113.657
X126.055Y-118.737
X126.055Y-121.277
X126.055Y-123.817
X126.055Y-126.357
X126.055Y-128.897
X126.055Y-131.437
X126.055Y-133.977
X126.055Y-136.517
X126.055Y-139.057
T6
X134.874Y-22.352
X137.414Y-22.352
X139.954Y-22.352
T7
X120.244Y-19.685
X120.244Y-24.685
X189.341Y-46.219
X189.341Y-56.219
X106.477Y-19.787
X106.477Y-24.787
T8
X226.476Y-44.584
X226.476Y-56.584
X232.476Y-44.584
X232.476Y-56.584
T9
X29.464Y-90.17
X54.013Y-29.921
X54.013Y-50.241
X61.633Y-29.921
X66.713Y-29.921
X74.333Y-50.241
X29.464Y-100.584
X92.456Y-32.385
X92.456Y-42.545
X92.456Y-52.705
X112.776Y-32.385
X112.776Y-40.005
X112.776Y-45.085
X29.464Y-110.617
T10
X26.924Y-87.63
X26.924Y-92.71
X32.004Y-87.63
X32.004Y-92.71
X26.924Y-98.044
X26.924Y-103.124
X32.004Y-98.044
X32.004Y-103.124
X26.924Y-108.077
X26.924Y-113.157
X32.004Y-108.077
X32.004Y-113.157
X67.53Y-19.685
X71.49Y-19.685
X75.45Y-19.685
X79.41Y-19.685
X83.37Y-19.685
X87.33Y-19.685
X91.29Y-19.685
X95.25Y-19.685
T11
X203.441Y-58.204
X213.441Y-58.204
T12
X161.955Y-76.357
X161.955Y-86.357
X161.955Y-96.357
X161.955Y-106.357
X161.955Y-116.357
X161.955Y-126.357
X161.955Y-136.357
T13
X181.961Y-73.324
X181.961Y-86.324
X181.961Y-99.324
X181.961Y-112.324
X181.961Y-125.324
X181.961Y-138.324
X155.091Y-47.469
X161.841Y-54.969
X159.506Y-33.329
X172.506Y-33.329
X185.506Y-33.329
X198.506Y-33.329
X211.506Y-33.329
X224.506Y-33.329
T0
M30
